<svg width="188" height="20" viewBox="0 0 188 20" fill="none" xmlns="http://www.w3.org/2000/svg"><path d="M126.714 14.596h-1.5v4.33h-.737v-4.33h-1.5v-.639h3.734l.003.639Zm4.917 2.483v-3.122h.753v3.094a1.14 1.14 0 0 0 .677 1.203c.151.066.315.1.48.097a1.156 1.156 0 0 0 1.122-.81c.049-.159.063-.326.042-.49v-3.094h.724v3.122a1.783 1.783 0 0 1-.501 1.41 1.784 1.784 0 0 1-1.399.528 1.78 1.78 0 0 1-1.898-1.938Zm.625-4.074a.572.572 0 0 1 .482-.483.567.567 0 0 1 .477.483.567.567 0 0 1-.477.482.572.572 0 0 1-.482-.482Zm1.618 0a.574.574 0 0 1 .483-.483.563.563 0 0 1 .476.483.567.567 0 0 1-.476.482.572.572 0 0 1-.483-.482Zm8.403 3.99h-.7v1.931h-.738v-4.969h1.42a1.552 1.552 0 0 1 1.647 1.52 1.501 1.501 0 0 1-.9 1.37l1.32 2.08h-.908l-1.141-1.932Zm-.7-.668h.6c.618 0 .987-.263.987-.85 0-.555-.4-.853-.987-.853h-.6v1.703Zm10.452 2.599-1.831-2.343v2.343h-.738v-4.969h.738V16.3l1.853-2.343h.88l-1.98 2.427 2.072 2.541-.994.001Zm6.053-5.906a.596.596 0 0 1 .511-.512.601.601 0 0 1 .5.512.598.598 0 0 1-.5.512.599.599 0 0 1-.511-.512Zm.142.937h.738v4.97h-.738v-4.97Zm8.137 2.813v2.151h-.739v-2.15l-1.739-2.819h.809l1.327 2.221 1.32-2.22h.76l-1.738 2.817Zm9.566 1.516v.639h-2.91v-4.969h2.839v.639h-2.1v1.5h1.959v.64h-1.959v1.547l2.171.004Z" fill="#687CA3"/><path d="M89.287 9.885h-3.256l5.57 9.646h5.568v-2.82h-3.94l-3.942-6.826Z" fill="#414E74"/><path d="M80.198 3.06h3.941V.241H78.57l-5.569 9.646h3.256l3.941-6.829Z" fill="#2A3553"/><path d="M76.256 9.885H73l5.57 9.646h5.568v-2.82h-3.941l-3.941-6.826Z" fill="#414E74"/><path d="M88.08 16.711h-3.942v2.82h5.57l5.568-9.646H92.02l-3.94 6.826Z" fill="#394565"/><path d="M92.02 9.885h3.256L89.707.239h-5.569v2.82h3.941l3.941 6.826Z" fill="#414E74"/><path d="M93.228 3.06h3.941V.241H91.6l-5.569 9.646h3.256l3.941-6.829Z" fill="#414E74"/><path d="M101.111 16.711H97.17v2.82h5.569l5.569-9.646h-3.256l-3.941 6.826Z" fill="#394565"/><path d="M105.057 9.885h3.256L102.744.239h-5.57v2.82h3.942l3.941 6.826Z" fill="#2A3553"/><path d="M116.523 6.921c0 1.636-1.276 2.7-3.072 2.7h-2.858V.314h2.393a2.465 2.465 0 0 1 2.738 2.393 2.113 2.113 0 0 1-.943 1.808 2.495 2.495 0 0 1 1.742 2.406Zm-4.547-5.411v2.74h.864c.957 0 1.5-.453 1.5-1.357 0-.904-.545-1.383-1.5-1.383h-.864Zm1.383 6.913c1.1 0 1.781-.492 1.781-1.5 0-.944-.678-1.475-1.781-1.475h-1.383v2.978l1.383-.003Zm9.95.001v1.2h-5.185V.314h1.383v8.11h3.802Zm.276-3.457a4.473 4.473 0 0 1 2.7-4.463 4.485 4.485 0 0 1 1.806-.363 4.486 4.486 0 0 1 4.268 3 4.46 4.46 0 0 1 .239 1.826 4.472 4.472 0 0 1-2.7 4.463 4.486 4.486 0 0 1-1.807.363 4.485 4.485 0 0 1-4.267-2.999 4.466 4.466 0 0 1-.239-1.827Zm7.599 0c0-2.14-1.235-3.576-3.099-3.576s-3.101 1.436-3.101 3.576 1.237 3.577 3.101 3.577c1.864 0 3.099-1.437 3.099-3.577Zm2.744.04a4.806 4.806 0 0 1 3.133-4.571 4.807 4.807 0 0 1 1.932-.295 4.882 4.882 0 0 1 2.247.505V2.11a4.355 4.355 0 0 0-2.273-.638 3.325 3.325 0 0 0-3.409 2.105 3.335 3.335 0 0 0-.221 1.405 3.308 3.308 0 0 0 3.416 3.55 4.716 4.716 0 0 0 2.792-.8v1.343c-.88.477-1.871.71-2.871.677a4.687 4.687 0 0 1-4.399-2.92 4.694 4.694 0 0 1-.347-1.824Zm13.548 4.613-3.43-4.387V9.62h-1.383V.314h1.386v4.387l3.47-4.387h1.649l-3.71 4.547 3.882 4.76h-1.864Zm2.403-4.613a4.806 4.806 0 0 1 1.478-3.531A4.802 4.802 0 0 1 154.944.14a4.877 4.877 0 0 1 2.247.505V2.11a4.35 4.35 0 0 0-2.273-.638 3.326 3.326 0 0 0-3.629 3.51 3.308 3.308 0 0 0 3.417 3.55 4.716 4.716 0 0 0 2.792-.8v1.343a5.63 5.63 0 0 1-2.871.677 4.689 4.689 0 0 1-4.748-4.744ZM166.051.314v9.307h-1.383v-4.1h-4.613v4.1h-1.383V.314h1.383V4.33h4.613V.314h1.383Zm7.207 7.086h-3.67l-.851 2.22h-1.422l3.683-9.307h.93l3.683 9.307h-1.489l-.864-2.22Zm-.439-1.144-.625-1.608a71.297 71.297 0 0 1-.785-2.087c-.266.731-.532 1.422-.785 2.1l-.611 1.6 2.806-.005ZM176.67.314h1.382v9.307h-1.382V.314Zm11.039 0v9.307h-1.6l-4.693-7.259c.027 1.236.027 2.473.027 3.71v3.55h-1.383V.313h1.6l4.693 7.26c-.027-1.277-.027-2.554-.027-3.843V.314h1.383Z" fill="#687CA3"/><path d="M66.883 17.528H0v1.5h66.883v-1.5Z" fill="url(#a)"/><path d="M66.883.528H0v1.5h66.883v-1.5Z" fill="url(#b)"/><path d="M8.919 14.007h-1.17l-.119-4.28-.047-1.538c-.213.52-.426 1.029-.65 1.549L5.1 14.008h-.816l-1.869-4.4L1.8 8.176l-.035 1.465-.118 4.364H.5l.236-8.278h1.277l2.212 5.144.508 1.22.532-1.244 2.188-5.12h1.23l.236 8.28Zm7.088-1.112v1.065H11.16V5.68h4.73v1.066h-3.5v2.507h3.264v1.064H12.39v2.578h3.618Zm10.308 1.112h-1.17l-.119-4.28-.047-1.538c-.213.52-.426 1.029-.65 1.549l-1.833 4.27h-.816l-1.869-4.4-.615-1.431-.035 1.465-.118 4.364h-1.147l.236-8.278h1.277l2.212 5.144.508 1.22.532-1.244 2.188-5.12h1.23l.236 8.28Zm7.515-2.448a2.452 2.452 0 0 1-2.732 2.4h-2.542v-8.28h2.128a2.193 2.193 0 0 1 2.437 2.13 1.886 1.886 0 0 1-.84 1.609 2.226 2.226 0 0 1 1.55 2.141Zm-4.045-4.813v2.436h.77c.85 0 1.335-.4 1.335-1.206 0-.806-.485-1.23-1.336-1.23h-.769Zm1.23 6.149c.982 0 1.585-.437 1.585-1.336 0-.839-.6-1.312-1.585-1.312h-1.23v2.648h1.23Zm9.551 0v1.065h-4.85V5.68h4.732v1.066h-3.5v2.507h3.264v1.064h-3.264v2.578h3.618Zm4.158-2.152h-1.16v3.217h-1.228V5.68H44.7a2.585 2.585 0 0 1 2.743 2.533 2.5 2.5 0 0 1-1.5 2.282l2.2 3.465H46.63l-1.906-3.217Zm-1.16-1.111h1.007c1.028 0 1.643-.438 1.643-1.42 0-.922-.662-1.418-1.643-1.418h-1.006v2.838Zm8.828.188a3.987 3.987 0 0 1 4.01-4.292 3.987 3.987 0 0 1 4.008 4.293 3.986 3.986 0 0 1-4.009 4.292 3.986 3.986 0 0 1-4.009-4.292Zm6.764 0c0-1.899-1.1-3.181-2.755-3.181-1.655 0-2.756 1.278-2.756 3.182s1.1 3.181 2.756 3.181c1.656 0 2.755-1.278 2.755-3.181Zm4.369-3.074v2.626h3v1.063h-3v3.525h-1.23V5.68h4.588v1.066h-3.358Z" fill="#687CA3"/><defs><linearGradient id="a" x1="0" y1="33.251" x2=".199" y2="29.259" gradientUnits="userSpaceOnUse"><stop stop-color="#414E74"/><stop offset="1" stop-color="#2A3553"/></linearGradient><linearGradient id="b" x1="0" y1="16.251" x2=".199" y2="12.258" gradientUnits="userSpaceOnUse"><stop stop-color="#414E74"/><stop offset="1" stop-color="#2A3553"/></linearGradient></defs></svg>