<svg width="183" height="24" viewBox="0 0 183 24" fill="none" xmlns="http://www.w3.org/2000/svg">
<path d="M180.114 0H142.265C141.818 0.00502283 141.379 0.111457 140.98 0.311005C140.582 0.510554 140.234 0.797937 139.965 1.15119L133.724 9.78699C133.256 10.3626 133 11.08 133 11.8197C133 12.5594 133.256 13.2768 133.724 13.8524L139.966 22.4874C140.226 22.8534 140.57 23.1527 140.97 23.3605C141.369 23.5682 141.813 23.6785 142.265 23.682H180.114C180.44 23.682 180.763 23.6183 181.064 23.4947C181.365 23.371 181.639 23.1897 181.869 22.9612C182.1 22.7327 182.282 22.4614 182.407 22.1628C182.532 21.8642 182.596 21.5442 182.596 21.221V2.45931C182.596 1.80692 182.334 1.1814 181.868 0.720245C181.403 0.25909 180.772 -1.50136e-07 180.114 0Z" fill="#357CE1"/>
<path d="M155.097 5.50115V18.4069H154.978L147.408 11.105V18.1873H144.845V5.30078H144.971L152.526 12.5868V5.50115H155.097Z" fill="white"/>
<path d="M159.26 8.03482V10.5843H163.659V13.117H159.26V18.1916H156.697V5.50293H164.386V8.0365L159.26 8.03482Z" fill="white"/>
<path d="M174.511 8.05093H171.379V18.176H168.807V8.05093H165.666V5.5332H174.507L174.511 8.05093Z" fill="white"/>
<g clip-path="url(#clip0_732_43823)">
<path d="M132.328 0.171876C131.73 0.171529 131.141 0.314235 130.61 0.588064C130.079 0.861893 129.621 1.25887 129.275 1.74585L125.268 7.34017L127.571 10.5464L134.989 0.173198L132.328 0.171876Z" fill="#068BDF"/>
<path d="M134.712 23.3638L118.274 0.416315C118.221 0.341332 118.15 0.280194 118.068 0.238026C117.986 0.195857 117.895 0.173853 117.803 0.173828H114.086C114.033 0.174729 113.98 0.190252 113.935 0.218721C113.889 0.247189 113.853 0.287542 113.829 0.335376C113.805 0.38321 113.794 0.436726 113.798 0.490144C113.802 0.543562 113.821 0.594852 113.852 0.638464L121.787 11.7133C121.847 11.797 121.879 11.8975 121.879 12.0005C121.879 12.1035 121.847 12.2039 121.787 12.2876L113.852 23.3625C113.808 23.4256 113.79 23.5035 113.803 23.5795C113.815 23.6555 113.857 23.7235 113.92 23.7688C113.968 23.8041 114.026 23.8235 114.086 23.8244H117.813C117.905 23.8244 117.996 23.8023 118.078 23.7601C118.159 23.718 118.23 23.6569 118.284 23.5819L124.046 15.5277C124.073 15.4903 124.108 15.4597 124.149 15.4386C124.189 15.4175 124.235 15.4065 124.28 15.4065C124.326 15.4065 124.372 15.4175 124.412 15.4386C124.453 15.4597 124.488 15.4903 124.515 15.5277L130.279 23.5819C130.332 23.6569 130.403 23.718 130.485 23.7601C130.567 23.8023 130.658 23.8244 130.75 23.8244H134.476C134.53 23.8235 134.582 23.808 134.627 23.7795C134.673 23.751 134.71 23.7107 134.734 23.6628C134.758 23.615 134.768 23.5615 134.764 23.5081C134.76 23.4546 134.742 23.4034 134.711 23.3597L134.712 23.3638Z" fill="#2A3B57"/>
<path d="M110.704 20.3807C110.705 20.3027 110.676 20.2272 110.622 20.1708C110.568 20.1145 110.493 20.0818 110.415 20.08H98.4952C98.4215 20.0769 98.352 20.0451 98.3014 19.9915C98.2508 19.9378 98.2231 19.8666 98.2242 19.7929V14.1593C98.2242 14.0828 98.2546 14.0094 98.3087 13.9553C98.3628 13.9012 98.4362 13.8708 98.5128 13.8708H108.5C108.576 13.8708 108.65 13.8404 108.704 13.7863C108.758 13.7321 108.788 13.6588 108.788 13.5823L108.779 10.4248C108.779 10.387 108.771 10.3495 108.757 10.3146C108.742 10.2797 108.721 10.2479 108.694 10.2213C108.668 10.1946 108.636 10.1734 108.601 10.1591C108.566 10.1447 108.528 10.1374 108.49 10.1376H98.5128C98.4356 10.1332 98.363 10.0997 98.3095 10.0439C98.2559 9.98813 98.2255 9.91418 98.2242 9.83689V4.20603C98.2246 4.12975 98.2551 4.05667 98.3092 4.00286C98.3633 3.94904 98.4365 3.91886 98.5128 3.91886H110.421C110.497 3.91886 110.571 3.88847 110.625 3.83437C110.679 3.78026 110.709 3.70684 110.709 3.63032V0.482331C110.711 0.404241 110.681 0.328777 110.627 0.272418C110.573 0.21606 110.499 0.183418 110.421 0.181641H94.7837C94.7058 0.183419 94.6319 0.215858 94.5778 0.271922C94.5238 0.327987 94.4941 0.403151 94.4951 0.481008V23.5355C94.4951 23.5733 94.5026 23.6108 94.5171 23.6457C94.5317 23.6806 94.5529 23.7124 94.5797 23.7391C94.6065 23.7657 94.6384 23.7868 94.6734 23.8012C94.7084 23.8155 94.7459 23.8229 94.7837 23.8227H110.422C110.498 23.8227 110.571 23.7924 110.625 23.7386C110.679 23.6847 110.709 23.6117 110.709 23.5355L110.704 20.3807Z" fill="#2A3B57"/>
<path d="M83.5083 0.175021H74.4329C74.355 0.1768 74.2809 0.209238 74.2269 0.265303C74.1729 0.321368 74.1432 0.39649 74.1443 0.474348V23.5289L74.1537 23.537C74.1537 23.5748 74.1612 23.6123 74.1757 23.6472C74.1902 23.6821 74.2116 23.7139 74.2384 23.7405C74.2652 23.7672 74.297 23.7884 74.332 23.8027C74.367 23.8171 74.4045 23.8243 74.4423 23.8242H77.593C77.6691 23.8242 77.7422 23.7939 77.796 23.74C77.8499 23.6862 77.8802 23.6132 77.8802 23.537V15.8878C77.88 15.8536 77.8866 15.8196 77.8996 15.7879C77.9126 15.7562 77.9317 15.7273 77.9558 15.703C77.98 15.6787 78.0088 15.6595 78.0404 15.6463C78.072 15.6332 78.106 15.6264 78.1403 15.6264C80.0583 15.6359 82.6821 15.6373 83.6831 15.5993C87.1223 15.4639 91.572 12.4933 91.3891 7.59659C91.2831 5.58301 90.4048 3.68786 88.9369 2.30549C87.469 0.923111 85.5246 0.160033 83.5083 0.175021ZM83.6912 11.8594H78.1484C78.079 11.8594 78.0125 11.8318 77.9635 11.7828C77.9145 11.7338 77.887 11.6673 77.887 11.598V4.17771C77.887 4.10838 77.9145 4.04188 77.9635 3.99285C78.0125 3.94382 78.079 3.91629 78.1484 3.91629H83.5774C84.5687 3.90334 85.5301 4.25485 86.2793 4.9041C87.0284 5.55335 87.513 6.45512 87.6411 7.43814C87.7043 7.99467 87.6491 8.55824 87.4791 9.09194C87.3092 9.62564 87.0283 10.1174 86.6549 10.5349C86.2816 10.9524 85.8242 11.2862 85.3127 11.5145C84.8012 11.7428 84.2472 11.8603 83.6871 11.8594H83.6912Z" fill="#2A3B57"/>
<path d="M66.7891 0.467595L60.466 11.4192C60.443 11.4588 60.4101 11.4917 60.3703 11.5146C60.3306 11.5375 60.2856 11.5495 60.2398 11.5495C60.194 11.5495 60.149 11.5375 60.1093 11.5146C60.0696 11.4917 60.0365 11.4588 60.0136 11.4192L53.6905 0.467595C53.6396 0.379394 53.5663 0.306172 53.4781 0.255284C53.3899 0.204396 53.2898 0.177653 53.188 0.177735H49.7108C49.66 0.177813 49.6101 0.191242 49.5661 0.216716C49.5221 0.24219 49.4855 0.278777 49.4601 0.32283C49.4347 0.366883 49.4214 0.416873 49.4214 0.467719C49.4214 0.518565 49.4348 0.568491 49.4602 0.612525L58.2527 15.8418C58.3289 15.974 58.369 16.124 58.3691 16.2766V23.5316C58.3691 23.6085 58.3997 23.6822 58.4541 23.7366C58.5084 23.7909 58.5821 23.8215 58.659 23.8215H61.8151C61.892 23.8215 61.9657 23.7909 62.0201 23.7366C62.0745 23.6822 62.105 23.6085 62.105 23.5316V16.2834C62.1051 16.1307 62.1452 15.9808 62.2215 15.8486L71.018 0.612525C71.0434 0.568491 71.0568 0.518565 71.0568 0.467719C71.0568 0.416873 71.0435 0.366883 71.0181 0.32283C70.9927 0.278777 70.9562 0.24219 70.9122 0.216716C70.8682 0.191242 70.8183 0.177813 70.7674 0.177735H67.2902C67.1886 0.177891 67.0888 0.204739 67.0009 0.255615C66.9129 0.306491 66.8399 0.379593 66.7891 0.467595Z" fill="#2A3B57"/>
<path d="M44.9252 7.22777C45.0203 7.79692 44.9901 8.37993 44.8369 8.93626C44.6838 9.49259 44.4112 10.0089 44.0383 10.4491C43.6653 10.8894 43.2008 11.2431 42.6772 11.4857C42.1536 11.7282 41.5835 11.8538 41.0065 11.8535H38.0061C37.9654 11.8535 37.9253 11.8642 37.8901 11.8846C37.8548 11.905 37.8254 11.9343 37.8051 11.9696C37.7848 12.0049 37.7741 12.0449 37.7742 12.0857C37.7743 12.1264 37.7851 12.1665 37.8056 12.2017L39.782 15.626L44.3739 23.5799C44.416 23.6529 44.4766 23.7135 44.5496 23.7556C44.6227 23.7977 44.7055 23.8198 44.7897 23.8197H48.4863C48.5201 23.8197 48.5533 23.8108 48.5825 23.7939C48.6118 23.7771 48.636 23.7528 48.6529 23.7235C48.6698 23.6943 48.6787 23.6611 48.6787 23.6274C48.6787 23.5936 48.6698 23.5604 48.6529 23.5312L43.8375 15.1898C43.8212 15.1618 43.811 15.1306 43.8077 15.0983C43.8043 15.0661 43.8078 15.0335 43.8179 15.0027C43.828 14.9718 43.8445 14.9435 43.8663 14.9195C43.8881 14.8955 43.9148 14.8764 43.9445 14.8634C45.4194 14.2594 46.6697 13.2115 47.5222 11.8649C48.3746 10.5183 48.7868 8.93977 48.7017 7.34831C48.5397 5.38113 47.6399 3.54793 46.1828 2.21644C44.7257 0.884944 42.819 0.153643 40.8452 0.169188H31.7576C31.6797 0.170966 31.6057 0.203405 31.5517 0.25947C31.4977 0.315534 31.4679 0.390657 31.469 0.468515V23.5231L31.4785 23.5312C31.4785 23.569 31.486 23.6064 31.5005 23.6414C31.515 23.6763 31.5363 23.708 31.5631 23.7347C31.5899 23.7614 31.6217 23.7825 31.6567 23.7969C31.6917 23.8112 31.7292 23.8185 31.767 23.8183H34.9177C34.994 23.8183 35.0672 23.7881 35.1213 23.7343C35.1753 23.6805 35.2059 23.6074 35.2062 23.5312V4.20305C35.2062 4.16516 35.2137 4.12764 35.2282 4.09263C35.2427 4.05763 35.264 4.0258 35.2908 3.999C35.3176 3.97221 35.3494 3.95096 35.3844 3.93646C35.4194 3.92196 35.4569 3.91451 35.4948 3.91451H40.913C41.8653 3.90405 42.7906 4.23099 43.525 4.83742C44.2593 5.44385 44.7554 6.29064 44.9252 7.22777Z" fill="#2A3B57"/>
<path d="M18.9894 20.2778C16.8183 20.2606 14.741 19.3906 13.2056 17.8555C11.6702 16.3204 10.7997 14.2433 10.7819 12.0722C10.7641 9.9011 11.6005 7.81004 13.1106 6.25003C14.6206 4.69003 16.6834 3.78612 18.854 3.73331C20.07 3.70671 21.2768 3.95135 22.3865 4.44949C23.4961 4.94762 24.4809 5.68675 25.2691 6.6131C25.3179 6.66445 25.3831 6.69703 25.4534 6.7052C25.5237 6.71337 25.5946 6.69659 25.6538 6.65779L28.2858 4.89688C28.3495 4.85464 28.3938 4.78881 28.4091 4.71388C28.4243 4.63896 28.4092 4.56105 28.367 4.49727L28.3521 4.47698C26.7958 2.5411 24.6771 1.13591 22.2883 0.455311C19.8995 -0.225285 17.3584 -0.147755 15.0155 0.677212C12.6727 1.50218 10.6435 3.03392 9.20819 5.06108C7.77283 7.08823 7.00195 9.51087 7.00195 11.9947C7.00195 14.4786 7.77283 16.9012 9.20819 18.9284C10.6435 20.9556 12.6727 22.4873 15.0155 23.3123C17.3584 24.1372 19.8995 24.2148 22.2883 23.5342C24.6771 22.8536 26.7958 21.4484 28.3521 19.5125C28.3758 19.4828 28.3933 19.4486 28.4038 19.412C28.4142 19.3755 28.4173 19.3372 28.4129 19.2995C28.4085 19.2617 28.3967 19.2252 28.3781 19.192C28.3595 19.1588 28.3346 19.1297 28.3047 19.1061L28.2844 19.0926L25.6525 17.3317C25.5933 17.2929 25.5223 17.2761 25.452 17.2843C25.3817 17.2924 25.3165 17.325 25.2678 17.3764C24.4922 18.284 23.529 19.0128 22.4447 19.5125C21.3604 20.0122 20.1806 20.271 18.9867 20.2711" fill="#2A3B57"/>
<path d="M-0.00268555 23.5331V0.173828C0.986842 0.17598 1.93514 0.570469 2.63421 1.27081C3.33328 1.97115 3.72608 2.92015 3.72643 3.90968V23.5304C3.72643 23.5683 3.71894 23.6058 3.70444 23.6408C3.68994 23.6758 3.66869 23.7076 3.6419 23.7344C3.6151 23.7612 3.58331 23.7825 3.54831 23.797C3.5133 23.8115 3.47578 23.8189 3.43789 23.8189H0.287216C0.249277 23.8191 0.211682 23.8118 0.176596 23.7973C0.14151 23.7829 0.109628 23.7617 0.0828009 23.7348C0.0559735 23.708 0.0347342 23.6761 0.0202982 23.6411C0.00586227 23.606 -0.00150079 23.5684 -0.0013214 23.5304" fill="#2A3B57"/>
</g>
<defs>
<clipPath id="clip0_732_43823">
<rect width="134.983" height="24" fill="white"/>
</clipPath>
</defs>
</svg>
