<svg width="61" height="50" viewBox="0 0 61 50" fill="none" xmlns="http://www.w3.org/2000/svg"><path d="M.763 1.075h9.281v3.09H3.808v3.1h4.647v3.09H3.808v3.113H10v3.068H.718L.763 1.075Zm10.626 15.439V1.119h5.024a6.003 6.003 0 0 1 2.223.411 5.659 5.659 0 0 1 1.768 1.112c.3.288.572.604.81.945.223.341.388.717.49 1.111.13.474.194.964.189 1.456v.4a5.046 5.046 0 0 1-.978 2.935c-.22.325-.486.617-.79.867a4.61 4.61 0 0 1-1.055.556l3.579 5.557h-3.78l-4.445-6.813v6.813l-3.035.045Zm5.313-8.07a1.923 1.923 0 0 0 1.434-.645 2.023 2.023 0 0 0-.834-3.457 3.545 3.545 0 0 0-1.111-.166h-1.745v4.257h2.223l.033.011ZM28.107 1.12a7.836 7.836 0 0 1 3.156.61c.921.39 1.762.948 2.479 1.645a7.425 7.425 0 0 1 2.056 5.447 7.348 7.348 0 0 1-2.056 5.435 7.78 7.78 0 0 1-5.635 2.223h-4.09V1.12h4.09Zm4.601 7.68a4.39 4.39 0 0 0-4.613-4.624h-.944v9.248h1.033a4.447 4.447 0 0 0 3.335-1.268 4.569 4.569 0 0 0 1.19-3.356Zm4.446-7.725h9.293v3.09h-6.192v3.1h4.636v3.09h-4.636v3.113h6.192v3.068h-9.293V1.075ZM47.758.786l9.27 8.892V1.075h3.101v15.75l-9.28-8.892v8.547h-3.09V.786ZM.763 24.55h9.281v3.079H3.808v3.112h4.647v3.08H3.808v3.111H10V40H.718l.045-15.45Zm10.626 15.428V24.583h5.024a6.012 6.012 0 0 1 2.223.423 5.634 5.634 0 0 1 1.768 1.111c.298.294.57.614.81.956.221.343.387.718.49 1.112.13.478.194.971.189 1.467v.4a5.046 5.046 0 0 1-.978 2.934 4.28 4.28 0 0 1-.79.856c-.325.234-.68.425-1.055.567l3.579 5.558h-3.78l-4.445-6.803v6.803l-3.035.01Zm5.313-8.07a1.913 1.913 0 0 0 1.434-.633c.39-.416.604-.965.6-1.534a1.9 1.9 0 0 0-1.434-1.923 3.545 3.545 0 0 0-1.111-.167h-1.745v4.257h2.256Zm13.538 5.124a3.145 3.145 0 0 0 3.113-3.1v-9.349h3.112v9.326a5.959 5.959 0 0 1-1.823 4.446 6.258 6.258 0 0 1-8.803 0 5.957 5.957 0 0 1-1.823-4.446v-9.326h3.135v9.315a3.146 3.146 0 0 0 3.112 3.101l-.022.033Zm14.161 2.979a7.325 7.325 0 0 1-4.301-2.223 7.426 7.426 0 0 1-2.29-5.557 7.58 7.58 0 0 1 2.29-5.558 7.482 7.482 0 0 1 5.557-2.3 7.636 7.636 0 0 1 3.09.622 8.403 8.403 0 0 1 2.446 1.656l-2.223 2.223a4.535 4.535 0 0 0-3.335-1.378 4.446 4.446 0 0 0-3.334 1.378 4.679 4.679 0 0 0 0 6.67 4.446 4.446 0 0 0 3.334 1.366 4.581 4.581 0 0 0 3.335-1.378l2.223 2.223a7.78 7.78 0 0 1-2.501 1.69 6.646 6.646 0 0 1-1.856.51 6.592 6.592 0 0 1-.512 2.613 4.69 4.69 0 0 1-1.278 1.856l-.778.645-1.879-1.956.278-.09c.43-.256.807-.591 1.112-.989.412-.593.63-1.3.622-2.023Z" fill="#4D4D4D"/><path d="M.763 18.236a3.423 3.423 0 0 1 2.223 1.112 4.847 4.847 0 0 0 7.447 0 2.712 2.712 0 0 1 4.446 0 4.846 4.846 0 0 0 7.447 0 2.712 2.712 0 0 1 4.447 0 4.846 4.846 0 0 0 7.447 0 3.445 3.445 0 0 1 2.223-1.111v-2.224a4.536 4.536 0 0 0-3.735 1.757 2.7 2.7 0 0 1-4.446 0 5.723 5.723 0 0 0-2.223-1.523 4.781 4.781 0 0 0-1.467-.234 4.58 4.58 0 0 0-1.823.356 6.125 6.125 0 0 0-1.9 1.4 2.701 2.701 0 0 1-4.447 0 6.258 6.258 0 0 0-1.9-1.4 4.68 4.68 0 0 0-1.835-.356 4.73 4.73 0 0 0-1.111.134 5.369 5.369 0 0 0-2.623 1.623 2.7 2.7 0 0 1-4.446 0 4.524 4.524 0 0 0-3.724-1.757v2.223Zm0 23.743a3.424 3.424 0 0 1 2.223 1.111 4.824 4.824 0 0 0 7.447 0 2.712 2.712 0 0 1 4.446 0 4.824 4.824 0 0 0 7.447 0 2.712 2.712 0 0 1 4.447 0 4.824 4.824 0 0 0 7.447 0 3.446 3.446 0 0 1 2.223-1.111v-2.157a4.523 4.523 0 0 0-3.735 1.745 2.701 2.701 0 0 1-4.446 0 5.723 5.723 0 0 0-2.223-1.522 4.788 4.788 0 0 0-1.467-.223 4.59 4.59 0 0 0-1.823.345 6.125 6.125 0 0 0-1.9 1.4 2.702 2.702 0 0 1-4.447 0 6.258 6.258 0 0 0-1.9-1.4 4.69 4.69 0 0 0-1.835-.345 4.758 4.758 0 0 0-1.111.122 5.446 5.446 0 0 0-2.623 1.623 2.702 2.702 0 0 1-4.446 0 4.523 4.523 0 0 0-3.724-1.745v2.157Z" fill="#4D4D4D"/><path d="M60.13 16.113a2.615 2.615 0 0 0-.434 0 4.625 4.625 0 0 0-1.823.356 6.257 6.257 0 0 0-1.9 1.4 2.701 2.701 0 0 1-4.447 0 6.258 6.258 0 0 0-1.9-1.4 4.647 4.647 0 0 0-1.834-.356 4.818 4.818 0 0 0-1.112.134 5.37 5.37 0 0 0-2.623 1.623 2.701 2.701 0 0 1-4.446 0 4.513 4.513 0 0 0-3.724-1.757v2.224a3.423 3.423 0 0 1 2.223 1.111 4.856 4.856 0 0 0 7.458 0 2.701 2.701 0 0 1 4.447 0 4.846 4.846 0 0 0 7.447 0 2.845 2.845 0 0 1 2.223-1.111c.144-.013.289-.013.433 0l.011-2.224ZM.33 46.303a3.424 3.424 0 0 1 2.222 1.111 4.845 4.845 0 0 0 7.448 0 2.712 2.712 0 0 1 4.446 0 4.845 4.845 0 0 0 7.447 0 2.711 2.711 0 0 1 4.446 0 4.856 4.856 0 0 0 7.458 0 3.401 3.401 0 0 1 2.223-1.111V44.08a4.535 4.535 0 0 0-3.734 1.756 2.701 2.701 0 0 1-4.446 0 5.725 5.725 0 0 0-2.223-1.523 4.781 4.781 0 0 0-1.468-.233 4.625 4.625 0 0 0-1.823.355 6.257 6.257 0 0 0-1.9 1.4 2.701 2.701 0 0 1-4.446 0 6.26 6.26 0 0 0-1.901-1.4 4.68 4.68 0 0 0-1.834-.355c-.374 0-.748.045-1.112.133a5.369 5.369 0 0 0-2.623 1.623 2.701 2.701 0 0 1-4.446 0A4.513 4.513 0 0 0 .341 44.08l-.012 2.223Zm40.77-3.891a4.548 4.548 0 0 1-1.034-.845 4.5 4.5 0 0 0-3.723-1.745v2.157a3.424 3.424 0 0 1 2.223 1.111 5.446 5.446 0 0 0 2.556 1.6l-.022-2.278Z" fill="#4D4D4D"/><path d="M50.981 45.413c-.41-.38-.88-.691-1.389-.922a4.625 4.625 0 0 0-1.823-.356 4.834 4.834 0 0 0-1.111.133 5.369 5.369 0 0 0-2.623 1.623 2.701 2.701 0 0 1-4.447 0 4.512 4.512 0 0 0-3.723-1.756v2.223a3.424 3.424 0 0 1 2.223 1.112 4.856 4.856 0 0 0 7.458 0 2.845 2.845 0 0 1 2.223-1.112 2.322 2.322 0 0 1 1.679.645l1.533-1.59Zm2.746-2.734a3.113 3.113 0 0 1-1.8-1.112 6.258 6.258 0 0 0-1.901-1.4 4.45 4.45 0 0 0-1.023-.267v2.223a3.69 3.69 0 0 1 1.4 1 6.67 6.67 0 0 0 1.623 1.268l1.701-1.712Z" fill="#4D4D4D"/></svg>