<svg width="78" height="78" viewBox="0 0 78 78" fill="none" xmlns="http://www.w3.org/2000/svg"><path d="M39 78c21.54 0 39-17.46 39-39S60.54 0 39 0 0 17.46 0 39s17.46 39 39 39Z" fill="url(#a)"/><path fill-rule="evenodd" clip-rule="evenodd" d="M27.631 25.35V54.6h24.375L27.631 25.35Z" fill="url(#b)"/><path fill-rule="evenodd" clip-rule="evenodd" d="M3.256 54.6h24.375V25.35L3.256 54.6Z" fill="#fff"/><path fill-rule="evenodd" clip-rule="evenodd" d="M7.8 62.4a39.943 39.943 0 0 0 7.8 7.8h46.8a39.942 39.942 0 0 0 7.8-7.8H7.8Z" fill="#FC9965"/><path fill-rule="evenodd" clip-rule="evenodd" d="M15.6 70.2A38.838 38.838 0 0 0 39 78a38.838 38.838 0 0 0 23.4-7.8H15.6Z" fill="#FF2D55"/><path fill-rule="evenodd" clip-rule="evenodd" d="M52.319 40.95V62.4h17.88L52.32 40.95Z" fill="url(#c)"/><path fill-rule="evenodd" clip-rule="evenodd" d="M52.319 54.6H3.255A38.834 38.834 0 0 0 7.8 62.4h44.538v-7.8h-.02Z" fill="#FFBC5B"/><path fill-rule="evenodd" clip-rule="evenodd" d="M34.456 62.4h17.862V40.95L34.457 62.4Z" fill="#fff"/><path d="M52.319 35.1c5.384 0 9.75-4.365 9.75-9.75s-4.366-9.75-9.75-9.75c-5.385 0-9.75 4.365-9.75 9.75s4.365 9.75 9.75 9.75ZM27.631 19.5a4.875 4.875 0 1 0 0-9.75 4.875 4.875 0 0 0 0 9.75Z" fill="#FFC95B"/><defs><linearGradient id="a" x1="66.577" y1="11.423" x2="11.423" y2="66.577" gradientUnits="userSpaceOnUse"><stop stop-color="#FF2D55"/><stop offset="1" stop-color="#FFBC5B"/></linearGradient><linearGradient id="b" x1="39.811" y1="25.35" x2="39.811" y2="54.6" gradientUnits="userSpaceOnUse"><stop stop-color="#A524B3"/><stop offset="1" stop-color="#FF2D55"/></linearGradient><linearGradient id="c" x1="61.253" y1="40.95" x2="61.253" y2="62.4" gradientUnits="userSpaceOnUse"><stop stop-color="#A524B3"/><stop offset="1" stop-color="#FF2D55"/></linearGradient></defs></svg>