<svg width="78" height="25" viewBox="0 0 78 25" fill="none" xmlns="http://www.w3.org/2000/svg"><g clip-path="url(#a)" fill-rule="evenodd" clip-rule="evenodd" fill="#687CA3"><path d="m0 11.792 2.355 12.225 1.566.024h.662l6.731-12.248H8.762l-4.845 9.655-1.007-9.654H0v-.002ZM16.317 23.87c.382-2 .745-3.928 1.127-5.931.255-1.712-.59-2.61-2.188-2.952a6.974 6.974 0 0 0-4.445.382l-.66 1.389a7.759 7.759 0 0 1 3.612-.556c1.275.133 1.703.793 1.285 1.979-3.2.042-5.586.721-6.529 2.535a2.151 2.151 0 0 0 .59 2.431 6.383 6.383 0 0 0 3.6.861c1.206.027 2.412-.02 3.612-.139l-.004.001Zm-1.477-4.749-.683 3.845c-1.1-.016-3.4.228-3.516-1.366a2.314 2.314 0 0 1 1.8-2.1 8.502 8.502 0 0 1 2.4-.379Zm5.147-7.329-2.34 12.249h2.431l.865-4.526 2.808 4.526h2.743l-3.223-4.817 4.445-4.028-2.466-.035-4.227 3.93 1.394-7.3-2.43.001Zm8.924 3.404-1.69 8.845h2.193l1.69-8.845h-2.193Zm5.081-.936-.187.977h-1.518l-.263 1.274h1.538l-1.44 7.531h2.432c.473-2.508.929-5.017 1.394-7.525h1.769l.263-1.274h-1.794l.082-.434.094-.5c.1-1.346 1.154-1.862 2.785-1.627l.055-.05a1.46 1.46 0 0 1 1.077-.953c-2.528-.489-4.745-.09-5.971 1.723a1.95 1.95 0 0 0-.315.858h-.001Zm5.883-1.097-2.063 10.8v.013l-.015.066h1.118l4.234-.035c2.767-.022 5.183-1.03 5.27-3.906a2.878 2.878 0 0 0-2.513-2.728v-.04c1.585-.068 3.183-1.363 3.116-2.915-.062-1.422-1.017-2.416-3.03-2.893-1.522-.295-5.493-.284-6.116 1.638h-.001Zm1.537 4.922.022-.111c2.307-.108 4.278-.084 4.366 2.027-.162 1.817-1.36 2.57-3.2 2.66l-2.026-.035.839-4.54-.001-.001Zm.244-1.26.754-3.891c.092-.028.19-.054.295-.08a5.43 5.43 0 0 1 2.12-.16l.049.009a1.735 1.735 0 0 1 1.7 1.508 3.02 3.02 0 0 1-.214 1.153c-.127.314-.334.59-.6.8a3.84 3.84 0 0 1-2.264.689l-1.843-.028h.003Zm15.058 7.045c.382-2 .745-3.928 1.127-5.931.255-1.712-.59-2.61-2.188-2.952a6.974 6.974 0 0 0-4.445.382l-.66 1.389a7.756 7.756 0 0 1 3.612-.556c1.274.133 1.703.793 1.285 1.979-3.2.042-5.586.721-6.529 2.535a2.151 2.151 0 0 0 .59 2.431 6.38 6.38 0 0 0 3.6.861c1.206.027 2.412-.02 3.612-.139l-.004.001Zm-1.477-4.749-.683 3.845c-1.1-.016-3.4.228-3.516-1.366a2.314 2.314 0 0 1 1.8-2.1 8.502 8.502 0 0 1 2.4-.379Zm11.028 4.906c.38-1.992.7-4 1.124-5.98.06-.263.098-.53.11-.8.094-3.4-6.637-2.308-8.23-1.667l-1.551 8.446 2.249.018h.175l1.316-7.41c.809-.332 3.723-.83 3.657.9l-1.227 6.509h.932l1.444-.016Zm3.971-12.235-2.34 12.249h2.431l.865-4.526L74 24.041h2.743l-3.223-4.817 4.445-4.028-2.466-.035-4.227 3.93 1.394-7.3-2.43.001Zm-9.889.49 4.208-.026a3.836 3.836 0 0 0 4.14-3.738c-.067-1.563-1.2-2.39-2.63-2.767v-.039c1.584-.069 3.182-1.364 3.114-2.915C69.103 1.058 67.2.008 65.63.008h-.482L64.034 0h-8.187a4.115 4.115 0 0 0-3.316 2.062c-.099.16-.166.338-.2.523l-2.17 9.7 10.186-.003Zm-7.042-9.014-1.87 8.038a5.692 5.692 0 0 0 4.114-.834c.461-.372.884-.79 1.263-1.245l4.378-5.284A10.5 10.5 0 0 1 64.622.87a7.987 7.987 0 0 0-3.8.974c-.36.206-.68.477-.94.8l-5.715 6.379c.334-1.554.733-3.436 1.148-5.109.03-.117.066-.23.087-.343a3.006 3.006 0 0 1 2.213-2.564 3.557 3.557 0 0 0-4.31 2.257v.004Z"/></g><defs><clipPath id="a"><path fill="#fff" d="M0 0h77.965v24.042H0z"/></clipPath></defs></svg>