<svg width="60" height="61" viewBox="0 0 60 61" fill="none" xmlns="http://www.w3.org/2000/svg"><g clip-path="url(#a)"><path d="M43.932 5.339a38.64 38.64 0 0 0-4.264 5.058l-.402-.13a29.186 29.186 0 0 0-7.143-1.385c-.73-.056-3.45-.056-4.339 0-2.683.178-4.74.58-7.078 1.394a4.435 4.435 0 0 1-.262.093 38.053 38.053 0 0 0-4.404-5.021A30.612 30.612 0 0 1 41.005 4.03c.87.327 1.72.71 2.553 1.122l.374.187Zm14.474 35.465a29.197 29.197 0 0 1-5.236 9.182 32.542 32.542 0 0 1-4.096 4.01 30.214 30.214 0 0 1-11.809 5.826 30.95 30.95 0 0 1-14.511 0 30.151 30.151 0 0 1-11.81-5.825 32.544 32.544 0 0 1-4.095-4.011A28.857 28.857 0 0 1 1.613 21.86a30.55 30.55 0 0 1 2.384-5.142c.44-.748.982-1.59 1.244-1.936.898 3.862 2 7.256 2.412 8.48a1.992 1.992 0 0 1-.103.207c-2.178 4.413-3.356 8.667-3.637 13.193 0 .056-.01.121-.01.177-.074 1.356-.037 2.001.188 2.852.701 2.665 2.861 5.6 6.246 8.48 5.545 4.713 13.062 8.117 18.756 8.51 5.938.402 14.699-3.067 20.533-8.135a29.336 29.336 0 0 0 2.58-2.59c.58-.673 1.44-1.833 1.375-1.833-.018 0 0-.019.038-.037.028-.019.056-.047.037-.066-.01-.01.01-.037.038-.047.028-.009.046-.027.037-.046-.01-.019 0-.038.037-.047.028-.01.038-.037.028-.056-.009-.019 0-.038.02-.038.018 0 .036-.028.036-.046 0-.019.02-.047.038-.047a.04.04 0 0 0 .037-.037.976.976 0 0 1 .122-.215c.14-.216.701-1.216.776-1.384.533-1.206.87-2.282 1.028-3.357.075-.514.122-1.459.085-1.683-.01-.037-.01-.103-.02-.206-.018-.187-.027-.467-.046-.748a31.71 31.71 0 0 0-.084-1.3c-.402-4.244-1.487-7.713-3.544-11.388a3.255 3.255 0 0 1-.206-.393c-.018-.028-.027-.056-.037-.074.29-.87 1.477-4.507 2.422-8.668l.018.019.14.187c.244.327.89 1.3 1.179 1.767a29.434 29.434 0 0 1 3.076 6.872 29.177 29.177 0 0 1-.43 17.719Z" fill="#F00500"/><path d="M46.27 29.63c-.029.15-.468.599-.908.926-1.29.944-3.6 1.823-5.946 2.244-1.337.243-2.674.28-3.076.084-.262-.13-.3-.233-.206-.57.196-.701.832-1.468 1.823-2.188.505-.365 2.553-1.608 3.507-2.132 1.57-.86 2.842-1.374 3.702-1.496.271-.037.599-.047.701 0 .169.066.356.561.43 1.16.038.317.02 1.72-.027 1.972Zm-22.03 3.095c-.055.113-.336.234-.654.28-.318.048-1.29.02-1.842-.046-1.982-.262-4.086-.87-5.62-1.618-.86-.42-1.477-.841-1.935-1.3l-.262-.27-.028-.356c-.046-.617-.037-1.59.038-1.935.046-.29.15-.57.29-.823.074-.093.074-.093.41-.093.412 0 .758.065 1.32.243 1.15.355 2.86 1.215 4.945 2.468 1.721 1.029 2.366 1.534 2.862 2.226.336.43.56 1.037.477 1.224ZM37.48 45.74c0 .029-.112.478-.252 1.01-.14.533-.253.964-.253.982-.102.01-.196.019-.299.01h-.299l-.411.972c-.225.533-.43 1.029-.459 1.103l-.056.131-.196-.318-.196-.318v-2.59l-.075.02c-.159.037-1.29.186-1.786.233a25.487 25.487 0 0 1-6.143-.13c-.327-.048-.608-.085-.617-.076-.01.01 0 .608.018 1.347l.029 1.327-.16.244c-.084.13-.168.243-.168.252-.028.028-.121-.122-.336-.552a6.315 6.315 0 0 1-.524-1.42l-.065-.272-.29.019-.29.028-.075-.346a9.873 9.873 0 0 1-.103-.636l-.028-.3-.243-.214c-.14-.122-.28-.244-.308-.262-.047-.038-.066-.103-.066-.16v-.111l1.169.009 1.169.01.037.12.037.123.402.018c.225.01.935.028 1.571.047l1.17.028.298-.468.309-.467h.393l-.01-.972-.01-.973-.513-.224c-1.655-.73-2.628-1.562-2.992-2.572-.075-.205-.075-.28-.094-1.215-.01-.926-.01-1.01.056-1.216a1.36 1.36 0 0 1 .963-.953c.16-.047.58-.047 2.787-.047l2.599.01.29.14c.346.168.505.29.701.551.224.3.29.533.29 1.104 0 .813-.056 1.514-.14 1.795a3.879 3.879 0 0 1-.543 1.075c-.467.598-1.318 1.197-2.094 1.468l-.224.084.009.982.01.982.205.018.206.02.28.42.271.42h1.253c.692 0 1.3.01 1.356.02.093.018.112.009.206-.15l.112-.169h1.075c.804-.037 1.047-.018 1.047.01Z" fill="#000"/><path d="M32.543 48.424c-.177.103-.299.15-.327.131-.028-.01-.159-.121-.299-.224l-.253-.206-.261.28c-.57.618-.59.646-.758.655-.261.028-.317-.019-.635-.496-.169-.243-.3-.448-.3-.448s-.121-.02-.262-.028l-.261-.029-.122.253-.121.252-.215-.065a4.556 4.556 0 0 1-.496-.196l-.28-.14v-.534l2.487.01 2.487.01.01.252c.009.299.018.29-.394.523Z" fill="#000"/><path d="M55.919 37.017c-.01-.038-.01-.103-.019-.206-2.244-.243-8.649-.392-14.595 4.516 0 0-1.917-8.789-10.893-8.789s-12.305 8.79-12.305 8.79c-5.03-5.414-11.763-5.022-14.194-4.666 0 .056-.01.121-.01.177-.074 1.356-.036 2.001.188 2.852.701 2.665 2.861 5.6 6.246 8.48 5.545 4.713 13.062 8.117 18.756 8.51 5.938.401 14.699-3.067 20.533-8.135a29.35 29.35 0 0 0 2.58-2.59c.58-.674 1.44-1.833 1.375-1.833-.018 0 0-.019.038-.037.028-.019.056-.047.037-.066-.01-.01.01-.037.038-.047.028-.009.046-.028.037-.046-.01-.019 0-.038.037-.047.028-.01.038-.037.028-.056-.009-.019 0-.038.02-.038.018 0 .036-.028.036-.046 0-.019.02-.047.038-.047a.04.04 0 0 0 .037-.037.977.977 0 0 1 .122-.215c.14-.216.701-1.216.776-1.384.533-1.207.87-2.282 1.028-3.357.056-.514.103-1.459.066-1.683ZM32.544 48.424c-.178.103-.3.15-.328.131-.028-.01-.159-.121-.299-.224l-.253-.206-.261.28c-.57.617-.59.646-.758.655-.261.028-.317-.019-.635-.496-.169-.243-.3-.448-.3-.448s-.121-.02-.261-.029l-.262-.028-.122.253-.121.252-.215-.065a4.555 4.555 0 0 1-.496-.196l-.28-.14v-.534l2.487.01 2.487.01.01.252c.009.299.018.29-.393.523Zm4.675-1.683c-.14.533-.253.963-.253.982-.103.01-.196.019-.3.01h-.298l-.402.981c-.225.533-.43 1.029-.459 1.103l-.056.131-.196-.318-.196-.318v-2.59l-.075.02c-.16.037-1.29.186-1.786.233a25.487 25.487 0 0 1-6.143-.131c-.327-.047-.608-.084-.617-.075-.01.01 0 .608.018 1.347l.029 1.327-.16.243c-.084.131-.168.243-.168.253-.028.028-.121-.122-.336-.552a6.315 6.315 0 0 1-.524-1.421l-.065-.271-.29.019-.29.028-.075-.346a9.873 9.873 0 0 1-.103-.636l-.028-.3-.243-.215c-.14-.121-.28-.243-.308-.261-.047-.038-.066-.103-.066-.16v-.111l1.169.009 1.169.01.037.12.037.122.402.02c.225.008.935.027 1.571.046l1.17.028.298-.468.309-.467h.393l-.01-.973-.01-.972-.513-.224c-1.655-.73-2.628-1.562-2.992-2.572-.075-.205-.075-.28-.094-1.215-.01-.926-.01-1.01.056-1.216a1.36 1.36 0 0 1 .963-.953c.16-.047.58-.047 2.787-.047l2.599.01.29.14c.346.168.505.29.701.551.224.3.29.533.29 1.103 0 .814-.056 1.515-.14 1.796a3.873 3.873 0 0 1-.543 1.075c-.467.598-1.318 1.197-2.094 1.468l-.224.084.009.982.01.982.205.018.206.019.28.42.271.422h1.253c.692 0 1.3.009 1.356.018.093.019.112.01.206-.15l.112-.168h1.075c.832 0 1.075.01 1.075.038-.028-.01-.15.449-.29.972Z" fill="#fff"/><path d="M55.844 36.063c-.019-.42-.056-1.01-.084-1.3-.402-4.244-1.487-7.713-3.544-11.388a3.226 3.226 0 0 1-.206-.393c-.018-.028-.028-.056-.037-.074.29-.87 1.477-4.507 2.422-8.668 1.28-5.647 2.094-12.249-.393-14.23 0 0-4.301-.319-10.06 5.329a38.631 38.631 0 0 0-4.264 5.058l-.402-.13a29.187 29.187 0 0 0-7.144-1.385c-.73-.056-3.45-.056-4.338 0-2.684.178-4.741.58-7.079 1.393a4.523 4.523 0 0 1-.261.094 38.064 38.064 0 0 0-4.404-5.021C10.056-.328 5.596 0 5.596 0 2.96 2.047 3.857 8.948 5.222 14.782a96.595 96.595 0 0 0 2.413 8.48 2.213 2.213 0 0 1-.103.207c-2.179 4.413-3.357 8.667-3.637 13.193 2.44-.356 9.163-.758 14.202 4.665 0 0 3.33-8.789 12.305-8.789 8.976 0 10.893 8.79 10.893 8.79 5.947-4.91 12.352-4.75 14.596-4.517-.01-.187-.028-.467-.047-.748ZM9.402 19.738s-3.497-8.742-2.6-13.735c.15-.842.43-1.58.87-2.142 0 0 3.965.393 10.36 7.5 0 0-1.215.588-2.842 1.841 0 0-.01.01-.02.01-1.766 1.355-4.03 3.506-5.768 6.526ZM24.24 32.725c-.057.112-.337.234-.655.28-.318.047-1.29.02-1.842-.046-1.982-.262-4.086-.87-5.62-1.618-.86-.42-1.477-.841-1.935-1.3l-.262-.27-.028-.356c-.046-.617-.037-1.59.038-1.935.046-.29.15-.57.29-.823.074-.093.074-.093.41-.093.412 0 .758.065 1.32.243 1.15.355 2.86 1.215 4.945 2.468 1.72 1.029 2.366 1.534 2.862 2.225.336.43.56 1.038.477 1.225Zm22.03-3.095c-.029.15-.468.599-.908.926-1.29.944-3.6 1.823-5.946 2.244-1.337.243-2.674.28-3.076.084-.262-.13-.3-.233-.206-.57.196-.701.832-1.468 1.823-2.188.505-.365 2.553-1.608 3.507-2.132 1.57-.86 2.842-1.374 3.702-1.496.271-.037.599-.047.701 0 .169.066.356.561.43 1.16.038.317.02 1.72-.027 1.972Zm-1.553-16.428-.018-.01c-1.571-1.252-2.75-1.841-2.75-1.841 6.181-7.106 10.005-7.499 10.005-7.499.421.57.692 1.3.842 2.141.87 4.993-2.506 13.745-2.506 13.745a22.27 22.27 0 0 0-5.573-6.536Z" fill="#FFA409"/><path d="M52.805 5.993c-.73-.093-4.18-.112-8.088 7.21l-.018-.01c-1.571-1.253-2.75-1.842-2.75-1.842 6.181-7.106 10.005-7.5 10.005-7.5.43.571.702 1.3.851 2.142Z" fill="#FF9300"/><path d="M50.3 19.738a22.185 22.185 0 0 0-5.583-6.536c3.909-7.321 7.35-7.302 8.088-7.209.87 5.002-2.506 13.745-2.506 13.745Zm2.646-13.717-.14-.028.14.028Z" fill="#FF8300"/><path d="M18.032 11.35s-1.215.59-2.842 1.843c0 0-.01.01-.02.01-4.048-7.331-7.61-7.303-8.377-7.21.15-.841.43-1.58.87-2.141.009 0 3.973.393 10.369 7.499Z" fill="#FF9300"/><path d="M15.18 13.202c-1.776 1.365-4.04 3.506-5.778 6.536 0 0-3.497-8.743-2.6-13.745.758-.093 4.33-.112 8.378 7.209ZM6.802 5.993c-.046.01-.102.019-.15.028l.15-.028Z" fill="#FF8300"/><path d="M40.837 24.59s-2.992.188-2.618-2.15c.374-2.338 2.712-2.618 3.366-2.524.655.093 3.273 1.028 2.805 2.992-.467 1.963-1.122 1.59-1.496 1.683-.374.093-2.057 0-2.057 0Zm-22.067 0s-2.991.188-2.617-2.15c.374-2.338 2.711-2.618 3.366-2.524.654.093 3.272 1.028 2.805 2.992-.468 1.963-1.122 1.59-1.496 1.683-.374.093-2.057 0-2.057 0Z" fill="#fff"/></g><defs><clipPath id="a"><path fill="#fff" d="M0 0h60v60.683H0z"/></clipPath></defs></svg>