<svg width="78" height="78" viewBox="0 0 78 78" fill="none" xmlns="http://www.w3.org/2000/svg"><g clip-path="url(#a)"><path d="M63.012 13.38H14.884v43.772h48.128V13.38Z" fill="#fff"/><path fill-rule="evenodd" clip-rule="evenodd" d="M77.922 39c0 21.51-17.437 38.948-38.948 38.948C17.464 77.948.026 60.511.026 39 .026 17.49 17.464.052 38.974.052S77.922 17.49 77.922 39ZM27.937 54.5h-7.559c-1.588 0-2.372 0-2.85-.307a1.92 1.92 0 0 1-.871-1.502c-.03-.564.363-1.253 1.148-2.631l18.663-32.897c.794-1.397 1.196-2.095 1.703-2.354a1.926 1.926 0 0 1 1.742 0c.507.259.909.957 1.703 2.354l3.837 6.697.02.035c.857 1.498 1.292 2.258 1.482 3.056.21.87.21 1.79 0 2.66-.192.804-.622 1.57-1.493 3.09l-9.803 17.33-.026.044c-.863 1.511-1.3 2.277-1.907 2.855a5.708 5.708 0 0 1-2.325 1.35c-.794.22-1.684.22-3.464.22Zm19.089 0h10.83c1.598 0 2.402 0 2.88-.316.517-.335.843-.9.872-1.512.027-.546-.357-1.208-1.109-2.506l-.078-.135-5.425-9.28-.062-.105c-.762-1.29-1.147-1.94-1.641-2.192a1.905 1.905 0 0 0-1.732 0c-.498.258-.9.938-1.694 2.306l-5.406 9.28-.018.033c-.791 1.366-1.187 2.048-1.158 2.609.038.612.354 1.176.87 1.511.469.306 1.273.306 2.87.306Z" fill="#E84142"/></g><defs><clipPath id="a"><path fill="#fff" d="M0 0h77.948v78H0z"/></clipPath></defs></svg>