<svg width="111" height="25" viewBox="0 0 111 25" fill="none" xmlns="http://www.w3.org/2000/svg"><g clip-path="url(#a)" fill="#687CA3"><path d="M94.978 17.324a1.404 1.404 0 0 0-.182.154 1.432 1.432 0 0 0-.16.18 1.999 1.999 0 0 0-.382.976 3.28 3.28 0 0 0 .082 1.155c.106.427.27.839.484 1.223.238.43.526.83.858 1.191L98.246 25l1.936-1.454a1.73 1.73 0 0 0 .612-.889c.119-.407.142-.836.067-1.254a4.632 4.632 0 0 0-.494-1.44 6.21 6.21 0 0 0-1.032-1.41l-.149-.149c-.05-.049-.1-.096-.152-.142-.053-.046-.102-.091-.154-.134L98.724 18l-1.561 1.634-2.19-2.31M93.215 0l-1.678 4.141a4.811 4.811 0 0 0-.336 1.624 6.2 6.2 0 0 0 .17 1.674c.133.55.335 1.08.602 1.578a5.95 5.95 0 0 0 1.132 1.496 3.327 3.327 0 0 0 .283.244c.048.033.098.077.146.115l1.375-2.454 2.572 2.53c.04-.039.083-.08.125-.116a1.2 1.2 0 0 0 .115-.13c.035-.046.078-.093.116-.142l.115-.152c.324-.48.543-1.022.642-1.592a5.674 5.674 0 0 0 .015-1.917 6.545 6.545 0 0 0-.63-1.957 5.91 5.91 0 0 0-1.235-1.661L93.213.002m-3.134 10.252c-.157.004-.313.03-.463.078a1.458 1.458 0 0 0-.73.525c-.1.135-.182.28-.244.436l-.915 2.247 2.247 2.448c.155.17.322.329.498.477.162.136.334.26.515.37.166.1.34.187.52.26.166.065.337.114.513.145.155.026.312.034.469.024a1.483 1.483 0 0 0 .83-.308 1.54 1.54 0 0 0 .395-.45 2.476 2.476 0 0 0 .116-.224c.018-.04.033-.079.048-.116l-2.082-2.194 1.101-1.964c-.038-.05-.076-.102-.116-.151-.039-.05-.08-.099-.115-.147-.037-.049-.083-.097-.126-.143-.043-.046-.086-.094-.13-.139a4.964 4.964 0 0 0-.598-.527 3.755 3.755 0 0 0-.601-.368 2.863 2.863 0 0 0-.585-.214 2.1 2.1 0 0 0-.546-.06m12.032.032a4.34 4.34 0 0 0-.865.103 3.815 3.815 0 0 0-.781.27 3.447 3.447 0 0 0-.676.424 3.295 3.295 0 0 0-.555.569l-.116.154c-.04.052-.069.106-.102.159a2.984 2.984 0 0 0-.173.328l2.738 2.694-1.966 2.064c.042.056.085.115.13.167.045.052.09.116.136.166.047.05.095.107.144.161a6.283 6.283 0 0 0 1.655 1.29 5.856 5.856 0 0 0 1.692.598c.273.048.55.073.827.074.277 0 .554-.028.826-.081.268-.052.531-.132.782-.24.257-.11.5-.25.723-.417l3.816-2.869-4.325-4.017a6.336 6.336 0 0 0-.935-.721 5.972 5.972 0 0 0-.993-.505 5.559 5.559 0 0 0-1.003-.29 4.932 4.932 0 0 0-.973-.082m-94.096.927H5.531L4.09 18.548H2.002l1.441-7.331H.961l.378-1.933h7.053l-.37 1.933Zm-1.157 5.557a4.86 4.86 0 0 1 .107-.939l.701-3.402h2.075l-.605 3.084a3.35 3.35 0 0 0-.069.578c0 .675.405.9.85.9.673 0 1.225-.49 1.441-1.617l.578-2.952h2.047l-1.212 6.123h-1.98l.189-.993h-.028c-.539.809-1.118 1.191-2.034 1.191-1.118 0-2.06-.57-2.06-1.973Zm2.29-7.358h1.67l-.364 1.787H8.79l.363-1.787Zm2.531 0h1.671l-.364 1.787h-1.67l.363-1.787Zm3.624 3.018h1.994l-.256 1.232h.027c.445-1.126 1.375-1.417 2.182-1.417.095-.002.19.007.283.027l-.403 2.104c-.069 0-.149-.013-.347-.013-1.24 0-1.927.49-2.21 1.932l-.444 2.25h-2.037l1.211-6.115Zm8.325 2.939 2.101 3.175h-2.518l-1.576-2.792-.553 2.792h-2.034l1.832-9.264h2.034l-1.09 5.545 2.275-2.396h2.681l-3.152 2.94Zm3.489-2.939h2.034l-1.212 6.114h-2.034l1.212-6.114Zm2.312-1.125H27.26l.404-2.011h2.182l-.409 2.011Zm7.456 1.125-5.643 8.762h-2.19l2.236-3.362-1.658-5.4h2.169l.81 3.35 2.074-3.35h2.202Zm5.818 3.532h-4.458c.094.715.512 1.098 1.387 1.098a3.836 3.836 0 0 0 1.913-.543l.632 1.562a5.794 5.794 0 0 1-2.68.662c-1.939 0-3.237-1.111-3.237-2.938 0-1.694 1.105-3.56 3.69-3.56 1.765 0 2.937.886 2.937 2.462a4.61 4.61 0 0 1-.183 1.257Zm-1.804-1.417c0-.555-.405-.886-1.041-.886-.727 0-1.266.437-1.509 1.124h2.532c.013-.078.019-.156.018-.235v-.003Zm9.456-3.332-.375 1.879h3.394l-.363 1.866h-3.41l-.715 3.586h-2.087l1.832-9.264h6.02l-.364 1.933h-3.932Zm4.688 1.217h2.033l-1.212 6.114h-2.034l1.212-6.114Zm2.312-1.125H55.19l.404-2.011h2.182l-.414 2.011Zm1.014 1.125h1.994l-.19.924h.029c.551-.715 1.225-1.125 2.14-1.125 1.2 0 1.98.65 1.98 1.986a6.74 6.74 0 0 1-.115 1.19l-.647 3.137h-2.025l.578-2.99c.057-.23.088-.465.094-.702 0-.676-.364-.953-.983-.953-.673 0-1.2.357-1.428 1.575l-.606 3.07h-2.033l1.212-6.112Zm6.25 3.441c0-2.144 1.362-3.64 3.3-3.64 1.024 0 1.805.45 2.182 1.258h.041l.203-1.059h2.02l-1.212 6.114h-2.02l.16-.82h-.026a2.548 2.548 0 0 1-2.02 1.019c-1.617 0-2.628-1.099-2.628-2.872Zm5.089-.516c0-.781-.566-1.297-1.401-1.297-.89 0-1.55.662-1.55 1.575 0 .767.553 1.284 1.388 1.284a1.519 1.519 0 0 0 1.46-.956c.076-.193.113-.399.106-.606h-.003Zm3.667-2.925h1.993l-.188.924h.028c.551-.715 1.225-1.125 2.141-1.125 1.2 0 1.98.65 1.98 1.986a6.51 6.51 0 0 1-.122 1.19l-.646 3.137h-2.02l.578-2.99c.056-.23.087-.465.094-.702 0-.676-.363-.953-.983-.953-.673 0-1.2.357-1.428 1.575l-.606 3.07H72.17l1.212-6.112Zm8.89 4.686c.296 0 .418-.106.418-.264 0-.158-.094-.231-.363-.383l-.863-.478c-.78-.423-1.198-.953-1.198-1.787 0-1.19.847-1.971 2.383-1.971.916 0 1.805.238 2.708.662l-.741 1.482c-.66-.347-1.36-.542-1.858-.542-.324 0-.445.078-.445.238 0 .16.115.238.431.41l.82.45c.77.397 1.214.833 1.214 1.747 0 1.363-.97 2.064-2.544 2.064-1.171 0-2.081-.33-3.017-.992L80.2 16.3c.775.502 1.507.82 2.072.82Z"/></g><defs><clipPath id="a"><path fill="#fff" transform="translate(.965)" d="M0 0h109.375v25H0z"/></clipPath></defs></svg>