<svg width="60" height="60" viewBox="0 0 60 60" fill="none" xmlns="http://www.w3.org/2000/svg"><g clip-path="url(#a)"><path d="M30 56.753c14.775 0 26.753-11.978 26.753-26.753S44.775 3.247 30 3.247 3.247 15.225 3.247 30 15.225 56.753 30 56.753Z" fill="#fff"/><path d="M30 0a30 30 0 1 0 30 30A29.912 29.912 0 0 0 30.174 0H30Zm.509 31.017L27.385 41.55h16.707a.845.845 0 0 1 .872.813v.276l-1.453 5.012a1.082 1.082 0 0 1-1.09.8H16.852l4.286-14.601-4.794 1.453 1.09-3.342 4.794-1.452 6.029-20.485a1.097 1.097 0 0 1 1.09-.799h6.464a.843.843 0 0 1 .872.814v.276l-5.085 17.288 4.794-1.453-1.017 3.487-4.866 1.38Z" fill="#345D9D"/></g><defs><clipPath id="a"><path fill="#fff" d="M0 0h60v60H0z"/></clipPath></defs></svg>