<svg width="77" height="64" viewBox="0 0 77 64" fill="none" xmlns="http://www.w3.org/2000/svg"><g clip-path="url(#a)"><path d="M70.216 5.1a2.148 2.148 0 0 1-.152-.326 4.881 4.881 0 0 0-.591-.863 6.165 6.165 0 0 0-1.678-1.326 8.402 8.402 0 0 0-2.335-.874c-.481-.105-.976-.132-1.444-.302a3.856 3.856 0 0 1-.485-.21 2.756 2.756 0 0 1-.67-.48 1.124 1.124 0 0 1-.188-.246.31.31 0 0 1-.027-.061.675.675 0 0 0-.073-.201.5.5 0 0 0-.404-.21H14.486c-.06 0-.12.01-.175.032a.5.5 0 0 0-.229.183.67.67 0 0 0-.074.2.606.606 0 0 1-.026.062 1.12 1.12 0 0 1-.188.246 2.736 2.736 0 0 1-.67.48 3.752 3.752 0 0 1-.484.21c-.468.165-.963.197-1.446.302a8.41 8.41 0 0 0-2.333.874c-.633.342-1.2.789-1.675 1.322a4.879 4.879 0 0 0-.59.862 2.147 2.147 0 0 1-.154.325S.88 5.77.33 7.35v9.738s1.271.503 4.568.168a36.089 36.089 0 0 1 3.537-.235s1.641-.1 2.399-1.07c0 0 .734 0 1.474.677.453.417.995.917 1.34 1.245v16.103l.026 1.197c.19 4.607 1.484 8.439 3.593 11.77.44.699.914 1.373 1.424 2.024.193.262.39.518.593.768l.065.08c.268.331.542.658.823.98l.062.07a30.01 30.01 0 0 0 .937 1.017c.31.322.627.64.951.954l.035.033c.335.322.676.639 1.024.95l.011.01c3.923 3.513 8.81 6.542 14.118 9.616.067.04.134.079.202.117l.107.063-.31-.18-.61-.352.848.491.068.04.49.283.11.065a.224.224 0 0 0 .221 0l.112-.065.488-.282.066-.038c5.496-3.175 10.545-6.292 14.56-9.94 4.827-4.142 8.2-8.979 9.034-15.546.147-.968.241-1.944.281-2.922l.026-1.197v-16.11c.347-.325.891-.83 1.347-1.25.736-.677 1.474-.677 1.474-.677.757.974 2.404 1.075 2.404 1.075a36.1 36.1 0 0 1 3.535.237c3.296.336 4.567-.167 4.567-.167V7.349c-.55-1.579-6.113-2.25-6.113-2.25Z" fill="#4D4D4D"/><path d="M9.626 7.547c.156.073.298-.06.389-.167a.616.616 0 0 0 .151-.385V5.993c0-.377-.316-.29-.316-.29a.505.505 0 0 0-.253.166.486.486 0 0 0-.108.279v1.18a.237.237 0 0 0 .137.219ZM39.04 63.624l.07-.04-.07.04Z" fill="#F8FAFF"/><path d="M70.216 5.1a2.148 2.148 0 0 1-.152-.326 4.882 4.882 0 0 0-.591-.863 6.165 6.165 0 0 0-1.678-1.326 8.402 8.402 0 0 0-2.335-.874c-.481-.105-.976-.132-1.444-.302a3.855 3.855 0 0 1-.485-.21 2.756 2.756 0 0 1-.67-.48 1.155 1.155 0 0 1-.188-.246.31.31 0 0 1-.027-.061.645.645 0 0 0-.075-.201.49.49 0 0 0-.402-.21H14.486c-.06 0-.12.01-.175.032a.5.5 0 0 0-.229.183.67.67 0 0 0-.074.2.606.606 0 0 1-.026.062c-.052.09-.115.172-.188.246a2.756 2.756 0 0 1-.67.48 3.79 3.79 0 0 1-.486.21c-.467.165-.962.197-1.445.302a8.41 8.41 0 0 0-2.334.874 6.165 6.165 0 0 0-1.673 1.322 4.88 4.88 0 0 0-.59.862 2.147 2.147 0 0 1-.154.325S.88 5.77.33 7.35v9.738s1.271.503 4.568.168a36.089 36.089 0 0 1 3.537-.235s1.641-.1 2.399-1.07c0 0 .734 0 1.474.677.453.417.995.917 1.34 1.245v16.103l.026 1.197c.19 4.607 1.484 8.439 3.593 11.77.44.699.914 1.373 1.424 2.024.193.262.39.518.593.768l.065.08c.268.331.542.658.823.98l.062.07a30.01 30.01 0 0 0 .937 1.017c.31.322.627.64.951.954l.035.033c.335.322.676.639 1.024.95l.011.01c3.923 3.513 8.81 6.542 14.118 9.616l-.61-.352.847.491.068.04.49.283.11.065a.227.227 0 0 0 .222 0l.111-.065.488-.282.066-.038c5.496-3.175 10.545-6.292 14.56-9.94 4.827-4.142 8.2-8.979 9.034-15.546.147-.968.241-1.944.281-2.922l.026-1.197v-16.11c.347-.325.891-.83 1.347-1.25.736-.677 1.474-.677 1.474-.677.757.974 2.404 1.075 2.404 1.075 1.182.021 2.361.1 3.535.237 3.296.336 4.567-.167 4.567-.167V7.349c-.55-1.579-6.113-2.25-6.113-2.25Zm-61.8.736c.282-.525.762-.938 1.442-1.242 1.129-.505 1.686-.056 1.672 1.345l-.016 1.573c-.008.766-.1 1.365-.275 1.796a2.35 2.35 0 0 1-.504.814 2.423 2.423 0 0 1-.79.555c-.587.262-1.041.355-1.272.193-.481-.341-.402-.765-.42-1.328L9.58 8.99c.007.362 0 .786.268.666.213-.095.268-.205.33-.485.022-.218.032-.437.03-.656v-.393c-.258.31-.475.541-.813.692-.86.386-1.284-.02-1.272-1.216.007-.733.052-1.32.295-1.762ZM1.983 9.59c.351 0 .924-.655 1.073-1.25l1.072-.415.035 5.936-1.349.625-.09-4.307-.746.45.005-1.039Zm7.127 5.875a.721.721 0 0 1-.337.263 2.72 2.72 0 0 1-.763.191c-.3.03-.6.042-.902.037-1.858-.021-4.483.279-4.483.279.049-.355.156-.569.708-.655 1.23-.19 3.546-.247 3.546-.247.142-.01.29-.008.43-.029a.56.56 0 0 0 .382-.19c.159-.227-.124-.402-.283-.49-.158-.088-.363-.156-.528-.262-.39-.252-.78-.502-.969-.939a1.969 1.969 0 0 1-.113-.826V6.39a1.6 1.6 0 0 1 .652-.649v6.686c.012.246.085.486.212.699.127.213.305.393.519.524.257.134.534.23.82.286.301.052.586.173.831.352.182.14.309.336.36.556a.89.89 0 0 1-.088.621h.006Zm4.548.905a.068.068 0 0 1-.04.064.07.07 0 0 1-.076-.01c-1.266-1.041-2.72-1.598-3.283-1.705a.499.499 0 0 1-.341-.243c-.248-.451-.72-.817-1.207-1.09-.375-.212-1.512-.638-1.512-.638 1.775-1.431 5.235.36 5.59.55l.06.033V2.474c.242-.238.512-.446.805-.62v.677l.004 13.839Zm48.394 8.258v9.35c0 1.38-.105 2.757-.315 4.122-1.474 11.605-10.842 17.805-22.154 24.277h-.007l-1.04.595-.102.06a.214.214 0 0 1-.217 0l-.108-.061c-12.933-7.448-23.503-14.473-23.503-28.998V1.448c0-.03.004-.06.012-.089a.451.451 0 0 1 .062-.154.453.453 0 0 1 .217-.17.485.485 0 0 1 .18-.032h46.517a.463.463 0 0 1 .386.2c.029.048.05.1.06.155a.337.337 0 0 1 .012.09v23.18Zm5.104-18.824a.63.63 0 0 0-.364-.313c-.287-.092-.276.207-.275.749v.268l-1.257-.542v-.294c0-.573.067-.954.36-1.144.292-.19.714-.177 1.267.042.473.174.885.475 1.19.869.281.376.345.9.347 1.422a1.8 1.8 0 0 1-.164.839c-.079.262-.783.747-.783.747-.445.262-.689.582-.734.787l1.77.685v1.034L65.178 9.56v-.192c0-.786.386-1.37 1.162-1.906l.563-.393c.239-.167.357-.444.355-.832 0-.152-.04-.3-.112-.434l.008.002Zm-.403 8.668a.485.485 0 0 1-.339.244c-.563.112-2.019.67-3.284 1.704a.072.072 0 0 1-.106-.017.068.068 0 0 1-.01-.037V1.855a4.1 4.1 0 0 1 .804.619v10.85l.06-.032c.355-.19 3.815-1.982 5.59-.55 0 0-1.137.425-1.512.638-.493.272-.965.638-1.213 1.09l.01.002Zm2.816 1.482a7.72 7.72 0 0 1-.903-.036 2.72 2.72 0 0 1-.762-.192.722.722 0 0 1-.337-.262.89.89 0 0 1-.083-.621.979.979 0 0 1 .36-.556c.325-.227.452-.256.83-.353.287-.054.563-.15.82-.285a1.56 1.56 0 0 0 .52-.524c.127-.213.2-.453.212-.7V5.74a1.6 1.6 0 0 1 .651.649v6.204c.022.28-.017.562-.113.826-.189.437-.579.687-.969.939-.165.106-.356.166-.528.262-.172.096-.441.262-.283.49a.546.546 0 0 0 .382.19c.134.021.288.019.43.03 0 0 2.316.057 3.546.245.553.086.66.3.707.656-.006 0-2.63-.3-4.487-.285l.007.008Zm5.693-2.923c-.016.656-.15 1.088-.402 1.297-.28.236-.73.212-1.35-.07a2.602 2.602 0 0 1-1.062-.82 2.736 2.736 0 0 1-.425-1.003 4.199 4.199 0 0 1-.058-.525l-.013-.545 1.217.524c.011.18.053.727.063.905.045.234.102.402.28.503.324.182.416-.056.432-.718a4.247 4.247 0 0 0-.02-.713c-.062-.319-.134-.525-.354-.633-.268-.121-.414-.048-.446.219l-1.086-.495.217-3.033 2.865 1.303-.026 1.022-1.926-.876-.078.884a1.03 1.03 0 0 1 .872.045c.522.237.886.764 1.092 1.277.163.466.23.958.201 1.45l.007.002ZM39.106 63.586l-.067.038.067-.038Z" fill="#F8FAFF"/><path d="M61.127 35.404H51.23l.008-.042a9.3 9.3 0 0 0 .122-.76h9.744a.143.143 0 0 0 .096-.044.137.137 0 0 0 .038-.096V12.76a.138.138 0 0 0-.038-.096.143.143 0 0 0-.096-.043H38.888a.144.144 0 0 0-.1.04.138.138 0 0 0-.041.099v9.299a1.712 1.712 0 0 0-.134-.333c-.102-.197-.306-.393-.701-.458v-2.941H32.92v4.052c-.287.14-.566.29-.838.45v-4.502h-4.998v4.885h4.372a26.95 26.95 0 0 0-1.194.82h-3.178v3.48a9.314 9.314 0 0 0-.86 2.228H21.25v4.886h4.097c.045.243.11.481.195.713l.026.07H15.58a.142.142 0 0 0-.134.09.136.136 0 0 0-.008.055c.68 12.802 10.394 19.318 22.272 26.119a.144.144 0 0 0 .193-.05.137.137 0 0 0 .02-.07V46.11a4.02 4.02 0 0 0 .364-.174 1.1 1.1 0 0 1 .269-.12.3.3 0 0 1 .176.018V61.55a.144.144 0 0 0 .071.12.143.143 0 0 0 .141 0c11.896-6.808 21.64-13.313 22.32-26.122a.13.13 0 0 0-.036-.102.134.134 0 0 0-.102-.042Zm-35.71-2.899c-.052.277-.084.557-.116.835a4.598 4.598 0 0 0-.027.47H22.08v-3.263h3.338v1.958Zm13.33-9.252c.196-.202.308-.31.308-.31l.357-.339a1.887 1.887 0 0 1 .593-.436 1.94 1.94 0 0 1 1.172-.131 2.71 2.71 0 0 1 1.274.54.732.732 0 0 1 .221.253c.105.228-.07.45-.23.598a22.865 22.865 0 0 0-1.623 1.645c-.426.476-.839.96-1.244 1.452-.268.33-.536.664-.804 1l-.023.03a59.827 59.827 0 0 0-1.474 1.967 50.4 50.4 0 0 0-.573.817c-.206.302-.622.555-1.004.423a1.548 1.548 0 0 1-.492-.382 6.686 6.686 0 0 1-.496-.597 1.407 1.407 0 0 1-.285-.483.971.971 0 0 1 .16-.793 34.745 34.745 0 0 1 4.163-5.254Zm7.118 3.205a8766.886 8766.886 0 0 1-4.845 5.23c-.33.356-.67.723-1.117.931a1.881 1.881 0 0 1-1.156.142 1.701 1.701 0 0 1-.528-.198 1.561 1.561 0 0 1-.59-.616 1.518 1.518 0 0 1-.17-.826c.045-.42.276-.796.509-1.15a30.37 30.37 0 0 1 1.1-1.548c.167-.214.337-.425.507-.634a28.92 28.92 0 0 1 1.271-1.472l.116-.122c.73-.768 1.52-1.48 2.363-2.129a2.54 2.54 0 0 1 .657-.393c.726-.27 1.33.262 1.804.74.306.302.633.654.623 1.08-.008.369-.284.685-.544.965Zm1.475-.207a.142.142 0 0 1 .178-.027c.204.115.398.247.58.393.343.274.653.584.924.925a5.041 5.041 0 0 1 1.097 3.327 3.964 3.964 0 0 1-.04.437.092.092 0 0 1-.058.073.097.097 0 0 1-.094-.013l-4.021-3.122a.262.262 0 0 1-.1-.184.257.257 0 0 1 .067-.196l1.467-1.613Zm-12.509 8.22s-.255.254-.335.933c-.02.183-.028.367-.023.551a.272.272 0 0 1-.099.214.74.74 0 0 1-.326.17 15.9 15.9 0 0 0-1.194.49c-1.08.54-2.71 1.523-4.015 2.822l-.008.006a.802.802 0 0 1-1.106-.121c-.536-.577-.759-1.35-.885-2.19-.087-.578.426-1.04.602-1.18l.054-.04h.006c.037-.034.33-.315.834-.718 1.055-.847 3.031-2.242 5.511-3.095.064-.027 1.939-.78 3.925 1.286a.068.068 0 0 1-.012.107.074.074 0 0 1-.04.01c-.582-.013-2.122-.141-2.887.754h-.002Zm.354 3.775c-.173.22-1.422 1.696-2.03 5.327 0 0-.156 1.239-1.187.62a14.136 14.136 0 0 1-1.264-.805 5.997 5.997 0 0 1-1.08-1.073l-.084-.112a1.827 1.827 0 0 1-.378-.74c-.11-.583.476-1.058.858-1.436.45-.44.939-.841 1.461-1.197.782-.524 1.61-.98 2.475-1.36l.205-.09s.452-.186.73.154l.26.288a.322.322 0 0 1 .033.424h.001Zm-1.437-19.11h3.338v2.135c-.556.045-1.11.12-1.658.222a9.756 9.756 0 0 0-1.68.512v-2.87Zm-1.666 7.079c.055-.218.116-.444.185-.67.205-.703.466-1.39.778-2.053l.018-.037v-.009c.046-.082.1-.16.163-.23.22-.234.491-.418.793-.538a6.775 6.775 0 0 1 1.705-.476c.45-.088.904-.144 1.362-.167.114 0 .228-.007.34 0a2.86 2.86 0 0 1 .352.014c.307.043-.318.82-.39.917-.073.097-.134.172-.203.262a9.699 9.699 0 0 1-.394.466c-.21.23-.402.465-.594.71a21.9 21.9 0 0 0-1.53 2.165c-.27.43-.505.88-.703 1.346l-.134.373-1.743.164-.417.04c.087-.77.224-1.532.412-2.283v.006Zm-4.168-1.368h1.311c-.483.422-.922.89-1.311 1.396v-1.396Zm-.956 4.947a6.56 6.56 0 0 1 .268-.873c.186-.474.415-.93.683-1.366a10.943 10.943 0 0 1 2.387-2.708c.34-.282.695-.548 1.063-.795a.073.073 0 0 1 .078-.003.069.069 0 0 1 .033.07c0 .02-.006.045-.009.069a14.76 14.76 0 0 0-.259.655c-.218.594-.355 1.07-.355 1.07-.214.72-.385 1.453-.512 2.193a17.56 17.56 0 0 0-.115.74l-.197.07-2.879 1.035a.146.146 0 0 1-.14-.028.14.14 0 0 1-.046-.134v.005Zm-.741 2.875c0-.085.016-.17.03-.255.03-.215.097-.422.196-.615.058-.108.131-.206.219-.293.2-.165.426-.298.67-.393.198-.092.394-.186.593-.274.198-.088.38-.15.577-.216.72-.243 1.443-.47 2.175-.677.449-.13.9-.246 1.351-.368.371-.1.912-.228 1.263 0a.531.531 0 0 1 .094.087l.063.072.05.06c.022.025.044.051.064.077l.073.095.082.11.087.123c.031.045.06.09.09.131.03.04.063.099.093.148a5.595 5.595 0 0 1 .18.327c.027.056.057.118.082.177a.258.258 0 0 1 .007.22c-.066.15-.259.2-.402.23-.358.079-.71.183-1.053.311l-.819.322c-.35.139-.697.281-1.037.437-.527.238-1.037.508-1.528.81-.358.222-.701.464-1.029.727-.245.198-.48.407-.717.616a5.55 5.55 0 0 1-.594.473c-.77.509-.84-.306-.84-.306s-.008-.077-.018-.214a13.975 13.975 0 0 1-.002-1.947v.005Zm10.865 26.348v1.538c-5.535-3.202-10.54-6.388-14.294-10.246a30.303 30.303 0 0 1-.925-.993c-3.13-3.52-5.229-7.611-5.809-12.754-.008-.08-.019-.165-.027-.249v-.006a.143.143 0 0 1 .047-.1.15.15 0 0 1 .105-.038h10.106a.56.56 0 0 1-.043.416c-.143.3-.2.633-.163.962.049.376.146.745.29 1.097.135.373.303.735.5 1.08.144.25.269.479.522.635.294.182.614.215.939.262a.137.137 0 0 1 .108.072c.01.036.01.074 0 .11-.053.277-.07.56-.05.842.037.333.167.65.376.917 0 0 1.29 1.603 3.034 2.456.203.087.423.131.646.13.185.009.369-.028.536-.106a.793.793 0 0 0 .241-.18c.056-.064.162-.19.212-.033a.418.418 0 0 1 .01.115c0 .582.59.96 1.073 1.18.243.107.497.188.758.241.248.042.5.066.753.07.35.021.702-.002 1.047-.067l.008 12.65Zm.649-13.994s-.03.378-.646.557c-.307.089-.76.13-1.428.046-2.064-.255-1.492-1.816-1.492-1.816.75-3.395 1.87-4.937 2.125-5.254a.134.134 0 0 1 .134-.052l.662.096.72.103a.143.143 0 0 1 .089.048.14.14 0 0 1 .033.094l-.197 6.178Zm1.01-7.256c-.11 0-.22-.008-.325-.013-.174-.01-.337-.022-.49-.038a5.558 5.558 0 0 1-.841-.139 2.102 2.102 0 0 1-1.306-.859 1.748 1.748 0 0 1-.275-.549 1.05 1.05 0 0 1 .074-.765 1.66 1.66 0 0 1 .305-.416c.486-.492 1.248-.594 1.61-.393.36.2.988.254.988.254s1.232.068 3.002.051c.375-.01.74.121 1.016.369.043.04.083.084.12.13.284.36.367.88.306 1.32a1.025 1.025 0 0 1-.315.597 1.06 1.06 0 0 1-.623.28 27.196 27.196 0 0 1-3.25.171h.003Zm4.434 6.742c-.246.342-.762.533-1.157.655a6.28 6.28 0 0 1-1.421.242c-.412.028-.91.085-1.238-.22a.677.677 0 0 1-.214-.402c-.227-1.867.017-4.012.017-4.012l.177-1.704a.139.139 0 0 1 .042-.09.145.145 0 0 1 .093-.042l1.891-.014a.139.139 0 0 1 .134.088l1.803 4.423c.095.361.094.764-.13 1.076h.003Zm3.795-2.548c-.261.576-1.129 1.17-1.129 1.17-.385.236-.873.353-1.244.025a1.572 1.572 0 0 1-.328-.45 6.984 6.984 0 0 1-.087-.173c-.135-.278-.275-.55-.392-.839a14.008 14.008 0 0 1-.306-.832 21.42 21.42 0 0 1-.435-1.486 15.49 15.49 0 0 1-.134-.556.136.136 0 0 1 .008-.086.14.14 0 0 1 .059-.064 8.08 8.08 0 0 0 1.004-.693.146.146 0 0 1 .197.014l.324.357s1.578 1.73 2.238 2.476c.594.684.222 1.137.222 1.137h.003Zm2.115-2.256a2.66 2.66 0 0 1-.737.759.25.25 0 0 1-.326-.03l-.429-.458-3.225-3.421a.14.14 0 0 1-.036-.087c-.008-.131-.065-.524-.425-1.064a4.286 4.286 0 0 0-.402-.517 2.235 2.235 0 0 0-.317-.286l-.041-.034a2.158 2.158 0 0 0-.885-.373 1.456 1.456 0 0 0-.447-.007.629.629 0 0 1-.437-.13 1.273 1.273 0 0 1-.191-.177l-.089-.1a.655.655 0 0 1-.175-.261c-.08-.276.134-.476.293-.674.201-.252.41-.497.628-.732.218-.234.5-.393.816-.34a.944.944 0 0 1 .536.298l1.793 1.808.717.724.795.802 2.246 2.265.175.195c.785.88.16 1.84.16 1.84h.003ZM50.55 34.6a11.047 11.047 0 0 1-.374 2.26c-.048.213-.152.475-.367.47-.245 0-.452-.181-.62-.34-.356-.337-.703-.683-1.051-1.028-.188-.186-.374-.373-.564-.56l-.804-.802-.205-.204-.517-.524-1.086-1.087c-.4-.401-.802-.801-1.207-1.2-.155-.152-.38-.302-.478-.495a.555.555 0 0 1 .038-.552.755.755 0 0 1 .157-.187l.258-.276.59-.634c.087-.108.185-.207.293-.295a.567.567 0 0 1 .268-.083c.357-.022.697.213.957.422 1.007.814 3.877 2.987 3.877 2.987s.805.498.856 1.4v.13s0 .231-.023.598h.002Zm.285-2.042a.832.832 0 0 1 .02-.334c.01-.131.023-.27.028-.407a8.273 8.273 0 0 0 0-.815 7.973 7.973 0 0 0-.371-2.118 5.783 5.783 0 0 0-1.252-2.175 5.509 5.509 0 0 0-1.55-1.144c-.122-.062-.26-.086-.38-.152a.561.561 0 0 1-.215-.278 3.278 3.278 0 0 0-.197-.38c-.498-.833-1.27-1.743-2.33-1.812a2.263 2.263 0 0 0-1.207.29s.523-1.808-2.71-1.954a1.952 1.952 0 0 0-1.097.318V13.48a.128.128 0 0 1 .04-.1.136.136 0 0 1 .1-.038H60.36a.144.144 0 0 1 .1.04.138.138 0 0 1 .042.098v20.26a.136.136 0 0 1-.087.127.144.144 0 0 1-.055.01h-8.981c0-.055-.004-.11-.013-.165a2.429 2.429 0 0 0-.134-.584 1.934 1.934 0 0 0-.337-.465.404.404 0 0 1-.062-.105h.003Zm1.797-25.983c0-.576-.323-.865-.969-.865h-.891v1.73h.891c.646 0 .97-.288.97-.865ZM27.119 9.772c1.168 0 1.42-.73 1.42-2.19 0-1.373-.474-2.019-1.42-2.019s-1.418.847-1.418 2.019c0 1.46.473 2.19 1.418 2.19Z" fill="#F8FAFF"/><path d="M61.244 11.833V1.79H15.416v10.042h45.828v.002Zm-6.148-7.439h4.754v1.31h-3.023v1.173h2.787v1.31h-2.787V9.63h3.023v1.31h-4.76l.005-6.546Zm-6.055 0h2.873c1.69 0 2.536.727 2.535 2.181 0 1.455-1.456 2.182-2.535 2.182h-1.142v2.198h-1.73V4.394Zm-5.408 0h4.76v1.31h-3.03v1.18h2.788v1.311h-2.787v1.442h3.03v1.311h-4.765l.004-6.554Zm-6.556 0h5.91v1.24h-2.189v5.32h-1.727v-5.32h-1.994v-1.24Zm-6.005 5.243 3.289-4.003h-3.114v-1.24h5.182v1.388l-3.176 3.855h3.384v1.311h-5.565v-1.31Zm-3.501-7.102h1.407v1.152h-1.407V2.535Zm-2.248 0h1.415v1.152h-1.415V2.535Zm-.596 2.643c.566-.621 1.365-.932 2.397-.93 1.033 0 1.829.31 2.39.93.565.613 1.003 1.253 1.003 2.375s-.283 1.994-.848 2.614c-.566.62-1.511.918-2.547.918-1.037 0-1.91-.307-2.475-.918-.566-.61-.84-1.34-.84-2.462-.002-1.343.356-1.914.92-2.527Zm-7.92 2.38c.133-3.058 2.78-3.2 3.753-3.23.929-.032 2.01.326 2.501.576 0 .301 0 .646.008 1.536h-.197c-.635-.722-1.571-.949-2.345-.932-.742.016-1.876.538-1.876 2.149 0 .69.118 1.128.43 1.511a1.698 1.698 0 0 0 1.322.671c.327.04.658.024.978-.05V8.555l-1.346-.021V7.397h3.003v3.248c-.513.095-1.03.263-1.548.36-4.538.51-4.732-2.386-4.684-3.448Zm3.605 5.062h-4.996v4.886h4.996V12.62Zm-.83 4.075h-3.336v-3.264h3.336v3.264Zm.83 1.631h-4.996v4.885h4.996v-4.885Zm0 5.704h-4.996v4.886h4.996v-4.885Zm-.83 4.075h-3.336v-3.263h3.336v3.263Zm.83 1.631h-4.996v4.885h4.996v-4.885Zm5.834-5.706H21.25v4.886h4.996v-4.885Zm0-5.704H21.25v4.885h4.996v-4.885Zm-.828 4.074H22.08v-3.264h3.338V22.4Zm.828-9.78H21.25v4.886h4.996v-4.885Zm5.836 4.886V12.62h-4.998v4.886h4.998Zm-4.168-4.075h3.338v3.264h-3.338v-3.264Zm10.002-.811H32.92v4.886h4.996v-4.885Zm3.732 24.215a.292.292 0 0 0 .145.255.31.31 0 0 0 .413-.09.293.293 0 0 0-.077-.406l.047-.552a.3.3 0 0 0 .137-.134.29.29 0 0 0-.069-.352.306.306 0 0 0-.487.118.29.29 0 0 0 .108.343l-.047.552a.3.3 0 0 0-.17.266Zm-.834.426c.063 0 .125-.02.176-.055a.296.296 0 0 0 .114-.327.296.296 0 0 0-.105-.149l.097-.835a.3.3 0 0 0 .177-.27.293.293 0 0 0-.143-.254.31.31 0 0 0-.413.084.293.293 0 0 0 .069.406l-.097.833a.294.294 0 0 0-.09.48.307.307 0 0 0 .215.087Zm-1.111.019c.08 0 .158-.032.215-.088a.294.294 0 0 0 .057-.342.296.296 0 0 0-.09-.104l.11-1.008a.302.302 0 0 0 .177-.269.296.296 0 0 0-.114-.234.308.308 0 0 0-.38 0 .295.295 0 0 0 .007.47l-.11 1.008a.3.3 0 0 0-.146.137.29.29 0 0 0 .082.365.308.308 0 0 0 .192.065Zm-.96-2.175a.308.308 0 0 0-.18.056.29.29 0 0 0 .002.48l-.084 1.017a.298.298 0 0 0-.168.262c0 .079.031.154.088.21a.308.308 0 0 0 .46-.034.292.292 0 0 0-.069-.417l.085-1.01a.3.3 0 0 0 .169-.261.29.29 0 0 0-.087-.214.303.303 0 0 0-.216-.09Zm-1.056.03a.306.306 0 0 0-.204.078.293.293 0 0 0-.097.22.29.29 0 0 0 .106.222l-.134.749a.304.304 0 0 0-.152.12.294.294 0 0 0 .033.362.307.307 0 0 0 .365.064.301.301 0 0 0 .136-.138.293.293 0 0 0-.076-.354l.134-.749a.316.316 0 0 0 .134-.093.29.29 0 0 0-.025-.397.306.306 0 0 0-.22-.084Zm-1.114-.143a.308.308 0 0 0-.216.087.294.294 0 0 0-.065.325.3.3 0 0 0 .077.104l-.109.546a.293.293 0 0 0-.053.535.31.31 0 0 0 .424-.115.292.292 0 0 0-.065-.363l.11-.544a.303.303 0 0 0 .177-.163.29.29 0 0 0-.027-.28.301.301 0 0 0-.253-.132Z" fill="#F8FAFF"/></g><defs><clipPath id="a"><path fill="#fff" transform="translate(.33)" d="M0 0h76v64H0z"/></clipPath></defs></svg>