<svg width="48" height="48" viewBox="0 0 48 48" fill="none" xmlns="http://www.w3.org/2000/svg"><path d="M24 48c13.255 0 24-10.745 24-24S37.255 0 24 0 0 10.745 0 24s10.745 24 24 24Z" fill="#F8FAFF"/><g clip-path="url(#a)"><path d="M10.784 14.024c-.454.035-.804.107-.784.16.181.432 1.302 2.971 1.317 2.987.015.015.275.033.582.046 1.358.05 2.432.316 3.593.89a7.46 7.46 0 0 1 2.095 1.493 7.254 7.254 0 0 1 2.001 3.578c0 .028-.206.034-1.12.034-.618 0-1.148.01-1.182.022-.048.018-.176.294-.707 1.511-.357.82-.653 1.509-.658 1.532-.018.066.197.125.732.204.11.018.769.035 1.547.046l1.355.015-.081.28c-.914 3.1-3.75 5.266-7.223 5.526-.196.013-.454.026-.574.026h-.217l-.669 1.539c-.574 1.314-.663 1.539-.625 1.551.173.064.561.087 1.46.087 1.148 0 1.707-.05 2.654-.245 3.866-.794 7.08-3.254 8.534-6.541.281-.633.61-1.674.669-2.11l.018-.126h2.902l.01.056c.21 1.026.436 1.718.83 2.535 1.18 2.46 3.396 4.469 6.14 5.571 1.666.667 3.45.988 5.244.942.75-.023 1.348-.107 1.317-.187a499.43 499.43 0 0 0-1.304-2.99 7.932 7.932 0 0 0-.59-.031c-.895-.036-1.569-.14-2.33-.357-1.171-.337-2.33-.947-3.218-1.693-1.118-.941-1.927-2.113-2.355-3.412a4.261 4.261 0 0 1-.105-.35l-.018-.081 1.092-.008c.6-.005 1.11-.018 1.131-.028.033-.018 1.34-2.98 1.34-3.04 0-.038-.33-.135-.628-.183-.22-.036-.498-.046-1.608-.054l-1.345-.013.051-.18c.745-2.64 3.032-4.735 5.98-5.478.65-.163 1.284-.247 2.105-.28.49-.02.552-.029.582-.07.02-.027.322-.704.669-1.503.426-.977.623-1.46.605-1.472-.056-.03-.414-.095-.694-.123-.409-.043-1.6-.035-2.126.01-3.007.269-5.717 1.48-7.748 3.461-1.24 1.21-2.111 2.568-2.647 4.135a10.48 10.48 0 0 0-.355 1.32l-.03.186h-2.853l-.01-.06c-.008-.03-.036-.175-.067-.323-.42-2.093-1.61-4.127-3.29-5.625-1.91-1.708-4.295-2.777-6.918-3.102-.789-.096-1.805-.13-2.476-.078Z" fill="#007F88"/></g><defs><clipPath id="a"><path fill="#fff" transform="translate(10 14)" d="M0 0h30v21.638H0z"/></clipPath></defs></svg>