<svg width="89" height="28" viewBox="0 0 89 28" fill="none" xmlns="http://www.w3.org/2000/svg"><g clip-path="url(#a)"><path d="M56.12 15.094c0 .427-.283.703-.886.703h-1.65V14.4h1.65c.603 0 .886.233.886.694Zm-.194-2.159c0 .301-.187.51-.7.51h-1.641v-1.026h1.577c.543 0 .764.177.764.516Zm1.473 2.145c0-.593-.373-.987-.87-1.18.41-.215.656-.587.656-1.05 0-.925-.762-1.427-1.968-1.427h-2.849v5.4h2.822c1.33 0 2.209-.609 2.209-1.743Zm3.869-.485h-1.421l.4-.981c.125-.315.248-.64.31-.84.064.2.186.525.311.84l.4.981Zm2.28 2.229-2.36-5.401H59.98l-2.377 5.4h1.33l.489-1.203h2.27l.488 1.204h1.367Zm5.564 0v-5.401h-1.225v2.285c0 .3.017.979.017 1.18-.08-.139-.286-.41-.436-.61l-2.2-2.855H64.08v5.4h1.224v-2.375c0-.301-.018-.98-.018-1.181.08.139.283.41.434.61L68 16.823h1.112Zm16.834-1.636c0-1.172-1.09-1.466-2.076-1.666-.984-.202-1.251-.31-1.251-.649 0-.239.221-.485.888-.485.568 0 1.01.2 1.41.554l.895-.754c-.585-.533-1.295-.85-2.262-.85-1.225 0-2.218.601-2.218 1.583 0 1.063.8 1.38 1.943 1.611 1.172.232 1.385.385 1.385.732 0 .408-.346.587-1.083.587-.595 0-1.154-.18-1.588-.617l-.897.693c.471.602 1.376.98 2.415.98 1.693.001 2.439-.693 2.439-1.719Zm2.2-3.764h-1.242v5.4h1.242v-5.4Zm-9.696 2.19c-.125-.315-.25-.64-.312-.84a14.75 14.75 0 0 1-.31.84l-.4.981h1.42l-.398-.981Zm-2.73 3.21h-1.491l-1.686-2.607-.994 1.018v1.589h-1.242v-5.401h1.242v1.535c0 .201-.01.687-.017.858.089-.125.319-.37.487-.548l1.74-1.845h1.498L73.44 13.29l1.963 3.041 2.161-4.908h1.206l2.36 5.4h-1.367l-.489-1.203h-2.271l-.488 1.204h-.795Zm-51.952-6.435a.695.695 0 1 1 1.39.001.695.695 0 0 1-1.39-.001Zm-13.132 4.05v-3.016H9.394v3.032c0 .864-.489 1.396-1.277 1.396-.79 0-1.27-.547-1.27-1.411v-3.017h-1.24v3.032c0 1.573 1.01 2.453 2.51 2.453 1.578 0 2.52-.903 2.52-2.468Zm-4.155-4.06a.696.696 0 1 1 1.39 0 .695.695 0 0 1-1.39 0Zm1.911 0a.695.695 0 1 1 1.39-.002.695.695 0 0 1-1.39.002Zm28.09 6.445v-1.057h-3.203v-1.303h1.784v-1.05h-1.785v-.934h3.071v-1.057h-4.311v5.4h4.443Zm-4.906-5.4h-1.41l-.879 1.28c-.23.34-.558.856-.674 1.057a20.85 20.85 0 0 0-.674-1.056l-.878-1.281h-1.428l2.351 3.286v2.114h1.242v-2.137l2.35-3.263Zm-8.442 5.4-2.28-3.534 1.819-1.866h-1.5l-1.738 1.843c-.168.178-.4.425-.489.55.008-.172.018-.658.018-.858v-1.535h-1.242v5.4h1.242v-1.59l.994-1.017 1.685 2.607h1.49Zm-7.639-3.666c0 .471-.31.703-.886.703h-1.625v-1.39h1.625c.55 0 .886.201.886.687Zm1.278 3.666-1.189-2.1c.79-.268 1.189-.778 1.189-1.588 0-1.15-.968-1.712-2.138-1.712h-2.892v5.4h1.242V14.88h1.25l1.11 1.944h1.428ZM4.81 12.489v-1.066H0v1.066h1.784v4.335h1.242v-4.335H4.81Zm20.274-1.066h-1.242v5.4h1.242v-5.4ZM41.029 22.96c.166.038.995.325.995.325.61.257 1.12.44 1.686.543a1.482 1.482 0 0 0-.824 1.328c0 .626.39 1.114.937 1.308.217.106.244.184.306.378.053.165-.12.833-.12.833h.384s.249-.307.597-.789c.153-.21.387-.633.526-.821.186-.274.337-.535.337-.909 0-.512-.26-.964-.654-1.23a5.825 5.825 0 0 0 1.763-.385c2.722-.925 3.344-3.329 3.344-3.329a5.01 5.01 0 0 0 .166-1.276c0-1.46-.773-2.776-1.782-3.682 0 0-.311-.3-.568-.489-.53-.412-2.227-1.317-2.227-1.317s-2.852-1.55-3.57-1.998c-.719-.449-1.058-.802-1.058-.802-.55-.47-.904-1.11-.904-1.923 0-1.262 1.14-2.144 2.468-2.368 0 0 .09-.01.22-.017v4.835l2.606 1.438V5.135c.02-.193-.069-.853.634-1.041l.382-.1v-.372h-4.637v.371l.365.097c.722.183.63.85.65 1.046v.499a2.819 2.819 0 0 0-.324.034c-2.333.33-4.033 2.173-4.033 4.4 0 1.658.788 2.696 2.044 3.64.652.49 1.096.701 1.882 1.132l.432.24v4.727c-.02.196.07.854-.633 1.042l-.383.103v.37h4.637v-.37l-.365-.097c-.722-.184-.63-.852-.65-1.049v-3.272l.506.285s1.527.743 2.115 2.088c.59 1.345.206 3.275-2.146 4.12 0 0-2.8.87-5.336-1.506 0 0-.875-.918-1.307-2.151a7.165 7.165 0 0 1-.146-.502h-.367v4.683h.311s.187-.273.349-.405a.876.876 0 0 1 .114-.084c.205-.125.499-.287 1.224-.121l.054.017ZM48.94 6.103v-.216h-.336l-.178.27c-.161.206-.307.28-.618.312-.36.041-.822-.155-.822-.155l-.683-.272v.688c.296.166.428.3.573.407.179.133.46.408.791.852.331.446.574 1.011.653 1.252.059.175.137.545.174.76l.046.287h.4V6.103Zm-6.098-4.59a1.513 1.513 0 1 0 3.025-.001 1.513 1.513 0 0 0-3.025 0Z" fill="#687CA3"/></g><defs><clipPath id="a"><path fill="#fff" d="M0 0h88.48v28H0z"/></clipPath></defs></svg>