<svg width="166" height="30" viewBox="0 0 166 30" fill="none" xmlns="http://www.w3.org/2000/svg"><g clip-path="url(#a)"><path d="M162.735.454a4.602 4.602 0 0 0-3.755 1.936l-4.927 6.88 2.832 3.943L166.008.456l-3.273-.002Z" fill="#068BDF"/><path d="M165.667 28.974 145.452.755a.713.713 0 0 0-.579-.298h-4.572a.358.358 0 0 0-.316.198.359.359 0 0 0 .028.373l9.759 13.62a.612.612 0 0 1 0 .706l-9.759 13.62a.361.361 0 0 0 .288.568h4.583a.714.714 0 0 0 .58-.298l7.086-9.905a.36.36 0 0 1 .288-.15.355.355 0 0 1 .289.15l7.088 9.905a.718.718 0 0 0 .579.298h4.583a.362.362 0 0 0 .288-.571l.002.005Zm-29.525-3.668a.364.364 0 0 0-.355-.37h-14.659a.346.346 0 0 1-.333-.352v-6.929a.353.353 0 0 1 .355-.355h12.282a.356.356 0 0 0 .355-.354l-.012-3.883a.35.35 0 0 0-.219-.327.352.352 0 0 0-.136-.026h-12.27a.375.375 0 0 1-.355-.37V5.415a.355.355 0 0 1 .355-.353h14.644a.356.356 0 0 0 .355-.355V.836a.365.365 0 0 0-.355-.37h-19.23a.361.361 0 0 0-.355.368v28.352a.35.35 0 0 0 .219.327.352.352 0 0 0 .136.026h19.231a.353.353 0 0 0 .354-.353l-.007-3.88ZM102.697.458h-11.16a.364.364 0 0 0-.355.368v28.352l.011.01a.354.354 0 0 0 .355.353h3.875a.353.353 0 0 0 .353-.353V19.78a.32.32 0 0 1 .32-.322c2.359.012 5.585.014 6.816-.033 4.23-.166 9.702-3.82 9.477-9.842a9.632 9.632 0 0 0-9.692-9.127Zm.225 14.369h-6.816a.321.321 0 0 1-.322-.322V5.38a.322.322 0 0 1 .322-.321h6.676a4.974 4.974 0 0 1 4.998 4.33 4.882 4.882 0 0 1-2.864 5.014c-.629.28-1.31.425-1.999.424h.005ZM82.136.817 74.36 14.285a.32.32 0 0 1-.556 0L66.028.817a.713.713 0 0 0-.618-.356h-4.276a.357.357 0 0 0-.309.534l10.813 18.73c.094.162.143.346.143.534v8.922a.356.356 0 0 0 .357.357h3.881a.356.356 0 0 0 .357-.357v-8.914c0-.188.05-.372.143-.534L87.337.995a.356.356 0 0 0-.308-.534h-4.276a.713.713 0 0 0-.617.356ZM55.248 9.131a4.885 4.885 0 0 1-4.819 5.689h-3.69a.284.284 0 0 0-.246.428l2.43 4.211 5.647 9.782a.59.59 0 0 0 .512.295h4.546a.237.237 0 0 0 .205-.355L53.91 18.923a.283.283 0 0 1 .131-.401 9.442 9.442 0 0 0 5.85-9.242A9.619 9.619 0 0 0 50.232.45H39.055a.363.363 0 0 0-.355.37v28.35l.012.01a.354.354 0 0 0 .355.353h3.874a.355.355 0 0 0 .355-.353V5.411a.355.355 0 0 1 .355-.354h6.663a4.959 4.959 0 0 1 4.934 4.074ZM23.353 25.18a10.175 10.175 0 0 1-.167-20.346 10.07 10.07 0 0 1 7.89 3.541.371.371 0 0 0 .473.055l3.236-2.166a.355.355 0 0 0 .1-.491l-.018-.025a14.756 14.756 0 1 0 0 18.49.354.354 0 0 0-.058-.5l-.025-.016-3.237-2.165a.372.372 0 0 0-.473.055 10.162 10.162 0 0 1-7.724 3.56M-.003 29.183V.456A4.596 4.596 0 0 1 4.583 5.05v24.13a.354.354 0 0 1-.355.354H.353a.35.35 0 0 1-.328-.218.353.353 0 0 1-.027-.136" fill="#2A3B57"/></g><defs><clipPath id="a"><path fill="#fff" transform="translate(0 .243)" d="M0 0h166v29.515H0z"/></clipPath></defs></svg>