<svg width="73" height="74" viewBox="0 0 73 74" fill="none" xmlns="http://www.w3.org/2000/svg"><g clip-path="url(#a)"><path d="M62.117 22.18c-10.87-1.59-9.792-11.663-9.792-11.663C41.504 10.152 36.332.27 36.332.27s-5.175 9.872-15.995 10.247c0 0 1.08 10.074-9.792 11.663 0 0-.075 9.827-10.07 13.246 0 0 1.166 6.402 8.368 9.246 0 0 .824 12.414 12.992 18.922a20.33 20.33 0 0 0 3.399 1.41c2.595.834 8.924 3.353 11.098 8.666 2.174-5.313 8.5-7.83 11.098-8.662a20.513 20.513 0 0 0 3.398-1.412c12.166-6.498 12.993-18.921 12.993-18.921 7.186-2.836 8.365-9.247 8.365-9.247-9.992-3.421-10.07-13.248-10.07-13.248Z" fill="#4D4D4D" stroke="#F8FAFF" stroke-miterlimit="10"/><path d="M28.026 12.026h-1.268v4.788h1.268v-4.788Zm13.059-.013h-1.268v4.789h1.268v-4.789Zm-12.232.013a7.709 7.709 0 0 0 0 1.09h2.258l-2.086 2.399-.072.082a.902.902 0 0 0-.213.615v.605h3.988v-1.09H30.46l2.118-2.427c.15-.167.24-.378.257-.6v-.674h-3.981Zm4.615 4.791h1.178v-3.354l.847 3.354h1.28l.891-3.359v3.359h1.142v-4.798h-1.763l-.909 3.39-.924-3.383h-1.742v4.79Zm12.407-1.11v.628c-.016.155.003.312.054.46v.022h-1.096v-.72c0-.62-.154-.847-.614-.847h-1.1v1.567h-1.05v-4.809h2.422c1.217 0 1.373.728 1.373 1.303v.057c0 .642-.323 1.017-.71 1.14.42.125.72.475.72 1.2Zm-1.54-1.632c.339 0 .42-.215.42-.46v-.012c0-.235-.081-.44-.42-.44h-1.232v.905l1.232.007Zm-3.463-3.539h-.89v.928h.89v-.928Zm-13.038 0h-.89v.928h.89v-.928Zm1.321 50.191c.981 0 1.32-.17 1.517-.75h.852v4.636h-1.267v-2.871h-1.102v-1.015Zm7.228 0c.978 0 1.317-.17 1.517-.75h.852v4.636h-1.268v-2.871h-1.1v-1.015Zm-3.27 2.624a.648.648 0 0 0 .248.356c.122.088.27.133.422.127a.717.717 0 0 0 .547-.25c.154-.168.233-.563.244-1.183a1.28 1.28 0 0 1-.458.35 1.31 1.31 0 0 1-.569.115 1.441 1.441 0 0 1-1.027-.382 1.293 1.293 0 0 1-.403-1 1.38 1.38 0 0 1 .108-.59c.079-.188.198-.356.35-.494.34-.29.784-.438 1.236-.415.342-.008.68.079.973.25.296.186.52.463.637.787.154.389.23.803.223 1.22a2.9 2.9 0 0 1-.477 1.696 1.605 1.605 0 0 1-.623.526 1.66 1.66 0 0 1-.807.16c-.814 0-1.283-.54-1.481-1.27l.857-.003Zm.719-2.619a.655.655 0 0 0-.495.21.692.692 0 0 0 0 .95.622.622 0 0 0 .492.205.666.666 0 0 0 .514-.21.686.686 0 0 0 .197-.475.661.661 0 0 0-.195-.473.642.642 0 0 0-.513-.207Zm8.842-.83v2.832h.668v.817h-.668v1.072h-1.116v-1.072H39.47v-.815l1.925-2.831 1.278-.003Zm-2.359 2.832h1.297V60.75l-1.297 1.984Zm-3.985-4.649c10.98 0 19.88-8.667 19.88-19.358s-8.9-19.359-19.88-19.359c-10.98 0-19.882 8.668-19.882 19.359 0 10.691 8.901 19.358 19.881 19.358Z" fill="#F8FAFF"/><path d="M24.692 35.573H22.1l-2.164 9.352h2.349l.474-1.882h1.284l.477 1.882h2.346l-2.174-9.352Zm-2.069 5.61.714-3.726.729 3.727h-1.443Zm21.697-5.61h-2.593l-2.166 9.352h2.35l.476-1.882h1.283l.475 1.882h2.35l-2.176-9.352Zm-2.054 5.61.716-3.726.73 3.727h-1.446ZM28.288 35.64v9.282h5.07v-1.86h-3.16V35.64h-1.91Z" fill="#4D4D4D"/><path d="M26.28 32.53v1.858h9.23v10.534h1.913V34.388h9.23V32.53H26.28Zm23.835 3.11-.952 2.987-.955-2.987h-2.61l2.328 5.034v4.248h2.471v-4.248l2.328-5.034h-2.61Z" fill="#4D4D4D"/></g><defs><clipPath id="a"><path fill="#fff" transform="translate(.33)" d="M0 0h72v74H0z"/></clipPath></defs></svg>