<svg width="75" height="36" viewBox="0 0 75 36" fill="none" xmlns="http://www.w3.org/2000/svg"><g clip-path="url(#a)"><path fill-rule="evenodd" clip-rule="evenodd" d="M3.124 3.187a1.286 1.286 0 0 1 .86.535 2.81 2.81 0 0 1 .467 1.648v18.96a.64.64 0 0 1-.113.325 3.608 3.608 0 0 1-2.273 1.7c-.448.11-.907.172-1.369.184a2.62 2.62 0 0 0 0 .662H11.42a5.445 5.445 0 0 0 0-.676c-.31-.029-.621 0-.931-.029a3.732 3.732 0 0 1-1.482-.433 2.157 2.157 0 0 1-1.017-1.38 2.829 2.829 0 0 1-.042-.775V.708A.798.798 0 0 0 7.594.02c-.17-.07-.353.056-.465.166a6.248 6.248 0 0 1-2.312 1.408c-1.455.498-2.968.81-4.502.93v.647c.932.057 1.863 0 2.795.029l.014-.014Zm30.17 9.436a.786.786 0 0 1 .735-.436h19.053a.743.743 0 0 1 .705.436c.078.18.108.379.085.574v2.24a.803.803 0 0 1-.819.788h-6.33c-.634 0-1.28.028-1.915 0a2.896 2.896 0 0 0-.833-1.634.707.707 0 0 0-.96.113c-.342.43-.535.959-.55 1.507a7.713 7.713 0 0 1-.805.028h-7.462a1.166 1.166 0 0 1-.65-.155.816.816 0 0 1-.324-.704v-2.158a1.31 1.31 0 0 1 .07-.599Zm5.876-2.637c1.453-.873 2.61-2.17 3.64-3.521.24-.31.452-.634.706-.916.176.194.336.402.48.62 1.059 1.408 2.227 2.771 3.737 3.715.701.44 1.468.769 2.272.971a3.25 3.25 0 0 1 0 .522H38.982c-.649 0-1.298.028-1.947 0a3.216 3.216 0 0 1 0-.522 8.336 8.336 0 0 0 2.142-.887l-.008.018Zm13.167 10.736a11.65 11.65 0 0 1-2.31 3.577 8.549 8.549 0 0 1-3.43 2.194 3.77 3.77 0 0 1-.537.14c.085-.168.268-.253.41-.351a4.398 4.398 0 0 0 1.185-1.222 1.054 1.054 0 0 0 .099-1.014.864.864 0 0 0-.819-.451 3.758 3.758 0 0 0-1.62.704c-.45.296-.86.676-1.283 1a30.478 30.478 0 0 1 0-1.605 10.49 10.49 0 0 0 2.522-1.324 3.688 3.688 0 0 0 1.313-1.62 1.054 1.054 0 0 0-.057-.972.728.728 0 0 0-.762-.151 4.361 4.361 0 0 0-1.478.757 2.635 2.635 0 0 1-1.242.605c-.057.127-.198-.098-.057-.098.257-.847.446-1.712.565-2.588.054-.458.073-.92.056-1.38h8.546a15.864 15.864 0 0 1-1.1 3.799Zm-9.286 4.538a3.35 3.35 0 0 1-.55-.45 6.783 6.783 0 0 0-1.765-1.113 1.562 1.562 0 0 0-.875-.113.851.851 0 0 0-.635 1c.084.32.243.615.466.86.284.326.606.618.96.87.157.1.304.219.437.351.127-.098.141.17 0 .085v-.042a1.243 1.243 0 0 1-.226-.028 8.438 8.438 0 0 1-2.763-1.307 10.146 10.146 0 0 1-3.076-3.817c-.43-.904-.77-1.847-1.017-2.817a10.62 10.62 0 0 1-.324-1.873H42.4a14.32 14.32 0 0 0 .31 3.377c.043.24.114.479.142.732a2.4 2.4 0 0 1-1.059-.422 4.753 4.753 0 0 0-1.834-.969.637.637 0 0 0-.706.208 1.251 1.251 0 0 0 .028 1.099 4.165 4.165 0 0 0 1.553 1.69c.684.45 1.418.818 2.187 1.099.113.028.071.169.085.253-.042.437-.028.887-.056 1.338v-.01Zm-8.821-.746a12.094 12.094 0 0 0 8.747 4.278c.352.03.706.03 1.058 0a11.822 11.822 0 0 0 3.497-.662 12.145 12.145 0 0 0 5.908-4.43 12.107 12.107 0 0 0 2.242-7.028 11.862 11.862 0 0 0-.96-4.753 12.14 12.14 0 0 0-4.689-5.49 12.178 12.178 0 0 0-6.982-1.862 12.18 12.18 0 0 0-6.349 2.104 12.143 12.143 0 0 0-4.273 5.137 12.116 12.116 0 0 0 1.832 12.706h-.031Zm23.008-11.01a2.64 2.64 0 0 0 .561-.88 4.505 4.505 0 0 1 1.182-1.48 2.027 2.027 0 0 1 1.256-.464h10.585c.18-.013.36-.003.537.028a.433.433 0 0 1 .25.38c-.011.41-.133.809-.353 1.155L60.802 32.176a9.97 9.97 0 0 1-.678 1.194c-.248.303-.41.668-.465 1.056a.27.27 0 0 0 .24.183c1.213.042 2.427 0 3.64 0a.115.115 0 0 0 .114-.056 177.992 177.992 0 0 1 9.741-24.394c.248-.387.474-.787.678-1.198a2.14 2.14 0 0 0 .254-.803c0-.14.028-.267 0-.408a2.417 2.417 0 0 0-.381-.282 1.923 1.923 0 0 0-.847-.098H59.373a2.803 2.803 0 0 0-.593 0 .761.761 0 0 0-.377.352 4.649 4.649 0 0 0-.424 1.296c-.381 1.366-.776 2.746-1.157 4.112-.127.208.197.602.437.391l-.02-.018Zm-43.12 1.014a7.206 7.206 0 0 1 1.412-3.828 5.594 5.594 0 0 1 3.076-1.887c.411-.101.83-.167 1.253-.197a6.272 6.272 0 0 1 1.92.112 7.368 7.368 0 0 1 4.837 4.226c.226.54.382 1.107.465 1.686.081.701.105 1.408.07 2.113a9.085 9.085 0 0 1-.606 3.123 3.808 3.808 0 0 1-1.323 1.69 5.94 5.94 0 0 1-2.964.902c-.353.042-.706 0-1.058.042a8.144 8.144 0 0 1-.833 0 6.664 6.664 0 0 1-3.109-1.074 7.011 7.011 0 0 1-3.062-4.39 7.546 7.546 0 0 1-.085-2.522l.007.004Zm1.666 8.87a7.99 7.99 0 0 0 2.71.844 7.07 7.07 0 0 0 2.762-.253 20.689 20.689 0 0 0 3.486-1.282c.244-.137.5-.255.762-.352a12.116 12.116 0 0 1-1.002 3.028 21.8 21.8 0 0 1-3.359 5.152 20.521 20.521 0 0 1-3.807 3.433c-.466.324-.96.605-1.44.915a.88.88 0 0 0-.423.507.86.86 0 0 0 .296.606h.89a10.772 10.772 0 0 0 1.707-1.17 50.39 50.39 0 0 0 3.412-2.94 47.514 47.514 0 0 0 3.486-3.661 27.981 27.981 0 0 0 3.49-5.029c.931-1.802 1.609-3.799 1.496-5.841a12.679 12.679 0 0 0-1.228-5.426 8.587 8.587 0 0 0-1.51-2.056 8.12 8.12 0 0 0-3.341-1.916 11.118 11.118 0 0 0-2.273-.394 12.99 12.99 0 0 0-4.54.479 8.728 8.728 0 0 0-3.36 1.845 7.554 7.554 0 0 0-2.254 3.785 10.48 10.48 0 0 0-.31 2.817 7.676 7.676 0 0 0 1.453 4.532 7.917 7.917 0 0 0 2.89 2.394l.007-.018Z" fill="#4D4D4D"/></g><defs><clipPath id="a"><path fill="#fff" transform="translate(.33)" d="M0 0h74v36H0z"/></clipPath></defs></svg>