<svg width="135" height="24" viewBox="0 0 135 24" fill="none" xmlns="http://www.w3.org/2000/svg">
<g clip-path="url(#clip0_3_23885)">
<path d="M132.345 0.171876C131.747 0.171529 131.158 0.314235 130.627 0.588064C130.096 0.861893 129.638 1.25887 129.291 1.74585L125.284 7.34017L127.587 10.5464L135.007 0.173198L132.345 0.171876Z" fill="#C7DFFF"/>
<path d="M134.729 23.3633L118.289 0.415827C118.236 0.340844 118.165 0.279706 118.083 0.237537C118.001 0.195369 117.91 0.173364 117.818 0.17334H114.101C114.047 0.174241 113.995 0.189764 113.949 0.218233C113.904 0.246701 113.867 0.287054 113.843 0.334888C113.819 0.382722 113.808 0.436238 113.812 0.489656C113.817 0.543074 113.835 0.594364 113.866 0.637976L121.802 11.7128C121.862 11.7965 121.895 11.897 121.895 12C121.895 12.103 121.862 12.2034 121.802 12.2871L113.866 23.362C113.822 23.4251 113.804 23.503 113.817 23.579C113.83 23.655 113.872 23.723 113.934 23.7683C113.982 23.8036 114.041 23.8231 114.101 23.8239H117.828C117.92 23.8239 118.011 23.8018 118.093 23.7597C118.175 23.7175 118.245 23.6564 118.299 23.5814L124.062 15.5272C124.088 15.4898 124.124 15.4592 124.164 15.4381C124.205 15.417 124.25 15.406 124.296 15.406C124.342 15.406 124.387 15.417 124.428 15.4381C124.469 15.4592 124.504 15.4898 124.531 15.5272L130.295 23.5814C130.349 23.6564 130.419 23.7175 130.501 23.7597C130.583 23.8018 130.674 23.8239 130.766 23.8239H134.493C134.547 23.823 134.599 23.8075 134.645 23.779C134.69 23.7505 134.727 23.7102 134.751 23.6623C134.775 23.6145 134.786 23.561 134.782 23.5076C134.777 23.4542 134.759 23.4029 134.728 23.3593L134.729 23.3633Z" fill="#C7DFFF"/>
<path d="M110.718 20.3805C110.719 20.3024 110.69 20.2269 110.636 20.1706C110.582 20.1142 110.507 20.0816 110.429 20.0798H98.5077C98.434 20.0766 98.3645 20.0448 98.3139 19.9912C98.2633 19.9376 98.2356 19.8664 98.2367 19.7926V14.159C98.2367 14.0825 98.2671 14.0092 98.3212 13.955C98.3753 13.9009 98.4488 13.8705 98.5253 13.8705H108.514C108.59 13.8705 108.664 13.8401 108.718 13.786C108.772 13.7319 108.802 13.6585 108.802 13.582L108.793 10.4246C108.793 10.3867 108.785 10.3493 108.771 10.3143C108.756 10.2794 108.735 10.2477 108.708 10.221C108.681 10.1943 108.65 10.1732 108.615 10.1588C108.58 10.1445 108.542 10.1372 108.504 10.1374H98.5253C98.4481 10.1329 98.3755 10.0994 98.322 10.0437C98.2685 9.98789 98.238 9.91394 98.2367 9.83665V4.20579C98.2371 4.1295 98.2677 4.05643 98.3217 4.00261C98.3758 3.9488 98.449 3.91862 98.5253 3.91862H110.435C110.511 3.91862 110.585 3.88823 110.639 3.83412C110.693 3.78001 110.723 3.7066 110.723 3.63008V0.482087C110.725 0.403997 110.695 0.328533 110.641 0.272174C110.587 0.215816 110.513 0.183174 110.435 0.181396H94.7957C94.7179 0.183175 94.6439 0.215613 94.5899 0.271678C94.5358 0.327743 94.5061 0.402906 94.5072 0.480764V23.5353C94.5072 23.5731 94.5146 23.6105 94.5292 23.6455C94.5437 23.6804 94.5649 23.7121 94.5918 23.7388C94.6186 23.7655 94.6504 23.7866 94.6854 23.8009C94.7204 23.8153 94.7579 23.8226 94.7957 23.8224H110.436C110.512 23.8224 110.585 23.7922 110.639 23.7383C110.693 23.6845 110.723 23.6114 110.723 23.5353L110.718 20.3805Z" fill="#C7DFFF"/>
<path d="M83.519 0.174777H74.4424C74.3645 0.176555 74.2904 0.208994 74.2364 0.265059C74.1823 0.321123 74.1527 0.396246 74.1538 0.474104V23.5286L74.1632 23.5368C74.1632 23.5746 74.1707 23.612 74.1852 23.647C74.1997 23.6819 74.2211 23.7136 74.2479 23.7403C74.2747 23.767 74.3065 23.7881 74.3415 23.8025C74.3765 23.8168 74.4139 23.8241 74.4518 23.8239H77.6029C77.679 23.8239 77.7521 23.7937 77.8059 23.7398C77.8598 23.6859 77.8901 23.6129 77.8901 23.5368V15.8876C77.8899 15.8533 77.8965 15.8194 77.9095 15.7877C77.9225 15.756 77.9416 15.7271 77.9658 15.7028C77.9899 15.6785 78.0187 15.6592 78.0504 15.6461C78.082 15.6329 78.116 15.6262 78.1502 15.6262C80.0685 15.6356 82.6926 15.637 83.6938 15.5991C87.1334 15.4636 91.5836 12.4931 91.4008 7.59634C91.2948 5.58277 90.4164 3.68761 88.9483 2.30524C87.4802 0.922867 85.5355 0.159789 83.519 0.174777ZM83.7019 11.8591H78.1583C78.089 11.8591 78.0225 11.8316 77.9735 11.7826C77.9244 11.7335 77.8969 11.667 77.8969 11.5977V4.17747C77.8969 4.10813 77.9244 4.04163 77.9735 3.99261C78.0225 3.94358 78.089 3.91605 78.1583 3.91605H83.5881C84.5795 3.90309 85.541 4.25461 86.2903 4.90385C87.0395 5.5531 87.5242 6.45488 87.6523 7.4379C87.7155 7.99442 87.6603 8.558 87.4903 9.0917C87.3203 9.62539 87.0394 10.1171 86.666 10.5346C86.2926 10.9521 85.8351 11.286 85.3236 11.5143C84.812 11.7425 84.258 11.86 83.6978 11.8591H83.7019Z" fill="#C7DFFF"/>
<path d="M66.7976 0.467351L60.4737 11.4189C60.4507 11.4586 60.4177 11.4915 60.378 11.5144C60.3383 11.5372 60.2933 11.5493 60.2475 11.5493C60.2016 11.5493 60.1566 11.5372 60.1169 11.5144C60.0772 11.4915 60.0442 11.4586 60.0212 11.4189L53.6973 0.467351C53.6464 0.37915 53.5731 0.305928 53.4849 0.25504C53.3967 0.204152 53.2966 0.177409 53.1947 0.17749H49.7172C49.6663 0.177569 49.6164 0.190998 49.5724 0.216472C49.5284 0.241946 49.4918 0.278532 49.4664 0.322586C49.441 0.366639 49.4277 0.416629 49.4277 0.467475C49.4277 0.51832 49.4411 0.568247 49.4665 0.612281L58.2601 15.8416C58.3363 15.9738 58.3765 16.1237 58.3766 16.2763V23.5314C58.3766 23.6082 58.4071 23.682 58.4615 23.7363C58.5159 23.7907 58.5896 23.8212 58.6665 23.8212H61.823C61.8999 23.8212 61.9736 23.7907 62.028 23.7363C62.0824 23.682 62.1129 23.6082 62.1129 23.5314V16.2831C62.113 16.1305 62.1531 15.9806 62.2294 15.8483L71.027 0.612281C71.0525 0.568247 71.0658 0.51832 71.0659 0.467475C71.0659 0.416629 71.0525 0.366639 71.0271 0.322586C71.0017 0.278532 70.9652 0.241946 70.9212 0.216472C70.8772 0.190998 70.8273 0.177569 70.7764 0.17749H67.2988C67.1972 0.177647 67.0974 0.204495 67.0094 0.255371C66.9214 0.306247 66.8484 0.379348 66.7976 0.467351Z" fill="#C7DFFF"/>
<path d="M44.9309 7.22777C45.026 7.79692 44.9958 8.37993 44.8426 8.93626C44.6894 9.49259 44.4169 10.0089 44.0438 10.4491C43.6708 10.8894 43.2063 11.2431 42.6826 11.4857C42.159 11.7282 41.5888 11.8538 41.0117 11.8535H38.0109C37.9702 11.8535 37.9301 11.8642 37.8948 11.8846C37.8595 11.905 37.8302 11.9343 37.8099 11.9696C37.7895 12.0049 37.7789 12.0449 37.779 12.0857C37.7791 12.1264 37.7899 12.1665 37.8104 12.2017L39.787 15.626L44.3795 23.5799C44.4216 23.6529 44.4823 23.7135 44.5553 23.7556C44.6283 23.7977 44.7111 23.8198 44.7954 23.8197H48.4925C48.5262 23.8197 48.5594 23.8108 48.5887 23.7939C48.6179 23.7771 48.6422 23.7528 48.6591 23.7235C48.676 23.6943 48.6849 23.6611 48.6849 23.6274C48.6849 23.5936 48.676 23.5604 48.6591 23.5312L43.843 15.1898C43.8268 15.1618 43.8166 15.1306 43.8132 15.0983C43.8098 15.0661 43.8133 15.0335 43.8234 15.0027C43.8335 14.9718 43.8501 14.9435 43.8719 14.9195C43.8937 14.8955 43.9203 14.8764 43.9501 14.8634C45.4251 14.2594 46.6756 13.2115 47.5282 11.8649C48.3807 10.5183 48.793 8.93977 48.7079 7.34831C48.5459 5.38113 47.646 3.54793 46.1887 2.21644C44.7314 0.884944 42.8244 0.153643 40.8504 0.169188H31.7616C31.6837 0.170966 31.6097 0.203405 31.5557 0.25947C31.5016 0.315534 31.4719 0.390657 31.473 0.468515V23.5231L31.4825 23.5312C31.4825 23.569 31.49 23.6064 31.5045 23.6414C31.519 23.6763 31.5403 23.708 31.5671 23.7347C31.5939 23.7614 31.6257 23.7825 31.6607 23.7969C31.6957 23.8112 31.7332 23.8185 31.771 23.8183H34.9222C34.9985 23.8183 35.0716 23.7881 35.1257 23.7343C35.1798 23.6805 35.2103 23.6074 35.2107 23.5312V4.20305C35.2107 4.16516 35.2182 4.12764 35.2327 4.09263C35.2472 4.05763 35.2684 4.0258 35.2952 3.999C35.322 3.97221 35.3538 3.95096 35.3888 3.93646C35.4238 3.92196 35.4614 3.91451 35.4993 3.91451H40.9182C41.8706 3.90405 42.796 4.23099 43.5305 4.83742C44.2649 5.44385 44.761 6.29064 44.9309 7.22777Z" fill="#C7DFFF"/>
<path d="M18.9919 20.2776C16.8205 20.2603 14.7429 19.3903 13.2073 17.8553C11.6717 16.3202 10.8011 14.2431 10.7833 12.072C10.7655 9.90086 11.602 7.8098 13.1123 6.24979C14.6225 4.68978 16.6856 3.78587 18.8564 3.73307C20.0726 3.70646 21.2795 3.95111 22.3893 4.44924C23.4992 4.94738 24.484 5.6865 25.2724 6.61286C25.3211 6.6642 25.3863 6.69679 25.4567 6.70496C25.527 6.71313 25.5979 6.69635 25.6571 6.65755L28.2894 4.89664C28.3531 4.8544 28.3975 4.78856 28.4127 4.71364C28.428 4.63871 28.4128 4.56081 28.3707 4.49703L28.3558 4.47673C26.7993 2.54086 24.6803 1.13566 22.2912 0.455067C19.9021 -0.22553 17.3606 -0.147999 15.0175 0.676968C12.6743 1.50193 10.6449 3.03368 9.20939 5.06083C7.77385 7.08799 7.00287 9.51063 7.00287 11.9945C7.00287 14.4784 7.77385 16.901 9.20939 18.9282C10.6449 20.9553 12.6743 22.4871 15.0175 23.312C17.3606 24.137 19.9021 24.2145 22.2912 23.5339C24.6803 22.8533 26.7993 21.4482 28.3558 19.5123C28.3794 19.4825 28.397 19.4484 28.4074 19.4118C28.4179 19.3752 28.4209 19.337 28.4165 19.2992C28.4121 19.2615 28.4003 19.2249 28.3818 19.1918C28.3632 19.1586 28.3382 19.1294 28.3083 19.1059L28.288 19.0923L25.6558 17.3314C25.5966 17.2926 25.5256 17.2759 25.4553 17.284C25.385 17.2922 25.3198 17.3248 25.2711 17.3761C24.4953 18.2838 23.532 19.0125 22.4476 19.5123C21.3631 20.012 20.1832 20.2708 18.9892 20.2708" fill="#C7DFFF"/>
<path d="M-0.00274658 23.5326V0.17334C0.986908 0.175492 1.93533 0.569981 2.63448 1.27032C3.33364 1.97066 3.72649 2.91967 3.72685 3.9092V23.5299C3.72685 23.5678 3.71936 23.6054 3.70485 23.6404C3.69035 23.6754 3.6691 23.7072 3.6423 23.7339C3.61551 23.7607 3.58371 23.782 3.5487 23.7965C3.51369 23.811 3.47617 23.8184 3.43827 23.8184H0.287192C0.249248 23.8186 0.211648 23.8113 0.176558 23.7969C0.141468 23.7824 0.109582 23.7612 0.0827508 23.7344C0.05592 23.7075 0.0346779 23.6756 0.0202401 23.6406C0.00580233 23.6055 -0.00156167 23.5679 -0.00138226 23.5299" fill="#C7DFFF"/>
</g>
<defs>
<clipPath id="clip0_3_23885">
<rect width="135" height="24" fill="white"/>
</clipPath>
</defs>
</svg>
