<svg width="80" height="80" viewBox="0 0 80 80" fill="none" xmlns="http://www.w3.org/2000/svg"><g clip-path="url(#a)"><path fill-rule="evenodd" clip-rule="evenodd" d="M40 0c22.093 0 40 17.907 40 40S62.093 80 40 80 0 62.093 0 40 17.907 0 40 0Z" fill="#004199"/><path d="m40.608 6.667-.45 1.53v44.395l.45.45L61.216 40.86 40.608 6.666Z" fill="#99C4FF"/><path d="M40.608 6.667 20 40.86l20.608 12.18V6.668Z" fill="#C7DFFF"/><path d="m40.608 56.944-.254.31v15.814l.254.74 20.62-29.04-20.62 12.176Z" fill="#66A7FF"/><path d="M40.608 73.809V56.944L20 44.769l20.608 29.04Z" fill="#99C4FF"/><path d="M40.608 53.042 61.216 40.86l-20.608-9.368v21.549Z" fill="#388CFF"/><path d="m20 40.86 20.608 12.182V31.493L20 40.861Z" fill="#66A7FF"/></g><defs><clipPath id="a"><path fill="#fff" d="M0 0h80v80H0z"/></clipPath></defs></svg>