<svg width="59" height="74" viewBox="0 0 59 74" fill="none" xmlns="http://www.w3.org/2000/svg"><g clip-path="url(#a)"><path d="M28.797 57.722c-.566-.506-1.059-1.121-1.599-1.657-3.401-3.373-5.068-3.702-8.928-5.735-6.31-3.314-10.557-6.646-11.012-14.485a29.9 29.9 0 0 1 2.036-12.39c1.73-4.483 0-8.788-2.347-12.588 0 0 .68-.421 1.123-.75a18.081 18.081 0 0 0 5.803-7.047c.298-.692.621-1.29.872-2.007 1.93 1.577 4.43 2.952 7.062 2.732a26.352 26.352 0 0 0 3.504-.725 24.92 24.92 0 0 1 4.421-.683c3.074 0 5.864 1.332 8.878 1.265 2.083-.042 3.457-1.223 4.996-2.383 1.654 3.711 4.298 7.296 7.785 9.501-1.501 2.594-3.15 6.507-3.006 9.425 1.781 7.485 5.489 15.072.977 22.477-2.976 4.9-7.937 7.047-12.695 9.724-2.24 1.265-4.303 2.476-4.703 2.872a21.247 21.247 0 0 0-2.295 2.446.56.56 0 0 1-.676.158.561.561 0 0 1-.196-.15Z" fill="#F8FAFF"/><path d="M29.252 58.368a1.11 1.11 0 0 1-.74-.308c-.342-.317-.667-.65-.974-1a31.607 31.607 0 0 0-.642-.674c-2.593-2.569-4.166-3.344-6.552-4.513-.667-.328-1.424-.7-2.274-1.146C11.293 47.163 7.283 43.59 6.833 35.89a30.398 30.398 0 0 1 2.066-12.562c1.781-4.64-.302-8.962-2.313-12.23l-.221-.354.357-.223s.672-.422 1.093-.73a17.573 17.573 0 0 0 5.667-6.878c.102-.24.213-.472.32-.7.195-.422.382-.843.543-1.265l.2-.57.472.384c1.578 1.29 4.078 2.843 6.756 2.64.81-.091 1.613-.248 2.398-.468.357-.088.706-.177 1.05-.253a25.02 25.02 0 0 1 4.511-.691 20.51 20.51 0 0 1 4.482.653c1.37.361 2.778.57 4.196.62h.191c1.778-.038 2.977-.957 4.38-2.02l.795-.599.217.49c1.794 4.03 4.502 7.337 7.627 9.31l.34.22-.2.346c-1.513 2.61-3.078 6.38-2.95 9.155.331 1.391.735 2.813 1.13 4.187 1.74 6.098 3.542 12.407-.212 18.555-2.619 4.297-6.803 6.566-10.82 8.755-.677.37-1.357.738-2.033 1.117-3.716 2.109-4.46 2.657-4.609 2.8-.148.144-.31.308-.472.464a15.596 15.596 0 0 0-1.781 1.936.958.958 0 0 1-.761.388ZM7.526 11.019c1.9 3.155 4.03 7.764 2.168 12.609a29.6 29.6 0 0 0-2.015 12.23c.425 7.345 4.124 10.635 10.786 14.139.85.443 1.595.81 2.258 1.139 2.457 1.206 4.082 2.003 6.777 4.672.226.223.425.464.668.704.288.327.593.64.914.936a.222.222 0 0 0 .246.06c.565-.73 1.19-1.412 1.871-2.037l.468-.456c.378-.375 1.99-1.362 4.791-2.952.677-.38 1.361-.75 2.037-1.122 4.12-2.272 8.006-4.38 10.498-8.48 3.563-5.849 1.892-11.706.119-17.901-.396-1.396-.808-2.842-1.148-4.263v-.072c-.145-2.842 1.348-6.604 2.861-9.311-2.976-2-5.59-5.158-7.385-8.978-1.433 1.088-2.793 2.108-4.822 2.146h-.208a20.136 20.136 0 0 1-4.383-.64 19.729 19.729 0 0 0-4.295-.633c-1.46.095-2.909.32-4.328.674-.336.072-.676.156-1.025.245a15.72 15.72 0 0 1-2.55.49c-2.696.202-5.2-1.169-6.905-2.468-.115.278-.239.544-.362.806-.123.261-.208.447-.31.679a18.386 18.386 0 0 1-5.953 7.22c-.22.18-.548.391-.773.543v.021Z" fill="#F8FAFF" stroke="#F8FAFF" stroke-miterlimit="10"/><path fill-rule="evenodd" clip-rule="evenodd" d="M29.273 57.44c-.145.198-2.287-2.952-6.556-5.453-1.314-.767-6.348-2.644-10.787-6.44-.705-.602-3.826-3.584-4.188-9.732A28.909 28.909 0 0 1 9.75 23.628c.353-.911 1.607-4.344-.272-8.936-.336-.818-1.463-3.02-1.862-3.669 0 0 4.566-2.834 6.705-7.763.289-.67.506-.966.655-1.384 0 0 3.273 2.674 6.866 2.4 1.118-.084 5.782-1.409 7.891-1.409 3.614 0 5.757 1.337 8.886 1.266 2.241-.047 3.827-1.388 4.792-2.109 0 0 2.64 5.942 7.326 8.902 0 0-3.061 5.297-2.832 9.337 0 0 .765 3.242 1.276 4.57.51 1.33 2.55 7.929 1.53 13.074-.289 1.433-1.339 6.903-9.128 11.246-1.37.764-9.027 4.88-9.95 5.79a22.64 22.64 0 0 0-2.359 2.497Z" fill="#4D4D4D"/><path fill-rule="evenodd" clip-rule="evenodd" d="M15.12 47.353V2.479s3.005 2.796 7.227 2.147V51.22s-3.15-1.46-5.83-3.04c-.726-.422-1.398-.827-1.398-.827Zm28.248.114V2.589s-2.675 2.872-7.228 1.763v46.982s3.15-1.455 5.829-3.037l1.399-.83Z" fill="#F8FAFF"/><path fill-rule="evenodd" clip-rule="evenodd" d="M29.435 41.993c0 .232-1.9-2.16-6.14-3.977-1.637-.7-4.252-2.433-3.465-7.81.153-1.037 1.424-3.082 1-3.926-.426-.843-1.217-2.264-1.45-2.732 0 0 2.976-1.771 3.915-4.217 0 0 .961 1.202 3.04.91 1.7-.235 3.674-.535 5.353 0 1.399.456 3.261-.316 3.78-.843 0 0 1.165 2.914 3.67 4.175 0 0-1.387 2.08-1.213 3.374.175 1.294 1.727 3.774.876 7.232-.276 1.122-.884 3.04-5.88 5.06-1.326.506-3.486 2.518-3.486 2.754Z" fill="#F8FAFF"/><path fill-rule="evenodd" clip-rule="evenodd" d="m15.293 17.121.783-.552V8.046a5.148 5.148 0 0 0-.425-.687h3.728c.583 0 2.1.257 2.215 2.677a2.266 2.266 0 0 1-.642 1.311 2.299 2.299 0 0 1-1.313.655 2.716 2.716 0 0 1 1.8.888c.463.514.709 1.185.687 1.874 0 .662-.425 2.264-2.606 2.425-.425.029-2.373-.16-2.764-.16l-1.463.092Zm2.739-5.562V8.017s1.11-.279 1.377.421c.2.506.264.333.213 2.168a.949.949 0 0 1-.254.66.964.964 0 0 1-.643.305c-.188-.012-.693-.012-.693-.012Zm0 4.84v-4.047s1.517-.16 1.73.704a5.16 5.16 0 0 1 .179 2.307 1.227 1.227 0 0 1-1.187 1.074 7.334 7.334 0 0 1-.722-.029V16.4Z" fill="#4D4D4D"/><path fill-rule="evenodd" clip-rule="evenodd" d="M27.088 8.341s.174-.738.272-.982h4.626s-.532.548-.515.986c.017.439 0 8.645 0 8.645-.916.286-1.861.469-2.819.544-1.143 0-2.87.034-3.571-1.864-.162-.421-.055-1.724 1.276-1.686a1.013 1.013 0 0 1 .736.361.997.997 0 0 1 .22.786c0 .307-.425.687-1.207.632 0 0 .089.734 1.653 1.206.426.122 1.701-.097 1.756-.696.026-.421 0-7.97 0-7.97a.319.319 0 0 0-.23-.3 6.932 6.932 0 0 0-2.036.275c-.042.013-.161.063-.161.063Z" fill="#F8FAFF"/><path fill-rule="evenodd" clip-rule="evenodd" d="M29.171 40.766c0 .21-1.752-1.78-5.582-3.42-1.48-.637-3.801-2.16-3.079-7.021.14-.94 1.54-3.252 1.157-4.015-.383-.763-1.072-2.075-1.276-2.5 0 0 2.309-1.612 3.117-3.336 0 0 1.658 1.016 3.197.72 1.54-.294 2.976-.467 4.643.043.714.215 3.159-.384 3.631-.843 0 0 1.399 2.319 3.066 3.293 0 0-1.323 2.168-1.153 3.091.17.924 1.794 4.015 1.025 7.14-.25 1.016-.812 2.837-5.332 4.638-1.199.485-3.414 2-3.414 2.21Zm-8.503 6.704c.244.224.512.42.799.587v.375h-3.29v-.375c.282-.165.544-.361.782-.586v-3.585h-1.085v-.7s1.88-.763 1.837-1.058h.957v5.343Zm17.695.035c0 .375.672.337.663.345a1.02 1.02 0 0 0 .925-.648 1 1 0 0 0 .066-.389 1.37 1.37 0 0 0-.261-.858 1.39 1.39 0 0 0-.738-.517 1.654 1.654 0 0 0-.68-.038v-.636c.337.066.683.066 1.02 0 0 0 .544-.08.54-1.013 0-1.374-1.029-1.265-1.369-1.244-.34.022-.357.422-.166.447.192.026.353.287.353.287a.87.87 0 0 1 .064.363.949.949 0 0 1-.282.674.965.965 0 0 1-1.358 0 .949.949 0 0 1-.282-.674l-.021-.156c0-1.156 1.437-1.594 2.347-1.594.91 0 2.41.523 2.41 1.687 0 1.164-1.228 1.551-1.228 1.551.587.135 1.365.734 1.365 1.455 0 .721-.621 1.944-2.61 1.944-2.454 0-2.382-1.648-2.382-1.648a.93.93 0 0 1 .59-.864.952.952 0 0 1 .362-.069.958.958 0 0 1 .888.572.894.894 0 0 1 .018.681.149.149 0 0 1-.06.05c-.072.005-.174.051-.174.291Zm.851-40.163a1.193 1.193 0 0 0-.358.81v3.221l1.735-2.737a.925.925 0 0 0-.203-1.093.94.94 0 0 0-.341-.201h2.679a3.5 3.5 0 0 0-1.131.94l-1.926 3.091a1.847 1.847 0 0 1 1.738 1.008c.38 1.033.664 2.097.85 3.18 0 0 .265 1.391.983 1.467 0 0-1.9.696-2.279-.396-.238-.696-.502-1.856-.663-2.56a8.028 8.028 0 0 0-.29-1.037c-.16-.523-.301-.823-1.13-.823v3.458a1.826 1.826 0 0 0 .659 1.447c-.487-.059-.977-.09-1.467-.093a8.78 8.78 0 0 0-1.603.186c.319-.385.51-.858.549-1.354V8.223a1.608 1.608 0 0 0-.498-.864l2.696-.017Z" fill="#4D4D4D"/><path d="m27.683 22.843 1.56 1.143 1.565-1.143-.616 1.83 1.581 1.106H29.83l-.587 1.838-.586-1.838h-1.943l1.581-1.105-.612-1.83Z" fill="#F8FAFF"/><path d="M23.333 31.138a5.81 5.81 0 0 1 .555-2.491c.367-.78.904-1.47 1.571-2.02a4.513 4.513 0 0 0 1.407 6.452 4.603 4.603 0 0 0 4.729 0 4.553 4.553 0 0 0 1.684-1.77 4.507 4.507 0 0 0-.277-4.683 5.864 5.864 0 0 1 1.725 2.36 5.816 5.816 0 0 1-.717 5.602 5.898 5.898 0 0 1-2.266 1.856 5.951 5.951 0 0 1-5.682-.357 5.882 5.882 0 0 1-2.011-2.125 5.823 5.823 0 0 1-.73-2.824h.012Z" fill="#F8FAFF"/><path fill-rule="evenodd" clip-rule="evenodd" d="M29.605 45.24c0-1.843 1.241-3.336 2.768-3.336 1.526 0 2.772 1.493 2.772 3.336 0 1.843-1.242 3.331-2.772 3.331-1.531 0-2.768-1.492-2.768-3.331Zm1.777.03c0-1.49.425-2.695 1.003-2.695.579 0 1.004 1.206 1.004 2.694 0 1.49-.45 2.695-1.004 2.695-.552 0-1.003-1.206-1.003-2.694Zm-5.918 3.226c-.383 0-1.943-.46-1.837-1.586.056-.265.21-.5.434-.657.223-.156.498-.223.77-.186.386 0 .82.624.756 1.231-.026.274-.038.814.276.666.315-.147.885-.569.885-2.745 0 0-.498.654-2.237.346-.34-.063-1.326-.333-1.114-2.109.039-.358.48-1.615 2.653-1.594.447 0 2.551.422 2.488 3.682-.013.51-.192 2.952-3.074 2.952Zm-.328-4.669c0-.657.332-1.193.74-1.193s.74.536.74 1.193c0 .658-.332 1.198-.74 1.198s-.74-.535-.74-1.198Z" fill="#F8FAFF"/><path d="M57.181 63.786a1.643 1.643 0 0 0-1.322.675l-1.73 2.4.995 1.374 3.222-4.449h-1.164Zm1.029 9.94-7.092-9.834a.258.258 0 0 0-.204-.106h-1.607a.132.132 0 0 0-.123.131c0 .025.008.05.021.072l3.431 4.744a.223.223 0 0 1 0 .249l-3.43 4.744a.13.13 0 0 0 .029.177.15.15 0 0 0 .072.025h1.612a.26.26 0 0 0 .204-.105l2.491-3.454a.122.122 0 0 1 .1-.05.124.124 0 0 1 .1.05l2.492 3.454a.258.258 0 0 0 .204.105h1.607a.132.132 0 0 0 .127-.13.113.113 0 0 0-.034-.072Zm-10.374-1.278a.126.126 0 0 0-.123-.126h-5.149a.127.127 0 0 1-.086-.04.122.122 0 0 1-.033-.087v-2.412a.124.124 0 0 1 .123-.122h4.299a.128.128 0 0 0 .123-.127v-1.353a.122.122 0 0 0-.039-.081.124.124 0 0 0-.084-.033h-4.299a.132.132 0 0 1-.123-.131v-2.4a.124.124 0 0 1 .123-.122h5.15a.126.126 0 0 0 .127-.122v-1.35a.126.126 0 0 0-.078-.12.129.129 0 0 0-.05-.01h-6.76a.128.128 0 0 0-.088.038.125.125 0 0 0-.035.088v9.864a.122.122 0 0 0 .123.122h6.76a.128.128 0 0 0 .128-.122l-.009-1.354ZM36.084 63.79h-3.92a.128.128 0 0 0-.123.127v9.88a.122.122 0 0 0 .123.123h1.365a.122.122 0 0 0 .123-.122V70.52a.114.114 0 0 1 .111-.114h2.398c1.484-.055 3.401-1.328 3.329-3.428a3.362 3.362 0 0 0-1.062-2.268 3.417 3.417 0 0 0-2.344-.92Zm.081 5.006h-2.398a.11.11 0 0 1-.11-.11v-3.183a.113.113 0 0 1 .115-.11h2.342a1.76 1.76 0 0 1 1.167.424c.323.279.533.665.59 1.086a1.672 1.672 0 0 1-.42 1.33 1.7 1.7 0 0 1-1.286.563Zm-7.305-4.883-2.733 4.694a.11.11 0 0 1-.098.058.111.111 0 0 1-.098-.059l-2.73-4.693a.254.254 0 0 0-.216-.122H21.48a.124.124 0 0 0-.108.062.12.12 0 0 0 .001.123l3.81 6.528a.36.36 0 0 1 .051.186v3.108a.13.13 0 0 0 .037.09.128.128 0 0 0 .09.036h1.365a.124.124 0 0 0 .116-.078.12.12 0 0 0 .008-.048v-3.104a.349.349 0 0 1 .05-.186l3.81-6.532a.12.12 0 0 0 0-.125.123.123 0 0 0-.11-.06h-1.501a.248.248 0 0 0-.238.122Zm-9.447 2.889c.077.43-.018.875-.266 1.238a1.701 1.701 0 0 1-1.06.706c-.12.025-.243.038-.366.038h-1.297a.099.099 0 0 0-.09.046.097.097 0 0 0 .001.101l.85 1.472 1.986 3.407a.207.207 0 0 0 .179.101h1.598a.086.086 0 0 0 .07-.041.083.083 0 0 0 .002-.081l-2.083-3.576a.096.096 0 0 1 .047-.14 3.315 3.315 0 0 0 1.547-1.284 3.273 3.273 0 0 0 .51-1.937 3.363 3.363 0 0 0-1.096-2.194 3.417 3.417 0 0 0-2.305-.88h-3.937a.128.128 0 0 0-.123.126v9.88a.122.122 0 0 0 .123.123h1.36a.123.123 0 0 0 .128-.122v-8.249a.122.122 0 0 1 .124-.122h2.338c.411-.012.814.12 1.136.375.322.254.543.612.624 1.013ZM8.206 72.406a3.591 3.591 0 0 1-2.537-1.018A3.533 3.533 0 0 1 4.6 68.89a3.531 3.531 0 0 1 1.027-2.516 3.59 3.59 0 0 1 2.52-1.06 3.563 3.563 0 0 1 2.771 1.236.133.133 0 0 0 .166.02l1.14-.754a.122.122 0 0 0 .034-.169 5.184 5.184 0 0 0-2.485-1.684 5.223 5.223 0 0 0-3.008-.03 5.187 5.187 0 0 0-2.52 1.631 5.105 5.105 0 0 0-.625 5.678 5.16 5.16 0 0 0 2.106 2.133 5.22 5.22 0 0 0 5.737-.5c.294-.233.56-.497.795-.789a.122.122 0 0 0 0-.172l-1.14-.755a.133.133 0 0 0-.166.02 3.588 3.588 0 0 1-2.713 1.24M0 73.802V63.79c.428.002.838.171 1.14.471.302.3.471.708.471 1.132v8.409a.122.122 0 0 1-.123.122H.123A.122.122 0 0 1 0 73.802Z" fill="#4D4D4D"/></g><defs><clipPath id="a"><path fill="#fff" d="M0 0h58.329v74H0z"/></clipPath></defs></svg>