<svg width="100" height="100" viewBox="0 0 100 100" fill="none" xmlns="http://www.w3.org/2000/svg"><path d="M98.499 62.095C91.82 88.881 64.69 105.183 37.902 98.503 11.124 91.825-5.178 64.693 1.503 37.91 8.178 11.12 35.308-5.182 62.089 1.496c26.787 6.678 43.087 33.813 36.409 60.6Z" fill="#F7931A"/><path d="M72.048 42.876c.995-6.654-4.07-10.23-10.998-12.616l2.247-9.014-5.486-1.367-2.188 8.776c-1.442-.36-2.924-.699-4.396-1.035l2.204-8.834-5.484-1.367-2.248 9.01c-1.194-.271-2.366-.54-3.504-.823l.007-.028-7.566-1.89-1.46 5.86s4.07.934 3.985.991c2.222.555 2.623 2.026 2.557 3.191L37.158 44c.153.038.351.095.57.183-.183-.046-.378-.096-.58-.144L33.56 58.423c-.271.674-.96 1.688-2.514 1.303.055.08-3.988-.995-3.988-.995l-2.724 6.28 7.14 1.78c1.329.333 2.63.682 3.912 1.01l-2.27 9.116 5.48 1.367 2.249-9.02c1.497.407 2.95.782 4.372 1.135l-2.24 8.977 5.486 1.368 2.27-9.1c9.356 1.77 16.391 1.057 19.352-7.406 2.386-6.813-.118-10.743-5.04-13.306 3.584-.826 6.285-3.184 7.005-8.055l-.002-.001ZM59.512 60.455c-1.696 6.813-13.167 3.13-16.886 2.206l3.013-12.078c3.719.929 15.645 2.766 13.873 9.872Zm1.697-17.677c-1.547 6.197-11.095 3.048-14.192 2.276L49.75 34.1c3.097.772 13.071 2.213 11.46 8.678Z" fill="#fff"/></svg>