<svg width="100" height="21" viewBox="0 0 100 21" fill="none" xmlns="http://www.w3.org/2000/svg"><path d="M37.879 15.384a2.825 2.825 0 0 1 2.239-2.99 9.877 9.877 0 0 1 2.659-.277v-.833a1.101 1.101 0 0 0-1.189-1.006 11.24 11.24 0 0 0-2.323.413l.427-1.736a11.382 11.382 0 0 1 2.369-.3 2.606 2.606 0 0 1 2.685 2.948v5.923h-1.9v-.407h-.329a3.147 3.147 0 0 1-1.804.565c-1.093 0-2.834-.36-2.834-2.3Zm3.409-1.956a1.569 1.569 0 0 0-1.513 1.556 1.268 1.268 0 0 0 1.413 1.207c1.053 0 1.535-.545 1.535-.88v-1.894s-.428.011-1.435.011ZM30.45 15.384a2.824 2.824 0 0 1 2.238-2.99 9.886 9.886 0 0 1 2.659-.277v-.833a1.1 1.1 0 0 0-1.185-1.006c-.787.056-1.566.194-2.324.413l.428-1.736a11.373 11.373 0 0 1 2.369-.3 2.606 2.606 0 0 1 2.685 2.948v5.923h-1.9v-.407h-.322a3.153 3.153 0 0 1-1.81.565c-1.1 0-2.838-.36-2.838-2.3Zm3.407-1.959a1.568 1.568 0 0 0-1.511 1.56 1.267 1.267 0 0 0 1.413 1.2c1.053 0 1.535-.546 1.535-.882v-1.886s-.428.011-1.437.011v-.003Zm54.763 4.223v-.664a4.4 4.4 0 0 1-2.119.665c-1.107 0-3.08-.43-3.08-2.535a2.908 2.908 0 0 1 3.059-3h2.03v-1.139c0-.568-.693-1.3-2-1.063a8.049 8.049 0 0 0-2.172.72l.153-1.3c.876-.38 1.814-.6 2.768-.648a2.577 2.577 0 0 1 2.677 2.527v6.438H88.62Zm-3.862-2.747c0 .753.045 1.754 1.646 1.754a2.009 2.009 0 0 0 2.084-2.249v-1.4H87.04c-1.777.003-2.282 1.143-2.282 1.895Zm-18 2.751v-.668c-.638.4-1.368.628-2.12.665-1.107 0-3.08-.43-3.08-2.535a2.909 2.909 0 0 1 3.06-3h2.03v-1.139c0-.568-.693-1.3-2-1.063a8.049 8.049 0 0 0-2.172.72l.153-1.3c.876-.38 1.813-.6 2.766-.648a2.577 2.577 0 0 1 2.677 2.527v6.438l-1.314.003Zm-3.865-2.75c0 .752.045 1.753 1.646 1.753a2.008 2.008 0 0 0 2.085-2.249v-1.4h-1.448c-1.776.003-2.283 1.143-2.283 1.895Zm28.018 1.912.439-1.15a4.744 4.744 0 0 0 2.369.678c1.338 0 1.8-.817 1.8-1.269 0-.452-.307-.924-1.886-1.29s-2.5-1.247-2.5-2.709a2.557 2.557 0 0 1 2.787-2.3c.872.019 1.73.23 2.511.618l-.317 1.036A5.887 5.887 0 0 0 94.288 10c-.79 0-1.645.343-1.645 1.053s.526 1.2 1.712 1.44 2.59 1.12 2.59 2.392a3.022 3.022 0 0 1-3.051 2.69 6.413 6.413 0 0 1-2.983-.76Zm-17.048.74v-6.14c0-.414-.026-1.162-1.184-1.162s-2.185.851-2.185 1.393v5.91h-1.5V8.92l1.422-.294v1.136a3.39 3.39 0 0 1 2.528-1.11 2.584 2.584 0 0 1 2.5 2.22v6.682h-1.581Zm-20.667-.019V5.762h3.785c1.835 0 3.62 1 3.62 2.677a3.8 3.8 0 0 1-1.645 2.774 3.083 3.083 0 0 1 2.173 2.935 3.356 3.356 0 0 1-2.824 3.387h-5.109Zm1.548-1.37h2.7a2 2 0 0 0 2.211-1.875 2.035 2.035 0 0 0-1.9-2.232h-3.02l.009 4.106Zm.049-5.468h2.419a1.826 1.826 0 0 0 1.892-1.823 1.886 1.886 0 0 0-2.024-1.79h-2.287v3.613Zm21.625 6.832V5.736h1.683v6.348h.342l2.9-3.612h2.133l-3.767 4.064 4.159 4.916h-2.3l-3.12-4.49h-.369v4.568h-1.661Zm-62.23-.004v-1.777l5.112-8.2h-4.673l.527-1.864h6.934v1.841l-5.135 8.223h5.111l-.724 1.777h-7.152Zm83.585-.006V8.891h1.415v8.628h-1.415Zm-74.77 0V8.891h1.892v8.628h-1.892Zm25.027-.016a1.75 1.75 0 0 1-1.81-1.678v-5.579h-.889V8.923h.957v-2.29h1.829v2.322h2.106l-.475 1.323h-1.606v4.955c0 .645.119 1.013.744 1.013h1.086v1.258H48.03Zm-21.45 0v-8.58h1.573v.968a2.959 2.959 0 0 1 1.3-.774 3.183 3.183 0 0 1 1.421-.026v1.651h-1.24c-.5 0-1.421.671-1.421 1.316v5.445H26.58Zm-3.834-10.43a1.18 1.18 0 0 1 2.359 0 1.18 1.18 0 0 1-2.359 0Zm-17.607 9.68.506-.4v-1.637l-.506.4v-3.527l.506-.393V9.56l-.506.392V6.424l.979-.769 1.469-1.162 1.95-1.531v6.491a.955.955 0 0 1-.375.819.844.844 0 0 1 .375.63v5.917l-1.95 1.531-1.469 1.162-.979.769v-3.528Zm3.2-4.149-.75.581-1.248.99v1.637l1.248-.991.865-.679c.269-.213.392-.352.392-.664v-.752c0-.164-.088-.248-.212-.248a.49.49 0 0 0-.297.122l.002.004Zm0-5.165-.75.581-1.248.991v1.636l1.248-.99.865-.68c.269-.213.392-.351.392-.663v-.751c0-.164-.088-.249-.212-.249a.489.489 0 0 0-.297.126l.002-.001ZM3.418 19.512 0 16.819v-3.528l.929-.909L0 11.655V8.127l2.912 2.292.506-.5.408-.409-.408-.32L0 6.49V2.962l3.418 2.694.971.769v3.527l-.914.909.914.728v3.528l-.971-.769-1.925-1.523-.922.909 2.847 2.25.971.769v3.528l-.971-.769ZM5.139 1.571l.979-.786L7.089 0v1.26l-.971.785-.285.23v1.318l.285-.229.971-.779v1.26l-.971.787-.979.785V1.571ZM3.418 4.7l-.587-.483V2.954l.245.2V1.768l-.629-.508V0l.971.785.971.786v1.261l-.628-.507v1.391l.253.2V5.18l-.596-.48Z" fill="#687CA3"/></svg>