<svg width="52" height="52" viewBox="0 0 52 52" fill="none" xmlns="http://www.w3.org/2000/svg"><path d="M26 52c14.36 0 26-11.64 26-26S40.36 0 26 0 0 11.64 0 26s11.64 26 26 26Z" fill="#988430"/><path d="M26 51.167C39.9 51.167 51.167 39.9 51.167 26 51.167 12.1 39.9.833 26 .833 12.1.833.833 12.1.833 26 .833 39.9 12.1 51.167 26 51.167Z" fill="#7A6A2A"/><path d="M26 50.637c13.607 0 24.637-11.03 24.637-24.637 0-13.607-11.03-24.637-24.637-24.637C12.393 1.363 1.363 12.393 1.363 26c0 13.606 11.03 24.637 24.637 24.637Z" fill="#BA9F33"/><path fill-rule="evenodd" clip-rule="evenodd" d="M11.368 23.223c-.148-.134-.303-.269-.446-.403-.143-.135-.29-.27-.438-.404L10.047 22c-.072-.072-.148-.135-.22-.206-.07-.064-.155-.135-.226-.198-.581-.551-1.165-1.102-1.738-1.654a328.44 328.44 0 0 1 1.767 1.633l.206.206c.072.071.148.135.22.206l.437.404c.147.134.29.27.437.416.148.146.29.282.438.416ZM3.66 23.14s2.112.219 3.143.366c.955.135 3.942.593 3.942.593L3.66 23.14Zm0 0c.593.05 1.187.114 1.78.177.303.03.593.063.883.092l.446.051c.147.02.29.042.438.063l1.767.282.883.147c.29.05.581.105.884.156-.29-.03-.593-.072-.884-.114l-.883-.126-1.767-.26c-.147-.022-.29-.052-.438-.072l-.446-.052c-.29-.029-.593-.071-.883-.105a51.652 51.652 0 0 1-1.78-.24v.001Zm6.875 1.51s-2.255.572-3.017.79c-.749.207-3.016.897-3.016.897l6.032-1.687Z" fill="#CFB66C"/><path fill-rule="evenodd" clip-rule="evenodd" d="M10.534 24.65c-.5.147-.998.29-1.506.425l-1.506.403c-.5.148-.998.29-1.497.438l-.75.206c-.248.072-.5.135-.756.206.248-.083.5-.168.748-.24l.75-.24c.5-.155.998-.302 1.497-.458.509-.126 1.01-.26 1.518-.383.484-.122.993-.244 1.502-.357Zm-5.717 3.075c.248-.093 3.11-1.426 3.774-1.737.333-.156 1.3-.5 1.3-.5l-5.074 2.237Z" fill="#CFB66C"/><path fill-rule="evenodd" clip-rule="evenodd" d="M4.817 27.725c.219-.083.425-.185.635-.282l.623-.29 1.25-.602c.416-.197.82-.416 1.249-.601.219-.093.438-.168.656-.24l.333-.105c.113-.03.219-.063.333-.093-.416.198-.854.366-1.27.56-.417.206-.842.374-1.271.56l-1.27.559c-.427.172-.843.357-1.268.534Zm.278 1.165s2.591-1.519 3.483-2.007c.467-.26 1.977-1.01 1.977-1.01l-5.46 3.017Z" fill="#CFB66C"/><path fill-rule="evenodd" clip-rule="evenodd" d="M5.095 28.89c.437-.269.883-.542 1.33-.82l.665-.404c.227-.135.446-.26.677-.395.227-.135.446-.27.678-.396.11-.068.225-.127.345-.176l.353-.177c.467-.227.934-.459 1.426-.656-.446.282-.904.521-1.363.77-.227.126-.459.24-.686.365-.227.127-.446.261-.677.383-.227.135-.446.261-.678.383l-.685.375-1.385.748Zm5.44-2.684s-1.612 1.237-2.133 1.632c-.522.396-2.058 1.507-2.058 1.507l4.19-3.139Z" fill="#CFB66C"/><path fill-rule="evenodd" clip-rule="evenodd" d="m19.782 36.181-.825-1.56.48-1.953 3.42-1.32-1.456-2.988.72-3.016 1.35-2.701 4.174-.657 3.067-2.924 6.622.501 1.3 7.08-2.503 8.916-1.426 4.615-5.781.219-2.684-1.86-3.143-1.313-3.315-1.039Z" fill="#E2CC85"/><path fill-rule="evenodd" clip-rule="evenodd" d="M29.921 36.13s-.8.367-2.163.282c-.395-.53-3.159-.778-3.159-.778s-.345-.105-.955.148c-.614.25-1.194.218-1.737.353-.543.134-1.082-.572-1.498-.72-.416-.155-.967-.53-.967-.53l-1.165-.113-2.34-.989-3.715-3.702-1.01 1.58-.311 1.957 1.123 2.318 3.025 2.756 5.898 1.498 3.496-1.03 4.38-1.852 1.098-1.178Z" fill="#F1D789"/><path fill-rule="evenodd" clip-rule="evenodd" d="m8.965 23.047.75-2.268.891-1.464 2.873-.24-.862 2.516-2.402 4.274.997 3.816-1.767.884-.543-.833-.437-1.91-.03-2.146.53-2.63Z" fill="#F4ECB4"/><path fill-rule="evenodd" clip-rule="evenodd" d="m12.188 35.975-.551-.77s-.147-.366-.063-.686c.083-.323.071-.345.03-.467-.042-.122-.396-.542-.375-.904.02-.366-.03-.488.24-.779.281-.281.197-.77.197-.77l.366.228.084-.126s.134.105.134.269c.03-.227-.092-1.28.185-1.519.278-.24.77 1.123.77 1.123l-.303-1.977-.778-2.027-1.385-1.852-.083-2.04V23.5s-.635.976-.812 1.747c-.126.53.177 1.174.114 1.935-.05.758-.114.699.071.999.185.3.636.917.459 1.363-.156.383-.686.114-.686.114s-.105.31-.248.425a.941.941 0 0 0-.206-.416c-.009.071-.03.168-.03.168s-.092-.29-.185-.657c-.126-.487-.26-1.131-.383-1.476-.05.198-.176.8-.176.8l.071.925.345 1.27.333.832.324 1.018.282.684.227.522.197 1.174.955 1.01.51.227.37-.19Z" fill="#F3E19D"/><path fill-rule="evenodd" clip-rule="evenodd" d="M9.466 21.195s-.686 1.165-.883 2.34c-.198 1.174-.375 2.415-.25 4.013.126 1.612.366 2.6.56 3.307.332 1.174 1.194 2.806 1.194 2.806l.03-.063a4.43 4.43 0 0 1-.345-.862c-.114-.446-.156-.976-.261-1.216-.093-.24-.248-.446-.324-.74-.072-.283-.083-.728-.303-1.06-.093-.136-.206-.489-.24-.842-.042-.53.021-1.124-.03-1.611-.092-.812-.155-1.363-.07-1.789.083-.425.521-1.632.79-2.591.177-.614.072-1.132.396-1.666.324-.53.522-.997.593-1.321.083-.295-.858 1.296-.858 1.296Z" fill="#F2E8B0"/><path fill-rule="evenodd" clip-rule="evenodd" d="M12.718 20.728s-.353.106-.521.29c-.169.177-.24.325-.467.623-.228.299-.24.543-.426.918-.185.366-.593.917-.643 1.114-.05.198-.135 1.124-.24 1.561-.093.438.105.976.105.976l.24-.05s0 .311.24.521c.24.207.281-.698.281-.698l.897-3.025 1.35-.917.147-.74-.963-.573Z" fill="#F5EEC0"/><path fill-rule="evenodd" clip-rule="evenodd" d="M13.374 22.1s-.635.042-.946.27c-.126.092-.177.168-.311.281-.249.206-.501.396-.623.666-.135.269-.282.677-.383 1.447-.042.324-.042.623-.072.884-.042.353-.105.635-.071.832.042.403.459.614.5 1.072l.862-.437.812-3.202 1.725-1.082-.977-1.093-.517.36.001.002Z" fill="#E6DB9D"/><path fill-rule="evenodd" clip-rule="evenodd" d="m8.824 43.66.011-.095c.126-1.082.147-1.902.24-2.415.134-.728.227-.998.206-1.27-.03-.438-.063-.758-.021-1.095.063-.446.5-.976.488-1.342-.009-.29-.156-.48-.282-.656-.126-.176-.227-.324-.227-.324s.862-.593.854-2.983a.23.23 0 0 1 .05.021l.425 1.208.29.353 1.116 2.078 1.434 1.393 2.12 1.426 1.33 1.447.134 3.858-1.737 2.255-.285.515a24.712 24.712 0 0 1-6.146-4.374Z" fill="#E5CB7A"/><path fill-rule="evenodd" clip-rule="evenodd" d="M14.132 47.351s.03-.48.425-.79c.063.104.105.205.092.28a2.514 2.514 0 0 1 1.704-1.143c1.132-.206 1.405-1.031 1.405-1.031l2.402-2.183 2.748-2.529 3.34-1.174 1.561-.383s.03.114-.03.366c.291-.02.935-.168 1.604-.404.269-.105.521-.147.656-.008.198.185.227.623.24.883.324-.071.698-.382.998-.353.48.05.905.614 1.393.614.643 0 .934-.395 1.384-.707.27-.184.656-.416.875-.572.522-.383 6.041-2.07 6.041-2.07l1.936.127.311 2.078-.166 5.433-.062.06-8.8 4.595-12.196 1.87a24.464 24.464 0 0 1-7.798-2.682l-.062-.277h-.001Z" fill="#D8C173"/><path fill-rule="evenodd" clip-rule="evenodd" d="M9.564 44.351c.173-.362.329-.665.356-.774.022.219.062.698.142 1.208a26.413 26.413 0 0 1-.498-.434Z" fill="#F1D789"/><path fill-rule="evenodd" clip-rule="evenodd" d="m18.474 49.464 1.577-.438.135.042s.071.042.071.185c.198-.114.366-.093.488-.168.063.134.126.58.404.635.29.063.602-.126.917-.366.312-.248.666-.56.934-.686.099.181.186.368.261.56.353-.282.968-1.427 1.843-1.406a3.32 3.32 0 0 1 1.215-1.468c.812-.551 1.32-.593 1.956-.543.253-.328.564-.606.917-.82.105.042.396.219.758.05.366-.168.778-.82 1.32-.904.293-.04.59.022.842.177 0 0 1.581-1.57 2.672-2.091-.042-.127-.127-.602 1.152-1.654.072.063.021.24.072.25.02 0 .333-.135.728-.438.488-.366 1.072-.749 1.426-.854.665-.198 1.371.206 1.371.206a.634.634 0 0 1 .198-.092c.168-.03.29-.05.383-.084-.008.22.114.594 0 .917.132.075.271.134.416.177-.072.156-.227.551-.488.74.218.106.248.228.56.334-.127.176-.333.48-.425.665-.093.198-.426 1.018-.573 1.33-.155.31-.366.883-.467.998-.101.115-.467.601-.749.84.25-.092 1.27-.403 1.704-.52-.129.188-.782 1.158-1.41 2.09a24.686 24.686 0 0 1-20.21 2.34l.002-.004Z" fill="#E0CD81"/><path fill-rule="evenodd" clip-rule="evenodd" d="M13.479 21.986s-.366 0-.438.05c-.071.051.366.157.5.207.135.05.426.282.501.467.072.177 2.63 1.207 2.63 1.207l1.809-.092.623-.862-1.186-1.039.832-2.453-1.102.177-2.65 1.58-1.33.51-.19.248Z" fill="#DFC57C"/><path fill-rule="evenodd" clip-rule="evenodd" d="M17.451 22.798a.283.283 0 0 0 .25.135c.374 0 .719.093.862.282.24.303.905 1.27.905 1.27l1.59.573.102-1.873-1.737-1.207-1.977.727v.093h.005Z" fill="#E5CC7C"/><path fill-rule="evenodd" clip-rule="evenodd" d="M17.14 23.493s.29.02.655-.114c.366-.135.968-.425 1.229-.311.366.155.29.643.686 1.081.24.27.677.261.925.552.248.29 1.102.155 1.102.155l.324 1.747-1.3 1.667-.425 2.07H18.58l-1.606-.638-.791-1.913.395-1.936.562-2.36Z" fill="#D2C281"/><path fill-rule="evenodd" clip-rule="evenodd" d="M20.54 23.577c.043.013.088.02.134.02-.05.043-.156.135-.114.375.042.24.177.543.063.728a.91.91 0 0 1 .198.345c.072.206.093.395.56.425a.98.98 0 0 0-.186.147s.324.282.489.543c.168-.008.614-.146.614-.146l.092.063.198-.083s-.185-.072-.05-.522c.126-.395.24-.374.25-.404.009-.03.092-.446.092-.614.063-.219.113-.883.113-.883l-.134-1.468-.758-.46-.615-.593-.58 1.093-.383.382-.03.946.046.106Z" fill="#E2C270"/><path fill-rule="evenodd" clip-rule="evenodd" d="M22.36 22.348s.135.383.186.678a.65.65 0 0 0 .03-.177s.105.58.125.82c.043-.008.084-.02.093.021.01.042.105.51.083.77.175-.289.418-.531.707-.706.168-.106.366-.22.572-.228.324-.008.56.207.947.207.934 0 1.78-.686 2.402-.896.459-.156.854-.27 1.132-.523.134-.113.374-.365.593-.74.29-.5.593-.934.896-.988a1.878 1.878 0 0 1-.416.029s.093-.093.25-.219.345-.282.614-.282c.48 0 .72.072.988.072.27-.009.425-.072.425-.072s.282.198.918.198c.635.008 1.06.063 1.392.093.333.03 1.447-.093 1.767-.083.209.008.413.058.602.147l-1.03-2.995-3.704-3.237-2.204 1.561-3.392 3.391-3.281 1.216-.686.77v1.173h-.008Z" fill="#CCB360"/><path fill-rule="evenodd" clip-rule="evenodd" d="M29.723 20.632s.093-.093.248-.219c.156-.126.346-.282.615-.282.48 0 .719.072.988.072.27-.009.425-.072.425-.072s.283.198.917.198c.636.008 1.06.063 1.393.092.333.03 1.447-.092 1.767-.083.209.008.413.058.602.147l-.467-1.35-.543-1.031-1.548-1.696-1.873-1.102a25.158 25.158 0 0 0-.643-.177l-1.683 1.019-1.527 3.95-.03.832.989.467c.248-.416.522-.749.778-.79-.231.024-.408.024-.408.024Z" fill="#D5B457"/><path fill-rule="evenodd" clip-rule="evenodd" d="M29.702 20.914c-.147.008-.269-.021-.303-.126-.126-.354-.227-.404-.332-.404-.106 0-.248.227-.333.248-.085.02-.185-.261-.185-.261l-.093-.042s-.542.353-.925.77c-.383.416-1.01 1.123-1.292 1.25-.281.125-1.25.168-1.58.239-.332.072-.699.311-.75.366-.05.055.148.113.178.168.03.05-.325.03-.354.083-.02.043.083.282.135.404.09-.045.19-.07.29-.071.324-.009.56.206.947.206.933 0 1.78-.686 2.402-.896.458-.156.854-.27 1.131-.522a2.98 2.98 0 0 0 .594-.74 5.26 5.26 0 0 1 .471-.674v.002Z" fill="#D2B257"/><path fill-rule="evenodd" clip-rule="evenodd" d="M16.307 41.735s-.083-.312-.854-1.115c-.219-.227-.353-.416-.5-.551-.367-.345-.581-.438-.842-.635-.572-.425-1.195-.425-1.674-.947-.48-.522-1.039-1.518-1.427-2.537-.383-1.018-.488-1.342-.488-1.372 0-.029.105-.227.24-.197.134.03.134.29.168.353.067.103.143.2.227.29.198.228.48.5.623.905-.03-.345-.147-.728-.147-.728s.74.467 1.371.955c.636.488.896.657 1.082.968.185.31.622 1.131.832 1.371.21.24 3.078 1.145 3.078 1.145l1.365 1.017.677 1.485-.53.832-1.018.22-1.653-.741-.53-.718Z" fill="#D2B159"/><path fill-rule="evenodd" clip-rule="evenodd" d="M12.634 36.619s.345.55 1.186 1.073c.758.458 1.957.875 3.026 1.123.613.147 1.228.26 1.779.27 1.485.02 2.507-.404 3.774-.543.686-.072 1.527-.127 2.402-.333 1.123-.27 1.788-.573 2.693-.999.656-.303 1.258-.53 1.745-.82.686-.404 1.187-.854 1.768-.988-.072.197-.148.55-.72.917.303-.009.72-.03.72-.03s-.404.24-1.115.779c-.438.332-1.018.896-1.611 1.27-.383.24-.8.416-1.073.56-.666.366-.934.55-1.372.998a.595.595 0 0 1 .168 0s-.55.072-.946.282c-.083 0-.227-.03-.48.042-.198.063-.459.206-.728.282-.383.113-.509.063-.509.063l.063.126s-.499-.008-.665.008c.03.009.02.022.02.022a.254.254 0 0 0-.082.029.867.867 0 0 1-.261.113c-.05.009-.093.009-.156.022.021.05.185.332.261.499-.063.042-1.01.757-1.01.757a.69.69 0 0 1 .072.147c.03.093.042.228.072.29.07.127.113.148.113.148s-.114.02-.312.071c-.168.042-.374.114-.665.156-.09.011-.18.018-.27.02.043.094.228.447-.113.855s-.446.467-.551.728a1.136 1.136 0 0 0-.168-.106c-.114-.05-.27-.126-.325-.227a2.687 2.687 0 0 1-.126.396c-.105.282-.26.56-.29.77-.114-.127-.324-.375-.614-.324-.29.05-.522.446-.572.56 0-.072-.05-.127-.063-.043-.009.093-.169 1.06-1.06 1.843-.009-.198-.009-.636-.03-.778-.083.083-.185.206-.79.467-.594.26-.5.521-.5.521s-.05-.416.27-.854c.323-.437.521-.643.521-.677a.187.187 0 0 0-.042-.093c-.042-.042-.126-.092-.126-.126.05-.02.55-.26.521-.757a1.347 1.347 0 0 0-.353-.842c-.02-.02.198-.176.168-.227-.02-.029-.29-.227-.324-.332a.97.97 0 0 1 .043-.185c.029-.093.05-.156.042-.22-.021-.104-.135-.395-.169-.424.03.008.24 0 .24 0s-.168-.27-.198-.396-.092-.458-.126-.521c.072.008.248.02.248 0 .009-.063-.155-.169-.083-.25.05.008.147.05.24.169-.05-.135-.135-.396-.312-.501.084-.03.366-.105.615.042a.826.826 0 0 1 .332.353s.148.114.375.282c.26.206.593.5 1.123.707.114.063.404.063.614.02a.943.943 0 0 0 .261-.104.484.484 0 0 1 .093-.042 2.032 2.032 0 0 0-.156-.261c.072 0 .156.008.156.008s.05-.113-.177-.333c.05-.05.114-.083.114-.168-.072-.008-.198-.113-.227-.155.042-.03.105-.127.176-.156-.063-.05-.218-.261-.29-.282.068-.025.135-.056.198-.092 0 0-.353-.093-.467-.169-.114-.083-.282-.227-.383-.27-.105-.041-.29-.062-.366-.146.071.02.185 0 .27 0 .062 0 .092.008.113.008-.009-.03-.009-.093.156-.113a.769.769 0 0 0 .227-.072s-.156-.008-.333-.177c-.177-.168-.324-.303-.425-.324-.105-.02-.303.072-.425.063-.168-.02-.24-.105-.24-.105s-.56.05-1.8-.706c-1.073-.657-1.54-1.237-1.54-1.237a1.836 1.836 0 0 1-.29-.135c-.404-.21-.964-.648-.947-1.22l-.002.004Z" fill="#C2A44D"/><path fill-rule="evenodd" clip-rule="evenodd" d="M28.112 11.368c.097.031.184.09.25.168.197.227.323.656-.127 1.115.177.063.25.083.404.063-.156.185-.509.58-.53.925-.021.282.156.367.156.367s-.27.31-.282.832c.127-.144.266-.276.416-.396.311-.248.74-.53 1.03-.707a.591.591 0 0 0 .03.219s.543-.446.998-.248c.206.093.114.383.114.383s.282-.105.48.092c.197.198.477.708.62.906.063.093.227.27.396.543.23.382.42.787.572 1.207.008-.219.063-.56.686-.345.622.219 1.33.677 1.922 1.58.594.904.74 1.924 1.04 2.312.302.374.614.997.635 1.258.02.26-.093 1.102.53 3.378.176-.706.446-2.276.446-2.276l.147-1.384.168-4.283-4.472-3.715-3.496-2.537-2.276.218.142.324Z" fill="#CAA13E"/><path fill-rule="evenodd" clip-rule="evenodd" d="M36.421 17.741s-.063-.416-1.115-1.123c-1.052-.698-1.872-.698-2.63-1.291-.58-.467-1.186-1.54-1.58-1.894-.383-.349-.446-1.359-.446-1.359l1.292-1.081 1.92-2.777 1.624-1.788.778 1.082 1.082 1.27.602 2.55.218 3.732-1.747 2.68h.002Z" fill="#B59544"/><path fill-rule="evenodd" clip-rule="evenodd" d="M37.721 22.214a4.74 4.74 0 0 0-.206-1.674c-.277-.862-.883-2.394-1.165-2.967-.114-.636-.03-.686.093-.758.122-.071.58-.333.832-1.25.251-.916 1.03-.946 1.03-.946l.48-.353.728 1.821.635 1.646.198 1.258.147 1.072-.345 2.268-1.704 1.54-.723-1.657Z" fill="#C89D3A"/><path fill-rule="evenodd" clip-rule="evenodd" d="M13.947 47.49v-.046a.36.36 0 0 0 .092-.084c.03-.042.051-.092.072-.105.042-.02.24-.083.345-.063.105.02.383.135.53.126.303-.008.656-.24 1.216-.134.841.155 1.04.727 1.527 1.052.333.227.677.126.728.126h.113c.021 0 .177-.177.261-.168.169.008.185.147.29.155.249.03.728-.126.968-.063a.462.462 0 0 1 .19.77c-.261.24-.51.467-.56.666.064.048.126.1.185.156a24.494 24.494 0 0 1-5.957-2.385v-.003Z" fill="#CEB052"/><path fill-rule="evenodd" clip-rule="evenodd" d="M36.35 39.084s.656-.875.883-1.308c.227-.447-.72-6.105-.72-6.105l1.902-6.23-.05-2.028s.092-1.872.311-2.684c.261.467 1.073 1.03 1.25 1.33.083-.573.366-1.78.324-3.068.155.24.53 2.65.53 2.65l.374 1.625.488 1.725.543 1.821.324 1.258.185.303.156.53.147.573.425 1.341.25 1.103.197 1.998c.043.153.074.31.093.467.008.219-.03.345-.03.383 0 .038.072.48.043.812-.042.333-.042.593-.303.832s-.425 1.666-.425 1.666l-.467-.311s.092-.425-.127-.812a.82.82 0 0 0-.883-.404c-.24.05-.72.126-.875.26-.147.135-.51.552-.842.741-.416.25-1.093.27-1.455.354-.366.083-.77.332-1.195.622a6.669 6.669 0 0 1-1.052.555l-.002.001Z" fill="#CCA847"/><path fill-rule="evenodd" clip-rule="evenodd" d="M36.35 48.277s.027.018.08.047a24.71 24.71 0 0 0 7.877-5.838c-.024-.851-.055-1.724-.09-2.047-.071-.686-.02-1.384-.042-1.788-.02-.404-.248-2.05-.353-2.474-.114-.425-.333-.635-.366-.635-.03.008-.206.8-.206.998 0 .199-.043.678-.043.8-.029-.009-.041-.084-.041-.114-.043.105-.093.29-.114.311-.021.021.03-.176 0-.218-.03-.043-.083-.022-.072-.127a1.17 1.17 0 0 1 .03-.185s-.127.185-.219.657c-.092.466-.092.48-.126.521-.03.05-.198.219-.206.282-.009.114.155.227.168.29.008.106-.147.593-.198.832-.05.24-.03.707-.083.947-.042.219-.083.345-.227.437.105.021.206.05.206.05s.147.623-.227 1.153c-.135.185-.168.27-.311.438-.282.311-.501.666-.522.896a1.494 1.494 0 0 1-.03-.206s-.437.51-.622.8c-.24.374-.572.353-.666.445-.093.093-.114.261-.083.396-.083.02-.24.05-.345.374a.788.788 0 0 1-.374.446c-.198.113-.438.148-.56.177.105.03.147.03.198.063-.063.105-.354.27-.678.48-.324.197-.48.487-.56.677-.083.177-.205.29-.403.311.083.05.206.168.27.206-.093.021-.25.021-.53.261-.295.244-.396.316-.531.337h-.002Z" fill="#C39D3C"/><path fill-rule="evenodd" clip-rule="evenodd" d="M30.496 50.227a2.38 2.38 0 0 1 .519-.276c.656-.26 1.35-.311 1.624-.395.26-.083.467-.198.79-.261l-.023.209c-.955.3-1.927.541-2.912.723h.002Z" fill="#D2BA6B"/><path fill-rule="evenodd" clip-rule="evenodd" d="M42.598 32.967s-.134.728-.374 1.187c-.24.458-.5 1.093-.5 1.093a2.1 2.1 0 0 1 .051-.425c-.303.177-1.039.602-1.248.791-.197.177-.53.488-.614.636.198-.58.404-1.103.438-1.343-.303.22-1.717 1.385-2.453 2.155l-2.293 1.855c-.265.143-.537.27-.816.382-.395.168-.863.311-1.208.446.093-.248.24-.467.446-.678.22-.206.875-.917.976-1.248.093-.344.114-.55-.008-.84-.114.029-.374.041-.551.092-.177.05-.366.24-.366.24s.134-.77.425-1.498a6.196 6.196 0 0 0-.593.071s.521-.875 1.414-1.485a4.6 4.6 0 0 0-.8.248c-.521.219-1.093.543-1.518.72.24-.333 1.922-2.735 2.924-4.973.998-2.234 1.371-2.806 1.59-4.005.114-.594.083-1.47.114-2.255.029-.779.126-1.477.063-1.944.26.324 1.237 1.237 1.27 3.277.03 2.04-.934 4.797-1.956 6.281.25.072.896.156 1.56-.998.665-1.154.657-1.476.897-1.956.03.24.02.324.02.324s.969-1.174 1.427-2.65c.093.635.366 1.194-.063 2.36-.383 1.051-.883 1.308-.883 1.308s.248-.042.614-.261c.063.156.05.333.156.396.105.062.248.168.269.269.113-.169.29-.383.345-.543-.042.333-.072 1.788.083 2.529.324-.03.657-.051.884-.636-.156.573-.156.917-.05 1.405.172-.117.327-.328.327-.328l.001.001Z" fill="#C0993A"/><path fill-rule="evenodd" clip-rule="evenodd" d="M31.667 9.777s-.324.135-.875.135c-.48 0-.345-.185-1.094-.185-1.152 0-5.179.665-5.886.656-.458-.008 1.548.198 1.548.198l5.13.071 1.03-.083.383-.78-.236-.012Z" fill="#A88F33"/><path fill-rule="evenodd" clip-rule="evenodd" d="M18.368 19.803s-.656.5-.934.884c-.277.383-.425.635-.74.946a.644.644 0 0 0 .219-.03s0 .084-.05.106a.296.296 0 0 1 .239.083c-.093.05-.345.303-.148.602.148.227.46.248.46.248s-.072.206.226.185c.644-.03 1.363-.311 1.696-.24.333.083.522.114.757.522.25.404.467.467.467.467s.147-.375.114-.934c.12-.302.188-.622.198-.947l-.22-1.61-.954-1.208-1.237.686-.093.24Z" fill="#E3C571"/><path fill-rule="evenodd" clip-rule="evenodd" d="M19.542 19.563s.093.219.48.24c-.042.092-.042.105-.03.176l.021.177a.39.39 0 0 0 .114-.083c.021.093-.021.24 0 .345a.766.766 0 0 0 .063.185.365.365 0 0 1 .021-.042c.008-.021.083.227.29.416 0-.03.007-.058.021-.083.003.053.02.103.05.147a.153.153 0 0 1-.041-.03s.02.666.134 1.01a.476.476 0 0 0 .05-.071c0-.021-.008.185-.029.333-.03.147-.008.353-.008.353.076-.06.16-.11.248-.147.126-.051.333-.207.459-.552a3.67 3.67 0 0 0 .168-.601c.04.078.069.162.083.25.009.105.207.05.207.05l.042-.459.25-1.039.226-.644 1.094-1.703 1.977-1.522 1.725.395 1.455-1.977-2.507-1.506-2.373.248-2.154 2.982-1.724 2.706-.312.446Z" fill="#D8B65B"/><path fill-rule="evenodd" clip-rule="evenodd" d="M31.97 15.247s-.147.029-.572.25c-.425.22-.72.29-.884.613-.164.324-.177.581-.177.581s.29-.126.46-.168c.176-.042.374-.03.352.042a.49.49 0 0 1-.083.134s.333-.008.324.156c-.009.164-.063.345-.126.425-.063.083-.324.206-.353.303-.072.198.03.206-.009.366-.029.156-.168.459-.622.989-.467.53-.666.904-.666.904s-.227-.425-.345-.79a31 31 0 0 0-.53.29l-1.035-3.606.021-.24s.093-.113.114-.324c-.156-.05-.177-.092-.383-.29-.207-.197-.375-.437-.72-.602-.05-.092-.113-.218-.366-.269-.252-.05-.403-.092-.403-.092s.134-.051.197-.156c-.155.021-.281.072-.622.063-.345-.008-.383-.02-.572.008-.19.03-.416.114-.5-.176-.093-.072-.291-.008-.46.24-.168.247-.227.445-.55.542-.023.143-.073.28-.148.404-.093.156-.24.311-.438.543-.311.366-.26.967-.757 1.426-.5.458.083-1.27.083-1.27l.8-1.914 2.276-2.226 3.534-.24.345 1.83 1.725.594 1.09 1.662v-.002Z" fill="#D3AE4D"/><path fill-rule="evenodd" clip-rule="evenodd" d="m32.53 15.65-1.486-2.14-1.039-.8s-.74-1.363-.79-1.405c-.043-.03-.741-.105-1.187-.135l.083.206c.098.032.184.09.25.169.197.227.324.656-.126 1.114.176.063.25.084.403.063-.155.186-.509.581-.53.926-.02.282.156.366.156.366s-.27.311-.282.832a3.46 3.46 0 0 1 .416-.396c.312-.25.74-.53 1.031-.707a.598.598 0 0 0 .03.22s.542-.447.998-.249c.206.093.113.383.113.383s.282-.105.48.093c.198.197.48.706.623.904.063.093.227.27.395.543.23.383.421.787.572 1.207.008-.168.042-.403.333-.403l-.442-.791h-.001Z" fill="#CAA13E"/><path fill-rule="evenodd" clip-rule="evenodd" d="M10.265 21.734s-.105-.26 0-.77c.106-.509.27-.749.324-1.497.055-.75.543-1.683.543-1.683l1.35-.614.956.26.281 1.28-1.207.665s-.063.282-.404.509c-.34.227-.812.404-.925.635a1.85 1.85 0 0 0-.148.446s-.345-.071-.55.156c-.22.231-.211.438-.22.614v-.001Z" fill="#F4EFC8"/><path fill-rule="evenodd" clip-rule="evenodd" d="M12.992 21.393s-.114.072-.198.25c-.083-.135-.282-.934-.29-1.654-.009-.719-.052-.897.115-1.145.166-.248.819-.51.726-.956-.093-.425-.48-.602-.955-.48-.333.084-.58.791-.926 1.145-.26.27-.572.227-.656.374-.114.198-.008.396-.042.522-.008.042-.114.27-.303.543-.383.55-1.03 1.33-1.115 2.027.03-.395.009-.403.114-.84l-.063-.106.416-1.363.269-1.123.602-1.881 1.06-1.923 1.03-1.152 1.073.071.126 1.611.615 3.025 1.291 1.59-2.07 1.394-.82.071Z" fill="#EBCC73"/><path fill-rule="evenodd" clip-rule="evenodd" d="M13.635 21.965s-.176.042-.24.008c-.063-.033-.125-.071-.105-.113.021-.042.135-.114.135-.148a.118.118 0 0 0-.105-.126c-.097-.012-.126.05-.126.05s-.093-.07-.169-.082a1.02 1.02 0 0 1 .135-.009 1.312 1.312 0 0 0-.366-.105c.105-.063.311-.248.446-.248.134 0 .219-.021.198-.093-.021-.071-.127-.176-.24-.219.042-.05.072-.126-.03-.332-.105-.206-.063-.345-.029-.396.03-.063.135-.176.185-.248.05-.071.093-.168.177-.219.042-.029.177-.083.311-.134.148-.05.27-.114.354-.05.092.062.05.147.05.147s.29-.106.551.03c.261.125.897.205.897.205l.227.459-1.506 1.291-.623.312-.126.02Z" fill="#E5C66B"/><path fill-rule="evenodd" clip-rule="evenodd" d="M15.726 19.853s-.467.312-.572.425c.063.009.168.051.126.114-.05.063-.353.282-.522.488a3.217 3.217 0 0 0-.403.593c-.064.114-.543.446-.707.488.345 0 1.039-.425 1.3-.425-.009.127.071.27.218.282.148.012.573.093 1.145-.26.572-.346.383-.602.622-.77.46-.304.644-.573.896-.741.253-.168.383-.206.383-.206s.009-.127.084-.114a.114.114 0 0 1 .092.072s.438-.312.999-.396a.059.059 0 0 1-.03-.03s.042-.02.05-.041c0 0 .03-.042.051-.021.021.02.05.176.093.24.093-.043.27-.438.27-.438l.424-1.216v-1.11l-.332.063-2.497 1.06-1.514 1.569-.177.374h.001Z" fill="#E6BD62"/><path fill-rule="evenodd" clip-rule="evenodd" d="M22.912 14.405c.135-.032.264-.085.384-.155-.05.134-.05.281-.27.601-.218.32-.226.366-.403.699-.177.345-.198.841-.366 1.06a.77.77 0 0 1 .24-.072s-.169.148-.24.303c-.072.156-.198.48-.51.678-.31.198-.706.324-1.13.79-.426.459-.863 1.04-1.082 1.249a3.12 3.12 0 0 0 .311-.854c.042-.261-.009-.573.063-.918.072-.344.072-.593.416-1.195.344-.601.934-2.692.934-2.692l1.27-.404.384.909-.001.001Z" fill="#B6933F"/><path fill-rule="evenodd" clip-rule="evenodd" d="M21.995 13.635s-.383.552-.488 1.04c-.105.488-.009.445-.072.685a.894.894 0 0 0 0 .446c.133-.213.314-.392.53-.522.362-.218.656-.374.832-.559.177-.198.324-.522.706-.77-.155-.02-.374-.092-.416-.083.156-.177.623-.446 1.094-.77.467-.333.438-.467 1.195-.8-.248.043-.366-.02-.572 0 .083-.176.374-.26.665-.55.292-.29-.184-.72-.184-.72l-2.22 1.342-1.072 1.262h.002Z" fill="#C49937"/><path fill-rule="evenodd" clip-rule="evenodd" d="m15.974 12.634.05-.404.636-1.018.665-1.788V6.98l-.05-1.414.105-.926.08-.294.084-.114.542.282.75 1.018.07 1.965-.727 3.1-2.078 2.269-.127-.232Z" fill="#DFC068"/><path fill-rule="evenodd" clip-rule="evenodd" d="M17.628 4.119s-.333.008-.404 1.392c-.07 1.385-.105 2.112-.156 2.798-.05.686-.168 1.102-.227 1.506-.059.405-.093.955-.282 1.292-.083.156-.26.644-.677 1.01-.467.404-1.165.686-1.27.707-.186.042-1.124.134-1.507.345-.134.071-.366.155-.623.395-.509.459-1.186 1.279-1.674 2.268-.749 1.476-1.498 5.646-1.498 5.646l.169-.282s.02-.375.395-1.031c.366-.656.261-1.392.77-2.65.198-.48.446-1.103.749-1.633.48-.862 1.06-1.603 1.645-2.007a5.2 5.2 0 0 1 2.007-.799l1.132-.749s.197-.383.458-.82c.366-.614.832-1.3.934-2.297.156-1.477-.219-2.444-.198-3.32.021-.874.03-1.518.207-1.674.177-.156.05-.097.05-.097Z" fill="#A88F33"/><path fill-rule="evenodd" clip-rule="evenodd" d="M17.628 10.724s.5-1.229.728-2.318c.042-.22.126-.438.147-.614.105-1.031.134-1.456 0-2.02-.105-.416-.509-.79-.72-1.081-.206-.304-.302-.416-.26-.48a.466.466 0 0 1 .366-.156 1.253 1.253 0 0 1 .896.416c.324.375.58 1.645.58 1.645l.27 1.677.686 2.112-2.693.82v-.001Z" fill="#C99E3D"/><path fill-rule="evenodd" clip-rule="evenodd" d="M22.319 9.445s-.093.042-.261 0a.375.375 0 0 1-.168.353c-.177-.071-1.83.072-1.83.072s-.77-.135-1.01-1.153c-.169-.677.126-1.611.029-2.225-.147-.905-.353-1.082-.375-1.364-.02-.281-.042-.353-.042-.53-.092-.02-.147-.05-.24-.05-.02-.083.021-.156-.07-.303.05.021.395.063.798.446.333.311.333.425.383.488.063.063.573.5.791.934.22.435.644 1.822.74 2.049.03.092.093.185.25.395.244.303.602.804 1.006.888h-.001Z" fill="#B58634"/><path fill-rule="evenodd" clip-rule="evenodd" d="M19.593 5.2c.255.412.484.839.685 1.279.249.56.396 1.018.707 1.393-.168-.488-.467-1.448-.643-1.788-.198-.361-.602-.75-.75-.884Z" fill="#A88F33"/><path fill-rule="evenodd" clip-rule="evenodd" d="M16.732 12.117s-.425.105-1.216.521c-.261.135-.509.248-.749.354-.623.281-1.291.542-1.822.686.043.05.063.07.063.07s0 .207.114.325c-.063.063-.905.635-.656 2.55.168-.064.366-.148.395-.148.05.009.063.147.126.147s.27-.083.488-.366c-.008.114-.134 1.258.543 2.028.126-.147.446-.635.446-.635l.008-.156s.03-.543.207-1.04c.177-.495.521-.862.521-.862l1.8-2.57-.269-.905Z" fill="#E6C367"/><path fill-rule="evenodd" clip-rule="evenodd" d="M15.049 15.891a.993.993 0 0 1-.27.135 1.04 1.04 0 0 1 .177-.82c.29-.426.926-.977 1.102-1.415.114-.282.064-.989 1.073-1.893 1.01-.905 1.405-1.216 1.405-1.216l1.633-.82 2.007.79-.997 3.908-.774 1.83-3.079-.58-2.277.081Z" fill="#DCBA5A"/><path fill-rule="evenodd" clip-rule="evenodd" d="m16.224 14.83.383-.48v-.34s.425-.114.883-.581c.459-.467 1.094-1.363 1.654-1.308.56.063.614 1.215.635 1.54.021.324.093 1.06.206 1.455.126.396-1.363 1.893-1.363 1.893l-1.011.77-1.387-2.949Z" fill="#E9CE77"/><path fill-rule="evenodd" clip-rule="evenodd" d="M17.409 18.823s.312-.489.083-.594c.135-.302.383-.622.383-.622s.177-.438.749-.976c.572-.539.925-.896 1.018-1.258.057-.236.088-.477.093-.72.062.051.128.096.197.135.093.042.53.404.467 1.132-.063.728-.332 1.03-.332 1.03s-.261.261-.446.396c-.198.135-.27.29-.602.303a.398.398 0 0 1 .114-.063s-.345-.042-.53.126c-.186.168-.58.686-.777.842-.198.126-.416.269-.416.269h-.001Z" fill="#CDAE50"/><path fill-rule="evenodd" clip-rule="evenodd" d="M31.398 10.64a5.068 5.068 0 0 0-1.548-.303c-.884-.03-2.176.02-3.442.03-1.363.007-2.6-.468-4.316-.552-.282-.168-.999-.905-3.236.656.135-.008 1.624-.345 2.142.303.521.644.374 1.738.303 1.999-.135.58-.573 1.426-.749 2.02-.176.592-.135.904-.26 1.32-.127.416-.405.623-.24 1.102.218-.134.332-.134.698-.955.365-.82.29-1.405.896-2.1.593-.697 1.58-1.653 1.956-1.893.376-.24 3.357-1.787 6.48-.31.752-.08 1.316-1.318 1.316-1.318Z" fill="#D2A83E"/><path fill-rule="evenodd" clip-rule="evenodd" d="M20.114 10.067a.386.386 0 0 0-.02-.092.675.675 0 0 0-.114-.169s-.74-.134-1.115-.092c-.657.071-1.25.883-1.527 1.3-.278.416-.623 1.06-.998 1.392a.139.139 0 0 0-.02-.092s.02.03-.021.071c-.042.042-.043.063-.021.083l.063.063c.02 0 .601-.26 1.392-.998.842-.77 1.485-1.165 1.822-1.3a2.54 2.54 0 0 1 .56-.166Z" fill="#C29637"/><path fill-rule="evenodd" clip-rule="evenodd" d="M34.477 6.904s-.134.168-.303.353c-.374.396-.862.841-1.279 1.3-.395.438-.84.779-1.342 1.35-.5.573-1.081 1.208-1.228 1.393-.135.185-.24.488-.24.644-.071-.05-.155-.105-.155-.105.035.066.077.128.126.185.105.147.269.333.353.446.104.144.178.307.219.48.05.008.374.071.778-.594.404-.665.934-1.392.934-1.392l.841-1.25.53-1.06.666-1.186.101-.564Z" fill="#AC8132"/><path fill-rule="evenodd" clip-rule="evenodd" d="M35.34 6.054s-.51.416-.707.666c-.198.25-.666.904-.666.904l.169-.02.854-.758.333-.593.017-.198Z" fill="#A88F33"/><path fill-rule="evenodd" clip-rule="evenodd" d="M35.184 39.488s-.008-.345.185-.551c.198-.206.699-.51 1.187-1.645.488-1.136.542-1.393.542-1.393s-.875.75-1.414.926c.126-.261.198-.446.26-.58-.07-.064-.373-.135-.403-.169.168-.168.26-.58.602-.854.437-.333 1.236-.905 1.858-1.415.621-.51 1.842-1.695 1.998-2.04.093.135.114.219.114.219s-.614.8-.934 1.308c-.282.438-.261.686-.261.686l.58-.25s.169.623-.593 1.57c.333-.126.468-.05.657-.156-.312.198-.74.467-1.145 1.207-.395.74-.934 1.603-1.842 2.142-.884.568-1.393.993-1.393.993l.002.002Z" fill="#A67A2E"/><path fill-rule="evenodd" clip-rule="evenodd" d="M32.904 11.078s-.345.719-.396 1.278c-.008.135-.042.24-.042.396-.008.5.03 1.06-.083 1.32-.042-.104-.063-.176-.105-.218-.063.177-.177.728-.27.934a4.388 4.388 0 0 1-.126-1.153c.01-.55.021-.656.021-.77-.02.169-.134.396-.176.53-.063-.113-.135-.26-.22-.382-.05.083-.113.206-.167.27a3.856 3.856 0 0 1-.042-.375c-.009-.22-.021-.5-.009-.56.021-.113.198-.56.572-.968.446-.488.905-1.426 1.04-1.716.134-.29.706-1.498.706-1.498h.438l-.636 1.448s-.382.79-.58 1.081c-.198.29-.614 1.124-.8 1.447.135-.176.249-.269.383-.437.13-.118.492-.627.492-.627Z" fill="#8C6228"/><path fill-rule="evenodd" clip-rule="evenodd" d="M35.348 6c-.071.22-.184.424-.332.601-.261.312-.821.728-1.094 1.06-.25.324-.749 1.208-.522 2.255.083-.227.24-.677.656-1.186.417-.51.863-1.094 1.082-1.548.218-.46.248-.82.248-.82l.083-.106-.05-.24L35.346 6h.001Z" fill="#CBA94C"/><path fill-rule="evenodd" clip-rule="evenodd" d="M43.868 33.905s-.169-.459-.219-.875c-.05-.417.083-.5-.072-.976-.092-.29-.26-.25-.302-.29-.043-.041-.072-.48-.064-.72.009-.24-.008-.55-.05-.686-.063-.05-.105-.092-.198-.403-.105-.312-.156-.467-.206-.56-.05-.092-.198-.176-.198-.269 0-.185.168-.282.168-.333-.008-.105-.134-.02-.168-.05-.042-.05.105-.354.05-.396-.02-.02-.168.156-.206.106-.042-.051-.092-.552-.168-.884-.071-.324-.147-.56-.155-.656-.009-.093-.581-1.725-.72-2.12a10.048 10.048 0 0 1-.282-1.019c-.042-.197-.071-.602-.092-.56-.021.043-.009.249-.042.24-.03-.008-.135-.727-.169-.84-.029-.115-.206-.5-.25-.78-.041-.281-.134-1.017-.197-1.518-.063-.5-.093-.707-.093-.832a5.172 5.172 0 0 0-.05-.917 8.553 8.553 0 0 0-.395-1.548c-.282-.707-1.031-2.516-1.165-2.966 0-.114.147-.05.147-.05s.366.916.635 1.623c.261.707.51 1.33.573 1.393.05.063.446.757.622 1.893.177 1.136.24 2.183.345 2.882.05.332.093.686.198 1.039.113.383.29.778.522 1.384.197.51.345.934.424 1.3.093.467.093.82.148 1.052.05.198.126.593.303 1.165.177.572.437 1.308.614 1.767.345.917.5 1.682.551 2.09.046.422.202 1.877.16 2.315v-.001Z" fill="#A88F33"/><path fill-rule="evenodd" clip-rule="evenodd" d="m35.37 5.949-.022.05s.063.021.05.106c.002.115-.005.23-.02.345-.021.147-.063.26-.072.353 0 .198.03.425-.25.989-.082.155-.134.29-.176.382-.105.228-.126.261-.219.367.148-.084.678-.416.947-.367a1.974 1.974 0 0 0-.644.581c.042.008.219.042.5 0 .466-.071.988-.24 1.447-.206.5.03.303-.602.303-.602l-.578-1.27-1.094-.77-.173.042Z" fill="#BE9C44"/><path fill-rule="evenodd" clip-rule="evenodd" d="M38.222 15.466s-.488-.489-.686-2.164c-.198-1.682-.156-4.16-.156-4.16l-.395-.967s-.083-.644-.29-.884c-.208-.24-.614-.643-.8-.841-.185-.198-.395-.467-.521-.51.063-.104.345-.698 1.426-.706 1.08-.008 1.414.593 1.527.812.113.219.623 1.165.812 2.968.176 1.8.185 1.935.155 2.558-.02.345-.134 1.144-.332 1.998-.181.724-.379 1.531-.74 1.897v-.001Z" fill="#A17C34"/><path fill-rule="evenodd" clip-rule="evenodd" d="M36.691 16.9a.826.826 0 0 0 .467-.105c.156-.009.72.063 1.153-.488.03.126.105.467-.093.77.106-.106.261-.148.282-.177.009.156.156.635-.467 1.8.168-.184.366-.176.543-.197.008.219.126.955-.185 1.35-.206.27-.543.185-.543.185a1.043 1.043 0 0 0 0-.176c-.008-.114-.05-.227-.02-.303a1.508 1.508 0 0 1-.438-.303c-.367-.345-.842-.934-.876-1.372-.042-.488.396-.593.396-.593a.468.468 0 0 1-.093-.114c-.02-.07-.042-.185-.126-.277Z" fill="#8C6228"/><path fill-rule="evenodd" clip-rule="evenodd" d="M33.446 11.607s-.02-.029-.134.106c.021-.135.042-.261.05-.383.054-.113.123-.218.207-.312-.064.126-.106.24-.106.24s.156-.29.383-.467c.156-.126.354-.185.438-.303.092-.126.071-.147.092-.168 0 0 .207-.135.522-.53.042-.05.105-.105.147-.156.072-.03.24-.105.438-.206.206-.114.437-.27.58-.333.282-.126.581-.114.72-.312.105-.029.218-.345.198-.614.155.063.954.56 1.228 1.645.198.77-.156 1.957-.303 2.529-.147.572-.168.997-.374 1.258-.261.345-1.102.832-1.309 1.073-.176.197-.706.698-.686 1.06.022.269.354.416.426.467.071.05.07.113.206.083.134-.03.185-.093.24-.093.063.009.063.021.092.021a.306.306 0 0 0 .063-.008s-.021.383-.917.499c-.063.009-.126.03-.206.042.105-.05.168-.05.282-.206-.127-.021-.488-.042-.581-.072.03-.05.126-.185.206-.248.072-.063-.008-.083-.071-.05a3.39 3.39 0 0 0-.312.24c-.105.092-.197.218-.366.332a.82.82 0 0 1 .156-.72c-.05.01-.147.156-.24.127a1.341 1.341 0 0 1 .03-.459c.05-.19.323-.521.323-.521l1.321-2.36.282-1.789-3.025.588Z" fill="#92723A"/><path fill-rule="evenodd" clip-rule="evenodd" d="M33.375 11.709s-.071.05.072.147c-.021.03-.072.134-.135.206-.071.083-.147.135-.177.206-.063.147-.113.248-.113.312 0 .063-.021.467-.198.727-.063.093-.135.249-.185.354-.105.185-.198.332-.219.416-.042.147-.071.55-.071.55l.126-.155a1.18 1.18 0 0 1-.185.303c.05-.042.197-.147.446-.366.345-.29.883-.778 1.54-1.165-.198.072-.366.072-.5.093.104-.105 1.05-1.216 1.547-1.321a.198.198 0 0 0 .042-.135l-.425-.042-.862.185-.126-.665-.577.349Z" fill="#B18E3E"/><path fill-rule="evenodd" clip-rule="evenodd" d="M34.747 15.495s-.114.113-.219.395a1.335 1.335 0 0 1-.206-.282c-.156-.26-.396-.593-.955-.404-.008-.176-.021-.269 0-.395.092-.02.374-.248.656-.58.198-.228.383-.489.51-.82a5.62 5.62 0 0 1 .415-.291c.27-.185.593-.438.644-.72-.126.05-.396.177-.8.156.156-.071.396-.147.366-.458.064-.043.114-.072.114-.072a.418.418 0 0 0-.147-.021c-.009-.03-.021-.071-.093-.05-.071.02-.083.02-.092.05-.03.008-.127 0-.198.05-.072.051-.27.22-.345.249.03-.05.071-.126.071-.126s-.206.02-.353.083c-.27.093-.58.26-.896.425.03-.05.042-.083.063-.093.02-.01.071-.02.071-.03 0-.008-.02-.082-.008-.113.094-.2.206-.391.333-.572.147-.198.176-.48.176-.48l.644-.324 1.81-.415 1.173.071-.147.812-.694 1.418-.593 1.291-.677.792-.623.454Z" fill="#543E26"/><path fill-rule="evenodd" clip-rule="evenodd" d="M37.679 11.98s-.707.876-.905 1.01c.127-.269.905-1.872 1.187-2.318-.063-.05-.148-.05.05-.832-.168.396-.227.602-.366.707-.138.105-.156.071-.25.071a.175.175 0 0 0 .022-.105s-.594-.071-.999-.071-1.207.219-1.653.395c-.354.148-.551.148-.677.24-.127.105-.198.219-.261.248-.05.03-.29.105-.345.185-.05.083-.135.177-.135.198 0 .021-.021.05.042.03.021-.009.177-.093.354-.198.24-.135.53-.29.74-.383.602-.24.791-.198 1.06-.248.282-.05.686-.169.955-.169.27-.008.778 0 .896.021-.05.043-.093.093-.071.27 0 .05-.043.105-.084.227-.125.345-.365.917-.499 1.207-.185.396-.395.728-.499.934-.104.206-.333.749-.56 1.04-.226.29-.344.466-.415.53-.071.063-.581.437-.543.572a2.82 2.82 0 0 0 1.102-.728c.425-.478.51-.77.841-1.03.333-.262.594-.7.75-1.06.13-.338.1-.443.264-.741l-.001-.001Z" fill="#806031"/><path fill-rule="evenodd" clip-rule="evenodd" d="M22.445 18.511s-.093.383-.303.573c-.206.185-.572.345-.614.656-.05.311.366.467.366.467s-.227.374-.227.656c0 .29-.009.345.02.623a.279.279 0 0 0-.082.083s.02.27.227.437c.206.168.382.27.488.227.016.035.03.07.042.106 0 0 .156-.396.26-.74.106-.354.198-.304.24-.78.042-.474.5-1.29.5-1.29l.312-.698-.51-.396-.719.076Z" fill="#B6903C"/><path fill-rule="evenodd" clip-rule="evenodd" d="M23.392 19.197a3.079 3.079 0 0 0-.29.345c-.135.185-.24.353-.438.425-.197.072-.323.071-.31.27.012.198.197.281.302.382a.492.492 0 0 1 .156.48c.063-.03.176-.063.282-.29.105-.228.84-1.612.84-1.612h-.542Z" fill="#685026"/><path fill-rule="evenodd" clip-rule="evenodd" d="M26.291 16.004s.063-.168 0-.29c-.063-.127-.446-.169-.635-.312-.198-.147-.438-.25-.636-.185.03-.071.148-.227.05-.26-.092-.03-.436.125-.53.197-.092.072-.302.156-.344.206-.042.051-.114.148-.156.106-.042-.03-.063-.106-.134-.064-.072.042-.416.324-.48.488-.063.165-.206.53-.635.947-.43.416-.615.686-.488.841.126.156.185.042.206.177a1.14 1.14 0 0 1-.021.395c-.05.22-.135.425-.021.468.29.092.572-.084.635-.03.126.114-.071.522.227.602.303.083.602-.072.602-.072l1.102-.593 1.06-.56.543-1.073-.291-.896-.055-.092h.001Z" fill="#D4B968"/><path fill-rule="evenodd" clip-rule="evenodd" d="M25.251 18.566s-.185-.282.042-.53c.228-.249.551-.354.678-.51a.195.195 0 0 0-.093-.062.837.837 0 0 1 .366-.345.35.35 0 0 0-.24-.114c-.206 0-.332.126-.521.126-.186 0-.207-.092-.207-.092s.312-.03.282-.169c-.03-.147-.083-.147-.083-.147s.602-.25.707-.383c.105-.133.092-.29.113-.353.072 0 .488-.219.656-.126.169.093.051.345.051.345s.51-.383.77-.758c.226.02.332-.156.498-.156.207 0 .53.282.593.883.043.345.106.543.043 1.153-.03.345-.021 1.082.083 1.447.071.29.24.261.24.261a.472.472 0 0 1-.148.227c-.113.105-.126.383-.113.488.016.077.037.153.063.227 0 0-.135.156-.169.261-.029.106-.168.177-.269.177s-.05-.009-.185 0c-.134.009-.177.03-.26 0-.085-.03-.148-.063-.114-.333.03-.269-1.04-.896-1.04-.896l-1.747-.622.004.001Z" fill="#CCA849"/><path fill-rule="evenodd" clip-rule="evenodd" d="M23.244 21.225s.383.509 1.957.509c.749 0 1.01-.072 1.165-.114.168-.042.799-.29 1.434-1.039.572-.677.446-.955.446-.955l-.332-.05-1.082.147-3.2 1.363-.389.139h.001Z" fill="#585136"/><path fill-rule="evenodd" clip-rule="evenodd" d="M24.418 21.35s-1.363.304-1.363-.558c0-.842.841-1.725 1.052-1.881.219-.156.74-.333.74-.333h1.258l.24.636-.105 1.371-1.822.766Z" fill="#252211"/><path fill-rule="evenodd" clip-rule="evenodd" d="M25.676 18.835s-.26-.24-.854.084c-.593.323-1.073.998-1.102 1.611-.03.543.446.947 1.186.968.551.02.884-.042 1.052-.083a38.76 38.76 0 0 1-.26-.324l-.022-2.255Z" fill="#C3B378"/><path fill-rule="evenodd" clip-rule="evenodd" d="M25.42 18.97s-.063-.05-.25.05c-.156.083-.383.303-.56.459-.113.092-.185.134-.249.206-.261.311-.48.82-.353 1.073.126.252.542.543 1.603.345l-.195-2.133h.003Z" fill="#E6D89C"/><path fill-rule="evenodd" clip-rule="evenodd" d="M25.075 19.491s-.169.262-.169.678c0 .425.24 1.102 1.124 1.153.677.042 1.131-.976 1.623-1.372.375-.303.602-.311.602-.311s-.383-.416-1.405-.955c-1.01-.543-2.142-.614-2.756.219.29-.021 1.229-.261 1.229-.261l.458.147-.706.703Z" fill="#252211"/><path fill-rule="evenodd" clip-rule="evenodd" d="M26.395 20.043c-.029-.063-.05-.148.072-.168.122-.021.177-.01.219.083.042.091.083.168.02.206-.062.034-.226 0-.31-.122Zm-.197-.594s-.042.03-.021-.03c.008-.07.063-.197.197-.167.135.03.106.177.084.219-.023.042-.135.113-.22.083a.07.07 0 0 1-.042-.105h.002Z" fill="#6F674D"/><path fill-rule="evenodd" clip-rule="evenodd" d="M14.81 19.718s.332.25.719.24c.383-.008.875-.403 1.102-.656.135-.147.25-.303.375-.425.105-.105.176-.156.227-.227.071-.083.147-.24.185-.29-.093.071-.227.198-.366.282-.135.083-.425.24-.543.281-.113.043-1.291.666-1.291.666l-.408.13Z" fill="#AC924C"/><path fill-rule="evenodd" clip-rule="evenodd" d="M15.318 16.61s.185-.126.543-.206c.345-.084 1.04-.148 1.04-.148l.571.25.227.862-.416.897-.53.332-.601-.967-.832-1.018-.002-.002Z" fill="#9F8E57"/><path fill-rule="evenodd" clip-rule="evenodd" d="m14.57 17.38-.199.148s.051-.093.093-.375c.042-.282.261-.967.58-1.363.32-.395.312-.374.312-.374a.209.209 0 0 0-.168.041c.042-.093.311-.426.58-.592.27-.166.375-.219.657-.083.282.136.353.206.56.198.206-.009.382-.228.382-.228s.042.135-.113.446c-.156.312-.77.947-.77.947l-1.28.875-.635.36Z" fill="#EAC970"/><path fill-rule="evenodd" clip-rule="evenodd" d="M15.516 16.505s.925.126 1.207-.135c.009.03.042.03.042.05a.074.074 0 0 1-.02.043.684.684 0 0 1 .092-.009.544.544 0 0 0 .114.021.652.652 0 0 0 .092-.008.159.159 0 0 1-.063.105c.042 0 .083.008.083.042s.009.135-.042.156a.19.19 0 0 1-.126-.009.52.52 0 0 0 .063.228c.083.155.26.332.5.281 0 0 .125.303-.405.976-.071.093-.147.22-.24.324a1.29 1.29 0 0 0-.083.248s.897-.345 1.153-1.131c.261-.791.312-1.57.261-2.297a1.182 1.182 0 0 0-.092-.459c-.127-.26-.48-.219-.623-.071-.206.206-.551.719-1.03 1.072-.489.354-.51.416-.884.573Z" fill="#D7BC6B"/><path fill-rule="evenodd" clip-rule="evenodd" d="M14.405 17.64s-.176.106-.27.5c-.092.404.084.896.186 1.052.102.155.333.58.812.601a.892.892 0 0 0 .345-.071 2.25 2.25 0 0 0 .467-.29c.206-.156.375-.29.353-.303-.05-.022-1.27-1.031-1.27-1.031l-.459-.512-.164.055Z" fill="#585136"/><path fill-rule="evenodd" clip-rule="evenodd" d="M15.558 19.315s.249-.02.396-.114c.147-.092-.863-1.093-.863-1.093l.072 1.081.395.126Z" fill="#453A25"/><path fill-rule="evenodd" clip-rule="evenodd" d="M14.485 17.565s-.126.24-.126.303c-.021.206.042.854.093 1.06.05.218.323.55.677.55.219 0 .522-.134.522-.167 0-.043-.312-.084-.396-.24-.05-.083-.071-.29-.083-.5-.008-.134-.008-.281.042-.332.114-.126.135-.488.135-.488l.403-.75h-.53l-.636.395-.1.169Z" fill="#84754B"/><path fill-rule="evenodd" clip-rule="evenodd" d="M14.33 17.796s.415-.55.79-.677c.375-.127.543-.05.543-.05l-.219.559-.311.345.021.177s-.05.466.26.79c.312.324.543.312.678.312s.522-.114.72-.58c.176-.438.323-1-.03-1.562-.345-.56-.955-.58-1.073-.58s-1.043.045-1.38 1.265v.001Z" fill="#252211"/><path fill-rule="evenodd" clip-rule="evenodd" d="M25.011 19.668c-.155-.071-.008-.509.148-.643.155-.135.353-.29.698-.312.126-.008.248.072.227.156-.03.156-.248.374-.446.53-.273.215-.45.35-.627.27Z" fill="#F7F7E7"/><path fill-rule="evenodd" clip-rule="evenodd" d="M16.597 17.283c.114-.008.261.083.29.206.03.135-.071.404-.29.404-.177 0-.27-.219-.27-.282a.322.322 0 0 1 .043-.147c.008-.013.03-.16.227-.181Z" fill="#F8F6DE"/><path fill-rule="evenodd" clip-rule="evenodd" d="M14.956 17.38s-.29.134-.425.416c-.096.207-.125.44-.083.665.021.105.126.366.198.459.071.092.168.155.24.147.071-.009.218-.198.218-.311 0-.114.009-.593.148-.854.122-.261-.295-.522-.295-.522Z" fill="#D4C38B"/><path fill-rule="evenodd" clip-rule="evenodd" d="M14.998 17.359c-.05.029-.134.071-.113.126.02.05.197.083.26.206a.44.44 0 0 1 .051.324.513.513 0 0 0 .148-.105c.092-.105.206-.248.302-.248.064 0 .127.03.186.03.092 0 .185-.03.197-.127.021-.126-.176-.24-.29-.219.021-.083.05-.206-.042-.29-.093-.085-.383.063-.446.105-.063.042-.252.198-.252.198Z" fill="#E2D59D"/><path fill-rule="evenodd" clip-rule="evenodd" d="m21.684 26.198.622-.184.177.126s.126.27.324.303c-.063.134-.228.25-.219.345a.291.291 0 0 0 .093.168s-.56.926.542 1.858c-.26.105-.593.25-.77.333.126.03.396.083.51.186.113.102.113.134.218.197s.168.147.147.185c-.071-.042-.311-.168-.353-.05-.042.117-1.039.071-1.039.071l-1.683.324s.063-.168-.114-.324c-.206-.185-.458.009-.727-.198-.354-.269-.366-.58-.48-.698.114-.071.345-.176.896-.25-.02-.041-.092-.168-.05-.281.05-.147.26-.24.198-.416.092-.021.134-.021.366-.312.218-.29.353-.353.521-.374.169-.021.27 0 .581-.29.219-.206.147-.383.147-.383s.143-.046.093-.337Z" fill="#CBAC5A"/><path fill-rule="evenodd" clip-rule="evenodd" d="M19.845 26.291c.009-.042.042-.063.27-.042.227.021 1.665-.134 2.057-.155.395-.03 1.788-.01 2.465.134.678.143 1.363.311 1.696.395.332.093.437.126.425.168-.009.043-.084.084-.127.072-.042-.008-1.144-.345-1.485-.416-.34-.07-1.519-.26-2.163-.25-.601.01-.841-.008-1.35.051-.51.063-1.35.147-1.603.114-.25-.03-.198-.03-.185-.072v.001Z" fill="#D6BC6F"/><path fill-rule="evenodd" clip-rule="evenodd" d="M23.232 29.589s.862.467 1.174 1.039c.227.425-.135.635-.135.635s.488 0 .425.27c-.03.168-.841.622-1.384.862-.551.24-.53.227-.8.269-.26.042-.976-.083-1.123.126-.147.21-.083.425-.042.459.042.03.383.072.383.072s-.072.197-.778.218c-.707.021-.884.072-.926.148-.042.07.134.029.459.083.323.05.778.083.778.083s-.147.126-.53.227c-.438.114-1.124.219-1.33.345.105.072.261.177.333.185-.177.042-.425.135-.467.168.063.043.147.093.147.093s-.353.425-.56.53c-.205.106-1.392.656-1.8.551-1.018-.269-1.144-1.384-1.393-1.468-.374-.126-.55.126-.883-.05.147-.106.227-.169.383-.24-.168-.083-1.04-.636-1.04-.636a6.43 6.43 0 0 0-.302-.58c-.168-.29-.416-.678-.602-1.018-.404-.75-.425-1.094-.79-1.519.062-.083.28-.072.28-.072l3.068 1.01 5.439.158 1.414-2.02.602.072Z" fill="#DFC677"/><path fill-rule="evenodd" clip-rule="evenodd" d="M15.175 32.668a.478.478 0 0 0 .114.093c.105.071.26.156.366.282.042-.063.147-.177.332 0 .186.176.416.05.56.092.147.051.155.072.155.072s.084-.072.27-.147c.113-.043.248-.072.395-.114.135-.03.282-.071.383-.071.093.063.425.416 1.759-.105 1.258-.489 1.548-.543 1.758-.468.021-.05.043-.147.366-.134 0-.135-.269-.593-.269-.593l-1.485-.51h-.812l-2.436.447-1.35.77-.105.388v-.002Z" fill="#C4A859"/><path fill-rule="evenodd" clip-rule="evenodd" d="M14.363 31.814s.03.227.366.467c.333.24.438.383.438.383s.063-.083.113-.168c.05-.093.093-.198.177-.227.168-.072.551.063.635.042.072-.021.05-.168.127-.168.176-.009.29.113.353.113s.218-.008.24-.042c.02-.033.029-.383.269-.551.26-.185.58-.105.665-.063 0 .063.009.219.177.227.168.008.185-.021.333.03.148.05.324-.009.404.24.071-.022.24-.043.197-.283.084-.063.156-.105.333-.353.042-.063.113-.134.168-.227.148 0 .324-.03.56.176-.072.051-.114.084-.135.135.062.061.118.127.168.198.064.083.106.185.186.206.176.05.467-.021.79 0 .312.021.573.135.686.206.043-.02.043-.03.148-.008.105.02.185.03.071-.105.063.03.135.092.198.03.063-.064.113-.156.29-.178.177-.02.24.009.311-.176.093-.227-.227-.227-.227-.227s.148-.135.312-.312c.198-.185.425-.425.48-.72.092-.542-.438-.613-.438-.613l-2.57.79-3.143-.155-2.68 1.334h-.002Z" fill="#927D49"/><path fill-rule="evenodd" clip-rule="evenodd" d="M12.053 24.389s-.083.105-.134.353c-.051.248-.03.219-.072.395-.042.177-.56 1.936-.365 2.529.194.593.53.812.74 1.292.042.105.083.168.105.26.072.312.009.552.093.863.03.105.105.227.219.353.25.261.656.51.832.686.248.261.601.791 1.051.841.24.03.581-.071.863-.24.25-.155.404-.374.665-.498.185-.093.383-.127.56-.169.366-.071.698-.083.896-.042.303.063 1.018.282 1.415.282a3.85 3.85 0 0 0 .917-.126c.601-.177 1.329-.48 1.809-.614.282-.083.509-.105.74-.156.396-.093.728-.219.917-.459-.126-.147-.281-.374-1.123-.366-.955.021-2.057.551-2.6.636-.543.084-.778.155-1.384-.064-.594-.22-.614-.367-.614-.367s-.624-.436-.885-1.548c-.26-1.112 0-1.923.678-2.693.176-.198.134-.374.134-.374s.446-.602.324-1.165c-.134-.56-.997-.446-.997-.446l-4.783.837Z" fill="#6E6342"/><path fill-rule="evenodd" clip-rule="evenodd" d="M12.773 26.261a.435.435 0 0 0-.05.227c.008.114.041.26.382.593.29.29.227.614.227.614s.146.03.543-.156c.311-.147.416.114.416.114a.876.876 0 0 1 .29-.093.636.636 0 0 0 .261-.083s.366.374.686.551c.29.156.459.261.602.156.134-.093.134-.282.126-.366a1.091 1.091 0 0 0-.126-.219c-.093-.134-.24-.29-.25-.416-.021-.29.219-.635.168-.72-.05-.083-.24-.104-.706.064-.484.16-2.571-.265-2.571-.265l.002-.001Z" fill="#39331F"/><path fill-rule="evenodd" clip-rule="evenodd" d="M13.875 28.142s-.24-.227-.155-1.33c.101-.001.203.008.302.03 0 0 .13.854-.147 1.3Z" fill="#292311"/><path fill-rule="evenodd" clip-rule="evenodd" d="M12.167 23.547a.658.658 0 0 0 .093-.083c-.083.156-.467.778-.156 1.759.311.976 1.094 1.703 2.057 1.737.964.034 1.47-.438 2.05-1.144.226-.282.487-.636.719-.875.345-.375.614-.48.614-.841 0-.741-.758-1.074-1.873-1.406-1.114-.332-2.12-.291-2.642-.063-.508.247-.727.508-.862.917Z" fill="#252211"/><path fill-rule="evenodd" clip-rule="evenodd" d="m15.747 28.474.084-.042s.02-.333.155-.324c.134.02.198.198.185.26-.008.064-.042.17-.177.156-.176.005-.248-.05-.248-.05h.001Z" fill="#3F3824"/><path fill-rule="evenodd" clip-rule="evenodd" d="M15.373 27.06s.083-.03.185.072c.083 0 .446-.042.56.03a.426.426 0 0 1 .147.134s-.425.092-.657 0c-.235-.08-.235-.236-.235-.236Z" fill="#2D2815"/><path fill-rule="evenodd" clip-rule="evenodd" d="M17.245 27.123c0-.02-.227-.177-.467-.227-.042-.009-.05.02-.083.02-.021-.007-.03-.07-.03-.07l-.136.071s-.021.03.05.083c.063.05.169.093.198.177.03.084.03.113.043.126a.45.45 0 0 0 .227-.042c.071-.042.206-.111.197-.139l.001.001Z" fill="#82764F"/><path fill-rule="evenodd" clip-rule="evenodd" d="M15.12 27.977s.042-.29.324-.302c.29-.021.345.26.345.26l-.168.169c0-.005-.126-.181-.5-.127Z" fill="#2D2816"/><path fill-rule="evenodd" clip-rule="evenodd" d="M16.95 26.728s-.155.168-.5.219c-.03-.043-.093-.127 0-.261.093-.135.198-.177.303-.135a.247.247 0 0 1 .198.177Z" fill="#574F35"/><path fill-rule="evenodd" clip-rule="evenodd" d="M17.586 26.934c.008-.042-.021-.05 0-.072.02-.02.135-.063.156-.042.008.009 0 .042 0 .083 0 .042 0 .084-.021.114-.03.042-.114.063-.156.05-.042-.012-.05-.07-.05-.083.02-.008.07-.029.07-.05Zm.718-.454c0-.021.072-.064.114-.064.063 0 .063.051.071.064.021.008.021-.009.042.03.021.037.05.104.03.146-.022.043-.106.072-.126.063a1.12 1.12 0 0 1-.131-.24Z" fill="#82764F"/><path fill-rule="evenodd" clip-rule="evenodd" d="M16.858 27.03s.093.022.219.127c-.042.03-.106.063-.106.063s-.008-.097-.113-.19Z" fill="#6E6342"/><path fill-rule="evenodd" clip-rule="evenodd" d="M16.652 26.105c-.021-.02.063-.071.113-.063.05.009.072.042.127.05.054.01.063-.02.083-.041.02-.021.092-.009.105 0a.137.137 0 0 1 .02.029.117.117 0 0 1 .043-.083.133.133 0 0 1 .113-.021c.009.03.051.134.043.155-.009.021-.135.051-.156.03.02.05.113.156.126.176.013.021-.093.072-.134.064-.06-.005-.421-.215-.484-.295Zm.551-.698a.098.098 0 0 0-.042-.05c-.03-.009-.126 0-.126.05s.083.333.176.48c.106.147.177.269.248.303a.097.097 0 0 0 .127-.043c.008-.02.03-.176.02-.542-.008-.367-.02-.72-.041-.74-.021-.022-.106-.022-.135.02a3.93 3.93 0 0 0-.227.522Z" fill="#585136"/><path fill-rule="evenodd" clip-rule="evenodd" d="M16.829 27.561s-.148-.093-.29-.03c-.135.064-.127.312-.127.312a.2.2 0 0 0 .185-.021c.093-.063.21-.168.232-.26v-.001Z" fill="#574F35"/><path fill-rule="evenodd" clip-rule="evenodd" d="M17.106 27.893c-.008-.083-.083-.083-.083-.126a.095.095 0 0 1 .092-.072c.043 0 .084.051.135.084.05.03.126.083.135.147.008.064-.084.24-.185.24-.102 0-.072-.19-.093-.274v.001Zm.812-.114s-.168.051-.156 0c.013-.05.051-.062.106-.062a.166.166 0 0 1 .105-.051.091.091 0 0 1 .063.02s.113-.05.147-.02c.034.03.009.03.03.063.026.038.043.08.05.126 0 .034-.126.105-.227.093-.118-.025-.097-.147-.118-.169Zm.98-.189s.05.03.009.063c-.03.03-.177.084-.303.093-.126 0-.24.02-.24-.021 0-.042.105-.126.168-.147a.136.136 0 0 1 .106-.05c.05 0 .248-.022.302-.03.051-.009.093.02.063.063-.012.03-.105.03-.105.03Zm.29-1.299s-.063.134-.134.134c-.071-.008-.071-.029-.071-.05 0-.03.071-.105.063-.126-.021 0-.072 0-.063-.05 0-.043.071-.093.134-.084a.278.278 0 0 1 .168-.063c.072 0 .135.021.135.063 0 .042-.083.135-.114.156-.033.034-.075.055-.117.02Zm-.959 2.486s-.083.009-.083.05c0 .022.021.022.05.01a.226.226 0 0 0 .051-.01c.009.01.009.051.072.051a.4.4 0 0 0 .147-.05c.05-.02.093-.042.093-.083-.021-.072-.064-.106-.127-.106a.168.168 0 0 0-.092.021s-.021-.042-.093 0c-.071.043-.063.043-.042.064.038.033.025.055.025.055v-.002Zm-.475.438c0-.021.105-.063.135-.05.029.008.113.168.113.185 0 .02-.105.071-.147.071-.042 0-.114-.071-.114-.083 0-.008.05-.02.05-.03.013-.02-.037-.071-.037-.092Zm-.333-.614c.021-.009.021-.03.05-.05a.072.072 0 0 1 .064-.009.101.101 0 0 1 .072-.05c.05-.01.092 0 .083.02 0 .064.042.105.042.156 0 .05-.03.114-.135.156a.745.745 0 0 1-.269.02c-.021-.008-.042-.092-.021-.134a.35.35 0 0 1 .114-.11Z" fill="#82764F"/><path fill-rule="evenodd" clip-rule="evenodd" d="M17.555 28.63s-.071.042-.071.063a.186.186 0 0 0-.009.063c0 .012.093-.009.105-.021.005-.009-.025-.084-.025-.106Z" fill="#6E6342"/><path fill-rule="evenodd" clip-rule="evenodd" d="M16.93 28.432c.041.008.113 0 .168.02.042.022.071.064.029.114-.042.05-.083.127-.177.114-.105-.008-.206-.063-.206-.105a.202.202 0 0 1 .05-.148c.043-.033.064-.012.135.005Z" fill="#585136"/><path fill-rule="evenodd" clip-rule="evenodd" d="M16.879 28.474s-.135.105-.168.156c-.042.05-.248.31-.311.365a.806.806 0 0 1 .07-.105.43.43 0 0 0-.176.227c-.05.156.282.24.5.304.22.063.304.083.304.083-.08-.121-.15-.25-.206-.383-.084-.198-.127-.219-.072-.311.042-.093.105-.156.105-.227a1.359 1.359 0 0 0-.046-.11Z" fill="#574F35"/><path fill-rule="evenodd" clip-rule="evenodd" d="M12.083 28.806c.03.006.062.006.092 0 .063-.008.72-.25 1.406-.206a7.517 7.517 0 0 1 1.518.25c.863.227 1.936.677 2.63.934.185.071.366.198.499.248.53.206.551.206.862.26.367.051.741-.07 1.132-.155.48-.105 1.3-.156 2.02-.26a4.22 4.22 0 0 0 .685-.156s-.572.572-1.943.778a6.077 6.077 0 0 1-1.675.02 5.11 5.11 0 0 1-.946-.167c-.248-.072-.758-.262-1.384-.416-.438-.114-.926-.198-1.486-.303-1.38-.253-2.877-.543-3.41-.825v-.002Z" fill="#252211"/><path fill-rule="evenodd" clip-rule="evenodd" d="M10.534 26.206c-.332.282-.685.551-1.03.812l-1.04.799c-.353.26-.698.53-1.051.79-.354.261-.707.51-1.082.75.333-.282.686-.543 1.04-.8.353-.257.72-.508 1.06-.768l1.04-.8c.357-.26.702-.53 1.063-.782Zm-1.838 2.945s.374-.311.841-.748c.58-.543 1.292-1.237 1.52-1.363l-2.361 2.112Z" fill="#CFB66C"/><path fill-rule="evenodd" clip-rule="evenodd" d="M8.696 29.151c.185-.185.383-.366.58-.543l.304-.26c.092-.084.198-.177.29-.27.185-.185.366-.383.551-.572.092-.095.189-.185.29-.27a.784.784 0 0 1 .168-.113c.051-.03.106-.083.177-.093-.042.064-.092.093-.134.148-.05.042-.093.092-.135.134-.093.093-.198.177-.29.261-.198.169-.404.333-.602.51-.197.175-.382.365-.58.542-.215.181-.413.358-.619.527v-.001Zm2.516-1.683S9.841 28.81 9.559 29.03l1.653-1.56Z" fill="#CFB66C"/><path fill-rule="evenodd" clip-rule="evenodd" d="M11.212 27.468a4.478 4.478 0 0 1-.396.404l-.416.395c-.135.135-.261.27-.404.404-.147.127-.282.25-.437.366l.403-.395c.135-.135.282-.248.425-.383l.404-.395c.139-.139.274-.274.421-.396Zm.063.728a8.742 8.742 0 0 1-.446 1.03c-.353.708-.883 1.591-1.115 2.041l1.561-3.071Z" fill="#CFB66C"/><path fill-rule="evenodd" clip-rule="evenodd" d="M11.275 28.196c0 .156-.042.29-.093.425a4.052 4.052 0 0 1-.168.396 6.786 6.786 0 0 1-.206.383c-.072.122-.156.248-.219.374l-.425.749c-.147.25-.29.5-.446.74.105-.27.249-.522.383-.77.148-.25.282-.499.416-.757.066-.129.125-.26.177-.395.063-.135.126-.261.177-.383.063-.135.113-.261.176-.383.072-.13.13-.257.227-.379h.001Z" fill="#CFB66C"/><path fill-rule="evenodd" clip-rule="evenodd" d="M12.773 31.646s-.416.551-.374 1.25c.113-.366.256-.926.374-1.25Zm.395.552s-.147 1.498-.269 2.234c.173-.85.206-.78.27-2.234Zm2.756 2.323s-.623 1.83-.635 2.339c.134-.523.395-1.592.635-2.34Z" fill="#DEC270"/><path fill-rule="evenodd" clip-rule="evenodd" d="M17.38 31.533s1.01 1.666 1.767 3.088c-.205-.716-.677-2.028-1.767-3.088Z" fill="#CBAF59"/><path fill-rule="evenodd" clip-rule="evenodd" d="M20.093 33.985c.555.98 1.055 1.99 1.498 3.025-.084-.715-.312-1.94-1.498-3.025Z" fill="#E3C677"/><path fill-rule="evenodd" clip-rule="evenodd" d="M28.07 36.441c.168-.105.5-.677.791-.82.29-.147.509-.177.77-.467.26-.303.333-.488.904-.728.8-.345.25-.79.25-.79.088-.087.182-.168.282-.24.206-.156.446-.346.425-.678-.03-.56-.135-1.371-.593-1.843.445-.092 1.3-.155 1.83-.29.614-.156.896-.374.896-.374s-.353-.602.219-1.208c.572-.605 1.039-.967 1.384-1.645-.395-.05-.998-.26-2.537.324.083.04.163.084.24.135 0 0-.947.26-1.292.551-.601.509-.677.926-1.33 1.237-.651.311-1.308.227-1.85.48-.543.252-.623.466-.82.56.041.05-.01.134.07.205-.05.072-.344.551-.643.551.03.114.282.198.282.198s-.185.135-.656.168c.24.25.467.522 1.093.917-.05.105-.26.261-.176.46.092.197.333.466 1.291.685-.488.02-1.06.135-1.83.03-.77-.093-.896-.148-1.372-.03.051.05.186.05.303.185-.126.008-.917-.093-1.186.26-.282.367-.404.968-.383 1.372-.147.072-.29.198-.219.459.072.261.446.345.686.509.24.177.261.24.488.198.24-.05.593-.29.8-.29.206 0 .353.155.353.155s.56-.27.614-.219c.05.05.009.375.063.425.056.038.686-.336.854-.442h-.001Z" fill="#ECD592"/><path fill-rule="evenodd" clip-rule="evenodd" d="M40.3 19.605c-2.63-6.79-9.13-8.048-9.13-8.048H12.627l.071 6.916h3.693v15.445h-3.765v6.904h18.032c4.346 0 7.83-4.367 7.83-4.367 5.578-7.918 1.813-16.85 1.813-16.85Zm-9.546 12.197s-1.414 2.04-2.953 2.04h-3.079L24.65 18.49h3.95s1.83.383 3.11 4.005c0 0 1.694 5.186-.956 9.307Z" fill="#fff" fill-opacity=".8"/></svg>