<svg width="49" height="24" viewBox="0 0 49 24" fill="none" xmlns="http://www.w3.org/2000/svg"><path d="M46.532.159H9.15A2.878 2.878 0 0 0 6.88 1.31L.714 9.946a3.244 3.244 0 0 0 0 4.065l6.165 8.635a2.806 2.806 0 0 0 2.27 1.195h37.382a2.443 2.443 0 0 0 1.734-.72 2.462 2.462 0 0 0 .718-1.741V2.618c0-.652-.26-1.278-.719-1.739a2.447 2.447 0 0 0-1.733-.72Z" fill="#357CE1"/><path d="M21.824 5.66v12.906h-.117l-7.477-7.302v7.082h-2.532V5.46h.125l7.461 7.286V5.66h2.54Zm4.112 2.534v2.55h4.344v2.532h-4.344v5.075h-2.532V5.66H31v2.534l-5.063-.001Zm15.062.016h-3.093v10.125h-2.54V8.21h-3.102V5.692h8.732l.003 2.518Z" fill="#fff"/></svg>