<svg width="84" height="11" viewBox="0 0 84 11" fill="none" xmlns="http://www.w3.org/2000/svg"><path d="m52.573 11-.879-1.85h-5.826l-.867 1.811h-3.664L46.465.064h4.598L56.077 11h-3.504Zm-5.378-4.64h3.134l-1.576-3.212-.01-.026-1.548 3.238ZM34.845 11H29.13c-.01-3.645-.01-7.304-.022-10.963h9.514a2.446 2.446 0 0 1 1.99 1.888 3.941 3.941 0 0 1-.705 3.52 3.011 3.011 0 0 1 1.02 2.435v.434a4.778 4.778 0 0 1-.066.56C40.65 10.084 39.837 11 39.187 11h-4.34Zm-2.733-4.193v1.147h5.084a.566.566 0 0 0 .521-.586.548.548 0 0 0-.52-.574h-2.355l-2.73.013Zm2.734-3.947-2.734.013v1.142h4.957a.553.553 0 0 0 .51-.586.548.548 0 0 0-.51-.587l-2.223.018ZM11.23 11l-.87-1.85H4.533l-.865 1.813H0L5.132.063h4.594L14.744 11H11.23ZM5.858 6.36h3.124L7.421 3.148l-.016-.025L5.858 6.36Zm58.863 4.62-4.74-7.36v7.343H56.63V.063l5.143-.025L66.61 7.7V.064h3.309v10.91l-5.198.006Zm14.516 0-4.035-3.92h-1.105v3.914h-3.31V.037l3.19.027v3.811h1.258L78.967 0h4.676l-5.305 5.572L84 10.974l-4.763.006Zm-55.545 0-4.034-3.92h-1.105v3.914h-3.316V.037l3.19.027v3.811h1.27L23.422 0h4.676l-5.316 5.572 5.673 5.403-4.763.005Z" fill="#687CA3"/></svg>