<svg width="166" height="38" viewBox="0 0 166 38" fill="none" xmlns="http://www.w3.org/2000/svg"><g clip-path="url(#a)" fill="#4D4D4D"><path d="M67.82 2.067c6.678 0 9.478 2.55 8.847 7.436H72.29c.184-2.684-1.67-3.798-5.259-3.798-4.39 0-6.573 1.57-7.322 5.02-.75 3.45.762 5.074 5.127 5.074 3.575 0 5.915-1.088 6.928-3.84h4.377c-1.485 4.9-5.416 7.477-12.094 7.477-7.388 0-9.873-3.087-8.65-8.711C56.619 5.1 60.432 2.067 67.82 2.067Zm15.539 3.624-.736 3.423h13.475l-.684 3.141H81.939l-.75 3.423h13.423l-.75 3.45H76.116l3.681-16.886h17.735l-.75 3.45H83.36Zm37.717 13.437h-4.312l2.524-11.584-9.505 11.584h-3.116l-4.443-11.584L99.7 19.128h-4.325l3.68-16.886h5.824l4.431 11.92 9.623-11.92h5.824l-3.681 16.886ZM14.59 28.913a4.038 4.038 0 0 1-1.537 2.491 3.883 3.883 0 0 1-2.788.757H.13l2.432-11.154h9.742c2.524 0 3.01 1.342 2.63 2.94a4.228 4.228 0 0 1-1.316 2.16c.433.303.76.737.935 1.241.175.504.188 1.052.038 1.565Zm-2.826-.134c.263-1.182-.434-1.182-1.196-1.182H3.994l-.512 2.35h6.573c.75.053 1.446.053 1.696-1.115l.013-.053Zm-7.296-3.383h5.89c.749 0 1.445 0 1.708-1.168.263-1.168-.447-1.14-1.222-1.14h-5.89l-.486 2.308Zm11.174 1.234c.802-3.704 3.34-5.717 8.203-5.717 4.864 0 6.574 2.04 5.719 5.718-.855 3.678-3.352 5.745-8.216 5.745-4.865 0-6.508-2.04-5.706-5.745Zm11.082 0c.487-2.268-.42-3.315-3.391-3.315s-4.352 1.034-4.838 3.316c-.487 2.282.42 3.342 3.378 3.342s4.352-1.06 4.851-3.342Zm-2.708-9.395-.512 2.282h-2.8l.512-2.322 2.8.04Zm4.115 0-.513 2.282h-2.8l.513-2.322 2.8.04Zm13.173 12.577-.526 2.416H29.38l2.432-11.154h2.853l-1.906 8.751 8.545-.013Zm6.98 2.564c-4.877 0-6.573-1.853-5.718-5.745l1.21-5.557h2.852l-1.21 5.557c-.341 1.557-.302 3.342 3.392 3.342s4.51-1.799 4.838-3.342l1.21-5.557h2.852L56.5 26.63c-.84 3.866-3.365 5.745-8.216 5.745Zm2.63-15.195-.474 2.336h-2.8l.5-2.322 2.774-.014Zm4.114 0-.473 2.336h-2.8l.5-2.322 2.773-.014Zm11.149 8.846 5.363 6.201h-3.944l-3.865-4.658-3.944 2.51-.5 2.148h-2.812l2.432-11.154h2.84l-1.315 5.785 9.202-5.785h4.325l-7.782 4.953ZM86.58 28.98a4.038 4.038 0 0 1-1.538 2.491 3.884 3.884 0 0 1-2.788.757H72.132l2.432-11.154h9.702c2.524 0 3.01 1.342 2.63 2.926a4.324 4.324 0 0 1-1.315 2.174c.437.299.77.732.949 1.236.18.505.197 1.055.05 1.57Zm-2.827-.148c.263-1.181-.434-1.181-1.196-1.181h-6.573l-.513 2.362h6.573c.763 0 1.46 0 1.71-1.18Zm-7.296-3.382h5.89c.749 0 1.446 0 1.709-1.168.263-1.168-.447-1.141-1.223-1.141h-5.876l-.5 2.309Zm20.705 4.402H90.59l-1.709 2.376h-3.129l8.138-11.154h3.852l3.3 11.154h-3.156l-.723-2.376Zm-.591-2.134-1.315-4.523-3.247 4.523h4.562ZM108.6 32.39l-.316.59c1.013-.309 2.892-.456 2.564 1.1-.395 1.813-3.024 2.108-5.403 1.813l.302-1.343c1.998.31 2.958 0 3.089-.604.079-.389-.302-.51-1.603-.228l-.723-.926.236-.403c-3.825-.134-5.889-1.047-5.258-4.027h2.852c-.249 1.182.579 1.719 4.181 1.719 2.997 0 3.944-.336 4.167-1.208.224-.873-.407-1.088-3.944-1.262-4.785-.228-6.573-.994-5.981-3.49.591-2.497 3.181-3.235 7.335-3.235 4.155 0 6.482 1.047 5.877 3.812h-2.787c.263-1.235-.894-1.53-3.852-1.53-2.958 0-3.523.268-3.707 1.1-.184.833.447 1.02 3.628 1.209 4.325.241 6.981.47 6.363 3.302-.618 2.832-3.3 3.53-7.02 3.61Zm10.083-.162h-2.866l2.419-11.154h2.84l-2.393 11.154Z"/></g><g clip-path="url(#b)"><path d="m149.65 23.855-2.021 1.652.705-1.652h1.316Zm3.052-12.014-.764 2.047 2.082-2.047h-1.318Zm-4.151-4.165h-9.082l-5.484 14.62h9.086l1.118-2.984h-5.899l3.243-8.652h5.901l1.117-2.984Zm11.988 11.634-21.53 18.686 10.253-27.34 1.117-2.984h14.171l-13.403 11.635 9.392.003Zm-10.077-3.35 6.1-5.288h-4.113l-1.987 5.289Zm-4.534 12.089 6.623-5.747h-4.465l-2.158 5.747Zm-5.138-10.315 2.753-4.426 3.089-1.058h-4.003l-2.396 6.346.557-.862Zm-1.55 15.152a17.497 17.497 0 0 1-8.775-11.964 17.51 17.51 0 0 1 3.555-14.407A17.495 17.495 0 0 1 147.35.014a17.486 17.486 0 0 1 13.529 6.077h-4.072a14.605 14.605 0 0 0-18.353 0h-.083l-.033.091a14.651 14.651 0 0 0-5.364 11.326v.165l4.404-9.001-4.212 11.262-.662 1.805-.802 2.14h10.921l-3.156 8.402v.01l-.227.595Zm.635-2.935 1.057-4.925-6.464-1.058a14.762 14.762 0 0 0 5.409 5.978l-.002.005Zm25.254-12.442a17.506 17.506 0 0 1-12.618 16.826 17.478 17.478 0 0 1-7.443.502l3.079-2.672 2.137-1.86 11.293-9.8 3.2-2.778h-2.499v-.215c0-1.488-.226-2.968-.672-4.388a30.455 30.455 0 0 1-4.889 4.603h-1.316l5.989-5.218 2.272-1.972a17.413 17.413 0 0 1 1.467 6.972Zm-3.2 3.183c-2.005 2.627-6.812 8.286-13.088 11.425a14.672 14.672 0 0 0 8.413-3.565 14.695 14.695 0 0 0 4.675-7.854v-.006Z" fill="#4D4D4D"/></g><defs><clipPath id="a"><path fill="#fff" transform="translate(.13 2)" d="M0 0h124.667v34H0z"/></clipPath><clipPath id="b"><path fill="#fff" transform="translate(130.129)" d="M0 0h35v38H0z"/></clipPath></defs></svg>