<svg width="588" height="400" viewBox="0 0 588 400" fill="none" xmlns="http://www.w3.org/2000/svg">
<g clip-path="url(#clip0_1453_96717)">
<path d="M235.2 0H117.6V117.5H235.2V0Z" fill="#95D0E5"/>
<path d="M588 352.5H470.4V470H588V352.5Z" fill="#95D0E5"/>
<path d="M588 0H470.4V117.5H588V0Z" fill="#FFBE2E"/>
<path d="M470.4 117.5L588 0V117.5H470.4Z" fill="#FF750F"/>
<path d="M352.8 0H235.2V117.5H352.8V0Z" fill="#FFBE2E"/>
<path d="M235.2 0H352.8L294.003 58.7467L235.2 0Z" fill="#1B1B5E"/>
<path d="M352.8 117.5H235.2L294.003 58.7467L352.8 117.5Z" fill="#1B1B5E"/>
<path d="M117.6 0H0V117.5H117.6V0Z" fill="#FF750F"/>
<path d="M58.7967 117.493C91.2693 117.493 117.593 91.1917 117.593 58.7467C117.593 26.3018 91.2693 0 58.7967 0C26.3242 0 0 26.3018 0 58.7467C0 91.1917 26.3242 117.493 58.7967 117.493Z" fill="#1B1B5E"/>
<path d="M470.4 0H352.8V117.5H470.4V0Z" fill="#F4F4F4"/>
<path d="M367.499 0H352.8V58.7533H367.499V0Z" fill="#1B1B5E"/>
<path d="M396.898 0H382.198V58.7533H396.898V0Z" fill="#1B1B5E"/>
<path d="M426.296 0H411.597V58.7533H426.296V0Z" fill="#1B1B5E"/>
<path d="M455.701 0H441.002V58.7533H455.701V0Z" fill="#1B1B5E"/>
<path d="M382.198 58.7533H367.499V117.5H382.198V58.7533Z" fill="#1B1B5E"/>
<path d="M411.597 58.7533H396.898V117.5H411.597V58.7533Z" fill="#1B1B5E"/>
<path d="M441.002 58.7533H426.302V117.5H441.002V58.7533Z" fill="#1B1B5E"/>
<path d="M470.4 58.7533H455.701V117.5H470.4V58.7533Z" fill="#1B1B5E"/>
<path d="M352.8 117.5H235.2V235H352.8V117.5Z" fill="#F4F4F4"/>
<path d="M260.904 150.101C264.728 150.101 267.829 147.003 267.829 143.182C267.829 139.361 264.728 136.263 260.904 136.263C257.08 136.263 253.979 139.361 253.979 143.182C253.979 147.003 257.08 150.101 260.904 150.101Z" fill="#FFBE2E"/>
<path d="M294.003 150.101C297.828 150.101 300.928 147.003 300.928 143.182C300.928 139.361 297.828 136.263 294.003 136.263C290.179 136.263 287.079 139.361 287.079 143.182C287.079 147.003 290.179 150.101 294.003 150.101Z" fill="#FFBE2E"/>
<path d="M327.096 150.101C330.92 150.101 334.021 147.003 334.021 143.182C334.021 139.361 330.92 136.263 327.096 136.263C323.272 136.263 320.172 139.361 320.172 143.182C320.172 147.003 323.272 150.101 327.096 150.101Z" fill="#FFBE2E"/>
<path d="M260.904 183.172C264.728 183.172 267.829 180.074 267.829 176.253C267.829 172.432 264.728 169.335 260.904 169.335C257.08 169.335 253.979 172.432 253.979 176.253C253.979 180.074 257.08 183.172 260.904 183.172Z" fill="#FFBE2E"/>
<path d="M294.003 183.172C297.828 183.172 300.928 180.074 300.928 176.253C300.928 172.432 297.828 169.335 294.003 169.335C290.179 169.335 287.079 172.432 287.079 176.253C287.079 180.074 290.179 183.172 294.003 183.172Z" fill="#FFBE2E"/>
<path d="M327.096 183.172C330.92 183.172 334.021 180.074 334.021 176.253C334.021 172.432 330.92 169.335 327.096 169.335C323.272 169.335 320.172 172.432 320.172 176.253C320.172 180.074 323.272 183.172 327.096 183.172Z" fill="#FFBE2E"/>
<path d="M260.904 216.237C264.728 216.237 267.829 213.139 267.829 209.318C267.829 205.497 264.728 202.399 260.904 202.399C257.08 202.399 253.979 205.497 253.979 209.318C253.979 213.139 257.08 216.237 260.904 216.237Z" fill="#FFBE2E"/>
<path d="M294.003 216.237C297.828 216.237 300.928 213.139 300.928 209.318C300.928 205.497 297.828 202.399 294.003 202.399C290.179 202.399 287.079 205.497 287.079 209.318C287.079 213.139 290.179 216.237 294.003 216.237Z" fill="#FFBE2E"/>
<path d="M327.096 216.237C330.92 216.237 334.021 213.139 334.021 209.318C334.021 205.497 330.92 202.399 327.096 202.399C323.272 202.399 320.172 205.497 320.172 209.318C320.172 213.139 323.272 216.237 327.096 216.237Z" fill="#FFBE2E"/>
<path d="M470.4 117.5H352.8V235H470.4V117.5Z" fill="#FF750F"/>
<path d="M418.129 210.16C436.866 206.555 449.131 188.456 445.523 169.734C441.914 151.012 423.799 138.758 405.062 142.363C386.324 145.968 374.059 164.068 377.668 182.79C381.276 201.511 399.391 213.766 418.129 210.16Z" fill="#1B1B5E"/>
<path d="M235.2 117.5H117.6V235H235.2V117.5Z" fill="#1B1B5E"/>
<path d="M235.2 117.5C204.011 117.5 174.098 129.879 152.044 151.915C129.99 173.95 117.6 203.837 117.6 235H235.2V117.5Z" fill="#FF750F"/>
<path d="M117.6 235H0V352.5H117.6V235Z" fill="#FF750F"/>
<path d="M0 352.5L117.6 235V352.5H0Z" fill="#F4F4F4"/>
<path d="M117.6 352.5H0V470H117.6V352.5Z" fill="#95D0E5"/>
<path d="M14.0008 364.554C14.0008 365.27 13.7884 365.97 13.3903 366.565C12.9923 367.16 12.4265 367.624 11.7646 367.898C11.1027 368.172 10.3743 368.243 9.67163 368.104C8.96894 367.964 8.32348 367.619 7.81686 367.113C7.31025 366.607 6.96524 365.962 6.82547 365.26C6.68569 364.558 6.75743 363.83 7.03161 363.169C7.30578 362.508 7.77009 361.942 8.3658 361.545C8.96152 361.147 9.66189 360.935 10.3783 360.935C11.3391 360.935 12.2605 361.316 12.9398 361.995C13.6192 362.673 14.0008 363.594 14.0008 364.554V364.554Z" fill="#1B1B5E"/>
<path d="M29.1317 364.554C29.1317 365.27 28.9192 365.97 28.5212 366.565C28.1231 367.16 27.5574 367.624 26.8955 367.898C26.2335 368.172 25.5052 368.243 24.8025 368.104C24.0998 367.964 23.4543 367.619 22.9477 367.113C22.4411 366.607 22.0961 365.962 21.9563 365.26C21.8166 364.558 21.8883 363.83 22.1625 363.169C22.4366 362.508 22.9009 361.942 23.4967 361.545C24.0924 361.147 24.7927 360.935 25.5092 360.935C26.4699 360.935 27.3913 361.316 28.0707 361.995C28.75 362.673 29.1317 363.594 29.1317 364.554V364.554Z" fill="#1B1B5E"/>
<path d="M44.2752 364.554C44.2752 365.27 44.0628 365.97 43.6647 366.565C43.2667 367.16 42.7009 367.624 42.039 367.898C41.3771 368.172 40.6487 368.243 39.946 368.104C39.2434 367.964 38.5979 367.619 38.0913 367.113C37.5847 366.607 37.2397 365.962 37.0999 365.26C36.9601 364.558 37.0318 363.83 37.306 363.169C37.5802 362.508 38.0445 361.942 38.6402 361.545C39.2359 361.147 39.9363 360.935 40.6528 360.935C41.1285 360.935 41.5995 361.028 42.039 361.21C42.4785 361.392 42.8779 361.659 43.2142 361.995C43.5506 362.331 43.8175 362.73 43.9995 363.169C44.1815 363.608 44.2752 364.079 44.2752 364.554V364.554Z" fill="#1B1B5E"/>
<path d="M59.4188 364.554C59.4188 365.27 59.2062 365.97 58.8078 366.565C58.4095 367.161 57.8434 367.625 57.1811 367.898C56.5188 368.172 55.7901 368.244 55.0872 368.103C54.3843 367.963 53.7389 367.618 53.2325 367.111C52.7262 366.604 52.3817 365.959 52.2426 365.256C52.1036 364.554 52.1763 363.826 52.4515 363.164C52.7266 362.503 53.192 361.938 53.7885 361.541C54.3851 361.144 55.0861 360.933 55.8029 360.935C56.7625 360.936 57.6822 361.318 58.3601 361.997C59.0381 362.676 59.4188 363.595 59.4188 364.554V364.554Z" fill="#1B1B5E"/>
<path d="M74.5633 364.554C74.5633 365.27 74.3507 365.97 73.9524 366.565C73.554 367.161 72.9879 367.625 72.3256 367.898C71.6633 368.172 70.9346 368.244 70.2317 368.103C69.5289 367.963 68.8834 367.618 68.377 367.111C67.8707 366.604 67.5262 365.959 67.3872 365.256C67.2481 364.554 67.3208 363.826 67.596 363.164C67.8712 362.503 68.3365 361.938 68.9331 361.541C69.5296 361.144 70.2306 360.933 70.9474 360.935C71.907 360.936 72.8267 361.318 73.5046 361.997C74.1826 362.676 74.5633 363.595 74.5633 364.554V364.554Z" fill="#1B1B5E"/>
<path d="M92.7069 364.554C92.7069 365.27 92.4943 365.97 92.0959 366.565C91.6976 367.161 91.1315 367.624 90.4692 367.898C89.8069 368.172 89.0782 368.243 88.3753 368.103C87.6724 367.963 87.027 367.618 86.5206 367.111C86.0142 366.604 85.6698 365.958 85.5307 365.256C85.3917 364.553 85.4644 363.825 85.7395 363.164C86.0147 362.503 86.48 361.938 87.0766 361.541C87.6732 361.144 88.3742 360.933 89.0909 360.934C90.0505 360.936 90.9703 361.318 91.6482 361.997C92.3261 362.675 92.7069 363.595 92.7069 364.554V364.554Z" fill="#1B1B5E"/>
<path d="M107.851 364.554C107.851 365.27 107.638 365.97 107.24 366.565C106.841 367.161 106.275 367.624 105.613 367.898C104.951 368.172 104.222 368.243 103.519 368.103C102.816 367.963 102.171 367.618 101.664 367.111C101.158 366.604 100.814 365.958 100.675 365.256C100.535 364.553 100.608 363.825 100.883 363.164C101.159 362.503 101.624 361.938 102.22 361.541C102.817 361.144 103.518 360.933 104.235 360.934C105.194 360.936 106.114 361.318 106.792 361.997C107.47 362.675 107.851 363.595 107.851 364.554V364.554Z" fill="#1B1B5E"/>
<path d="M10.3656 383.729C12.3663 383.729 13.9881 382.109 13.9881 380.11C13.9881 378.111 12.3663 376.49 10.3656 376.49C8.36501 376.49 6.74316 378.111 6.74316 380.11C6.74316 382.109 8.36501 383.729 10.3656 383.729Z" fill="#1B1B5E"/>
<path d="M29.1317 380.11C29.1317 380.825 28.9192 381.525 28.5212 382.12C28.1231 382.716 27.5574 383.18 26.8955 383.454C26.2335 383.727 25.5052 383.799 24.8025 383.659C24.0998 383.52 23.4543 383.175 22.9477 382.669C22.4411 382.163 22.0961 381.518 21.9563 380.816C21.8166 380.114 21.8883 379.386 22.1625 378.725C22.4366 378.063 22.9009 377.498 23.4967 377.1C24.0924 376.703 24.7927 376.49 25.5092 376.49C25.9852 376.489 26.4566 376.582 26.8965 376.764C27.3364 376.946 27.7361 377.212 28.0726 377.548C28.4092 377.885 28.676 378.284 28.8577 378.724C29.0394 379.163 29.1326 379.634 29.1317 380.11Z" fill="#1B1B5E"/>
<path d="M44.2752 380.11C44.2752 380.825 44.0628 381.525 43.6647 382.12C43.2667 382.716 42.7009 383.18 42.039 383.454C41.3771 383.727 40.6487 383.799 39.946 383.659C39.2434 383.52 38.5979 383.175 38.0913 382.669C37.5847 382.163 37.2397 381.518 37.0999 380.816C36.9601 380.114 37.0318 379.386 37.306 378.725C37.5802 378.063 38.0445 377.498 38.6402 377.1C39.2359 376.703 39.9363 376.49 40.6528 376.49C41.1287 376.489 41.6002 376.582 42.04 376.764C42.4799 376.946 42.8796 377.212 43.2162 377.548C43.5527 377.885 43.8195 378.284 44.0013 378.724C44.183 379.163 44.2761 379.634 44.2752 380.11V380.11Z" fill="#1B1B5E"/>
<path d="M59.4188 380.11C59.4188 380.826 59.2062 381.526 58.8078 382.121C58.4095 382.717 57.8434 383.18 57.1811 383.454C56.5188 383.728 55.7901 383.799 55.0872 383.659C54.3843 383.519 53.7389 383.173 53.2325 382.667C52.7262 382.16 52.3817 381.514 52.2426 380.812C52.1036 380.109 52.1763 379.381 52.4515 378.72C52.7266 378.059 53.192 377.494 53.7885 377.097C54.3851 376.7 55.0861 376.489 55.8029 376.49C56.2783 376.49 56.749 376.584 57.1881 376.766C57.6273 376.948 58.0262 377.215 58.362 377.551C58.6979 377.887 58.9641 378.286 59.1454 378.725C59.3268 379.164 59.4197 379.635 59.4188 380.11Z" fill="#1B1B5E"/>
<path d="M70.9467 383.729C72.9473 383.729 74.5692 382.109 74.5692 380.11C74.5692 378.111 72.9473 376.49 70.9467 376.49C68.9461 376.49 67.3242 378.111 67.3242 380.11C67.3242 382.109 68.9461 383.729 70.9467 383.729Z" fill="#1B1B5E"/>
<path d="M92.7069 380.109C92.7069 380.826 92.4943 381.526 92.0959 382.121C91.6976 382.716 91.1315 383.18 90.4692 383.454C89.8069 383.728 89.0782 383.799 88.3753 383.659C87.6724 383.519 87.027 383.173 86.5206 382.666C86.0142 382.16 85.6698 381.514 85.5307 380.811C85.3917 380.109 85.4644 379.381 85.7395 378.72C86.0147 378.059 86.48 377.494 87.0766 377.097C87.6732 376.7 88.3742 376.489 89.0909 376.49C89.5663 376.49 90.0371 376.584 90.4762 376.766C90.9153 376.948 91.3143 377.214 91.6501 377.55C91.986 377.887 92.2522 378.286 92.4335 378.725C92.6148 379.164 92.7077 379.634 92.7069 380.109Z" fill="#1B1B5E"/>
<path d="M107.851 380.109C107.851 380.826 107.638 381.526 107.24 382.121C106.841 382.716 106.275 383.18 105.613 383.454C104.951 383.728 104.222 383.799 103.519 383.659C102.816 383.519 102.171 383.173 101.664 382.666C101.158 382.16 100.814 381.514 100.675 380.811C100.535 380.109 100.608 379.381 100.883 378.72C101.159 378.059 101.624 377.494 102.22 377.097C102.817 376.7 103.518 376.489 104.235 376.49C104.71 376.49 105.181 376.584 105.62 376.766C106.059 376.948 106.458 377.214 106.794 377.55C107.13 377.887 107.396 378.286 107.577 378.725C107.759 379.164 107.852 379.634 107.851 380.109Z" fill="#1B1B5E"/>
<path d="M14.0008 395.678C14.0008 396.394 13.7884 397.094 13.3903 397.689C12.9923 398.284 12.4265 398.748 11.7646 399.022C11.1027 399.296 10.3743 399.368 9.67163 399.228C8.96894 399.088 8.32348 398.744 7.81686 398.237C7.31025 397.731 6.96524 397.086 6.82547 396.384C6.68569 395.682 6.75743 394.954 7.03161 394.293C7.30578 393.632 7.77009 393.066 8.3658 392.669C8.96152 392.271 9.66189 392.059 10.3783 392.059C11.3391 392.059 12.2605 392.44 12.9398 393.119C13.6192 393.797 14.0008 394.718 14.0008 395.678V395.678Z" fill="#1B1B5E"/>
<path d="M29.1317 395.678C29.1317 396.394 28.9192 397.094 28.5212 397.689C28.1231 398.284 27.5574 398.748 26.8955 399.022C26.2335 399.296 25.5052 399.368 24.8025 399.228C24.0998 399.088 23.4543 398.744 22.9477 398.237C22.4411 397.731 22.0961 397.086 21.9563 396.384C21.8166 395.682 21.8883 394.954 22.1625 394.293C22.4366 393.632 22.9009 393.066 23.4967 392.669C24.0924 392.271 24.7927 392.059 25.5092 392.059C26.4699 392.059 27.3913 392.44 28.0707 393.119C28.75 393.797 29.1317 394.718 29.1317 395.678Z" fill="#1B1B5E"/>
<path d="M44.2752 395.678C44.2752 396.394 44.0628 397.094 43.6647 397.689C43.2667 398.284 42.7009 398.748 42.039 399.022C41.3771 399.296 40.6487 399.368 39.946 399.228C39.2434 399.088 38.5979 398.744 38.0913 398.237C37.5847 397.731 37.2397 397.086 37.0999 396.384C36.9601 395.682 37.0318 394.954 37.306 394.293C37.5802 393.632 38.0445 393.066 38.6402 392.669C39.2359 392.271 39.9363 392.059 40.6528 392.059C41.1285 392.059 41.5995 392.152 42.039 392.334C42.4785 392.516 42.8779 392.783 43.2142 393.119C43.5506 393.455 43.8175 393.854 43.9995 394.293C44.1815 394.732 44.2752 395.203 44.2752 395.678V395.678Z" fill="#1B1B5E"/>
<path d="M59.4188 395.678C59.4188 396.394 59.2062 397.094 58.8078 397.69C58.4095 398.285 57.8434 398.749 57.1811 399.023C56.5188 399.296 55.7901 399.368 55.0872 399.227C54.3843 399.087 53.7389 398.742 53.2325 398.235C52.7262 397.728 52.3817 397.083 52.2426 396.38C52.1036 395.678 52.1763 394.95 52.4515 394.288C52.7266 393.627 53.192 393.062 53.7885 392.665C54.3851 392.269 55.0861 392.057 55.8029 392.059C56.7625 392.06 57.6822 392.442 58.3601 393.121C59.0381 393.8 59.4188 394.719 59.4188 395.678V395.678Z" fill="#1B1B5E"/>
<path d="M74.5633 395.678C74.5633 396.394 74.3507 397.094 73.9524 397.69C73.554 398.285 72.9879 398.749 72.3256 399.023C71.6633 399.296 70.9346 399.368 70.2317 399.227C69.5289 399.087 68.8834 398.742 68.377 398.235C67.8707 397.728 67.5262 397.083 67.3872 396.38C67.2481 395.678 67.3208 394.95 67.596 394.288C67.8712 393.627 68.3365 393.062 68.9331 392.665C69.5296 392.269 70.2306 392.057 70.9474 392.059C71.907 392.06 72.8267 392.442 73.5046 393.121C74.1826 393.8 74.5633 394.719 74.5633 395.678V395.678Z" fill="#1B1B5E"/>
<path d="M92.7069 395.678C92.7069 396.394 92.4943 397.094 92.0959 397.69C91.6976 398.285 91.1315 398.749 90.4692 399.023C89.8069 399.296 89.0782 399.368 88.3753 399.227C87.6724 399.087 87.027 398.742 86.5206 398.235C86.0142 397.728 85.6698 397.083 85.5307 396.38C85.3917 395.678 85.4644 394.95 85.7395 394.288C86.0147 393.627 86.48 393.062 87.0766 392.665C87.6732 392.269 88.3742 392.057 89.0909 392.059C90.0505 392.06 90.9703 392.442 91.6482 393.121C92.3261 393.8 92.7069 394.719 92.7069 395.678V395.678Z" fill="#1B1B5E"/>
<path d="M107.851 395.678C107.851 396.394 107.638 397.094 107.24 397.69C106.841 398.285 106.275 398.749 105.613 399.023C104.951 399.296 104.222 399.368 103.519 399.227C102.816 399.087 102.171 398.742 101.664 398.235C101.158 397.728 100.814 397.083 100.675 396.38C100.535 395.678 100.608 394.95 100.883 394.288C101.159 393.627 101.624 393.062 102.22 392.665C102.817 392.269 103.518 392.057 104.235 392.059C105.194 392.06 106.114 392.442 106.792 393.121C107.47 393.8 107.851 394.719 107.851 395.678V395.678Z" fill="#1B1B5E"/>
<path d="M235.2 411.253H117.6L176.397 352.5L235.2 411.253Z" fill="#1B1B5E"/>
<path d="M235.2 352.5H117.6V470H235.2V352.5Z" fill="#FF750F"/>
<path d="M235.2 411.253H117.6L176.397 352.5L235.2 411.253Z" fill="#1B1B5E"/>
<path d="M470.4 352.5H352.8V470H470.4V352.5Z" fill="#F4F4F4"/>
<path d="M470.4 352.5H411.597V411.247H470.4V352.5Z" fill="#FF750F"/>
<path d="M470.4 235H352.8V352.5H470.4V235Z" fill="#1B1B5E"/>
<path d="M417.469 235H405.725V352.5H417.469V235Z" fill="#FFBE2E"/>
<path d="M450.601 235H438.857V352.5H450.601V235Z" fill="#FFBE2E"/>
<path d="M384.343 235H372.599V352.5H384.343V235Z" fill="#FFBE2E"/>
<path d="M588 235H470.4V352.5H588V235Z" fill="#FFBE2E"/>
<path d="M529.203 293.753L470.4 235H529.203V293.753Z" fill="#FF750F"/>
<path d="M588 293.753L529.203 235H588V293.753Z" fill="#FF750F"/>
<path d="M529.203 352.5L470.4 293.753H529.203V352.5Z" fill="#FF750F"/>
<path d="M588 352.5L529.203 293.753H588V352.5Z" fill="#FF750F"/>
<path d="M235.2 235H117.6V352.5H235.2V235Z" fill="#FFBE2E"/>
<path d="M134.385 279.387L162.024 251.771V279.387H134.385Z" fill="#FF750F"/>
<path d="M162.024 279.387L189.664 251.771V279.387H162.024Z" fill="#FF750F"/>
<path d="M189.664 279.387L217.303 251.771V279.387H189.664Z" fill="#FF750F"/>
<path d="M134.385 307.003L162.024 279.387V307.003H134.385Z" fill="#FF750F"/>
<path d="M162.024 307.003L189.664 279.387V307.003H162.024Z" fill="#FF750F"/>
<path d="M189.664 307.003L217.303 279.387V307.003H189.664Z" fill="#FF750F"/>
<path d="M134.385 334.619L162.024 307.003V334.619H134.385Z" fill="#FF750F"/>
<path d="M162.024 334.619L189.664 307.003V334.619H162.024Z" fill="#FF750F"/>
<path d="M189.664 334.619L217.303 307.003V334.619H189.664Z" fill="#FF750F"/>
<path d="M352.8 352.5H235.2V470H352.8V352.5Z" fill="#1B1B5E"/>
<path d="M352.8 352.5C352.637 367.974 346.37 382.759 335.36 393.644C324.351 404.528 309.488 410.634 294 410.634C278.512 410.634 263.649 404.528 252.64 393.644C241.63 382.759 235.363 367.974 235.2 352.5H352.8Z" fill="#95D0E5"/>
<path d="M352.8 235H235.2V352.5H352.8V235Z" fill="#95D0E5"/>
<path d="M235.2 352.5C235.118 344.733 236.578 337.026 239.497 329.827C242.415 322.627 246.733 316.077 252.201 310.555C257.669 305.034 264.179 300.65 271.354 297.659C278.528 294.667 286.226 293.127 294 293.127C301.774 293.127 309.471 294.667 316.646 297.659C323.821 300.65 330.331 305.034 335.799 310.555C341.267 316.077 345.585 322.627 348.503 329.827C351.422 337.026 352.882 344.733 352.8 352.5H235.2Z" fill="#1B1B5E"/>
<path d="M117.6 117.5H0V235H117.6V117.5Z" fill="#FFBE2E"/>
<path d="M117.6 235L58.7967 177.188L0 235V175.312L58.7967 117.5L117.6 175.312V235Z" fill="#F4F4F4"/>
<path d="M588 117.5H470.4V235H588V117.5Z" fill="#F4F4F4"/>
<path d="M584.822 117.5H588C588 182.29 535.245 235 470.4 235V231.825C533.493 231.825 584.822 180.539 584.822 117.5Z" fill="#1B1B5E"/>
<path d="M555.973 117.5H559.151C559.151 166.395 519.336 206.175 470.4 206.175V203C517.584 203 555.973 164.637 555.973 117.5Z" fill="#1B1B5E"/>
<path d="M526.817 117.5H529.994C529.979 133.288 523.695 148.425 512.523 159.589C501.35 170.753 486.201 177.033 470.4 177.05V173.875C485.358 173.858 499.699 167.913 510.276 157.344C520.852 146.775 526.801 132.446 526.817 117.5V117.5Z" fill="#1B1B5E"/>
<path d="M501.583 117.5H504.794C504.785 126.608 501.158 135.341 494.709 141.778C488.26 148.216 479.516 151.832 470.4 151.832V148.657C478.667 148.647 486.593 145.361 492.439 139.52C498.284 133.679 501.573 125.76 501.583 117.5V117.5Z" fill="#1B1B5E"/>
<g clip-path="url(#clip1_1453_96717)">
<path d="M97.5784 116H479.422C484.879 116.001 490.112 118.169 493.971 122.029C497.83 125.888 499.997 131.123 499.997 136.581V409.419C499.997 412.122 499.465 414.798 498.431 417.295C497.397 419.792 495.881 422.061 493.97 423.972C492.059 425.883 489.791 427.399 487.294 428.433C484.797 429.468 482.121 430 479.419 430H97.5784C92.1207 430 86.8865 427.832 83.0273 423.972C79.1681 420.112 77 414.877 77 409.419V136.581C77 131.123 79.1681 125.888 83.0273 122.028C86.8865 118.168 92.1207 116 97.5784 116V116Z" fill="#DFE8FF"/>
<g clip-path="url(#clip2_1453_96717)">
<path d="M216.898 293.428C210.254 293.422 203.847 290.971 198.912 286.545C193.976 282.12 190.862 276.034 190.168 269.46C189.474 262.885 191.25 256.288 195.154 250.939C199.057 245.59 204.813 241.868 211.311 240.489C210.715 235.686 211.439 230.812 213.407 226.385C215.375 221.959 218.512 218.147 222.485 215.354C226.458 212.561 231.117 210.892 235.968 210.525C240.818 210.158 245.678 211.106 250.029 213.269C252.949 206.092 258.238 200.119 265.026 196.333C271.814 192.547 279.696 191.174 287.373 192.441C295.05 193.707 302.064 197.538 307.26 203.301C312.457 209.064 315.525 216.417 315.96 224.147C320.346 223.155 324.907 223.219 329.263 224.334C327.516 224.66 325.908 225.504 324.653 226.756L324.467 226.94C323.724 226.873 322.972 226.838 322.212 226.838C319.703 226.836 317.208 227.217 314.815 227.965L312.58 228.666L312.599 226.335C312.599 226.276 312.599 226.217 312.599 226.159C312.599 226.131 312.599 226.103 312.599 226.074C312.599 209.154 298.764 195.387 281.756 195.387C275.307 195.386 269.021 197.399 263.782 201.141C258.543 204.882 254.615 210.165 252.553 216.245L251.876 218.237L250.067 217.153C246.423 214.982 242.255 213.837 238.007 213.839C225.057 213.839 214.518 224.323 214.518 237.21C214.52 238.666 214.658 240.119 214.929 241.55L215.253 243.287L213.494 243.541C202.043 245.194 193.408 255.135 193.408 266.665C193.408 279.55 203.946 290.037 216.898 290.037H339.048C339.611 291.357 340.488 292.52 341.604 293.428H216.898ZM386 253.565V253.576L385.983 259.755C385.978 261.088 385.483 262.373 384.59 263.367C383.698 264.361 382.47 264.996 381.139 265.15L378.039 265.504C377.556 266.943 376.961 268.343 376.259 269.69L378.219 272.159C379.046 273.207 379.459 274.52 379.38 275.851C379.3 277.181 378.733 278.436 377.786 279.378L373.386 283.737C372.437 284.681 371.172 285.244 369.833 285.317C368.493 285.39 367.174 284.969 366.127 284.134L363.688 282.209C362.562 282.793 361.399 283.303 360.206 283.735C359.889 283.851 359.569 283.96 359.248 284.064L359.11 285.234L358.869 287.241C358.71 288.565 358.07 289.785 357.07 290.671C356.069 291.557 354.777 292.048 353.437 292.052H353.427L349.749 292.042L347.217 292.036C346.404 292.033 345.601 291.849 344.868 291.5C344.134 291.15 343.488 290.643 342.976 290.014C342.322 289.213 341.912 288.242 341.795 287.216L341.445 284.232C339.765 283.719 338.133 283.058 336.571 282.257L334.228 284.089C333.176 284.913 331.856 285.324 330.519 285.244C329.182 285.164 327.921 284.6 326.974 283.657L322.593 279.281C321.645 278.337 321.08 277.078 321.007 275.745C320.933 274.412 321.356 273.099 322.194 272.057L323.989 269.821C323.183 268.298 322.516 266.706 321.997 265.064L319.302 264.743C317.972 264.585 316.747 263.949 315.856 262.953C314.966 261.958 314.473 260.673 314.469 259.34V259.331L314.486 253.152C314.491 251.819 314.986 250.533 315.878 249.539C316.771 248.545 317.999 247.91 319.329 247.756L321.957 247.457C322.458 245.846 323.099 244.281 323.874 242.781L322.264 240.756C321.418 239.715 320.99 238.398 321.063 237.06C321.136 235.723 321.705 234.46 322.659 233.515L327.058 229.156C328.007 228.213 329.272 227.651 330.612 227.578C331.951 227.505 333.271 227.926 334.318 228.76L336.229 230.268C337.124 229.793 338.043 229.366 338.984 228.988C339.737 228.686 340.503 228.414 341.284 228.174L341.587 225.648C341.746 224.325 342.386 223.105 343.387 222.22C344.387 221.334 345.679 220.843 347.018 220.84H347.028L353.239 220.857C354.578 220.861 355.87 221.354 356.869 222.242C357.868 223.13 358.505 224.352 358.66 225.676L358.952 228.188C360.761 228.751 362.51 229.489 364.174 230.392L366.219 228.787C367.272 227.962 368.592 227.55 369.93 227.63C371.267 227.709 372.529 228.274 373.475 229.218L377.862 233.626C378.81 234.57 379.375 235.829 379.448 237.161C379.52 238.493 379.097 239.806 378.258 240.846L376.459 243.099C377.218 244.617 377.845 246.197 378.334 247.821L381.162 248.16C382.493 248.318 383.719 248.955 384.61 249.95C385.502 250.946 385.996 252.231 386 253.565V253.565ZM382.592 253.572C382.59 253.069 382.403 252.583 382.067 252.207C381.73 251.831 381.268 251.59 380.765 251.53L375.638 250.916L375.348 249.791C374.803 247.676 373.995 245.637 372.943 243.72L372.401 242.733L375.595 238.733C375.911 238.342 376.07 237.849 376.043 237.349C376.016 236.848 375.804 236.375 375.448 236.02L371.059 231.612C370.702 231.259 370.228 231.049 369.726 231.02C369.224 230.991 368.728 231.146 368.333 231.455L364.46 234.495L363.451 233.891C361.422 232.679 359.233 231.754 356.948 231.141L355.834 230.841L355.278 226.067C355.219 225.568 354.979 225.108 354.602 224.774C354.225 224.439 353.738 224.254 353.233 224.252L347.031 224.235C346.525 224.237 346.038 224.422 345.66 224.757C345.282 225.091 345.04 225.551 344.979 226.05L344.404 230.838L343.288 231.134C342.833 231.254 342.384 231.387 341.939 231.532C340.743 231.916 339.576 232.389 338.45 232.945C337.933 233.201 337.426 233.474 336.929 233.765L335.922 234.359L332.195 231.419C331.802 231.105 331.306 230.946 330.803 230.973C330.3 231 329.825 231.211 329.468 231.565L325.069 235.924C324.714 236.28 324.503 236.753 324.476 237.254C324.45 237.754 324.61 238.247 324.926 238.637L324.936 238.65L327.958 242.449L327.394 243.442C326.319 245.333 325.491 247.353 324.93 249.452L324.632 250.57L319.721 251.128C319.219 251.188 318.757 251.428 318.421 251.804C318.085 252.18 317.899 252.665 317.899 253.168L317.882 259.338C317.884 259.841 318.07 260.326 318.406 260.702C318.742 261.078 319.204 261.319 319.706 261.38L324.67 261.973L324.968 263.081C325.546 265.207 326.401 267.249 327.51 269.155L328.091 270.157L324.86 274.182C324.545 274.573 324.386 275.066 324.414 275.567C324.442 276.068 324.655 276.541 325.011 276.895L329.389 281.265C329.746 281.619 330.222 281.832 330.725 281.861C331.229 281.891 331.727 281.736 332.123 281.425L336.241 278.203L337.234 278.761C339.187 279.859 341.273 280.703 343.442 281.272L344.567 281.567L345.178 286.823C345.238 287.322 345.478 287.782 345.855 288.116C346.232 288.451 346.718 288.636 347.223 288.638L349.068 288.643L353.425 288.654C353.931 288.653 354.419 288.467 354.797 288.133C355.175 287.798 355.416 287.338 355.477 286.838L355.835 283.811L356.117 281.428L357.219 281.123C357.457 281.057 357.694 280.987 357.931 280.914C359.548 280.41 361.111 279.746 362.595 278.932C362.732 278.858 362.87 278.782 363.007 278.704L364.008 278.135L368.241 281.476C368.633 281.79 369.129 281.948 369.632 281.921C370.135 281.894 370.611 281.683 370.967 281.329L375.367 276.97C375.723 276.614 375.937 276.141 375.966 275.64C375.996 275.138 375.839 274.643 375.527 274.249L372.172 270.01L372.736 269.019C373.738 267.267 374.53 265.403 375.097 263.467L375.412 262.382L380.746 261.774C381.248 261.714 381.71 261.474 382.046 261.098C382.382 260.722 382.568 260.237 382.569 259.734L382.592 253.572ZM359.894 246.451C362.057 248.615 363.44 251.431 363.825 254.459C364.211 257.487 363.577 260.557 362.024 263.189C361.421 264.2 360.692 265.132 359.854 265.961C359.752 266.062 359.648 266.162 359.543 266.259C356.985 268.658 353.601 269.991 350.086 269.984H350.046C346.479 269.983 343.05 268.614 340.471 266.162C337.892 263.711 336.362 260.364 336.198 256.819C336.035 253.274 337.251 249.803 339.593 247.126C341.935 244.45 345.224 242.774 348.776 242.448C349.199 242.409 349.625 242.389 350.054 242.389H350.098C351.919 242.387 353.722 242.745 355.404 243.442C357.085 244.138 358.61 245.16 359.891 246.448L359.894 246.451ZM360.527 256.209C360.532 253.45 359.436 250.802 357.479 248.847C355.522 246.891 352.865 245.789 350.092 245.783H350.058C349.927 245.783 349.796 245.783 349.665 245.791C348.52 245.831 347.39 246.06 346.32 246.469C344.04 247.34 342.139 248.977 340.944 251.096C339.75 253.215 339.338 255.684 339.781 258.073C340.223 260.462 341.491 262.623 343.366 264.18C345.241 265.736 347.604 266.592 350.046 266.597H350.082C351.45 266.6 352.806 266.334 354.07 265.813C355.335 265.292 356.483 264.527 357.449 263.563C357.669 263.344 357.877 263.118 358.074 262.884C359.661 261.02 360.53 258.655 360.527 256.211V256.209ZM278.711 299.09H275.303V307.085H278.711V299.09ZM275.303 327.459H278.711V313.013H275.303V327.459ZM289.701 362.37C289.701 369.336 284.006 375.001 277.007 375.001C270.007 375.001 264.312 369.334 264.312 362.37C264.312 355.979 269.107 350.682 275.303 349.851V332.356H278.711V349.845C284.909 350.678 289.704 355.976 289.704 362.366L289.701 362.37ZM286.293 362.37C286.293 360.542 285.749 358.756 284.728 357.236C283.708 355.717 282.257 354.532 280.56 353.833C278.864 353.134 276.996 352.951 275.195 353.307C273.393 353.664 271.738 354.544 270.44 355.836C269.141 357.128 268.256 358.775 267.898 360.567C267.54 362.36 267.724 364.217 268.427 365.906C269.129 367.594 270.32 369.037 271.847 370.053C273.374 371.068 275.17 371.61 277.007 371.61C279.47 371.607 281.831 370.633 283.572 368.9C285.314 367.167 286.294 364.817 286.296 362.366L286.293 362.37ZM283.515 362.37C283.515 363.651 283.133 364.904 282.418 365.969C281.703 367.035 280.686 367.865 279.496 368.356C278.307 368.846 276.997 368.974 275.734 368.725C274.471 368.475 273.311 367.858 272.4 366.952C271.49 366.046 270.869 364.892 270.618 363.635C270.367 362.378 270.496 361.076 270.988 359.892C271.481 358.708 272.316 357.696 273.387 356.984C274.457 356.272 275.716 355.892 277.004 355.892C278.73 355.894 280.385 356.576 281.606 357.789C282.827 359.003 283.515 360.649 283.518 362.366L283.515 362.37ZM280.107 362.37C280.107 361.759 279.925 361.162 279.584 360.655C279.243 360.147 278.758 359.751 278.191 359.518C277.624 359.284 277.001 359.223 276.399 359.342C275.797 359.461 275.244 359.755 274.81 360.187C274.376 360.619 274.08 361.169 273.961 361.768C273.841 362.366 273.902 362.987 274.137 363.551C274.372 364.116 274.77 364.598 275.28 364.937C275.79 365.276 276.39 365.457 277.004 365.457C277.828 365.457 278.618 365.131 279.2 364.552C279.782 363.972 280.11 363.186 280.11 362.366L280.107 362.37ZM323.193 341.73C323.193 348.015 318.054 353.127 311.737 353.127C305.42 353.127 300.282 348.015 300.282 341.73C300.282 336.02 304.521 331.279 310.033 330.455V315.077H313.441V330.455C318.955 331.28 323.196 336.017 323.196 341.726L323.193 341.73ZM319.785 341.73C319.785 340.146 319.313 338.598 318.429 337.281C317.545 335.964 316.288 334.937 314.818 334.331C313.347 333.725 311.729 333.566 310.167 333.875C308.606 334.184 307.172 334.947 306.046 336.066C304.921 337.186 304.154 338.613 303.844 340.166C303.533 341.72 303.692 343.33 304.302 344.793C304.911 346.256 305.942 347.507 307.266 348.387C308.589 349.267 310.145 349.736 311.737 349.736C313.872 349.735 315.919 348.89 317.428 347.389C318.937 345.887 319.786 343.85 319.788 341.726L319.785 341.73ZM255.998 341.73C255.998 348.015 250.859 353.127 244.542 353.127C238.226 353.127 233.086 348.015 233.086 341.73C233.086 336.02 237.327 331.279 242.838 330.455V315.077H246.246V330.455C251.76 331.28 256 336.017 256 341.726L255.998 341.73ZM252.59 341.73C252.59 340.146 252.118 338.598 251.234 337.281C250.349 335.964 249.092 334.937 247.622 334.331C246.151 333.725 244.533 333.566 242.972 333.875C241.41 334.184 239.976 334.947 238.851 336.067C237.725 337.187 236.959 338.613 236.648 340.167C236.338 341.72 236.497 343.33 237.106 344.794C237.715 346.257 238.747 347.507 240.071 348.387C241.394 349.267 242.951 349.737 244.542 349.736C246.677 349.735 248.723 348.89 250.233 347.388C251.742 345.886 252.591 343.85 252.592 341.726L252.59 341.73ZM350.569 320.234C350.569 321.925 350.086 323.581 349.176 325.009C348.266 326.437 346.966 327.578 345.429 328.299C343.892 329.02 342.18 329.292 340.494 329.081C338.808 328.871 337.216 328.188 335.905 327.112C334.594 326.036 333.618 324.612 333.09 323.004C332.562 321.397 332.504 319.674 332.923 318.035C333.342 316.396 334.221 314.91 335.457 313.75C336.693 312.589 338.235 311.802 339.904 311.481V299.087H343.312V311.481C345.354 311.877 347.194 312.966 348.517 314.563C349.841 316.16 350.566 318.164 350.569 320.234V320.234ZM347.161 320.234C347.161 319.141 346.835 318.073 346.225 317.165C345.614 316.256 344.747 315.548 343.732 315.13C342.718 314.712 341.601 314.603 340.524 314.816C339.447 315.029 338.457 315.555 337.681 316.328C336.904 317.101 336.375 318.086 336.161 319.157C335.947 320.229 336.057 321.34 336.477 322.35C336.897 323.359 337.609 324.222 338.522 324.829C339.436 325.436 340.509 325.76 341.608 325.76C343.08 325.759 344.492 325.176 345.533 324.14C346.574 323.104 347.16 321.699 347.161 320.234V320.234ZM223.936 320.234C223.936 321.925 223.453 323.581 222.543 325.009C221.633 326.437 220.334 327.578 218.796 328.299C217.259 329.02 215.548 329.292 213.861 329.081C212.175 328.871 210.584 328.188 209.273 327.112C207.962 326.036 206.985 324.612 206.457 323.004C205.929 321.397 205.871 319.674 206.29 318.035C206.71 316.396 207.588 314.91 208.824 313.75C210.06 312.589 211.603 311.802 213.271 311.481V299.087H216.679V311.481C218.721 311.877 220.561 312.966 221.885 314.563C223.208 316.16 223.934 318.164 223.936 320.234ZM220.528 320.234C220.528 319.141 220.202 318.073 219.592 317.165C218.982 316.256 218.114 315.548 217.1 315.13C216.085 314.712 214.968 314.603 213.891 314.816C212.814 315.029 211.824 315.555 211.048 316.328C210.271 317.101 209.742 318.086 209.528 319.157C209.314 320.229 209.424 321.34 209.844 322.35C210.265 323.359 210.977 324.222 211.89 324.829C212.803 325.436 213.877 325.76 214.975 325.76C216.448 325.759 217.859 325.176 218.9 324.14C219.942 323.104 220.527 321.699 220.528 320.234V320.234ZM313.444 308.887V299.087H310.036V308.887H313.444ZM246.249 308.887V299.087H242.841V308.887H246.249ZM292.603 260.535C293.2 261.59 293.498 262.931 293.498 264.559C293.498 267.388 292.6 269.534 290.804 270.996C289.008 272.459 286.384 273.19 282.931 273.19H275.86V284.387H272.134V256.385H282.682C284.049 256.381 285.414 256.502 286.759 256.747C288.061 256.989 289.212 257.417 290.212 258.03C291.212 258.647 292.036 259.509 292.603 260.535ZM289.65 264.643C289.65 263.608 289.469 262.77 289.109 262.128C288.766 261.505 288.259 260.986 287.642 260.628C286.977 260.253 286.247 260.007 285.49 259.903C284.629 259.776 283.76 259.714 282.89 259.717H275.859V269.858H283.016C284.209 269.858 285.224 269.747 286.063 269.527C286.902 269.307 287.589 268.976 288.123 268.534C288.65 268.101 289.052 267.537 289.287 266.898C289.529 266.25 289.65 265.498 289.65 264.643V264.643ZM303.174 284.387V256.385H299.451V284.387H303.174ZM254.018 256.385L265.5 284.387H261.278L258.012 275.881H246.217L243.119 284.387H239.187L249.982 256.385H254.018ZM256.931 272.9L251.959 259.945L247.237 272.9H256.931Z" fill="#006CFF"/>
<path d="M343.406 341.017L337.736 362.983C337.705 363.104 337.702 363.229 337.727 363.351C337.753 363.473 337.806 363.587 337.882 363.685C337.958 363.783 338.056 363.862 338.169 363.917C338.281 363.972 338.404 364 338.528 364H340.277C340.578 364 340.871 363.9 341.11 363.716C341.348 363.532 341.518 363.274 341.594 362.983L347.264 341.017C347.295 340.897 347.298 340.771 347.273 340.649C347.248 340.528 347.195 340.413 347.118 340.315C347.042 340.217 346.944 340.138 346.832 340.083C346.72 340.028 346.597 340 346.473 340H344.723C344.422 340 344.129 340.1 343.89 340.284C343.652 340.468 343.481 340.726 343.406 341.017V341.017ZM331.872 346.226L327 352L331.872 357.774C332.11 358.057 332.408 358.284 332.744 358.44C333.08 358.596 333.446 358.677 333.817 358.677H335.307C335.412 358.677 335.515 358.647 335.604 358.591C335.693 358.535 335.763 358.455 335.808 358.36C335.852 358.265 335.868 358.159 335.854 358.056C335.841 357.952 335.797 357.854 335.73 357.774L330.858 352L335.73 346.226C335.797 346.146 335.841 346.048 335.854 345.944C335.868 345.841 335.852 345.735 335.808 345.64C335.763 345.545 335.693 345.465 335.604 345.409C335.515 345.353 335.412 345.323 335.307 345.323H333.817C333.446 345.323 333.08 345.404 332.744 345.56C332.408 345.716 332.11 345.943 331.872 346.226V346.226ZM349.27 346.226L354.142 352L349.27 357.774C349.203 357.854 349.159 357.952 349.145 358.056C349.131 358.16 349.148 358.265 349.192 358.36C349.236 358.455 349.307 358.535 349.396 358.591C349.485 358.648 349.588 358.677 349.693 358.677H351.183C351.554 358.677 351.92 358.596 352.256 358.44C352.592 358.284 352.889 358.057 353.128 357.774L358 352L353.128 346.226C352.889 345.943 352.592 345.716 352.256 345.56C351.92 345.404 351.554 345.323 351.183 345.323H349.693C349.588 345.323 349.485 345.352 349.396 345.409C349.307 345.465 349.236 345.545 349.192 345.64C349.148 345.735 349.131 345.84 349.145 345.944C349.159 346.048 349.203 346.146 349.27 346.226V346.226Z" fill="#006CFF"/>
</g>
<path d="M97.516 116C92.0693 116.017 86.8515 118.193 83.0059 122.051C79.1604 125.908 77.0006 131.134 77 136.581V158.065H499.997V136.581C499.998 133.879 499.466 131.203 498.432 128.706C497.398 126.209 495.883 123.94 493.973 122.029C492.062 120.118 489.794 118.602 487.298 117.567C484.802 116.533 482.126 116 479.424 116H97.516Z" fill="#CADAFF"/>
<path d="M97.516 116C92.0693 116.017 86.8515 118.193 83.0059 122.051C79.1604 125.908 77.0006 131.134 77 136.581V148.906H499.997V136.519C499.982 131.072 497.807 125.853 493.951 122.007C490.094 118.161 484.87 116.001 479.424 116H97.516Z" fill="#21292E"/>
<path d="M447.501 133.893C447.502 135.139 447.133 136.358 446.442 137.394C445.75 138.431 444.766 139.239 443.615 139.717C442.464 140.194 441.198 140.319 439.975 140.077C438.753 139.834 437.63 139.234 436.749 138.353C435.868 137.472 435.268 136.349 435.024 135.127C434.781 133.905 434.906 132.638 435.383 131.487C435.86 130.335 436.668 129.351 437.704 128.659C438.74 127.967 439.959 127.598 441.205 127.598C442.874 127.599 444.475 128.262 445.655 129.442C446.836 130.623 447.5 132.223 447.501 133.893V133.893Z" fill="#B8B8FF"/>
<path d="M465.873 133.893C465.874 135.138 465.505 136.355 464.814 137.391C464.123 138.427 463.14 139.234 461.99 139.712C460.84 140.189 459.574 140.314 458.353 140.072C457.132 139.83 456.009 139.231 455.128 138.352C454.247 137.472 453.647 136.35 453.403 135.129C453.159 133.908 453.282 132.642 453.758 131.491C454.233 130.34 455.039 129.356 456.073 128.663C457.108 127.97 458.324 127.6 459.569 127.598C461.238 127.599 462.839 128.262 464.019 129.443C465.199 130.623 465.863 132.224 465.863 133.893H465.873Z" fill="#FFC902"/>
<path d="M484.251 133.893C484.25 135.348 483.745 136.759 482.822 137.884C481.898 139.009 480.613 139.779 479.186 140.062C477.758 140.346 476.277 140.126 474.993 139.44C473.71 138.754 472.704 137.644 472.147 136.299C471.59 134.954 471.516 133.458 471.939 132.065C472.361 130.672 473.253 129.469 474.463 128.66C475.673 127.851 477.126 127.487 478.574 127.629C480.023 127.771 481.377 128.411 482.406 129.44C483.587 130.621 484.25 132.223 484.251 133.893Z" fill="#FF217E"/>
</g>
</g>
<defs>
<clipPath id="clip0_1453_96717">
<rect width="588" height="400" fill="white"/>
</clipPath>
<clipPath id="clip1_1453_96717">
<rect width="423" height="314" fill="white" transform="translate(77 116)"/>
</clipPath>
<clipPath id="clip2_1453_96717">
<rect width="196" height="183" fill="white" transform="translate(190 192)"/>
</clipPath>
</defs>
</svg>
