<svg width="136" height="40" viewBox="0 0 136 40" fill="none" xmlns="http://www.w3.org/2000/svg">
<path d="M124.749 0.00013H11.2566C10.8429 0.00013 10.4342 0.00013 10.0216 0.00213C9.67621 0.00413 9.33358 0.00994 8.98488 0.01483C8.22733 0.0227318 7.47157 0.0818063 6.72416 0.19154C5.9778 0.303663 5.25482 0.515046 4.57967 0.81854C3.90534 1.1246 3.2892 1.5223 2.75358 1.9972C2.21514 2.47077 1.76632 3.01815 1.42436 3.61829C1.08145 4.21724 0.843683 4.85907 0.719258 5.52161C0.593649 6.18332 0.526059 6.85265 0.517092 7.52361C0.506622 7.83021 0.505517 8.13783 0.5 8.44447V31.5587C0.505517 31.8692 0.506622 32.17 0.517092 32.4806C0.526061 33.1516 0.593652 33.8209 0.719258 34.4825C0.843339 35.1455 1.08112 35.7877 1.42436 36.3868C1.76616 36.985 2.21505 37.5302 2.75358 38.0011C3.28717 38.4781 3.90371 38.8761 4.57967 39.1798C5.25481 39.4841 5.97772 39.6968 6.72416 39.8106C7.4717 39.9195 8.22738 39.9786 8.98488 39.9874C9.33358 39.9942 9.67621 39.9981 10.0216 39.9981C10.4342 40.0001 10.843 40.0001 11.2566 40.0001H124.749C125.155 40.0001 125.567 40.0001 125.972 39.9981C126.316 39.9981 126.669 39.9942 127.012 39.9874C127.768 39.9791 128.523 39.92 129.269 39.8106C130.018 39.696 130.743 39.4834 131.421 39.1798C132.097 38.8759 132.713 38.478 133.246 38.0011C133.783 37.5284 134.233 36.9836 134.579 36.3868C134.92 35.7872 135.155 35.1451 135.277 34.4825C135.403 33.8208 135.473 33.1516 135.487 32.4806C135.491 32.17 135.491 31.8692 135.491 31.5587C135.5 31.1954 135.5 30.8341 135.5 30.4649V9.53626C135.5 9.17005 135.5 8.80677 135.491 8.44447C135.491 8.13783 135.491 7.83021 135.487 7.52357C135.473 6.85255 135.403 6.18337 135.277 5.52157C135.155 4.85941 134.919 4.21763 134.579 3.61825C133.883 2.41533 132.778 1.43616 131.421 0.81845C130.743 0.515697 130.018 0.30437 129.269 0.19145C128.523 0.0812328 127.769 0.0221378 127.012 0.01469C126.669 0.00981 126.316 0.00395 125.972 0.002C125.567 0 125.155 0 124.749 0V0.00013Z" fill="#BED1FF"/>
<path d="M10.0272 39.1251C9.68347 39.1251 9.34805 39.1212 9.00701 39.1144C8.30054 39.1063 7.59572 39.0517 6.89833 38.9513C6.24805 38.852 5.6181 38.6674 5.02926 38.4034C4.44583 38.1416 3.91369 37.7984 3.45323 37.3868C2.9861 36.9801 2.5972 36.5084 2.30193 35.9903C2.00341 35.4689 1.79681 34.91 1.68934 34.3331C1.57328 33.7132 1.51049 33.0864 1.5015 32.4581C1.49435 32.2472 1.48499 31.545 1.48499 31.545V8.44446C1.48499 8.44446 1.49496 7.75305 1.50156 7.54992C1.51016 6.9226 1.57259 6.29678 1.6883 5.67785C1.79597 5.09937 2.00273 4.53887 2.30141 4.01575C2.59559 3.49807 2.98234 3.02598 3.44665 2.6178C3.91044 2.20574 4.44428 1.86073 5.02871 1.59533C5.61619 1.33222 6.24495 1.14885 6.89392 1.05139C7.5936 0.949958 8.30087 0.895118 9.00979 0.887332L10.0277 0.875122H125.967L126.997 0.887822C127.7 0.895221 128.4 0.949572 129.094 1.05041C129.749 1.1491 130.384 1.33374 130.979 1.59826C132.149 2.13311 133.102 2.97929 133.703 4.01819C133.997 4.5377 134.201 5.09363 134.307 5.66711C134.424 6.29111 134.49 6.92186 134.503 7.55432C134.506 7.83752 134.506 8.14172 134.506 8.44446C134.515 8.81946 134.515 9.17639 134.515 9.53625V30.4649C134.515 30.8282 134.515 31.1827 134.506 31.5401C134.506 31.8653 134.506 32.1632 134.502 32.4698C134.489 33.091 134.424 33.7105 134.309 34.3233C134.204 34.9044 133.998 35.4676 133.7 35.9933C133.403 36.5057 133.016 36.9734 132.554 37.379C132.093 37.7928 131.56 38.1381 130.975 38.4015C130.383 38.6675 129.748 38.8529 129.094 38.9513C128.396 39.0523 127.691 39.1068 126.985 39.1144C126.654 39.1212 126.308 39.1251 125.972 39.1251L124.75 39.1271L10.0272 39.1251Z" fill="#F8FAFF"/>
<path d="M46.7939 26.2935C46.4395 26.2935 46.1289 26.374 45.8623 26.5352C45.5957 26.6963 45.3877 26.9248 45.2383 27.2207C45.0918 27.5166 45.0186 27.8696 45.0186 28.2798V29.0752C45.0186 29.4824 45.0903 29.8354 45.2339 30.1343C45.3804 30.4331 45.5854 30.6631 45.8491 30.8242C46.1128 30.9824 46.4233 31.0615 46.7808 31.0615C46.9507 31.0615 47.1104 31.041 47.2598 31C47.4092 30.9619 47.5454 30.9077 47.6685 30.8374C47.7915 30.7671 47.8955 30.6836 47.9805 30.5869C48.0654 30.4873 48.124 30.3774 48.1562 30.2573H48.2046V31H49.1538V24.6851H48.1782V27.0537H48.1299C48.0713 26.8955 47.9775 26.7593 47.8486 26.645C47.7227 26.5308 47.5703 26.4443 47.3916 26.3857C47.2129 26.3242 47.0137 26.2935 46.7939 26.2935ZM47.0664 27.0933C47.2832 27.0933 47.4736 27.1431 47.6377 27.2427C47.8047 27.3423 47.9365 27.4814 48.0332 27.6602C48.1299 27.8389 48.1782 28.0483 48.1782 28.2886V28.9917C48.1782 29.2554 48.1328 29.4824 48.042 29.6729C47.9512 29.8604 47.8237 30.0054 47.6597 30.1079C47.4985 30.2104 47.3081 30.2617 47.0884 30.2617C46.8657 30.2617 46.6738 30.2104 46.5127 30.1079C46.3516 30.0024 46.2271 29.8501 46.1392 29.6509C46.0542 29.4517 46.0117 29.2114 46.0117 28.9302V28.4204C46.0117 28.1392 46.0542 27.9004 46.1392 27.7041C46.2271 27.5049 46.3486 27.354 46.5039 27.2515C46.6621 27.146 46.8496 27.0933 47.0664 27.0933ZM52.4629 31.0791C52.7764 31.0791 53.0474 31.0366 53.2759 30.9517C53.5073 30.8667 53.6978 30.7583 53.8472 30.6265C53.9995 30.4917 54.1152 30.3481 54.1943 30.1958C54.2764 30.0435 54.3247 29.8999 54.3394 29.7651H53.3857C53.3623 29.8618 53.3096 29.9512 53.2275 30.0332C53.1484 30.1123 53.043 30.1768 52.9111 30.2266C52.7793 30.2734 52.6284 30.2969 52.4585 30.2969C52.1157 30.2969 51.8491 30.187 51.6587 29.9673C51.4712 29.7446 51.3774 29.4678 51.3774 29.1367V28.9082H54.3921V28.3633C54.3921 27.9355 54.3071 27.5664 54.1372 27.2559C53.9673 26.9453 53.7329 26.7051 53.4341 26.5352C53.1382 26.3623 52.7954 26.2759 52.4058 26.2759C52.0278 26.2759 51.688 26.3594 51.3862 26.5264C51.0874 26.6904 50.8501 26.9277 50.6743 27.2383C50.4985 27.5488 50.4106 27.9238 50.4106 28.3633V28.9917C50.4106 29.4282 50.4941 29.8032 50.6611 30.1167C50.8281 30.4272 51.0654 30.666 51.373 30.833C51.6807 30.9971 52.0439 31.0791 52.4629 31.0791ZM51.3774 28.271C51.3774 28.2622 51.3774 28.2534 51.3774 28.2446C51.3774 28.2329 51.3774 28.2212 51.3774 28.2095C51.3774 27.9751 51.4199 27.7715 51.5049 27.5986C51.5898 27.4229 51.71 27.2866 51.8652 27.1899C52.0205 27.0933 52.2021 27.0449 52.4102 27.0449C52.6182 27.0449 52.7983 27.0933 52.9507 27.1899C53.106 27.2866 53.2261 27.4229 53.311 27.5986C53.396 27.7715 53.4385 27.9751 53.4385 28.2095C53.4385 28.2212 53.4385 28.2329 53.4385 28.2446C53.4385 28.2534 53.4385 28.2622 53.4385 28.271H51.3774ZM62.2891 25.0015H61.1685L58.7427 27.7832H58.6987V25.0015H57.7012V31H58.6987V28.9917L59.3711 28.2446L61.1729 31H62.3945L60.105 27.5723L62.2891 25.0015ZM65.04 31.0791C65.3535 31.0791 65.6245 31.0366 65.853 30.9517C66.0845 30.8667 66.2749 30.7583 66.4243 30.6265C66.5767 30.4917 66.6924 30.3481 66.7715 30.1958C66.8535 30.0435 66.9019 29.8999 66.9165 29.7651H65.9629C65.9395 29.8618 65.8867 29.9512 65.8047 30.0332C65.7256 30.1123 65.6201 30.1768 65.4883 30.2266C65.3564 30.2734 65.2056 30.2969 65.0356 30.2969C64.6929 30.2969 64.4263 30.187 64.2358 29.9673C64.0483 29.7446 63.9546 29.4678 63.9546 29.1367V28.9082H66.9692V28.3633C66.9692 27.9355 66.8843 27.5664 66.7144 27.2559C66.5444 26.9453 66.3101 26.7051 66.0112 26.5352C65.7153 26.3623 65.3726 26.2759 64.9829 26.2759C64.605 26.2759 64.2651 26.3594 63.9634 26.5264C63.6646 26.6904 63.4272 26.9277 63.2515 27.2383C63.0757 27.5488 62.9878 27.9238 62.9878 28.3633V28.9917C62.9878 29.4282 63.0713 29.8032 63.2383 30.1167C63.4053 30.4272 63.6426 30.666 63.9502 30.833C64.2578 30.9971 64.6211 31.0791 65.04 31.0791ZM63.9546 28.271C63.9546 28.2622 63.9546 28.2534 63.9546 28.2446C63.9546 28.2329 63.9546 28.2212 63.9546 28.2095C63.9546 27.9751 63.9971 27.7715 64.082 27.5986C64.167 27.4229 64.2871 27.2866 64.4424 27.1899C64.5977 27.0933 64.7793 27.0449 64.9873 27.0449C65.1953 27.0449 65.3755 27.0933 65.5278 27.1899C65.6831 27.2866 65.8032 27.4229 65.8882 27.5986C65.9731 27.7715 66.0156 27.9751 66.0156 28.2095C66.0156 28.2212 66.0156 28.2329 66.0156 28.2446C66.0156 28.2534 66.0156 28.2622 66.0156 28.271H63.9546ZM69.7246 33.1313C69.9531 33.1313 70.1494 33.0991 70.3135 33.0347C70.4805 32.9702 70.6064 32.875 70.6914 32.749C70.7793 32.623 70.8232 32.4678 70.8232 32.2832C70.8232 32.1338 70.7881 32.0049 70.7178 31.8965C70.6504 31.7881 70.5493 31.7046 70.4146 31.646C70.2827 31.5903 70.1216 31.5625 69.9312 31.5625L70.1245 31.0527C70.4409 31.0146 70.7119 30.9341 70.9375 30.811C71.166 30.688 71.3403 30.5239 71.4604 30.3188C71.5835 30.1138 71.645 29.8735 71.645 29.5981C71.645 29.3052 71.5776 29.0723 71.4429 28.8994C71.3081 28.7266 71.125 28.5947 70.8936 28.5039C70.6621 28.4131 70.4014 28.3428 70.1113 28.293C69.9824 28.2725 69.8491 28.249 69.7114 28.2227C69.5737 28.1963 69.4463 28.1611 69.3291 28.1172C69.2148 28.0732 69.1211 28.0117 69.0479 27.9326C68.9746 27.8535 68.938 27.7495 68.938 27.6206C68.938 27.4214 69.0142 27.2661 69.1665 27.1548C69.3218 27.0435 69.5239 26.9878 69.7729 26.9878C69.9634 26.9878 70.1201 27.0186 70.2432 27.0801C70.3662 27.1416 70.46 27.2192 70.5244 27.313C70.5918 27.4067 70.6299 27.5049 70.6387 27.6074H71.5176C71.5176 27.332 71.4443 27.0962 71.2979 26.8999C71.1543 26.7007 70.9536 26.5469 70.6958 26.4385C70.4409 26.3301 70.1421 26.2759 69.7993 26.2759C69.4858 26.2759 69.1914 26.3257 68.916 26.4253C68.6436 26.522 68.4224 26.6758 68.2524 26.8867C68.0854 27.0947 68.002 27.3687 68.002 27.7085C68.002 28.0103 68.0708 28.2476 68.2085 28.4204C68.3462 28.5903 68.5322 28.7207 68.7666 28.8115C69.001 28.8994 69.2588 28.9727 69.54 29.0312C69.748 29.0693 69.9399 29.1104 70.1157 29.1543C70.2915 29.1982 70.4321 29.2627 70.5376 29.3477C70.6431 29.4297 70.6958 29.5513 70.6958 29.7124C70.6958 29.8325 70.6636 29.9424 70.5991 30.042C70.5376 30.1416 70.438 30.2207 70.3003 30.2793C70.1655 30.3379 69.9897 30.3672 69.7729 30.3672C69.5767 30.3672 69.4141 30.3423 69.2852 30.2925C69.1562 30.2427 69.0581 30.1709 68.9907 30.0771C68.9233 29.9834 68.8809 29.875 68.8633 29.752H67.9141C67.9141 30.0098 67.9785 30.2339 68.1074 30.4243C68.2363 30.6147 68.4209 30.7656 68.6611 30.877C68.9014 30.9883 69.1841 31.0542 69.5093 31.0747L69.2983 31.6328V32.0327H69.5312C69.6895 32.0327 69.8125 32.043 69.9004 32.0635C69.9883 32.084 70.0498 32.1133 70.085 32.1514C70.123 32.1924 70.1421 32.2466 70.1421 32.314C70.1421 32.4136 70.0967 32.4897 70.0059 32.5425C69.915 32.5952 69.7949 32.6216 69.6455 32.6216C69.5635 32.6216 69.4727 32.6143 69.373 32.5996C69.2734 32.5879 69.1973 32.5747 69.1445 32.5601V33.061C69.2119 33.0815 69.2969 33.0977 69.3994 33.1094C69.5049 33.124 69.6133 33.1313 69.7246 33.1313ZM73.2622 31H74.2334V27.1504H75.2793V26.3857H74.2202V26.0034C74.2202 25.7573 74.2773 25.5889 74.3916 25.498C74.5088 25.4072 74.6963 25.3618 74.9541 25.3618C75.0186 25.3618 75.0947 25.3633 75.1826 25.3662C75.2734 25.3691 75.3379 25.3735 75.376 25.3794V24.6499C75.3203 24.6411 75.2354 24.6338 75.1211 24.6279C75.0098 24.6191 74.8984 24.6147 74.7871 24.6147C74.2422 24.6147 73.8511 24.7202 73.6138 24.9312C73.3794 25.1392 73.2622 25.4702 73.2622 25.9243V26.3857H72.4932V27.1504H73.2622V31ZM78.127 31.0791C78.4404 31.0791 78.7114 31.0366 78.9399 30.9517C79.1714 30.8667 79.3618 30.7583 79.5112 30.6265C79.6636 30.4917 79.7793 30.3481 79.8584 30.1958C79.9404 30.0435 79.9888 29.8999 80.0034 29.7651H79.0498C79.0264 29.8618 78.9736 29.9512 78.8916 30.0332C78.8125 30.1123 78.707 30.1768 78.5752 30.2266C78.4434 30.2734 78.2925 30.2969 78.1226 30.2969C77.7798 30.2969 77.5132 30.187 77.3228 29.9673C77.1353 29.7446 77.0415 29.4678 77.0415 29.1367V28.9082H80.0562V28.3633C80.0562 27.9355 79.9712 27.5664 79.8013 27.2559C79.6313 26.9453 79.397 26.7051 79.0981 26.5352C78.8022 26.3623 78.4595 26.2759 78.0698 26.2759C77.6919 26.2759 77.3521 26.3594 77.0503 26.5264C76.7515 26.6904 76.5142 26.9277 76.3384 27.2383C76.1626 27.5488 76.0747 27.9238 76.0747 28.3633V28.9917C76.0747 29.4282 76.1582 29.8032 76.3252 30.1167C76.4922 30.4272 76.7295 30.666 77.0371 30.833C77.3447 30.9971 77.708 31.0791 78.127 31.0791ZM77.0415 28.271C77.0415 28.2622 77.0415 28.2534 77.0415 28.2446C77.0415 28.2329 77.0415 28.2212 77.0415 28.2095C77.0415 27.9751 77.084 27.7715 77.1689 27.5986C77.2539 27.4229 77.374 27.2866 77.5293 27.1899C77.6846 27.0933 77.8662 27.0449 78.0742 27.0449C78.2822 27.0449 78.4624 27.0933 78.6147 27.1899C78.77 27.2866 78.8901 27.4229 78.9751 27.5986C79.0601 27.7715 79.1025 27.9751 79.1025 28.2095C79.1025 28.2212 79.1025 28.2329 79.1025 28.2446C79.1025 28.2534 79.1025 28.2622 79.1025 28.271H77.0415ZM81.5942 26.3857H80.8735V27.1504H81.5811V29.6948C81.5811 30.0024 81.6221 30.2559 81.7041 30.4551C81.7861 30.6514 81.9312 30.7964 82.1392 30.8901C82.3501 30.9839 82.6431 31.0308 83.0181 31.0308C83.1294 31.0308 83.251 31.0249 83.3828 31.0132C83.5176 31.0044 83.604 30.9971 83.6421 30.9912V30.2441C83.604 30.2471 83.5469 30.2515 83.4707 30.2573C83.3975 30.2603 83.3271 30.2617 83.2598 30.2617C82.999 30.2617 82.8145 30.2178 82.7061 30.1299C82.6006 30.0391 82.5479 29.8677 82.5479 29.6157V27.1504H83.585V26.3857H82.5479V25.2256H81.5942V26.3857Z" fill="#323232"/>
<g clip-path="url(#clip0_1453_95521)">
<path d="M34.4999 13.4653C34.5085 12.4514 34.3944 11.4401 34.16 10.4536C34.0402 9.95331 33.8614 9.46896 33.6275 9.01076C33.0763 7.93826 32.2347 7.17978 31.1282 6.7117C30.4611 6.42994 29.765 6.26361 29.0488 6.15954C28.4599 6.06652 27.865 6.01564 27.2689 6.0073C23.2331 5.9976 19.1976 5.99533 15.1624 6.00048C14.2313 6.00048 13.2993 5.99685 12.3728 6.10501C11.5448 6.20135 10.7337 6.36041 9.95984 6.6758C8.96695 7.0798 8.15946 7.71194 7.59053 8.62993C7.18156 9.28888 6.93209 10.0074 6.77259 10.7627C6.59101 11.6245 6.50114 12.5032 6.50448 13.3839C6.50721 17.6861 6.50721 21.9882 6.50448 26.2903C6.50448 27.0988 6.53493 27.9022 6.66716 28.7021C6.77577 29.3601 6.93209 30.0032 7.19156 30.6189C7.80411 32.0732 8.88924 33.0066 10.3724 33.497C10.8429 33.6498 11.325 33.7645 11.8138 33.8401C12.276 33.9141 12.7404 33.985 13.2057 33.9878C15.6391 33.9996 18.072 33.9932 20.5054 33.9932V33.9973C22.617 33.9973 24.7314 33.9937 26.8408 33.9973C27.6351 33.9996 28.4244 33.9664 29.2101 33.8355C29.8958 33.721 30.5643 33.5547 31.2014 33.2756C32.4283 32.7385 33.2976 31.8482 33.8179 30.6158C34.0727 29.9963 34.2494 29.3475 34.3441 28.6843C34.4486 28.0139 34.5022 27.3365 34.5045 26.6579C34.4987 22.2613 34.4972 17.8637 34.4999 13.4653ZM14.6098 17.6103C14.7705 17.3586 14.9574 17.1246 15.1674 16.9123C15.2815 16.7959 15.291 16.7973 15.3946 16.9295C16.0126 17.7176 16.5884 18.5356 17.135 19.3736C17.9064 20.5523 18.6026 21.7786 19.2194 23.0451C19.2835 23.1773 19.348 23.3091 19.4062 23.4441C19.4253 23.4895 19.4907 23.5418 19.4389 23.5895C19.3984 23.6263 19.3439 23.5777 19.3026 23.5554C19.0045 23.4036 18.705 23.2532 18.4096 23.0951C17.5031 22.6097 16.6083 22.1048 15.765 21.5127C15.377 21.2498 15.0148 20.9507 14.6835 20.6192C14.2849 20.2075 14.0745 19.7221 14.0741 19.0427C14.0682 18.5697 14.3122 18.0798 14.6098 17.6103ZM19.0822 21.7749C18.6189 21.0363 18.1942 20.2743 17.8098 19.4917C17.5172 18.8869 17.2609 18.2679 17.1282 17.6076C16.9742 16.835 17.095 16.1156 17.649 15.5171C17.9237 15.2226 18.2811 15.0179 18.6741 14.93C18.8432 14.89 19.014 14.8545 19.1853 14.8236C19.398 14.7845 19.4498 14.8159 19.5407 15.0104C19.8324 15.6316 19.9796 16.2938 20.0832 16.9645C20.226 17.9288 20.2918 18.9029 20.28 19.8776C20.2882 20.5906 20.2368 21.3504 20.1946 22.1103C20.1773 22.4207 20.1405 22.7306 20.1119 23.041C20.1111 23.0593 20.1082 23.0774 20.1032 23.0951C20.091 23.1323 20.0987 23.1891 20.0496 23.1973C20.0005 23.2055 19.9837 23.1541 19.9619 23.121C19.667 22.6756 19.3639 22.2316 19.0822 21.7749ZM20.7503 19.5935C20.7703 18.5615 20.8339 17.5321 21.033 16.5169C21.1375 15.9807 21.2811 15.4535 21.5255 14.96C21.571 14.8691 21.6232 14.8054 21.735 14.8186C22.3176 14.8882 22.8797 15.0154 23.3132 15.4489C23.7467 15.8825 23.9994 16.3983 23.9494 16.9782C23.9657 17.6598 23.7644 18.2411 23.5331 18.8128C23.1464 19.7671 22.6348 20.6601 22.1013 21.5395C21.7868 22.0571 21.4624 22.5688 21.1175 23.0669C21.0807 23.1205 21.053 23.2155 20.9784 23.1969C20.9135 23.1805 20.9294 23.0837 20.9253 23.0251C20.8953 22.6161 20.8526 22.2034 20.8289 21.7922C20.7849 21.0573 20.7362 20.3247 20.7503 19.5913V19.5935ZM21.6332 23.4427C22.1892 22.2585 22.8156 21.1087 23.5091 19.9994C24.1551 18.9581 24.8551 17.9514 25.6062 16.9832C25.762 16.7837 25.7652 16.7787 25.9329 16.9659C26.3628 17.4453 26.7277 17.9657 26.8903 18.6019C26.9358 18.7864 26.9908 18.9741 26.9726 19.1718C26.9471 19.8371 26.6595 20.3743 26.1669 20.8128C25.2867 21.5967 24.2752 22.1839 23.2541 22.7579C22.7585 23.0369 22.2559 23.3034 21.7464 23.5572C21.7037 23.5786 21.6555 23.6304 21.6101 23.5913C21.5528 23.5391 21.6119 23.4859 21.6332 23.4404V23.4427ZM13.0735 20.776C13.0989 20.6674 13.1403 20.6565 13.2352 20.7078C14.3399 21.3077 15.4405 21.9153 16.5284 22.5461C17.3259 23.0087 18.1188 23.4768 18.8913 23.9849C18.919 24.0013 18.9457 24.0194 18.9713 24.039C19.0081 24.0694 19.0835 24.0844 19.0667 24.1408C19.0472 24.2057 18.9722 24.1807 18.9209 24.1812C18.6364 24.1839 18.3519 24.1812 18.067 24.1812H17.2536C16.7397 24.1812 16.2253 24.1812 15.7109 24.1812C15.0688 24.1799 14.4477 23.9525 13.9565 23.5389C13.4653 23.1253 13.1355 22.5519 13.0249 21.9194C12.9614 21.539 12.9779 21.1496 13.0735 20.776ZM14.294 30.8239C13.896 30.8157 13.9491 30.8589 13.9464 30.479C13.9464 30.2517 13.9432 30.0291 13.9464 29.8046C13.9464 29.6941 13.901 29.6432 13.7919 29.6437C13.4434 29.6437 13.0944 29.6437 12.7468 29.6437C12.6268 29.6437 12.5882 29.7028 12.5895 29.8164C12.5936 30.1004 12.5873 30.3849 12.5927 30.6698C12.5927 30.7834 12.5509 30.8253 12.4391 30.823C12.0033 30.8157 12.0756 30.8748 12.0724 30.4621C12.0688 29.7141 12.0724 28.9661 12.0724 28.2181C12.0724 28.0163 12.0724 28.0145 12.2683 28.0158C12.64 28.0158 12.5863 27.9749 12.5918 28.334C12.5918 28.5544 12.5959 28.7748 12.5918 28.9952C12.5891 29.1147 12.6286 29.1724 12.7572 29.1711C13.1012 29.1661 13.4456 29.167 13.7896 29.1711C13.91 29.1711 13.9514 29.1192 13.95 29.0043C13.9455 28.7243 13.95 28.4439 13.9469 28.1645C13.9446 28.0504 13.9868 28.0099 14.0995 28.0122C14.5326 28.0208 14.4631 27.9609 14.4681 28.373C14.4712 28.7221 14.4681 29.0706 14.4681 29.4183C14.4681 29.8273 14.4644 30.2363 14.4681 30.6453C14.4699 30.7757 14.4272 30.8266 14.294 30.8239ZM14.4435 24.8479C14.3767 24.7379 14.3899 24.7147 14.5171 24.7115C14.5948 24.7115 14.673 24.7115 14.7512 24.7115V24.7052C15.5941 24.6788 16.4379 24.6597 17.2809 24.6238C17.8121 24.6029 18.3433 24.5752 18.8759 24.5734C18.9145 24.5734 18.9668 24.5566 18.9845 24.6061C18.9981 24.6475 18.9513 24.6661 18.9218 24.6865C18.311 25.1101 17.6949 25.5196 17.0341 25.8708C16.2712 26.2798 15.6182 26.0758 15.0583 25.5868C14.8166 25.3736 14.6092 25.1244 14.4435 24.8479ZM17.7521 28.9884H17.7457C17.7457 29.2547 17.7494 29.5205 17.7457 29.7868C17.7385 30.2767 17.4599 30.6894 16.9819 30.7866C16.5252 30.8807 16.044 30.9148 15.6695 30.5249C15.4871 30.3386 15.3833 30.0893 15.3796 29.8286C15.3687 29.2738 15.3796 28.7184 15.3737 28.1635C15.3737 28.0495 15.4155 28.0095 15.5273 28.0118C15.964 28.0204 15.8908 27.9595 15.894 28.3726C15.8986 28.8084 15.9004 29.2442 15.894 29.68C15.8872 30.2308 16.4043 30.5021 16.8801 30.2954C17.1886 30.159 17.2409 29.875 17.2436 29.581C17.2504 29.1043 17.2486 28.6266 17.2436 28.1499C17.2436 28.0472 17.2704 28.0068 17.3731 28.0136C17.464 28.019 17.5549 28.0163 17.6485 28.0136C17.7312 28.0136 17.7553 28.0499 17.7535 28.1335C17.7485 28.4199 17.7521 28.7039 17.7521 28.9884ZM20.9112 30.7998C20.8657 30.7971 20.8203 30.7998 20.7749 30.7998C20.5072 30.7939 20.5281 30.8502 20.4004 30.5435C20.2287 30.1318 20.3068 30.199 19.8788 30.194C19.6129 30.1908 19.3471 30.1963 19.0808 30.194C18.9704 30.194 18.899 30.2331 18.8581 30.3376C18.8127 30.4576 18.7586 30.5749 18.7068 30.6921C18.6887 30.7339 18.6741 30.7944 18.6278 30.7975C18.4776 30.8098 18.3268 30.8112 18.1765 30.8016C18.1125 30.7966 18.1556 30.7348 18.1702 30.7026C18.3192 30.3626 18.471 30.0209 18.6214 29.6837C18.8454 29.1765 19.0717 28.6693 19.2903 28.1599C19.3357 28.0567 19.3939 28.0236 19.5052 28.0118C19.7438 27.9849 19.8665 28.0631 19.9628 28.2976C20.2914 29.0943 20.6494 29.8791 21.0007 30.6662C21.0484 30.7739 21.0212 30.8062 20.9112 30.7998ZM25.0391 28.149C24.8314 28.7398 24.6301 29.3278 24.4252 29.9173C24.3406 30.1599 24.2529 30.4017 24.1743 30.6444C24.1398 30.7525 24.0834 30.8007 23.9657 30.7971C23.6186 30.7871 23.6872 30.8362 23.5781 30.5208C23.4105 30.0359 23.2287 29.5551 23.0815 29.0629C23.0706 29.0265 23.0546 28.9897 23.0106 28.9893C22.9492 28.9893 22.9442 29.0438 22.9297 29.0856C22.7525 29.5969 22.5712 30.1077 22.4021 30.6221C22.3567 30.7544 22.2958 30.8039 22.1572 30.7984C21.8932 30.7894 21.8945 30.7984 21.8096 30.5526C21.5369 29.7691 21.2621 28.9858 20.9853 28.2026C20.9784 28.1759 20.9699 28.1497 20.9598 28.124C20.9144 28.0331 20.9598 28.0108 21.0425 28.014C21.0975 28.014 21.1525 28.014 21.2075 28.014C21.2441 28.017 21.2808 28.017 21.3174 28.014C21.451 27.9931 21.5042 28.0663 21.5401 28.1813C21.7087 28.7266 21.8809 29.266 22.0522 29.8082C22.0649 29.8473 22.0763 29.8927 22.1281 29.8927C22.1799 29.8927 22.1913 29.8473 22.2044 29.8086C22.3862 29.251 22.5734 28.6943 22.7543 28.1358C22.7811 28.0536 22.8206 28.0163 22.9088 28.0127C23.2128 27.9995 23.2187 27.9945 23.3178 28.2794C23.4909 28.7825 23.6558 29.2883 23.8244 29.7927C23.8381 29.8341 23.8349 29.8954 23.898 29.8918C23.9539 29.8882 23.9603 29.8341 23.9744 29.79C24.1507 29.2392 24.3284 28.6893 24.5038 28.1385C24.5315 28.0513 24.5787 28.0086 24.6728 28.014C24.7669 28.0195 24.8568 28.0177 24.9482 28.014C25.0504 28.0131 25.075 28.0481 25.0391 28.149ZM24.1389 25.9386C23.4164 25.5886 22.7656 25.1255 22.1022 24.6811C22.074 24.662 22.0295 24.6443 22.0486 24.5984C22.0631 24.562 22.104 24.5734 22.1349 24.5725C22.2172 24.5725 22.2999 24.5725 22.3826 24.5725V24.5775C23.2669 24.6043 24.1516 24.6229 25.0359 24.6597C25.5171 24.6784 25.9974 24.7093 26.4791 24.7111C26.6541 24.7111 26.6663 24.7311 26.5727 24.8765C26.2942 25.3105 25.9624 25.69 25.4871 25.9217C25.0386 26.1431 24.5956 26.1599 24.1389 25.9386ZM27.5779 30.8012C26.9903 30.7953 26.4028 30.7962 25.8152 30.8012C25.6961 30.8012 25.6525 30.7634 25.6539 30.6426C25.6589 30.2295 25.6562 29.8164 25.6562 29.4028C25.6562 28.9988 25.6598 28.5948 25.6534 28.1908C25.6534 28.0636 25.6862 28.009 25.8234 28.0127C26.3923 28.0186 26.9617 28.0172 27.5311 28.0127C27.6474 28.0127 27.6965 28.0477 27.6942 28.1704C27.6878 28.5248 27.721 28.4789 27.3838 28.4807C27.0394 28.4807 26.6954 28.4853 26.351 28.4807C26.2187 28.478 26.166 28.5262 26.1751 28.6584C26.181 28.7457 26.1751 28.8329 26.1751 28.9202C26.1751 29.1056 26.1887 29.1188 26.3687 29.1192C26.6077 29.1192 26.8463 29.1224 27.0848 29.1192C27.1953 29.1192 27.2521 29.1474 27.2262 29.2697C27.221 29.315 27.221 29.3607 27.2262 29.406C27.2316 29.5823 27.2316 29.5828 27.0608 29.5832C26.8217 29.5832 26.5832 29.5878 26.3446 29.5832C26.2178 29.5805 26.171 29.6328 26.176 29.7555C26.1819 29.8882 26.176 30.0218 26.176 30.1549C26.176 30.3304 26.2019 30.3563 26.3746 30.3567C26.7649 30.3567 27.1553 30.3567 27.5456 30.3567C27.7442 30.3567 27.746 30.3594 27.7469 30.5558C27.7469 30.5789 27.7469 30.6012 27.7469 30.6248C27.7624 30.7516 27.7133 30.8025 27.5779 30.8012ZM28.0087 21.9258C27.8074 22.9669 27.2003 23.6699 26.2019 24.033C25.8384 24.1662 25.4553 24.1694 25.0754 24.1785C24.5937 24.1885 24.1116 24.1785 23.6299 24.1785C23.1204 24.1785 22.611 24.1785 22.1017 24.1785C22.0563 24.1785 21.985 24.2012 21.9686 24.1412C21.9522 24.0812 22.0213 24.0626 22.0595 24.0358C22.8047 23.5486 23.5659 23.0878 24.3347 22.6393C25.3453 22.0485 26.3673 21.4813 27.3925 20.9187C27.5288 20.8437 27.6697 20.7742 27.8014 20.6915C27.8978 20.6333 27.9378 20.661 27.9632 20.7619C28.066 21.1415 28.0815 21.5394 28.0087 21.9258ZM28.9834 28.388C28.9879 29.1311 28.9834 29.8745 28.9834 30.6176C28.9834 30.7912 28.9761 30.7993 28.8071 30.7993C28.4858 30.8021 28.4858 30.8021 28.4858 30.4812V29.4074H28.4781C28.4781 28.9766 28.4781 28.5439 28.4781 28.114C28.4781 28.0504 28.4953 28.0181 28.5603 28.0168H28.588C29.0638 28.0199 28.9811 27.9572 28.9834 28.388ZM20.0064 29.5941C20.0483 29.69 20.0205 29.7468 19.911 29.7487C19.8015 29.7505 19.6906 29.7487 19.5802 29.7487H19.2621C19.1621 29.7487 19.1258 29.7 19.1658 29.6069C19.2791 29.3412 19.3936 29.0758 19.5093 28.8107C19.5234 28.7775 19.5393 28.7393 19.5852 28.7421C19.6311 28.7448 19.6466 28.778 19.6615 28.812C19.7773 29.0732 19.8922 29.3339 20.0064 29.5941Z" fill="url(#paint0_linear_1453_95521)"/>
<path d="M19.0658 24.1407C19.0463 24.2057 18.9713 24.1807 18.92 24.1812C18.6355 24.1839 18.351 24.1812 18.0661 24.1812H17.2536C16.7397 24.1812 16.2253 24.1812 15.7109 24.1812C15.0688 24.1799 14.4477 23.9525 13.9565 23.5389C13.4653 23.1253 13.1355 22.5519 13.0249 21.9194C12.9611 21.5383 12.9776 21.148 13.0735 20.7737C13.0989 20.6651 13.1403 20.6542 13.2353 20.7055C14.3399 21.3054 15.4405 21.913 16.5284 22.5438C17.3259 23.0064 18.1188 23.4745 18.8913 23.9826C18.919 23.999 18.9457 24.0171 18.9713 24.0367C19.0072 24.0694 19.0827 24.0839 19.0658 24.1407Z" fill="#F8FAFF"/>
<path d="M14.4677 30.6462C14.47 30.7757 14.4273 30.8279 14.2941 30.8239C13.8961 30.8157 13.9492 30.8589 13.9465 30.4789C13.9465 30.2517 13.9433 30.029 13.9465 29.8045C13.9465 29.6941 13.9011 29.6432 13.792 29.6437C13.4435 29.6437 13.0945 29.6437 12.7469 29.6437C12.6269 29.6437 12.5883 29.7027 12.5896 29.8163C12.5937 30.1004 12.5874 30.3849 12.5928 30.6698C12.5928 30.7834 12.551 30.8252 12.4392 30.8229C12.0034 30.8157 12.0757 30.8748 12.0725 30.4621C12.0689 29.7141 12.0725 28.9661 12.0725 28.218C12.0725 28.0163 12.0725 28.0144 12.2684 28.0158C12.6401 28.0158 12.5864 27.9749 12.5919 28.3339C12.5919 28.5543 12.596 28.7747 12.5919 28.9952C12.5892 29.1147 12.6287 29.1724 12.7573 29.171C13.1013 29.166 13.4457 29.1669 13.7897 29.171C13.9102 29.171 13.9515 29.1192 13.9501 29.0042C13.9456 28.7243 13.9501 28.4439 13.947 28.1644C13.9447 28.0504 13.9869 28.0099 14.0996 28.0122C14.5327 28.0208 14.4632 27.9608 14.4682 28.373C14.4714 28.722 14.4682 29.0706 14.4682 29.4182C14.4659 29.8291 14.4623 30.2376 14.4677 30.6462Z" fill="#F8FAFF"/>
<path d="M19.4389 23.5904C19.3985 23.6272 19.3439 23.5786 19.3026 23.5563C19.0045 23.4045 18.705 23.2541 18.4096 23.0959C17.5031 22.6106 16.6084 22.1057 15.765 21.5135C15.3769 21.2504 15.0148 20.9509 14.6835 20.6192C14.2849 20.2074 14.0746 19.7221 14.0741 19.0427C14.0677 18.5696 14.3118 18.0797 14.6094 17.6103C14.7701 17.3585 14.957 17.1245 15.167 16.9122C15.281 16.7959 15.2906 16.7973 15.3942 16.9295C16.0122 17.7175 16.5879 18.5355 17.1346 19.3735C17.9061 20.5522 18.6025 21.7785 19.2194 23.045C19.2835 23.1773 19.348 23.3091 19.4062 23.444C19.4253 23.4913 19.4907 23.5449 19.4389 23.5904Z" fill="#F8FAFF"/>
<path d="M17.7522 28.9883H17.7458C17.7458 29.2546 17.7495 29.5205 17.7458 29.7868C17.7385 30.2767 17.46 30.6893 16.9819 30.7866C16.5253 30.8806 16.044 30.9147 15.6696 30.5248C15.4872 30.3386 15.3834 30.0893 15.3797 29.8286C15.3688 29.2737 15.3797 28.7184 15.3738 28.1635C15.3738 28.0494 15.4156 28.0094 15.5274 28.0117C15.9641 28.0203 15.8909 27.9594 15.8941 28.3725C15.8986 28.8083 15.9004 29.2442 15.8941 29.68C15.8873 30.2308 16.4044 30.5021 16.8802 30.2953C17.1887 30.159 17.241 29.8749 17.2437 29.5809C17.2505 29.1042 17.2487 28.6266 17.2437 28.1498C17.2437 28.0471 17.2705 28.0067 17.3732 28.0135C17.4641 28.019 17.555 28.0162 17.6486 28.0135C17.7313 28.0135 17.7554 28.0499 17.7535 28.1335C17.7485 28.4198 17.7522 28.7038 17.7522 28.9883Z" fill="#F8FAFF"/>
<path d="M23.9472 16.9758C23.9636 17.6575 23.7623 18.2388 23.531 18.8105C23.1443 19.7648 22.6326 20.6578 22.0991 21.5372C21.7847 22.0548 21.4602 22.5665 21.1153 23.0646C21.0785 23.1182 21.0508 23.2132 20.9763 23.1945C20.9113 23.1782 20.9272 23.0814 20.9231 23.0228C20.8931 22.6137 20.8504 22.2011 20.8268 21.7898C20.7849 21.0573 20.7359 20.3247 20.7504 19.5912C20.7704 18.5591 20.834 17.5298 21.0331 16.5146C21.1376 15.9783 21.2812 15.4512 21.5256 14.9576C21.5711 14.8667 21.6233 14.8031 21.7351 14.8163C22.3177 14.8858 22.8798 15.0131 23.3133 15.4466C23.7468 15.8802 23.999 16.396 23.9472 16.9758Z" fill="#F8FAFF"/>
<path d="M26.9727 19.1681C26.9473 19.8334 26.6596 20.3705 26.167 20.8091C25.2868 21.593 24.2753 22.1802 23.2542 22.7541C22.7586 23.0332 22.2561 23.2996 21.7465 23.5535C21.7038 23.5749 21.6556 23.6267 21.6102 23.5876C21.5543 23.539 21.6134 23.4858 21.6347 23.4404C22.1907 22.2561 22.8171 21.1063 23.5105 19.997C24.1566 18.9558 24.8566 17.949 25.6077 16.9808C25.7635 16.7813 25.7667 16.7763 25.9344 16.9635C26.3643 17.443 26.7291 17.9633 26.8918 18.5996C26.9382 18.7827 26.9909 18.9704 26.9727 19.1681Z" fill="#F8FAFF"/>
<path d="M20.1942 22.1139C20.1769 22.4243 20.1401 22.7342 20.1115 23.0446C20.1107 23.0629 20.1078 23.0811 20.1029 23.0987C20.0906 23.136 20.0983 23.1928 20.0492 23.201C20.0002 23.2091 19.9834 23.1578 19.9615 23.1246C19.6671 22.6756 19.3649 22.2316 19.0822 21.7749C18.619 21.0363 18.1943 20.2743 17.8099 19.4917C17.5173 18.8869 17.261 18.2679 17.1283 17.6076C16.9742 16.835 17.0951 16.1156 17.649 15.5171C17.9238 15.2226 18.2811 15.018 18.6742 14.93C18.8432 14.89 19.0141 14.8545 19.1854 14.8236C19.3981 14.7846 19.4499 14.8159 19.5408 15.0104C19.8325 15.6317 19.9797 16.2938 20.0833 16.9646C20.2261 17.9288 20.2919 18.9029 20.2801 19.8776C20.2878 20.5942 20.2365 21.3541 20.1942 22.1139Z" fill="#F8FAFF"/>
<path d="M18.9218 24.6851C18.3111 25.1086 17.6949 25.5181 17.0342 25.8694C16.2712 26.2784 15.6182 26.0744 15.0584 25.5854C14.8168 25.3726 14.6094 25.1238 14.4436 24.8478C14.3768 24.7378 14.39 24.7146 14.5172 24.7115C14.5949 24.7115 14.6731 24.7115 14.7512 24.7115V24.7051C15.5941 24.6787 16.438 24.6597 17.2809 24.6237C17.8121 24.6028 18.3433 24.5751 18.8759 24.5733C18.9145 24.5733 18.9668 24.5565 18.9845 24.606C19.0004 24.646 18.9513 24.6647 18.9218 24.6851Z" fill="#F8FAFF"/>
<path d="M28.0087 21.9257C27.8074 22.9669 27.2003 23.6699 26.2019 24.033C25.8384 24.1662 25.4553 24.1693 25.0755 24.1784C24.5938 24.1884 24.1117 24.1784 23.63 24.1784C23.1204 24.1784 22.611 24.1784 22.1018 24.1784C22.0564 24.1784 21.985 24.2011 21.9686 24.1412C21.9523 24.0812 22.0214 24.0625 22.0595 24.0357C22.8048 23.5486 23.5659 23.0877 24.3348 22.6392C25.3454 22.0484 26.3674 21.4813 27.3925 20.9187C27.5288 20.8437 27.6697 20.7741 27.8015 20.6914C27.8978 20.6333 27.9378 20.661 27.9632 20.7619C28.066 21.1414 28.0815 21.5393 28.0087 21.9257Z" fill="#F8FAFF"/>
<path d="M27.5779 30.8011C26.9903 30.7952 26.4028 30.7961 25.8152 30.8011C25.6962 30.8011 25.6525 30.7634 25.6539 30.6425C25.6589 30.2294 25.6562 29.8163 25.6562 29.4028C25.6562 28.9988 25.6598 28.5948 25.6534 28.1908C25.6534 28.0635 25.6862 28.009 25.8234 28.0126C26.3923 28.0185 26.9617 28.0172 27.5311 28.0126C27.6474 28.0126 27.6965 28.0476 27.6942 28.1703C27.6879 28.5248 27.721 28.4789 27.3839 28.4807C27.0394 28.4807 26.6954 28.4852 26.351 28.4807C26.2187 28.478 26.166 28.5261 26.1751 28.6584C26.181 28.7456 26.1751 28.8329 26.1751 28.9202C26.1751 29.1056 26.1887 29.1187 26.3687 29.1192C26.6077 29.1192 26.8463 29.1224 27.0848 29.1192C27.1953 29.1192 27.2521 29.1474 27.2262 29.2696C27.221 29.3149 27.221 29.3607 27.2262 29.406C27.2316 29.5823 27.2316 29.5827 27.0608 29.5832C26.8217 29.5832 26.5832 29.5877 26.3446 29.5832C26.2178 29.5805 26.171 29.6327 26.176 29.7554C26.1819 29.8881 26.176 30.0217 26.176 30.1549C26.176 30.3303 26.2019 30.3562 26.3746 30.3567C26.7649 30.3567 27.1553 30.3567 27.5456 30.3567C27.7442 30.3567 27.746 30.3594 27.7469 30.5557C27.7469 30.5789 27.7469 30.6012 27.7469 30.6248C27.7624 30.7516 27.7133 30.8025 27.5779 30.8011Z" fill="#F8FAFF"/>
<path d="M28.9835 28.388C28.988 29.131 28.9835 29.8745 28.9835 30.6175C28.9835 30.7911 28.9762 30.7993 28.8071 30.7993C28.4859 30.802 28.4859 30.802 28.4859 30.4811V29.4073H28.4781C28.4781 28.9765 28.4781 28.5438 28.4781 28.1139C28.4781 28.0503 28.4954 28.018 28.5604 28.0167H28.5881C29.0639 28.0199 28.9812 27.9571 28.9835 28.388Z" fill="#F8FAFF"/>
<path d="M26.5728 24.876C26.2943 25.31 25.9625 25.6895 25.4872 25.9212C25.0387 26.1416 24.5957 26.1584 24.139 25.9371C23.4165 25.5872 22.7657 25.1241 22.1023 24.6797C22.0741 24.6606 22.0296 24.6429 22.0487 24.597C22.0632 24.5606 22.1041 24.572 22.135 24.5711C22.2173 24.5711 22.3 24.5711 22.3827 24.5711V24.5761C23.267 24.6029 24.1517 24.6215 25.036 24.6583C25.5172 24.6769 25.9975 24.7078 26.4792 24.7097C26.6541 24.711 26.6664 24.7306 26.5728 24.876Z" fill="#F8FAFF"/>
<path d="M20.9999 30.6644C20.6486 29.8773 20.2905 29.0924 19.962 28.2958C19.8657 28.0613 19.743 27.9831 19.5044 28.0099C19.3931 28.0222 19.334 28.0554 19.2895 28.1581C19.0709 28.6675 18.8446 29.1747 18.6206 29.6818C18.4702 30.0213 18.3184 30.3608 18.1693 30.7007C18.1548 30.733 18.1116 30.7948 18.1757 30.7998C18.326 30.8093 18.4768 30.808 18.6269 30.7957C18.6724 30.7925 18.6878 30.7321 18.706 30.6903C18.7578 30.573 18.811 30.4558 18.8573 30.3358C18.8978 30.2313 18.9696 30.1904 19.08 30.1922C19.3463 30.1958 19.6121 30.1922 19.8779 30.1922C20.306 30.1972 20.2278 30.1299 20.3996 30.5417C20.5273 30.8484 20.5064 30.7921 20.774 30.798C20.8195 30.798 20.8649 30.798 20.9104 30.798C21.0212 30.8061 21.0485 30.7739 20.9999 30.6644ZM19.9093 29.7486C19.7989 29.7486 19.6889 29.7486 19.5785 29.7486H19.2604C19.1604 29.7486 19.1241 29.7 19.1641 29.6069C19.2774 29.3412 19.3919 29.0758 19.5076 28.8107C19.5217 28.7775 19.5376 28.7393 19.5835 28.742C19.6294 28.7448 19.6448 28.7779 19.6598 28.812C19.7743 29.0726 19.8887 29.333 20.0029 29.5932C20.0483 29.69 20.0206 29.7468 19.9093 29.7486Z" fill="#F8FAFF"/>
<path d="M25.0391 28.149C24.8315 28.7397 24.6302 29.3278 24.4252 29.9172C24.3407 30.1599 24.253 30.4017 24.1744 30.6443C24.1399 30.7525 24.0835 30.8007 23.9658 30.797C23.6187 30.787 23.6873 30.8361 23.5782 30.5207C23.4105 30.0358 23.2288 29.555 23.0815 29.0629C23.0706 29.0265 23.0547 28.9897 23.0106 28.9892C22.9493 28.9892 22.9443 29.0438 22.9298 29.0856C22.7525 29.5968 22.5712 30.1076 22.4022 30.6221C22.3567 30.7543 22.2959 30.8039 22.1573 30.7984C21.8932 30.7893 21.8946 30.7984 21.8096 30.5526C21.537 29.7691 21.2622 28.9858 20.9853 28.2026C20.9785 28.1759 20.97 28.1496 20.9599 28.124C20.9144 28.0331 20.9599 28.0108 21.0426 28.014C21.0976 28.014 21.1526 28.014 21.2075 28.014C21.2441 28.017 21.2809 28.017 21.3175 28.014C21.4511 27.9931 21.5043 28.0663 21.5402 28.1812C21.7088 28.7266 21.881 29.266 22.0523 29.8082C22.065 29.8472 22.0764 29.8927 22.1282 29.8927C22.18 29.8927 22.1913 29.8472 22.2045 29.8086C22.3863 29.251 22.5735 28.6943 22.7544 28.1358C22.7812 28.0535 22.8207 28.0163 22.9089 28.0126C23.2129 27.9994 23.2188 27.9945 23.3178 28.2794C23.491 28.7825 23.6559 29.2883 23.8245 29.7927C23.8381 29.8341 23.835 29.8954 23.8981 29.8918C23.954 29.8881 23.9604 29.8341 23.9745 29.79C24.1508 29.2392 24.3284 28.6893 24.5038 28.1385C24.5316 28.0513 24.5788 28.0085 24.6729 28.014C24.767 28.0194 24.8569 28.0176 24.9483 28.014C25.0505 28.0131 25.075 28.0481 25.0391 28.149Z" fill="#F8FAFF"/>
<path d="M27.4298 9.41787C27.2899 9.59738 27.1522 9.7787 27.0095 9.95639C25.9434 11.2866 24.5893 12.2014 22.9688 12.7163C21.7921 13.0883 20.5472 13.193 19.3249 13.0226C18.018 12.8499 16.8256 12.3827 15.7328 11.6529C15.2007 11.3024 14.7159 10.8851 14.29 10.4113C14.0387 10.1282 13.7847 9.84596 13.5734 9.53012C13.5466 9.49013 13.5302 9.43923 13.4766 9.41969C13.3721 9.24381 13.2658 9.06931 13.1644 8.89162C13.0563 8.70257 13.1013 8.51715 13.2735 8.41853C13.4298 8.32764 13.6079 8.38627 13.717 8.56078C13.8183 8.72302 13.9083 8.89207 14.0301 9.04068C14.2291 9.37833 14.4845 9.67282 14.749 9.95821C15.5764 10.859 16.606 11.5502 17.7529 11.9751C18.8998 12.3999 20.1312 12.5462 21.3457 12.4018C23.2515 12.1777 24.8447 11.3447 26.1588 9.95548C26.4005 9.69782 26.6227 9.42258 26.8236 9.13202C26.8441 9.10294 26.8777 9.0793 26.8718 9.03704C26.9883 8.89105 27.0922 8.73537 27.1822 8.57168C27.2403 8.47352 27.3185 8.39672 27.4362 8.38082C27.4954 8.37065 27.5564 8.37816 27.6114 8.4024C27.6665 8.42664 27.7131 8.46655 27.7456 8.51715C27.7823 8.56497 27.8037 8.6228 27.8068 8.683C27.81 8.7432 27.7948 8.80294 27.7634 8.85435C27.6547 9.04386 27.5434 9.22973 27.4298 9.41787Z" fill="#FEFEFE"/>
<path d="M27.4297 9.41791C27.5411 9.23022 27.6569 9.0439 27.7633 8.85439C27.7948 8.80299 27.8099 8.74324 27.8068 8.68304C27.8036 8.62284 27.7823 8.56501 27.7456 8.51719C27.7131 8.46659 27.6664 8.42669 27.6113 8.40244C27.5563 8.3782 27.4954 8.37069 27.4361 8.38086C27.3166 8.39676 27.2403 8.47175 27.1821 8.57173C27.0921 8.73541 26.9883 8.89109 26.8717 9.03708C26.7899 8.99164 26.7608 8.90575 26.7454 8.82803C26.6482 8.33223 26.9185 7.91186 27.3929 7.82097C27.5096 7.79911 27.6296 7.80318 27.7446 7.83289C27.8595 7.86261 27.9665 7.91724 28.0579 7.99291C28.1494 8.06858 28.223 8.16345 28.2737 8.27078C28.3244 8.37811 28.3509 8.49528 28.3513 8.61399C28.3513 9.06844 28.0237 9.37837 27.6042 9.447C27.5433 9.45699 27.4888 9.42427 27.4297 9.41791Z" fill="#D4313E"/>
<path d="M14.03 9.03845C13.9082 8.88984 13.8183 8.72033 13.7169 8.55855C13.6079 8.38404 13.4298 8.32723 13.2734 8.4163C13.1012 8.51492 13.0562 8.70033 13.1644 8.88939C13.2657 9.06708 13.372 9.24158 13.4766 9.41746C12.9967 9.47744 12.6345 9.15933 12.5536 8.71624C12.4878 8.35268 12.834 7.86869 13.2021 7.82507C13.6674 7.76962 13.9796 7.95322 14.1468 8.38177C14.2254 8.58172 14.1627 8.93165 14.03 9.03845Z" fill="#D4313E"/>
</g>
<rect x="41.5" y="25" width="1" height="3" fill="#323232"/>
<path d="M43.4995 18.5249L44.2832 15.9541H47.623L48.4067 18.5249H50.5088L47.1689 8.52734H44.8545L41.5 18.5249H43.4995ZM46.0044 10.439L47.2275 14.4819H44.6934L45.9165 10.439H46.0044Z" fill="#323232"/>
<path d="M56.2656 18.6274C56.876 18.6274 57.3984 18.4883 57.833 18.21C58.2725 17.9316 58.6069 17.5337 58.8364 17.0161C59.0708 16.4985 59.188 15.8809 59.188 15.1631V14.1084C59.188 13.3857 59.0732 12.7681 58.8438 12.2554C58.6143 11.7378 58.2822 11.3423 57.8477 11.0688C57.418 10.7905 56.9004 10.6514 56.2949 10.6514C56.0215 10.6514 55.7651 10.6831 55.5259 10.7466C55.2866 10.8052 55.0669 10.8931 54.8667 11.0103C54.6714 11.1226 54.5029 11.2617 54.3613 11.4277C54.2197 11.5889 54.1099 11.7744 54.0317 11.9844H53.9292V10.7466H52.0322V21.103H53.9658V17.3384H54.061C54.1782 17.6118 54.3418 17.8438 54.5518 18.0342C54.7617 18.2246 55.0107 18.3711 55.2988 18.4736C55.5918 18.5762 55.9141 18.6274 56.2656 18.6274ZM55.6138 17.0894C55.2866 17.0894 54.9985 17.0112 54.7495 16.855C54.5005 16.6987 54.3076 16.4766 54.1709 16.1885C54.0342 15.9004 53.9658 15.5684 53.9658 15.1924V14.1816C53.9658 13.7715 54.0317 13.4175 54.1636 13.1196C54.2954 12.8218 54.4834 12.5923 54.7275 12.4312C54.9717 12.27 55.2598 12.1895 55.5918 12.1895C55.9385 12.1895 56.2314 12.2725 56.4707 12.4385C56.7148 12.6045 56.9004 12.8462 57.0273 13.1636C57.1543 13.4761 57.2178 13.8569 57.2178 14.3062V14.98C57.2178 15.4243 57.1543 15.8052 57.0273 16.1226C56.9004 16.4351 56.7173 16.6743 56.478 16.8403C56.2437 17.0063 55.9556 17.0894 55.6138 17.0894Z" fill="#323232"/>
<path d="M65.3916 18.6274C66.002 18.6274 66.5244 18.4883 66.959 18.21C67.3984 17.9316 67.7329 17.5337 67.9624 17.0161C68.1968 16.4985 68.314 15.8809 68.314 15.1631V14.1084C68.314 13.3857 68.1992 12.7681 67.9697 12.2554C67.7402 11.7378 67.4082 11.3423 66.9736 11.0688C66.5439 10.7905 66.0264 10.6514 65.4209 10.6514C65.1475 10.6514 64.8911 10.6831 64.6519 10.7466C64.4126 10.8052 64.1929 10.8931 63.9927 11.0103C63.7974 11.1226 63.6289 11.2617 63.4873 11.4277C63.3457 11.5889 63.2358 11.7744 63.1577 11.9844H63.0552V10.7466H61.1582V21.103H63.0918V17.3384H63.187C63.3042 17.6118 63.4678 17.8438 63.6777 18.0342C63.8877 18.2246 64.1367 18.3711 64.4248 18.4736C64.7178 18.5762 65.04 18.6274 65.3916 18.6274ZM64.7397 17.0894C64.4126 17.0894 64.1245 17.0112 63.8755 16.855C63.6265 16.6987 63.4336 16.4766 63.2969 16.1885C63.1602 15.9004 63.0918 15.5684 63.0918 15.1924V14.1816C63.0918 13.7715 63.1577 13.4175 63.2896 13.1196C63.4214 12.8218 63.6094 12.5923 63.8535 12.4312C64.0977 12.27 64.3857 12.1895 64.7178 12.1895C65.0645 12.1895 65.3574 12.2725 65.5967 12.4385C65.8408 12.6045 66.0264 12.8462 66.1533 13.1636C66.2803 13.4761 66.3438 13.8569 66.3438 14.3062V14.98C66.3438 15.4243 66.2803 15.8052 66.1533 16.1226C66.0264 16.4351 65.8433 16.6743 65.604 16.8403C65.3696 17.0063 65.0815 17.0894 64.7397 17.0894Z" fill="#323232"/>
<path d="M81.5195 11.5229C81.4756 11.0835 81.3584 10.6733 81.168 10.2925C80.9775 9.90674 80.7163 9.56738 80.3843 9.27441C80.0522 8.98145 79.6519 8.75195 79.1831 8.58594C78.7192 8.41992 78.1895 8.33691 77.5938 8.33691C76.6904 8.33691 75.9189 8.52734 75.2793 8.9082C74.6445 9.28418 74.1587 9.81152 73.8218 10.4902C73.4897 11.1689 73.3237 11.96 73.3237 12.8633V14.1304C73.3237 14.8091 73.4116 15.4292 73.5874 15.9907C73.7632 16.5522 74.0293 17.0356 74.3857 17.4409C74.7422 17.8462 75.1865 18.1611 75.7188 18.3857C76.2559 18.6055 76.8833 18.7153 77.6011 18.7153C78.27 18.7153 78.8511 18.6226 79.3442 18.437C79.8423 18.2466 80.2549 17.9854 80.582 17.6533C80.9092 17.3213 81.1533 16.9404 81.3145 16.5107C81.4756 16.0762 81.5562 15.6172 81.5562 15.1338V13.1416H77.6157V14.6138H79.6738V15.251C79.6738 15.583 79.5981 15.8857 79.4468 16.1592C79.2954 16.4326 79.0684 16.6523 78.7656 16.8184C78.4629 16.9795 78.082 17.0601 77.623 17.0601C77.1006 17.0601 76.6685 16.938 76.3267 16.6938C75.9849 16.4448 75.731 16.1006 75.5649 15.6611C75.4038 15.2217 75.3232 14.709 75.3232 14.123V12.8779C75.3232 11.9648 75.5186 11.2568 75.9092 10.7539C76.3047 10.251 76.8589 9.99951 77.5718 9.99951C77.8452 9.99951 78.0942 10.0361 78.3188 10.1094C78.5483 10.1826 78.7461 10.2876 78.9121 10.4243C79.083 10.5562 79.2246 10.7148 79.3369 10.9004C79.4492 11.0859 79.5298 11.2935 79.5786 11.5229H81.5195Z" fill="#323232"/>
<path d="M85.8701 18.6421C86.2559 18.6421 86.5854 18.5908 86.8589 18.4883C87.1372 18.3809 87.3667 18.2441 87.5474 18.0781C87.7329 17.9072 87.877 17.7266 87.9795 17.5361H88.0674V18.5249H89.8911V13.3027C89.8911 12.6436 89.7471 12.1187 89.459 11.728C89.1758 11.3374 88.7949 11.0566 88.3164 10.8857C87.8379 10.7148 87.3081 10.6294 86.7271 10.6294C86.1948 10.6294 85.7358 10.6904 85.3501 10.8125C84.9644 10.9297 84.647 11.0933 84.3979 11.3032C84.1489 11.5132 83.9585 11.7573 83.8267 12.0356C83.6997 12.314 83.624 12.6118 83.5996 12.9292H85.4233C85.4575 12.7681 85.5234 12.6265 85.6211 12.5044C85.7188 12.3774 85.853 12.2798 86.0239 12.2114C86.1997 12.1382 86.4194 12.1016 86.6831 12.1016C87.0786 12.1016 87.3936 12.1968 87.6279 12.3872C87.8623 12.5776 87.9795 12.8682 87.9795 13.2588V13.9546H86.0825C85.1792 13.9546 84.4907 14.167 84.0171 14.5918C83.5483 15.0117 83.314 15.5708 83.314 16.269C83.314 17.0015 83.5508 17.5801 84.0244 18.0049C84.498 18.4297 85.1133 18.6421 85.8701 18.6421ZM86.5 17.2212C86.1729 17.2212 85.8799 17.1333 85.6211 16.9575C85.3623 16.7817 85.2329 16.5107 85.2329 16.1445C85.2329 15.8467 85.3354 15.6025 85.5405 15.4121C85.7456 15.2168 86.063 15.1191 86.4927 15.1191H87.9795V15.9248C87.9795 16.1738 87.9111 16.396 87.7744 16.5913C87.6426 16.7866 87.4644 16.9404 87.2397 17.0527C87.02 17.165 86.7734 17.2212 86.5 17.2212Z" fill="#323232"/>
<path d="M92.1909 18.5249H94.1245V8H92.1909V18.5249Z" fill="#323232"/>
<path d="M96.5269 18.5249H98.4604V8H96.5269V18.5249Z" fill="#323232"/>
<path d="M103.968 18.6641C104.525 18.6641 105.003 18.5884 105.404 18.437C105.804 18.2856 106.134 18.0903 106.393 17.8511C106.656 17.6118 106.856 17.3579 106.993 17.0894C107.13 16.8159 107.208 16.5571 107.228 16.313H105.396C105.372 16.4741 105.294 16.6206 105.162 16.7524C105.035 16.8843 104.869 16.9893 104.664 17.0674C104.459 17.1406 104.225 17.1772 103.961 17.1772C103.458 17.1772 103.058 17.0137 102.76 16.6865C102.462 16.3594 102.313 15.9419 102.313 15.4341V15.0679H107.301V14.1743C107.301 13.4419 107.154 12.8096 106.861 12.2773C106.568 11.7451 106.166 11.335 105.653 11.0469C105.14 10.7588 104.547 10.6147 103.873 10.6147C103.229 10.6147 102.645 10.7515 102.123 11.0249C101.6 11.2983 101.185 11.7012 100.877 12.2334C100.575 12.7607 100.423 13.4077 100.423 14.1743V15.0972C100.423 15.8589 100.567 16.5059 100.855 17.0381C101.148 17.5703 101.561 17.9756 102.093 18.2539C102.625 18.5273 103.25 18.6641 103.968 18.6641ZM102.313 13.896C102.313 13.8813 102.313 13.8691 102.313 13.8594C102.313 13.8447 102.313 13.8301 102.313 13.8154C102.313 13.4639 102.379 13.1587 102.511 12.8999C102.643 12.6362 102.826 12.4312 103.06 12.2847C103.294 12.1382 103.568 12.0649 103.88 12.0649C104.193 12.0649 104.464 12.1382 104.693 12.2847C104.928 12.4312 105.108 12.6362 105.235 12.8999C105.367 13.1587 105.433 13.4639 105.433 13.8154C105.433 13.8301 105.433 13.8447 105.433 13.8594C105.433 13.8691 105.433 13.8813 105.433 13.896H102.313Z" fill="#323232"/>
<path d="M109.293 18.5249H111.263V14.0791C111.263 13.7275 111.329 13.4175 111.461 13.1489C111.598 12.8804 111.803 12.6704 112.076 12.519C112.354 12.3677 112.704 12.292 113.124 12.292C113.275 12.292 113.421 12.2993 113.563 12.314C113.705 12.3237 113.812 12.3384 113.885 12.3579V10.688C113.812 10.6733 113.724 10.6611 113.622 10.6514C113.519 10.6416 113.404 10.6367 113.277 10.6367C112.867 10.6367 112.525 10.7124 112.252 10.8638C111.983 11.0103 111.773 11.186 111.622 11.3911C111.471 11.5962 111.368 11.7891 111.314 11.9697H111.219V10.7539H109.293V18.5249Z" fill="#323232"/>
<path d="M122.44 10.7539H120.396L118.712 16.8623H118.631L116.976 10.7539H114.845L117.54 18.5396L117.489 18.7446C117.416 19.1255 117.264 19.3989 117.035 19.5649C116.81 19.731 116.478 19.814 116.039 19.814C115.936 19.814 115.821 19.8091 115.694 19.7993C115.572 19.7896 115.479 19.7798 115.416 19.77V21.1689C115.528 21.1934 115.685 21.2129 115.885 21.2275C116.085 21.2422 116.271 21.2495 116.441 21.2495C117.271 21.2495 117.94 21.0566 118.448 20.6709C118.961 20.29 119.383 19.6553 119.715 18.7666L119.891 18.3052C120.028 17.9243 120.187 17.4702 120.367 16.9429C120.548 16.4106 120.748 15.8198 120.968 15.1704C121.188 14.521 121.419 13.8252 121.664 13.083C121.913 12.3359 122.171 11.5596 122.44 10.7539Z" fill="#323232"/>
<defs>
<linearGradient id="paint0_linear_1453_95521" x1="20.4999" y1="34.0005" x2="20.4999" y2="6.00003" gradientUnits="userSpaceOnUse">
<stop offset="0.44" stop-color="#D4313E"/>
<stop offset="0.57" stop-color="#E2455C"/>
</linearGradient>
<clipPath id="clip0_1453_95521">
<rect width="28" height="28" fill="white" transform="translate(6.5 6)"/>
</clipPath>
</defs>
</svg>
