<svg width="136" height="40" viewBox="0 0 136 40" fill="none" xmlns="http://www.w3.org/2000/svg">
<path d="M124.749 0.00013H11.2566C10.8429 0.00013 10.4342 0.00013 10.0216 0.00213C9.67621 0.00413 9.33358 0.00994 8.98488 0.01483C8.22734 0.0227318 7.47157 0.0818063 6.72416 0.19154C5.9778 0.303663 5.25482 0.515046 4.57967 0.81854C3.90534 1.1246 3.2892 1.5223 2.75358 1.9972C2.21514 2.47077 1.76632 3.01815 1.42436 3.61829C1.08145 4.21724 0.843683 4.85907 0.719258 5.52161C0.593649 6.18332 0.526059 6.85265 0.517092 7.52361C0.506622 7.83021 0.505517 8.13783 0.5 8.44447V31.5587C0.505517 31.8692 0.506622 32.17 0.517092 32.4806C0.526061 33.1516 0.593652 33.8209 0.719258 34.4825C0.843339 35.1455 1.08112 35.7877 1.42436 36.3868C1.76616 36.985 2.21505 37.5302 2.75358 38.0011C3.28717 38.4781 3.90371 38.8761 4.57967 39.1798C5.25481 39.4841 5.97772 39.6968 6.72416 39.8106C7.4717 39.9195 8.22738 39.9786 8.98488 39.9874C9.33358 39.9942 9.67621 39.9981 10.0216 39.9981C10.4342 40.0001 10.843 40.0001 11.2566 40.0001H124.749C125.155 40.0001 125.567 40.0001 125.972 39.9981C126.316 39.9981 126.669 39.9942 127.012 39.9874C127.768 39.9791 128.523 39.92 129.269 39.8106C130.018 39.696 130.743 39.4834 131.421 39.1798C132.097 38.8759 132.713 38.478 133.246 38.0011C133.783 37.5284 134.233 36.9836 134.579 36.3868C134.92 35.7872 135.155 35.1451 135.277 34.4825C135.403 33.8208 135.473 33.1516 135.487 32.4806C135.491 32.17 135.491 31.8692 135.491 31.5587C135.5 31.1954 135.5 30.8341 135.5 30.4649V9.53626C135.5 9.17005 135.5 8.80677 135.491 8.44447C135.491 8.13783 135.491 7.83021 135.487 7.52357C135.473 6.85255 135.403 6.18337 135.277 5.52157C135.155 4.85941 134.919 4.21763 134.579 3.61825C133.883 2.41533 132.778 1.43616 131.421 0.81845C130.743 0.515697 130.018 0.30437 129.269 0.19145C128.523 0.0812328 127.769 0.0221378 127.012 0.01469C126.669 0.00981 126.316 0.00395 125.972 0.002C125.567 0 125.155 0 124.749 0V0.00013Z" fill="#BED1FF"/>
<path d="M10.0276 39.125C9.68383 39.125 9.34841 39.1211 9.00738 39.1143C8.30091 39.1061 7.59608 39.0516 6.89869 38.9512C6.24841 38.8519 5.61847 38.6673 5.02963 38.4033C4.44619 38.1415 3.91405 37.7983 3.45359 37.3867C2.98647 36.98 2.59757 36.5082 2.3023 35.9902C2.00377 35.4688 1.79718 34.9099 1.68971 34.333C1.57365 33.7131 1.51085 33.0863 1.50187 32.458C1.49472 32.2471 1.48535 31.5449 1.48535 31.5449V8.44434C1.48535 8.44434 1.49532 7.75293 1.50192 7.5498C1.51053 6.92248 1.57296 6.29665 1.68867 5.67773C1.79634 5.09925 2.00309 4.53875 2.30178 4.01563C2.59596 3.49794 2.9827 3.02586 3.44702 2.61768C3.9108 2.20562 4.44465 1.8606 5.02908 1.59521C5.61656 1.33209 6.24532 1.14873 6.89428 1.05127C7.59396 0.949836 8.30123 0.894996 9.01016 0.88721L10.0281 0.875H125.967L126.997 0.8877C127.7 0.895099 128.401 0.94945 129.094 1.05029C129.75 1.14898 130.385 1.33362 130.979 1.59814C132.15 2.13299 133.103 2.97916 133.704 4.01807C133.997 4.53758 134.201 5.09351 134.307 5.66699C134.424 6.29099 134.49 6.92174 134.503 7.5542C134.507 7.8374 134.507 8.1416 134.507 8.44434C134.516 8.81934 134.516 9.17627 134.516 9.53613V30.4648C134.516 30.8281 134.516 31.1826 134.507 31.54C134.507 31.8652 134.507 32.1631 134.502 32.4697C134.489 33.0909 134.425 33.7104 134.309 34.3232C134.204 34.9043 133.999 35.4675 133.7 35.9932C133.403 36.5056 133.016 36.9733 132.555 37.3789C132.094 37.7927 131.561 38.1379 130.976 38.4014C130.383 38.6674 129.749 38.8527 129.094 38.9512C128.397 39.0522 127.692 39.1067 126.985 39.1143C126.655 39.1211 126.309 39.125 125.973 39.125L124.75 39.127L10.0276 39.125Z" fill="#F8FAFF"/>
<path d="M25.269 20.3013C25.2797 19.4666 25.5014 18.6483 25.9135 17.9223C26.3255 17.1964 26.9145 16.5864 27.6256 16.1492C27.1738 15.5041 26.5779 14.9731 25.885 14.5986C25.1922 14.224 24.4216 14.0162 23.6344 13.9916C21.9552 13.8153 20.3272 14.9964 19.4715 14.9964C18.5992 14.9964 17.2817 14.0091 15.863 14.0383C14.9453 14.0679 14.051 14.3348 13.2671 14.8128C12.4832 15.2909 11.8365 15.9638 11.3901 16.7661C9.45607 20.1145 10.8987 25.0356 12.7513 27.7422C13.6782 29.0676 14.7615 30.548 16.1789 30.4955C17.566 30.438 18.084 29.611 19.7583 29.611C21.4171 29.611 21.9031 30.4955 23.3493 30.4621C24.8377 30.438 25.7754 29.1309 26.6698 27.793C27.3358 26.8486 27.8483 25.8049 28.1882 24.7005C27.3235 24.3347 26.5856 23.7226 26.0665 22.9403C25.5474 22.158 25.27 21.2402 25.269 20.3013V20.3013Z" fill="#323232"/>
<path d="M22.5373 12.2113C23.3489 11.2371 23.7487 9.98494 23.6518 8.7207C22.412 8.85092 21.2668 9.44348 20.4443 10.3803C20.0421 10.838 19.7341 11.3704 19.5379 11.9472C19.3416 12.524 19.261 13.1337 19.3006 13.7417C19.9207 13.7481 20.5342 13.6137 21.0949 13.3486C21.6555 13.0835 22.1487 12.6946 22.5373 12.2113Z" fill="#323232"/>
<path d="M42.375 27.1402H37.6416L36.5049 30.4966H34.5L38.9834 18.0786H41.0664L45.5498 30.4966H43.5107L42.375 27.1402ZM38.1318 25.5913H41.8838L40.0342 20.1441H39.9825L38.1318 25.5913Z" fill="#323232"/>
<path d="M55.2325 25.9704C55.2325 28.7839 53.7266 30.5915 51.4541 30.5915C50.8785 30.6216 50.306 30.489 49.8022 30.2089C49.2984 29.9288 48.8837 29.5124 48.6055 29.0075H48.5625V33.4919H46.7041V21.4431H48.503V22.9489H48.5371C48.8281 22.4465 49.2498 22.0323 49.7575 21.7504C50.2651 21.4686 50.8396 21.3296 51.42 21.3483C53.7178 21.3484 55.2325 23.1648 55.2325 25.9704ZM53.3223 25.9704C53.3223 24.1374 52.375 22.9323 50.9297 22.9323C49.5098 22.9323 48.5547 24.1628 48.5547 25.9704C48.5547 27.7946 49.5098 29.0163 50.9297 29.0163C52.375 29.0163 53.3223 27.82 53.3223 25.9704Z" fill="#323232"/>
<path d="M65.1973 25.9704C65.1973 28.7839 63.6914 30.5915 61.419 30.5915C60.8433 30.6216 60.2708 30.489 59.767 30.2089C59.2632 29.9287 58.8485 29.5124 58.5703 29.0075H58.5273V33.4919H56.6689V21.4431H58.4678V22.9489H58.5019C58.7929 22.4465 59.2146 22.0323 59.7223 21.7504C60.2299 21.4686 60.8044 21.3296 61.3848 21.3483C63.6826 21.3483 65.1973 23.1647 65.1973 25.9704ZM63.2871 25.9704C63.2871 24.1374 62.3399 22.9323 60.8946 22.9323C59.4746 22.9323 58.5196 24.1628 58.5196 25.9704C58.5196 27.7946 59.4746 29.0163 60.8946 29.0163C62.3399 29.0163 63.2871 27.82 63.2871 25.9704H63.2871Z" fill="#323232"/>
<path d="M71.7832 27.0367C71.9209 28.2681 73.1172 29.0767 74.752 29.0767C76.3184 29.0767 77.4453 28.2681 77.4453 27.1577C77.4453 26.1939 76.7657 25.6167 75.1563 25.2212L73.5469 24.8335C71.2666 24.2827 70.208 23.2163 70.208 21.4858C70.208 19.3433 72.0752 17.8716 74.7266 17.8716C77.3506 17.8716 79.1494 19.3433 79.21 21.4858H77.334C77.2217 20.2466 76.1973 19.4985 74.7002 19.4985C73.2031 19.4985 72.1787 20.2554 72.1787 21.3569C72.1787 22.2349 72.833 22.7515 74.4336 23.1469L75.8018 23.4829C78.3496 24.0854 79.4082 25.1089 79.4082 26.9253C79.4082 29.2485 77.5576 30.7036 74.6143 30.7036C71.8603 30.7036 70.001 29.2827 69.8809 27.0366L71.7832 27.0367Z" fill="#323232"/>
<path d="M83.4189 19.3003V21.4429H85.1406V22.9146H83.4189V27.9058C83.4189 28.6812 83.7637 29.0425 84.5205 29.0425C84.7249 29.0389 84.929 29.0246 85.1318 28.9995V30.4624C84.7916 30.526 84.4457 30.5547 84.0996 30.5483C82.2666 30.5483 81.5518 29.8598 81.5518 28.104V22.9146H80.2354V21.4429H81.5517V19.3003H83.4189Z" fill="#323232"/>
<path d="M86.1377 25.9702C86.1377 23.1216 87.8154 21.3315 90.4316 21.3315C93.0566 21.3315 94.7266 23.1215 94.7266 25.9702C94.7266 28.8267 93.0654 30.6089 90.4316 30.6089C87.7988 30.6089 86.1377 28.8267 86.1377 25.9702ZM92.833 25.9702C92.833 24.0161 91.9375 22.8628 90.4316 22.8628C88.9258 22.8628 88.0312 24.0249 88.0312 25.9702C88.0312 27.9321 88.9258 29.0767 90.4316 29.0767C91.9375 29.0767 92.833 27.9321 92.833 25.9702H92.833Z" fill="#323232"/>
<path d="M96.2588 21.4429H98.0313V22.9839H98.0743C98.1942 22.5026 98.4761 22.0773 98.8727 21.7794C99.2693 21.4815 99.7564 21.3292 100.252 21.3481C100.466 21.3474 100.68 21.3706 100.889 21.4175V23.1558C100.618 23.0731 100.336 23.0352 100.054 23.0435C99.7837 23.0325 99.5146 23.0801 99.2647 23.183C99.0149 23.2859 98.7903 23.4416 98.6063 23.6395C98.4223 23.8374 98.2834 24.0727 98.1989 24.3294C98.1145 24.5861 98.0866 24.858 98.1172 25.1265V30.4966H96.2588L96.2588 21.4429Z" fill="#323232"/>
<path d="M109.457 27.8374C109.207 29.481 107.606 30.6089 105.559 30.6089C102.925 30.6089 101.29 28.8442 101.29 26.0132C101.29 23.1733 102.934 21.3315 105.48 21.3315C107.985 21.3315 109.561 23.0522 109.561 25.7974V26.4341H103.166V26.5464C103.137 26.8796 103.178 27.2152 103.288 27.5311C103.399 27.8469 103.575 28.1357 103.805 28.3783C104.035 28.6208 104.315 28.8116 104.624 28.9379C104.934 29.0642 105.267 29.1231 105.602 29.1108C106.041 29.152 106.481 29.0503 106.858 28.8208C107.235 28.5914 107.527 28.2465 107.692 27.8374L109.457 27.8374ZM103.175 25.1353H107.701C107.718 24.8357 107.672 24.5358 107.568 24.2546C107.463 23.9734 107.301 23.7169 107.093 23.5011C106.884 23.2854 106.633 23.115 106.356 23.0008C106.079 22.8866 105.78 22.831 105.48 22.8374C105.178 22.8356 104.878 22.8937 104.598 23.0085C104.318 23.1232 104.063 23.2923 103.849 23.5059C103.634 23.7196 103.465 23.9735 103.349 24.2532C103.233 24.5328 103.174 24.8326 103.175 25.1353V25.1353Z" fill="#323232"/>
<path d="M40.0327 14V8.00146H39.0352V10.4932H36.2886V8.00146H35.291V14H36.2886V11.3413H39.0352V14H40.0327ZM43.3945 14.0791C43.708 14.0791 43.979 14.0366 44.2075 13.9517C44.439 13.8667 44.6294 13.7583 44.7788 13.6265C44.9312 13.4917 45.0469 13.3481 45.126 13.1958C45.208 13.0435 45.2563 12.8999 45.271 12.7651H44.3174C44.2939 12.8618 44.2412 12.9512 44.1592 13.0332C44.0801 13.1123 43.9746 13.1768 43.8428 13.2266C43.7109 13.2734 43.5601 13.2969 43.3901 13.2969C43.0474 13.2969 42.7808 13.187 42.5903 12.9673C42.4028 12.7446 42.3091 12.4678 42.3091 12.1367V11.9082H45.3237V11.3633C45.3237 10.9355 45.2388 10.5664 45.0688 10.2559C44.8989 9.94531 44.6646 9.70508 44.3657 9.53516C44.0698 9.3623 43.7271 9.27588 43.3374 9.27588C42.9595 9.27588 42.6196 9.35938 42.3179 9.52637C42.019 9.69043 41.7817 9.92773 41.606 10.2383C41.4302 10.5488 41.3423 10.9238 41.3423 11.3633V11.9917C41.3423 12.4282 41.4258 12.8032 41.5928 13.1167C41.7598 13.4272 41.9971 13.666 42.3047 13.833C42.6123 13.9971 42.9756 14.0791 43.3945 14.0791ZM42.3091 11.271C42.3091 11.2622 42.3091 11.2534 42.3091 11.2446C42.3091 11.2329 42.3091 11.2212 42.3091 11.2095C42.3091 10.9751 42.3516 10.7715 42.4365 10.5986C42.5215 10.4229 42.6416 10.2866 42.7969 10.1899C42.9521 10.0933 43.1338 10.0449 43.3418 10.0449C43.5498 10.0449 43.73 10.0933 43.8823 10.1899C44.0376 10.2866 44.1577 10.4229 44.2427 10.5986C44.3276 10.7715 44.3701 10.9751 44.3701 11.2095C44.3701 11.2212 44.3701 11.2329 44.3701 11.2446C44.3701 11.2534 44.3701 11.2622 44.3701 11.271H42.3091ZM46.5542 14H47.5298V11.1084C47.5298 10.9004 47.5693 10.7217 47.6484 10.5723C47.7275 10.4229 47.8359 10.3071 47.9736 10.2251C48.1113 10.1431 48.2681 10.1021 48.4438 10.1021C48.6226 10.1021 48.7778 10.1401 48.9097 10.2163C49.0444 10.2925 49.1499 10.4023 49.2261 10.5459C49.3022 10.6865 49.3403 10.8579 49.3403 11.0601V14H50.2896V11.1172C50.2896 10.9121 50.3306 10.7334 50.4126 10.5811C50.4946 10.4287 50.606 10.3115 50.7466 10.2295C50.8872 10.1445 51.0439 10.1021 51.2168 10.1021C51.4043 10.1021 51.5625 10.1387 51.6914 10.2119C51.8232 10.2852 51.9243 10.3921 51.9946 10.5327C52.0649 10.6704 52.1001 10.8374 52.1001 11.0337V14H53.0713V10.7437C53.0713 10.2866 52.938 9.9292 52.6714 9.67139C52.4048 9.41357 52.0342 9.28467 51.5596 9.28467C51.2959 9.28467 51.0688 9.32715 50.8784 9.41211C50.6909 9.49414 50.5371 9.60254 50.417 9.7373C50.2969 9.86914 50.2075 10.0083 50.1489 10.1548H50.1094C50.0596 9.99072 49.979 9.84277 49.8677 9.71094C49.7563 9.5791 49.6128 9.4751 49.437 9.39893C49.2642 9.32275 49.0605 9.28467 48.8262 9.28467C48.542 9.28467 48.3135 9.33008 48.1406 9.4209C47.9707 9.51172 47.8403 9.62158 47.7495 9.75049C47.6616 9.87646 47.5986 9.99658 47.5605 10.1108H47.5122V9.35498H46.5542V14ZM56.3496 14.0791C56.6631 14.0791 56.9341 14.0366 57.1626 13.9517C57.394 13.8667 57.5845 13.7583 57.7339 13.6265C57.8862 13.4917 58.002 13.3481 58.0811 13.1958C58.1631 13.0435 58.2114 12.8999 58.2261 12.7651H57.2725C57.249 12.8618 57.1963 12.9512 57.1143 13.0332C57.0352 13.1123 56.9297 13.1768 56.7979 13.2266C56.666 13.2734 56.5151 13.2969 56.3452 13.2969C56.0024 13.2969 55.7358 13.187 55.5454 12.9673C55.3579 12.7446 55.2642 12.4678 55.2642 12.1367V11.9082H58.2788V11.3633C58.2788 10.9355 58.1938 10.5664 58.0239 10.2559C57.854 9.94531 57.6196 9.70508 57.3208 9.53516C57.0249 9.3623 56.6821 9.27588 56.2925 9.27588C55.9146 9.27588 55.5747 9.35938 55.2729 9.52637C54.9741 9.69043 54.7368 9.92773 54.561 10.2383C54.3853 10.5488 54.2974 10.9238 54.2974 11.3633V11.9917C54.2974 12.4282 54.3809 12.8032 54.5479 13.1167C54.7148 13.4272 54.9521 13.666 55.2598 13.833C55.5674 13.9971 55.9307 14.0791 56.3496 14.0791ZM55.2642 11.271C55.2642 11.2622 55.2642 11.2534 55.2642 11.2446C55.2642 11.2329 55.2642 11.2212 55.2642 11.2095C55.2642 10.9751 55.3066 10.7715 55.3916 10.5986C55.4766 10.4229 55.5967 10.2866 55.752 10.1899C55.9072 10.0933 56.0889 10.0449 56.2969 10.0449C56.5049 10.0449 56.6851 10.0933 56.8374 10.1899C56.9927 10.2866 57.1128 10.4229 57.1978 10.5986C57.2827 10.7715 57.3252 10.9751 57.3252 11.2095C57.3252 11.2212 57.3252 11.2329 57.3252 11.2446C57.3252 11.2534 57.3252 11.2622 57.3252 11.271H55.2642ZM59.5093 14H60.4849V11.4204C60.4849 11.1685 60.5259 10.9443 60.6079 10.748C60.6929 10.5518 60.8159 10.3979 60.9771 10.2866C61.1411 10.1724 61.3418 10.1152 61.5791 10.1152C61.7637 10.1152 61.9248 10.1533 62.0625 10.2295C62.2002 10.3027 62.3071 10.4155 62.3833 10.5679C62.4624 10.7173 62.502 10.9106 62.502 11.1479V14H63.4775V10.8623C63.4775 10.332 63.3325 9.93652 63.0425 9.67578C62.7554 9.41504 62.3789 9.28467 61.9131 9.28467C61.5996 9.28467 61.3477 9.33447 61.1572 9.43408C60.9668 9.53369 60.8218 9.65381 60.7222 9.79443C60.6255 9.93506 60.5566 10.0669 60.5156 10.1899H60.4673V9.35498H59.5093V14ZM67.0459 14H68.0171V9.35498H67.0459V14ZM66.8877 7.95752C66.8877 8.13037 66.9478 8.27246 67.0679 8.38379C67.188 8.49219 67.3403 8.54639 67.5249 8.54639C67.7183 8.54639 67.875 8.49219 67.9951 8.38379C68.1182 8.27246 68.1797 8.13037 68.1797 7.95752C68.1797 7.78174 68.1182 7.63818 67.9951 7.52686C67.875 7.41553 67.7183 7.35986 67.5249 7.35986C67.3403 7.35986 67.188 7.41553 67.0679 7.52686C66.9478 7.63818 66.8877 7.78174 66.8877 7.95752ZM69.5903 14H70.5659V11.4204C70.5659 11.1685 70.6069 10.9443 70.689 10.748C70.7739 10.5518 70.897 10.3979 71.0581 10.2866C71.2222 10.1724 71.4229 10.1152 71.6602 10.1152C71.8447 10.1152 72.0059 10.1533 72.1436 10.2295C72.2812 10.3027 72.3882 10.4155 72.4644 10.5679C72.5435 10.7173 72.583 10.9106 72.583 11.1479V14H73.5586V10.8623C73.5586 10.332 73.4136 9.93652 73.1235 9.67578C72.8364 9.41504 72.46 9.28467 71.9941 9.28467C71.6807 9.28467 71.4287 9.33447 71.2383 9.43408C71.0479 9.53369 70.9028 9.65381 70.8032 9.79443C70.7065 9.93506 70.6377 10.0669 70.5967 10.1899H70.5483V9.35498H69.5903V14ZM76.5645 9.29346C76.21 9.29346 75.8994 9.37402 75.6328 9.53516C75.3662 9.69629 75.1582 9.9248 75.0088 10.2207C74.8623 10.5166 74.7891 10.8696 74.7891 11.2798V12.0752C74.7891 12.4824 74.8608 12.8354 75.0044 13.1343C75.1509 13.4331 75.356 13.6631 75.6196 13.8242C75.8833 13.9824 76.1938 14.0615 76.5513 14.0615C76.7212 14.0615 76.8809 14.041 77.0303 14C77.1797 13.9619 77.3159 13.9077 77.439 13.8374C77.562 13.7671 77.666 13.6836 77.751 13.5869C77.8359 13.4873 77.8945 13.3774 77.9268 13.2573H77.9751V14H78.9243V7.68506H77.9487V10.0537H77.9004C77.8418 9.89551 77.748 9.75928 77.6191 9.64502C77.4932 9.53076 77.3408 9.44434 77.1621 9.38574C76.9834 9.32422 76.7842 9.29346 76.5645 9.29346ZM76.8369 10.0933C77.0537 10.0933 77.2441 10.1431 77.4082 10.2427C77.5752 10.3423 77.707 10.4814 77.8037 10.6602C77.9004 10.8389 77.9487 11.0483 77.9487 11.2886V11.9917C77.9487 12.2554 77.9033 12.4824 77.8125 12.6729C77.7217 12.8604 77.5942 13.0054 77.4302 13.1079C77.269 13.2104 77.0786 13.2617 76.8589 13.2617C76.6362 13.2617 76.4443 13.2104 76.2832 13.1079C76.1221 13.0024 75.9976 12.8501 75.9097 12.6509C75.8247 12.4517 75.7822 12.2114 75.7822 11.9302V11.4204C75.7822 11.1392 75.8247 10.9004 75.9097 10.7041C75.9976 10.5049 76.1191 10.354 76.2744 10.2515C76.4326 10.146 76.6201 10.0933 76.8369 10.0933ZM80.5107 14H81.4819V9.35498H80.5107V14ZM80.3525 7.95752C80.3525 8.13037 80.4126 8.27246 80.5327 8.38379C80.6528 8.49219 80.8052 8.54639 80.9897 8.54639C81.1831 8.54639 81.3398 8.49219 81.46 8.38379C81.583 8.27246 81.6445 8.13037 81.6445 7.95752C81.6445 7.78174 81.583 7.63818 81.46 7.52686C81.3398 7.41553 81.1831 7.35986 80.9897 7.35986C80.8052 7.35986 80.6528 7.41553 80.5327 7.52686C80.4126 7.63818 80.3525 7.78174 80.3525 7.95752ZM83.1167 14H84.1055V11.2358C84.1055 11.0278 84.1479 10.8418 84.2329 10.6777C84.3179 10.5107 84.4468 10.3804 84.6196 10.2866C84.7925 10.1899 85.0093 10.1416 85.27 10.1416C85.3521 10.1416 85.4312 10.1445 85.5073 10.1504C85.5835 10.1562 85.6436 10.165 85.6875 10.1768V9.31543C85.6406 9.30664 85.5894 9.30078 85.5337 9.29785C85.481 9.29199 85.4224 9.28906 85.3579 9.28906C85.1001 9.28906 84.8877 9.33447 84.7207 9.42529C84.5537 9.51318 84.4233 9.61865 84.3296 9.7417C84.2388 9.86182 84.1758 9.97461 84.1406 10.0801H84.0879V9.35498H83.1167V14Z" fill="#323232"/>
</svg>
