<svg width="145" height="145" viewBox="0 0 145 145" fill="none" xmlns="http://www.w3.org/2000/svg">
<g clip-path="url(#clip0_850_57200)">
<g clip-path="url(#clip1_850_57200)">
<path d="M68 0H23V45H68V0Z" fill="#95D0E5"/>
<path d="M113 0H68V45H113V0Z" fill="#FFBE2E"/>
<path d="M68 0H113L90.4987 22.5012L68 0Z" fill="#1B1B5E"/>
<path d="M113 44.9997H68L90.4987 22.501L113 44.9997Z" fill="#1B1B5E"/>
<path d="M23 0H-22V45H23V0Z" fill="#FF750F"/>
<path d="M0.498747 44.9975C12.9245 44.9975 22.9975 34.9245 22.9975 22.4987C22.9975 10.073 12.9245 0 0.498747 0C-11.927 0 -22 10.073 -22 22.4987C-22 34.9245 -11.927 44.9975 0.498747 44.9975Z" fill="#1B1B5E"/>
<path d="M158 0H113V45H158V0Z" fill="#F4F4F4"/>
<path d="M118.625 0H113V22.5012H118.625V0Z" fill="#1B1B5E"/>
<path d="M129.875 0H124.25V22.5012H129.875V0Z" fill="#1B1B5E"/>
<path d="M141.123 0H135.498V22.5012H141.123V0Z" fill="#1B1B5E"/>
<path d="M124.25 22.501H118.625V44.9997H124.25V22.501Z" fill="#1B1B5E"/>
<path d="M135.5 22.501H129.875V44.9997H135.5V22.501Z" fill="#1B1B5E"/>
<path d="M146.75 22.501H141.125V44.9997H146.75V22.501Z" fill="#1B1B5E"/>
<path d="M113 45H68V90H113V45Z" fill="#F4F4F4"/>
<path d="M77.8353 57.485C79.2986 57.485 80.485 56.2986 80.485 54.8353C80.485 53.3719 79.2986 52.1855 77.8353 52.1855C76.3719 52.1855 75.1855 53.3719 75.1855 54.8353C75.1855 56.2986 76.3719 57.485 77.8353 57.485Z" fill="#FFBE2E"/>
<path d="M90.4974 57.485C91.9608 57.485 93.1471 56.2986 93.1471 54.8353C93.1471 53.3719 91.9608 52.1855 90.4974 52.1855C89.034 52.1855 87.8477 53.3719 87.8477 54.8353C87.8477 56.2986 89.034 57.485 90.4974 57.485Z" fill="#FFBE2E"/>
<path d="M103.163 57.485C104.627 57.485 105.813 56.2986 105.813 54.8353C105.813 53.3719 104.627 52.1855 103.163 52.1855C101.7 52.1855 100.514 53.3719 100.514 54.8353C100.514 56.2986 101.7 57.485 103.163 57.485Z" fill="#FFBE2E"/>
<path d="M77.8353 70.151C79.2986 70.151 80.485 68.9647 80.485 67.5013C80.485 66.0379 79.2986 64.8516 77.8353 64.8516C76.3719 64.8516 75.1855 66.0379 75.1855 67.5013C75.1855 68.9647 76.3719 70.151 77.8353 70.151Z" fill="#FFBE2E"/>
<path d="M90.4974 70.151C91.9608 70.151 93.1471 68.9647 93.1471 67.5013C93.1471 66.0379 91.9608 64.8516 90.4974 64.8516C89.034 64.8516 87.8477 66.0379 87.8477 67.5013C87.8477 68.9647 89.034 70.151 90.4974 70.151Z" fill="#FFBE2E"/>
<path d="M103.163 70.151C104.627 70.151 105.813 68.9647 105.813 67.5013C105.813 66.0379 104.627 64.8516 103.163 64.8516C101.7 64.8516 100.514 66.0379 100.514 67.5013C100.514 68.9647 101.7 70.151 103.163 70.151Z" fill="#FFBE2E"/>
<path d="M77.8353 82.8131C79.2986 82.8131 80.485 81.6268 80.485 80.1634C80.485 78.7 79.2986 77.5137 77.8353 77.5137C76.3719 77.5137 75.1855 78.7 75.1855 80.1634C75.1855 81.6268 76.3719 82.8131 77.8353 82.8131Z" fill="#FFBE2E"/>
<path d="M90.4974 82.8131C91.9608 82.8131 93.1471 81.6268 93.1471 80.1634C93.1471 78.7 91.9608 77.5137 90.4974 77.5137C89.034 77.5137 87.8477 78.7 87.8477 80.1634C87.8477 81.6268 89.034 82.8131 90.4974 82.8131Z" fill="#FFBE2E"/>
<path d="M103.163 82.8131C104.627 82.8131 105.813 81.6268 105.813 80.1634C105.813 78.7 104.627 77.5137 103.163 77.5137C101.7 77.5137 100.514 78.7 100.514 80.1634C100.514 81.6268 101.7 82.8131 103.163 82.8131Z" fill="#FFBE2E"/>
<path d="M158 45H113V90H158V45Z" fill="#FF750F"/>
<path d="M137.998 80.4874C145.168 79.1067 149.861 72.1749 148.481 65.0049C147.1 57.8349 140.168 53.1417 132.998 54.5224C125.828 55.9032 121.135 62.8349 122.516 70.005C123.896 77.175 130.828 81.8681 137.998 80.4874Z" fill="#1B1B5E"/>
<path d="M68 45H23V90H68V45Z" fill="#1B1B5E"/>
<path d="M68 45C43.1468 45 23 65.1468 23 90H68V45Z" fill="#FF750F"/>
<path d="M23 90H-22V135H23V90Z" fill="#FF750F"/>
<path d="M-22 135L23 90V135H-22Z" fill="#F4F4F4"/>
<path d="M23 135H-22V180H23V135Z" fill="#95D0E5"/>
<path d="M1.88559 139.609C1.88559 140.374 1.26507 140.995 0.499436 140.995C-0.266201 140.995 -0.886719 140.374 -0.886719 139.609C-0.886719 138.843 -0.266201 138.223 0.499436 138.223C1.26507 138.223 1.88559 138.843 1.88559 139.609Z" fill="#1B1B5E"/>
<path d="M7.68051 139.609C7.68051 140.374 7.06 140.995 6.29436 140.995C5.52872 140.995 4.9082 140.374 4.9082 139.609C4.9082 138.843 5.52872 138.223 6.29436 138.223C7.06 138.223 7.68051 138.843 7.68051 139.609Z" fill="#1B1B5E"/>
<path d="M13.4754 139.609C13.4754 140.374 12.8549 140.995 12.0893 140.995C11.3236 140.995 10.7031 140.374 10.7031 139.609C10.7031 138.843 11.3236 138.223 12.0893 138.223C12.8549 138.223 13.4754 138.843 13.4754 139.609Z" fill="#1B1B5E"/>
<path d="M19.2704 139.609C19.2704 140.374 18.6498 140.995 17.8842 140.995C17.1186 140.995 16.498 140.374 16.498 139.609C16.498 138.843 17.1186 138.223 17.8842 138.223C18.6498 138.223 19.2704 138.843 19.2704 139.609Z" fill="#1B1B5E"/>
<path d="M1.88559 145.574C1.88559 146.339 1.26507 146.96 0.499436 146.96C-0.266201 146.96 -0.886719 146.339 -0.886719 145.574C-0.886719 144.808 -0.266201 144.188 0.499436 144.188C1.26507 144.188 1.88559 144.808 1.88559 145.574Z" fill="#1B1B5E"/>
<path d="M6.29655 146.96C7.06211 146.96 7.68271 146.339 7.68271 145.574C7.68271 144.808 7.06211 144.188 6.29655 144.188C5.531 144.188 4.9104 144.808 4.9104 145.574C4.9104 146.339 5.531 146.96 6.29655 146.96Z" fill="#1B1B5E"/>
<path d="M13.4754 145.574C13.4754 146.339 12.8549 146.96 12.0893 146.96C11.3236 146.96 10.7031 146.339 10.7031 145.574C10.7031 144.808 11.3236 144.188 12.0893 144.188C12.8549 144.188 13.4754 144.808 13.4754 145.574Z" fill="#1B1B5E"/>
<path d="M19.2704 145.574C19.2704 146.339 18.6498 146.96 17.8842 146.96C17.1186 146.96 16.498 146.339 16.498 145.574C16.498 144.808 17.1186 144.188 17.8842 144.188C18.6498 144.188 19.2704 144.808 19.2704 145.574Z" fill="#1B1B5E"/>
<path d="M68 157.499H23L45.4987 135L68 157.499Z" fill="#1B1B5E"/>
<path d="M68 135H23V180H68V135Z" fill="#FF750F"/>
<path d="M68 157.499H23L45.4987 135L68 157.499Z" fill="#1B1B5E"/>
<path d="M158.002 135H113.002V180H158.002V135Z" fill="#F4F4F4"/>
<path d="M158.001 135H135.5V157.499H158.001V135Z" fill="#FF750F"/>
<path d="M158.002 90H113.002V135H158.002V90Z" fill="#1B1B5E"/>
<path d="M137.748 90H133.254V135H137.748V90Z" fill="#FFBE2E"/>
<path d="M125.072 90H120.578V135H125.072V90Z" fill="#FFBE2E"/>
<path d="M68 90H23V135H68V90Z" fill="#FFBE2E"/>
<path d="M29.4238 106.999L40.0001 96.4229V106.999H29.4238Z" fill="#FF750F"/>
<path d="M40.0002 106.999L50.5766 96.4229V106.999H40.0002Z" fill="#FF750F"/>
<path d="M50.5762 106.999L61.1525 96.4229V106.999H50.5762Z" fill="#FF750F"/>
<path d="M29.4238 117.575L40.0001 106.999V117.575H29.4238Z" fill="#FF750F"/>
<path d="M40.0002 117.575L50.5766 106.999V117.575H40.0002Z" fill="#FF750F"/>
<path d="M50.5762 117.575L61.1525 106.999V117.575H50.5762Z" fill="#FF750F"/>
<path d="M29.4238 128.152L40.0001 117.575V128.152H29.4238Z" fill="#FF750F"/>
<path d="M40.0002 128.152L50.5766 117.575V128.152H40.0002Z" fill="#FF750F"/>
<path d="M50.5762 128.152L61.1525 117.575V128.152H50.5762Z" fill="#FF750F"/>
<path d="M113.002 135H68.002V180H113.002V135Z" fill="#1B1B5E"/>
<path d="M113.002 135C113.002 147.425 102.929 157.499 90.5012 157.499C78.0734 157.499 68 147.425 68 135H113H113.002Z" fill="#95D0E5"/>
<path d="M113 90H68V135H113V90Z" fill="#95D0E5"/>
<path d="M68 135C68 122.575 78.0734 112.499 90.5012 112.499C102.929 112.499 113.002 122.572 113.002 135H68.0025H68Z" fill="#1B1B5E"/>
<path d="M23 45H-22V90H23V45Z" fill="#FFBE2E"/>
<path d="M23 90L0.501249 67.859L-22 90V67.1409L0.501249 45L23 67.1409V90Z" fill="#F4F4F4"/>
</g>
</g>
<defs>
<clipPath id="clip0_850_57200">
<rect width="145" height="145" rx="72.5" fill="white"/>
</clipPath>
<clipPath id="clip1_850_57200">
<rect width="225" height="180" fill="white" transform="translate(-22)"/>
</clipPath>
</defs>
</svg>
