<svg width="122" height="122" viewBox="0 0 122 122" fill="none" xmlns="http://www.w3.org/2000/svg">
<g clip-path="url(#clip0_850_57366)">
<g clip-path="url(#clip1_850_57366)">
<path d="M17.7999 -4H-39.6001V53.25H17.7999V-4Z" fill="#95D0E5"/>
<path d="M75.2 -4H17.8V53.25H75.2V-4Z" fill="#FFBE2E"/>
<path d="M17.8 -4H75.2L46.4984 24.6266L17.8 -4Z" fill="#1B1B5E"/>
<path d="M75.2 53.2504H17.8L46.4984 24.627L75.2 53.2504Z" fill="#1B1B5E"/>
<path d="M132.6 -4H75.2V53.25H132.6V-4Z" fill="#F4F4F4"/>
<path d="M82.3746 -4H75.2V24.6266H82.3746V-4Z" fill="#1B1B5E"/>
<path d="M96.7246 -4H89.55V24.6266H96.7246V-4Z" fill="#1B1B5E"/>
<path d="M111.072 -4H103.897V24.6266H111.072V-4Z" fill="#1B1B5E"/>
<path d="M125.425 -4H118.25V24.6266H125.425V-4Z" fill="#1B1B5E"/>
<path d="M89.5496 24.627H82.375V53.2504H89.5496V24.627Z" fill="#1B1B5E"/>
<path d="M103.899 24.627H96.7249V53.2504H103.899V24.627Z" fill="#1B1B5E"/>
<path d="M118.25 24.627H111.075V53.2504H118.25V24.627Z" fill="#1B1B5E"/>
<path d="M75.2 53.25H17.8V110.5H75.2V53.25Z" fill="#F4F4F4"/>
<path d="M30.3454 69.1346C32.2121 69.1346 33.7253 67.6254 33.7253 65.7636C33.7253 63.9018 32.2121 62.3926 30.3454 62.3926C28.4788 62.3926 26.9656 63.9018 26.9656 65.7636C26.9656 67.6254 28.4788 69.1346 30.3454 69.1346Z" fill="#FFBE2E"/>
<path d="M46.4965 69.1346C48.3632 69.1346 49.8764 67.6254 49.8764 65.7636C49.8764 63.9018 48.3632 62.3926 46.4965 62.3926C44.6299 62.3926 43.1167 63.9018 43.1167 65.7636C43.1167 67.6254 44.6299 69.1346 46.4965 69.1346Z" fill="#FFBE2E"/>
<path d="M62.6528 69.1346C64.5194 69.1346 66.0326 67.6254 66.0326 65.7636C66.0326 63.9018 64.5194 62.3926 62.6528 62.3926C60.7862 62.3926 59.2729 63.9018 59.2729 65.7636C59.2729 67.6254 60.7862 69.1346 62.6528 69.1346Z" fill="#FFBE2E"/>
<path d="M30.3454 85.2479C32.2121 85.2479 33.7253 83.7386 33.7253 81.8769C33.7253 80.0151 32.2121 78.5059 30.3454 78.5059C28.4788 78.5059 26.9656 80.0151 26.9656 81.8769C26.9656 83.7386 28.4788 85.2479 30.3454 85.2479Z" fill="#FFBE2E"/>
<path d="M46.4965 85.2479C48.3632 85.2479 49.8764 83.7386 49.8764 81.8769C49.8764 80.0151 48.3632 78.5059 46.4965 78.5059C44.6299 78.5059 43.1167 80.0151 43.1167 81.8769C43.1167 83.7386 44.6299 85.2479 46.4965 85.2479Z" fill="#FFBE2E"/>
<path d="M62.6528 85.2479C64.5194 85.2479 66.0326 83.7386 66.0326 81.8769C66.0326 80.0151 64.5194 78.5059 62.6528 78.5059C60.7862 78.5059 59.2729 80.0151 59.2729 81.8769C59.2729 83.7386 60.7862 85.2479 62.6528 85.2479Z" fill="#FFBE2E"/>
<path d="M30.3454 101.358C32.2121 101.358 33.7253 99.849 33.7253 97.9872C33.7253 96.1255 32.2121 94.6162 30.3454 94.6162C28.4788 94.6162 26.9656 96.1255 26.9656 97.9872C26.9656 99.849 28.4788 101.358 30.3454 101.358Z" fill="#FFBE2E"/>
<path d="M46.4965 101.358C48.3632 101.358 49.8764 99.849 49.8764 97.9872C49.8764 96.1255 48.3632 94.6162 46.4965 94.6162C44.6299 94.6162 43.1167 96.1255 43.1167 97.9872C43.1167 99.849 44.6299 101.358 46.4965 101.358Z" fill="#FFBE2E"/>
<path d="M62.6528 101.358C64.5194 101.358 66.0326 99.849 66.0326 97.9872C66.0326 96.1255 64.5194 94.6162 62.6528 94.6162C60.7862 94.6162 59.2729 96.1255 59.2729 97.9872C59.2729 99.849 60.7862 101.358 62.6528 101.358Z" fill="#FFBE2E"/>
<path d="M132.6 53.25H75.2V110.5H132.6V53.25Z" fill="#FF750F"/>
<path d="M107.086 98.3976C116.232 96.641 122.219 87.8222 120.457 78.7003C118.696 69.5785 109.854 63.6077 100.709 65.3643C91.5628 67.1209 85.5764 75.9397 87.3376 85.0615C89.0988 94.1834 97.9407 100.154 107.086 98.3976Z" fill="#1B1B5E"/>
<path d="M17.7999 53.25H-39.6001V110.5H17.7999V53.25Z" fill="#1B1B5E"/>
<path d="M17.7999 53.25C-13.9017 53.25 -39.6001 78.8812 -39.6001 110.5H17.7999V53.25Z" fill="#FF750F"/>
<path d="M132.602 110.5H75.2024V167.75H132.602V110.5Z" fill="#1B1B5E"/>
<path d="M106.767 110.5H101.035V167.75H106.767V110.5Z" fill="#FFBE2E"/>
<path d="M122.938 110.5H117.206V167.75H122.938V110.5Z" fill="#FFBE2E"/>
<path d="M90.5982 110.5H84.8662V167.75H90.5982V110.5Z" fill="#FFBE2E"/>
<path d="M17.7999 110.5H-39.6001V167.75H17.7999V110.5Z" fill="#FFBE2E"/>
<path d="M-4.42529 132.126L9.06538 118.671V132.126H-4.42529Z" fill="#FF750F"/>
<path d="M75.2 110.5H17.8V167.75H75.2V110.5Z" fill="#95D0E5"/>
</g>
</g>
<defs>
<clipPath id="clip0_850_57366">
<rect width="122" height="122" rx="61" fill="white"/>
</clipPath>
<clipPath id="clip1_850_57366">
<rect width="287" height="229" fill="white" transform="translate(-97 -4)"/>
</clipPath>
</defs>
</svg>
