<svg width="136" height="40" viewBox="0 0 136 40" fill="none" xmlns="http://www.w3.org/2000/svg">
<path d="M130.5 2.38419e-06H5.5C2.75 2.38419e-06 0.5 2.25 0.5 5V35C0.5 37.75 2.75 40 5.5 40H130.5C133.25 40 135.5 37.75 135.5 35V5C135.5 2.25 133.25 2.38419e-06 130.5 2.38419e-06ZM130.5 0.800002C132.816 0.800002 134.7 2.6844 134.7 5V35C134.7 37.316 132.816 39.2004 130.5 39.2004H5.5C3.1844 39.2004 1.3 37.316 1.3 35V5C1.3 2.6844 3.1844 0.800002 5.5 0.800002H130.5Z" fill="#BED1FF"/>
<path d="M107.436 20H109.302V7.49877H107.436V20ZM124.243 12.002L122.104 17.4219H122.04L119.82 12.002H117.81L121.139 19.5773L119.241 23.791H121.188L126.318 12.002H124.243ZM113.661 18.5801C113.049 18.5801 112.197 18.2746 112.197 17.5184C112.197 16.5535 113.259 16.1836 114.175 16.1836C114.996 16.1836 115.381 16.3605 115.88 16.602C115.735 17.7598 114.738 18.5801 113.661 18.5801ZM113.886 11.7285C112.535 11.7285 111.136 12.3238 110.557 13.6426L112.213 14.334C112.567 13.6426 113.226 13.4172 113.918 13.4172C114.883 13.4172 115.864 13.9965 115.88 15.0258V15.1543C115.542 14.9613 114.819 14.6719 113.934 14.6719C112.149 14.6719 110.331 15.6527 110.331 17.4863C110.331 19.159 111.795 20.2367 113.435 20.2367C114.69 20.2367 115.381 19.6738 115.816 19.0145H115.88V19.9793H117.681V15.1863C117.681 12.9672 116.025 11.7285 113.886 11.7285ZM102.354 13.5238H99.7002V9.23867H102.354C103.749 9.23867 104.541 10.3937 104.541 11.3812C104.541 12.35 103.749 13.5238 102.354 13.5238ZM102.306 7.49877H97.8352V20H99.7002V15.2637H102.306C104.374 15.2637 106.407 13.7664 106.407 11.3812C106.407 8.99607 104.374 7.49877 102.306 7.49877ZM77.9252 18.5824C76.6361 18.5824 75.5568 17.5031 75.5568 16.0207C75.5568 14.5227 76.6361 13.427 77.9252 13.427C79.1979 13.427 80.1967 14.5227 80.1967 16.0207C80.1967 17.5031 79.1979 18.5824 77.9252 18.5824ZM80.0678 12.702H80.0033C79.5846 12.2027 78.7787 11.7516 77.7639 11.7516C75.6373 11.7516 73.6881 13.6203 73.6881 16.0207C73.6881 18.4051 75.6373 20.2578 77.7639 20.2578C78.7787 20.2578 79.5846 19.8066 80.0033 19.2914H80.0678V19.9035C80.0678 21.5309 79.1979 22.4008 77.7963 22.4008C76.6525 22.4008 75.9436 21.5789 75.6533 20.8863L74.0264 21.5629C74.4936 22.6906 75.7342 24.0762 77.7963 24.0762C79.9873 24.0762 81.84 22.7871 81.84 19.6457V12.0094H80.0678V12.702ZM83.1287 20H84.9975V7.49837H83.1287V20ZM87.7525 15.8758C87.7041 14.2324 89.0252 13.3949 89.9756 13.3949C90.7172 13.3949 91.3452 13.7652 91.5542 14.2973L87.7525 15.8758ZM93.5522 14.4582C93.1982 13.5074 92.1182 11.7516 89.9111 11.7516C87.7201 11.7516 85.8998 13.4754 85.8998 16.0047C85.8998 18.3891 87.7041 20.2578 90.1205 20.2578C92.0702 20.2578 93.1982 19.0656 93.6652 18.373L92.2152 17.4062C91.7322 18.1152 91.0712 18.5824 90.1205 18.5824C89.1701 18.5824 88.4936 18.1473 88.0584 17.2937L93.7452 14.9414L93.5522 14.4582ZM48.244 13.0566V14.8609H52.5615C52.4326 15.8758 52.0943 16.6168 51.5787 17.1324C50.9506 17.7609 49.9678 18.4535 48.244 18.4535C45.5857 18.4535 43.5076 16.3109 43.5076 13.6527C43.5076 10.9945 45.5857 8.85157 48.244 8.85157C49.6779 8.85157 50.7248 9.41557 51.4982 10.1406L52.7709 8.86797C51.6916 7.83667 50.2576 7.04727 48.244 7.04727C44.6029 7.04727 41.542 10.0117 41.542 13.6527C41.542 17.2937 44.6029 20.2578 48.244 20.2578C50.2096 20.2578 51.6916 19.6137 52.8514 18.4051C54.0436 17.2129 54.4143 15.5375 54.4143 14.1844C54.4143 13.7652 54.3822 13.3789 54.3174 13.0566H48.244ZM59.3229 18.5824C58.0338 18.5824 56.9221 17.5191 56.9221 16.0047C56.9221 14.4742 58.0338 13.427 59.3229 13.427C60.6115 13.427 61.7232 14.4742 61.7232 16.0047C61.7232 17.5191 60.6115 18.5824 59.3229 18.5824ZM59.3229 11.7516C56.9705 11.7516 55.0533 13.5398 55.0533 16.0047C55.0533 18.4535 56.9705 20.2578 59.3229 20.2578C61.6748 20.2578 63.592 18.4535 63.592 16.0047C63.592 13.5398 61.6748 11.7516 59.3229 11.7516ZM68.6361 18.5824C67.3475 18.5824 66.2357 17.5191 66.2357 16.0047C66.2357 14.4742 67.3475 13.427 68.6361 13.427C69.9248 13.427 71.0365 14.4742 71.0365 16.0047C71.0365 17.5191 69.9248 18.5824 68.6361 18.5824ZM68.6361 11.7516C66.2838 11.7516 64.367 13.5398 64.367 16.0047C64.367 18.4535 66.2838 20.2578 68.6361 20.2578C70.9881 20.2578 72.9053 18.4535 72.9053 16.0047C72.9053 13.5398 70.9881 11.7516 68.6361 11.7516Z" fill="#323232"/>
<path d="M11.0098 32.3896L10.9355 32.3185C10.6445 32.0106 10.4727 31.5325 10.4727 30.9134V31.0591V8.94315C10.4727 8.94115 10.4727 8.93965 10.4727 8.93805C10.4727 8.93995 10.4727 8.94155 10.4727 8.94355V9.08965C10.4727 8.41925 10.673 7.91425 11.0086 7.61145L23.3984 20.0009L11.0098 32.3896ZM10.4727 8.93685C10.4727 8.88175 10.4742 8.82825 10.477 8.77555C10.4742 8.82785 10.4727 8.88175 10.4727 8.93685ZM10.477 8.77315C10.477 8.77245 10.477 8.77165 10.4773 8.77085C10.477 8.77165 10.477 8.77245 10.477 8.77315ZM10.4773 8.76615C10.4773 8.76575 10.4773 8.76535 10.4773 8.76495C10.4773 8.76535 10.4773 8.76575 10.4773 8.76615Z" fill="url(#paint0_linear_1453_95448)"/>
<path d="M27.5277 24.2783L27.6219 24.2248L32.5148 21.4447C32.9813 21.1795 33.2922 20.858 33.4473 20.5178C33.2926 20.858 32.9816 21.1799 32.5148 21.4451L27.6219 24.2252L27.5277 24.2783ZM27.5289 24.1318L23.3984 20.0006L27.5285 15.8701L32.5148 18.7029C33.148 19.0627 33.5035 19.5264 33.5629 20.0002C33.5629 20.0006 33.5629 20.0014 33.5629 20.0021C33.5035 20.4748 33.148 20.9389 32.5148 21.2986L27.5289 24.1318Z" fill="url(#paint1_linear_1453_95448)"/>
<path d="M11.8936 32.8613C11.5475 32.8613 11.2455 32.7488 11.01 32.5363L11.0104 32.5359C11.2459 32.7484 11.5483 32.8613 11.8944 32.8613C11.9244 32.8613 11.9549 32.8605 11.9858 32.859C11.9545 32.8605 11.9236 32.8613 11.8936 32.8613ZM11.894 32.7148C11.5479 32.7152 11.2459 32.6023 11.0104 32.3898V32.3895L23.399 20.0008L27.5295 24.132L13.0143 32.3793C12.6127 32.607 12.2322 32.7148 11.894 32.7148ZM11.0069 32.5336C10.985 32.5137 10.9635 32.4926 10.9424 32.4707L11.0069 32.5336Z" fill="url(#paint2_linear_1453_95448)"/>
<path d="M23.3986 20.001L11.0088 7.61148C11.2443 7.39938 11.5459 7.28688 11.8916 7.28688C12.2307 7.28688 12.6115 7.39508 13.0139 7.62318L27.5287 15.8705L23.3986 20.001ZM27.6221 15.7772L13.0139 7.47718C12.6115 7.24898 12.2307 7.14078 11.8916 7.14078C11.89 7.14078 11.8889 7.14078 11.8873 7.14078C11.8893 7.14078 11.8908 7.14078 11.8932 7.14078C12.2315 7.14078 12.6119 7.24858 13.0139 7.47678L27.6221 15.7772Z" fill="url(#paint3_linear_1453_95448)"/>
<path d="M11.9852 32.8589C12.2996 32.8409 12.6477 32.7327 13.0137 32.5253L27.5277 24.2784L13.0137 32.5253C12.648 32.7331 12.2996 32.8409 11.9852 32.8589ZM11.0094 32.5362L11.0063 32.5335C11.0074 32.5343 11.0086 32.5354 11.0094 32.5362ZM10.9418 32.4706L10.9355 32.4644V32.464C10.9379 32.4663 10.9398 32.4686 10.9418 32.4706Z" fill="#F8FAFF"/>
<path d="M27.5273 24.2783L27.6215 24.2248L27.5273 24.2783Z" fill="url(#paint4_linear_1453_95448)"/>
<path d="M11.8938 32.8613C11.5477 32.8613 11.2453 32.7484 11.0098 32.5359L11.0094 32.5363C11.0086 32.5355 11.0074 32.5344 11.0063 32.5336L10.9418 32.4707C10.9398 32.4687 10.9379 32.4664 10.9355 32.4641L11.0098 32.3898C11.2453 32.6023 11.5473 32.7152 11.8934 32.7148C12.2316 32.7148 12.6121 32.607 13.0137 32.3793L27.5289 24.132L27.6219 24.225L27.5277 24.2785L13.0137 32.5254C12.6477 32.7328 12.2996 32.841 11.9852 32.859C11.9543 32.8605 11.9238 32.8613 11.8938 32.8613Z" fill="url(#paint5_linear_1453_95448)"/>
<path d="M10.9355 32.4644C10.6445 32.1565 10.4727 31.6784 10.4727 31.0593V31.0589C10.4727 31.6784 10.6445 32.1561 10.9355 32.464V32.4644Z" fill="#F8FAFF"/>
<path d="M10.9355 32.4639C10.6445 32.156 10.4727 31.6783 10.4727 31.0588V30.9131C10.4727 31.5322 10.6445 32.0103 10.9355 32.3182L11.0098 32.3893L10.9355 32.4639Z" fill="url(#paint6_linear_1453_95448)"/>
<path d="M10.9355 32.4639L11.0098 32.3893V32.3896L10.9355 32.4639Z" fill="url(#paint7_linear_1453_95448)"/>
<path d="M33.4473 20.5181C33.5242 20.3493 33.5629 20.1759 33.5629 20.0024C33.5629 20.0021 33.5629 20.0017 33.5629 20.0017C33.5629 20.1755 33.5242 20.3489 33.4473 20.5181Z" fill="#F8FAFF"/>
<path d="M27.6223 24.2251L27.5293 24.1321L32.5152 21.2989C33.1484 20.9392 33.5039 20.4751 33.5633 20.0024C33.5633 20.1759 33.5246 20.3493 33.4477 20.5181C33.2926 20.8583 32.9817 21.1798 32.5152 21.445L27.6223 24.2251Z" fill="url(#paint8_linear_1453_95448)"/>
<path d="M33.5635 20.001V20.0006C33.5631 19.4775 33.2135 18.9545 32.5154 18.5576L27.6225 15.7775H27.6221L27.6225 15.7772L32.5154 18.5572C33.2143 18.9541 33.5643 19.4779 33.5635 20.001Z" fill="#404040"/>
<path d="M33.5627 20.0005C33.5033 19.5267 33.1478 19.063 32.5146 18.7032L27.5283 15.8704L27.6213 15.7774H27.6217L32.5146 18.5575C33.2127 18.9544 33.5623 19.4774 33.5627 20.0005Z" fill="url(#paint9_linear_1453_95448)"/>
<path d="M10.4727 8.93799C10.4727 8.93759 10.4727 8.93719 10.4727 8.93679C10.4727 8.93719 10.4727 8.93759 10.4727 8.93799ZM10.477 8.77549C10.477 8.77469 10.477 8.77389 10.477 8.77309C10.477 8.77389 10.477 8.77469 10.477 8.77549ZM10.4773 8.77079C10.4773 8.76919 10.4773 8.76769 10.4773 8.76609C10.4773 8.76769 10.4773 8.76919 10.4773 8.77079ZM10.4773 8.76489C10.5352 7.73759 11.0938 7.14419 11.884 7.14069C11.5414 7.14269 11.243 7.25519 11.0094 7.46569V7.46529L11.0066 7.46809C10.982 7.49029 10.9586 7.51379 10.9355 7.53799C10.673 7.81569 10.5074 8.23169 10.4773 8.76489Z" fill="#404040"/>
<path d="M10.4727 9.08936V8.94326C10.4727 8.94126 10.4727 8.93966 10.4727 8.93776C10.4727 8.93736 10.4727 8.93696 10.4727 8.93656C10.4727 8.88146 10.4742 8.82756 10.477 8.77526C10.477 8.77446 10.477 8.77366 10.477 8.77286C10.477 8.77216 10.477 8.77136 10.4773 8.77056C10.4773 8.76896 10.4773 8.76746 10.4773 8.76586C10.4773 8.76546 10.4773 8.76506 10.4773 8.76466C10.5074 8.23146 10.673 7.81545 10.9355 7.53775L11.0086 7.61116C10.673 7.91396 10.4727 8.41895 10.4727 9.08936ZM11.0066 7.46785L11.0094 7.46506C11.0086 7.46626 11.0074 7.46705 11.0066 7.46785Z" fill="url(#paint10_linear_1453_95448)"/>
<path d="M27.5285 15.8701L13.0137 7.62282C12.6113 7.39472 12.2305 7.28652 11.8914 7.28652C11.5457 7.28652 11.2441 7.39902 11.0086 7.61112L10.9355 7.53772C10.9586 7.51352 10.982 7.49002 11.0066 7.46782C11.0074 7.46702 11.0086 7.46622 11.0094 7.46542C11.243 7.25492 11.5414 7.14242 11.884 7.14042C11.8848 7.14042 11.8859 7.14042 11.8871 7.14042C11.8887 7.14042 11.8898 7.14042 11.8914 7.14042C12.2305 7.14042 12.6113 7.24862 13.0137 7.47682L27.6219 15.7768L27.6215 15.7771L27.5285 15.8701Z" fill="url(#paint11_linear_1453_95448)"/>
<path d="M46.291 26.0015V32H48.3608C48.9526 32 49.4448 31.8843 49.8374 31.6528C50.2329 31.4185 50.5288 31.0771 50.7251 30.6289C50.9214 30.1807 51.0195 29.6357 51.0195 28.9941C51.0195 28.3496 50.9214 27.8062 50.7251 27.3638C50.5317 26.9185 50.2373 26.5801 49.8418 26.3486C49.4492 26.1172 48.9556 26.0015 48.3608 26.0015H46.291ZM47.2886 26.8408H48.251C48.6465 26.8408 48.9731 26.9214 49.231 27.0825C49.4888 27.2407 49.6807 27.481 49.8066 27.8032C49.9326 28.1255 49.9956 28.5269 49.9956 29.0073C49.9956 29.3677 49.959 29.6826 49.8857 29.9521C49.8154 30.2188 49.7085 30.4429 49.5649 30.6245C49.4243 30.8032 49.2441 30.938 49.0244 31.0288C48.8047 31.1167 48.5469 31.1606 48.251 31.1606H47.2886V26.8408ZM56.0293 31.1606H53.2783V29.3545H55.8667V28.5503H53.2783V26.8408H56.0293V26.0015H52.2852V32H56.0293V31.1606ZM58.376 32V27.6802H58.4155L61.2236 32H62.0981V26.0015H61.1401V30.3081H61.0962L58.2969 26.0015H57.418V32H58.376ZM66.7036 32V26.0015H65.7061V32H66.7036ZM65.6885 24.938C65.6885 25.0815 65.7383 25.2046 65.8379 25.3071C65.9404 25.4067 66.0635 25.4565 66.207 25.4565C66.3506 25.4565 66.4722 25.4067 66.5718 25.3071C66.6743 25.2046 66.7256 25.0815 66.7256 24.938C66.7256 24.7974 66.6743 24.6758 66.5718 24.5732C66.4722 24.4707 66.3506 24.4194 66.207 24.4194C66.0635 24.4194 65.9404 24.4707 65.8379 24.5732C65.7383 24.6758 65.6885 24.7974 65.6885 24.938ZM69.248 32V27.6802H69.2876L72.0957 32H72.9702V26.0015H72.0122V30.3081H71.9683L69.1689 26.0015H68.29V32H69.248ZM74.5566 26.0015V32H76.6265C77.2183 32 77.7104 31.8843 78.103 31.6528C78.4985 31.4185 78.7944 31.0771 78.9907 30.6289C79.187 30.1807 79.2852 29.6357 79.2852 28.9941C79.2852 28.3496 79.187 27.8062 78.9907 27.3638C78.7974 26.9185 78.5029 26.5801 78.1074 26.3486C77.7148 26.1172 77.2212 26.0015 76.6265 26.0015H74.5566ZM75.5542 26.8408H76.5166C76.9121 26.8408 77.2388 26.9214 77.4966 27.0825C77.7544 27.2407 77.9463 27.481 78.0723 27.8032C78.1982 28.1255 78.2612 28.5269 78.2612 29.0073C78.2612 29.3677 78.2246 29.6826 78.1514 29.9521C78.0811 30.2188 77.9741 30.4429 77.8306 30.6245C77.6899 30.8032 77.5098 30.938 77.29 31.0288C77.0703 31.1167 76.8125 31.1606 76.5166 31.1606H75.5542V26.8408ZM81.5483 32V26.0015H80.5508V32H81.5483ZM80.5332 24.938C80.5332 25.0815 80.583 25.2046 80.6826 25.3071C80.7852 25.4067 80.9082 25.4565 81.0518 25.4565C81.1953 25.4565 81.3169 25.4067 81.4165 25.3071C81.519 25.2046 81.5703 25.0815 81.5703 24.938C81.5703 24.7974 81.519 24.6758 81.4165 24.5732C81.3169 24.4707 81.1953 24.4194 81.0518 24.4194C80.9082 24.4194 80.7852 24.4707 80.6826 24.5732C80.583 24.6758 80.5332 24.7974 80.5332 24.938ZM85.4287 26.0015H83.1348V32H84.1191V29.6929H85.3628L86.4395 32H87.5601L86.3472 29.5259C86.5493 29.4497 86.7339 29.334 86.9009 29.1787C87.0679 29.0234 87.2012 28.8345 87.3008 28.6118C87.4004 28.3862 87.4502 28.1313 87.4502 27.8472C87.4502 27.4751 87.3696 27.1514 87.2085 26.876C87.0474 26.5977 86.8159 26.3823 86.5142 26.23C86.2124 26.0776 85.8506 26.0015 85.4287 26.0015ZM84.1191 28.9019V26.8188H85.2881C85.6367 26.8188 85.9121 26.9111 86.1143 27.0957C86.3193 27.2773 86.4219 27.5396 86.4219 27.8823C86.4219 28.2192 86.3208 28.4741 86.1187 28.647C85.9165 28.8169 85.6309 28.9019 85.2617 28.9019H84.1191Z" fill="#323232"/>
<rect x="43.5" y="26" width="1" height="3" fill="#F8FAFF"/>
<rect x="42.5" y="26" width="1" height="3" fill="#323232"/>
<defs>
<linearGradient id="paint0_linear_1453_95448" x1="22.2998" y1="8.70985" x2="5.51726" y2="25.4924" gradientUnits="userSpaceOnUse">
<stop stop-color="#00A0FF"/>
<stop offset="0.00657445" stop-color="#00A1FF"/>
<stop offset="0.2601" stop-color="#00BEFF"/>
<stop offset="0.5122" stop-color="#00D2FF"/>
<stop offset="0.7604" stop-color="#00DFFF"/>
<stop offset="1" stop-color="#00E3FF"/>
</linearGradient>
<linearGradient id="paint1_linear_1453_95448" x1="34.3344" y1="20.0012" x2="10.1374" y2="20.0012" gradientUnits="userSpaceOnUse">
<stop stop-color="#FFE000"/>
<stop offset="0.4087" stop-color="#FFBD00"/>
<stop offset="0.7754" stop-color="#FFA500"/>
<stop offset="1" stop-color="#FF9C00"/>
</linearGradient>
<linearGradient id="paint2_linear_1453_95448" x1="25.3276" y1="22.2961" x2="2.56928" y2="45.0544" gradientUnits="userSpaceOnUse">
<stop stop-color="#FF3A44"/>
<stop offset="1" stop-color="#C31162"/>
</linearGradient>
<linearGradient id="paint3_linear_1453_95448" x1="7.79749" y1="0.17638" x2="17.96" y2="10.3389" gradientUnits="userSpaceOnUse">
<stop stop-color="#32A071"/>
<stop offset="0.0685" stop-color="#2DA771"/>
<stop offset="0.4762" stop-color="#15CF74"/>
<stop offset="0.8009" stop-color="#06E775"/>
<stop offset="1" stop-color="#00F076"/>
</linearGradient>
<linearGradient id="paint4_linear_1453_95448" x1="34.3338" y1="20.0011" x2="10.1377" y2="20.0011" gradientUnits="userSpaceOnUse">
<stop stop-color="#CCB300"/>
<stop offset="0.4087" stop-color="#CC9700"/>
<stop offset="0.7754" stop-color="#CC8400"/>
<stop offset="1" stop-color="#CC7D00"/>
</linearGradient>
<linearGradient id="paint5_linear_1453_95448" x1="25.327" y1="22.2961" x2="2.56874" y2="45.0544" gradientUnits="userSpaceOnUse">
<stop stop-color="#CC2E36"/>
<stop offset="1" stop-color="#9C0E4E"/>
</linearGradient>
<linearGradient id="paint6_linear_1453_95448" x1="22.2998" y1="8.70946" x2="5.51725" y2="25.492" gradientUnits="userSpaceOnUse">
<stop stop-color="#008DE0"/>
<stop offset="0.00657445" stop-color="#008DE0"/>
<stop offset="0.2601" stop-color="#00A7E0"/>
<stop offset="0.5122" stop-color="#00B8E0"/>
<stop offset="0.7604" stop-color="#00C4E0"/>
<stop offset="1" stop-color="#00C7E0"/>
</linearGradient>
<linearGradient id="paint7_linear_1453_95448" x1="25.3272" y1="22.2964" x2="2.56999" y2="45.0549" gradientUnits="userSpaceOnUse">
<stop stop-color="#E0333C"/>
<stop offset="1" stop-color="#AB0F56"/>
</linearGradient>
<linearGradient id="paint8_linear_1453_95448" x1="34.3348" y1="20.0015" x2="10.1378" y2="20.0015" gradientUnits="userSpaceOnUse">
<stop stop-color="#E0C500"/>
<stop offset="0.4087" stop-color="#E0A600"/>
<stop offset="0.7754" stop-color="#E09100"/>
<stop offset="1" stop-color="#E08900"/>
</linearGradient>
<linearGradient id="paint9_linear_1453_95448" x1="34.3342" y1="20.0015" x2="10.1372" y2="20.0015" gradientUnits="userSpaceOnUse">
<stop stop-color="#FFE840"/>
<stop offset="0.4087" stop-color="#FFCE40"/>
<stop offset="0.7754" stop-color="#FFBC40"/>
<stop offset="1" stop-color="#FFB540"/>
</linearGradient>
<linearGradient id="paint10_linear_1453_95448" x1="22.2997" y1="8.70956" x2="5.51724" y2="25.492" gradientUnits="userSpaceOnUse">
<stop stop-color="#40B8FF"/>
<stop offset="0.00657445" stop-color="#40B9FF"/>
<stop offset="0.2601" stop-color="#40CEFF"/>
<stop offset="0.5122" stop-color="#40DDFF"/>
<stop offset="0.7604" stop-color="#40E7FF"/>
<stop offset="1" stop-color="#40EAFF"/>
</linearGradient>
<linearGradient id="paint11_linear_1453_95448" x1="7.79735" y1="0.176016" x2="17.9598" y2="10.3385" gradientUnits="userSpaceOnUse">
<stop stop-color="#65B895"/>
<stop offset="0.0685" stop-color="#62BD95"/>
<stop offset="0.4762" stop-color="#50DB97"/>
<stop offset="0.8009" stop-color="#44ED98"/>
<stop offset="1" stop-color="#40F498"/>
</linearGradient>
</defs>
</svg>
