<svg width="16" height="15" viewBox="0 0 16 15" fill="none" xmlns="http://www.w3.org/2000/svg"><path d="M4.474 15a4.474 4.474 0 0 1-4.468-4.468V4.469A4.473 4.473 0 0 1 4.474 0h6.063a4.474 4.474 0 0 1 4.469 4.469v6.063A4.474 4.474 0 0 1 10.536 15H4.475ZM1.514 4.469v6.063a2.96 2.96 0 0 0 2.96 2.96h6.064a2.96 2.96 0 0 0 2.96-2.96V4.469a2.96 2.96 0 0 0-2.96-2.96H4.474a2.96 2.96 0 0 0-2.96 2.96ZM3.627 7.5a3.879 3.879 0 1 1 7.758.002A3.879 3.879 0 0 1 3.626 7.5Zm1.509 0a2.371 2.371 0 1 0 4.742.002A2.371 2.371 0 0 0 5.135 7.5Zm5.328-3.85a.93.93 0 1 1 1.86-.002.93.93 0 0 1-1.86.002Z" fill="#687CA3"/></svg>