<svg width="18" height="15" viewBox="0 0 18 15" fill="none" xmlns="http://www.w3.org/2000/svg"><path d="M2.63 14.2a3.336 3.336 0 0 1-2.292-2.416 23.822 23.822 0 0 1 0-8A3.345 3.345 0 0 1 2.63 1.368a47.042 47.042 0 0 1 11.841 0 3.333 3.333 0 0 1 2.288 2.416 23.578 23.578 0 0 1 0 8 3.326 3.326 0 0 1-2.288 2.412 47.01 47.01 0 0 1-11.84 0v.004Zm.41-11.385a1.843 1.843 0 0 0-1.252 1.332 23.119 23.119 0 0 0 0 7.277 1.845 1.845 0 0 0 1.251 1.332 48.01 48.01 0 0 0 11.022 0 1.835 1.835 0 0 0 1.247-1.332c.39-2.41.39-4.866 0-7.277a1.834 1.834 0 0 0-1.247-1.332 48.005 48.005 0 0 0-11.022 0Zm3.745 2.326 4.399 2.641-4.4 2.647V5.14Z" fill="#687CA3"/></svg>