<svg width="24" height="24" viewBox="0 0 24 24" fill="none" xmlns="http://www.w3.org/2000/svg">
<path d="M23.6396 14.9029C22.0369 21.3315 15.5258 25.2438 9.09638 23.6407C2.66967 22.038 -1.24267 15.5265 0.360725 9.09837C1.96271 2.66903 8.47387 -1.24361 14.9013 0.359081C21.3302 1.96177 25.2423 8.47404 23.6394 14.903L23.6396 14.9029H23.6396Z" fill="#F7931A"/>
<path d="M17.2915 10.2903C17.5303 8.6934 16.3145 7.83498 14.652 7.26233L15.1913 5.09914L13.8745 4.77103L13.3495 6.87726C13.0033 6.79092 12.6478 6.70957 12.2945 6.62892L12.8233 4.50878L11.5073 4.18066L10.9677 6.34315C10.6812 6.27793 10.3999 6.21347 10.1269 6.14554L10.1284 6.13874L8.31252 5.68528L7.96223 7.09171C7.96223 7.09171 8.93919 7.31565 8.9186 7.32943C9.45183 7.46252 9.54826 7.81551 9.53225 8.09529L8.91789 10.5597C8.95461 10.569 9.00224 10.5825 9.05479 10.6036C9.01086 10.5927 8.96411 10.5808 8.91561 10.5692L8.05449 14.0214C7.98933 14.1834 7.82392 14.4266 7.45111 14.3342C7.46431 14.3534 6.49404 14.0954 6.49404 14.0954L5.84027 15.6027L7.55387 16.0299C7.87266 16.1098 8.18506 16.1935 8.4927 16.2721L7.9478 18.4601L9.26308 18.7883L9.8027 16.6235C10.162 16.721 10.5107 16.811 10.8521 16.8958L10.3143 19.0504L11.6312 19.3785L12.176 17.1946C14.4214 17.6196 16.1098 17.4482 16.8205 15.4172C17.3931 13.7821 16.792 12.8389 15.6107 12.2238C16.4711 12.0254 17.1191 11.4595 17.2919 10.2905L17.2915 10.2902L17.2915 10.2903ZM14.2829 14.5091C13.8759 16.1443 11.1228 15.2604 10.2302 15.0387L10.9533 12.14C11.8458 12.3628 14.7082 12.8038 14.2829 14.5091H14.2829ZM14.6901 10.2666C14.3189 11.754 12.0274 10.9984 11.2841 10.8131L11.9397 8.1841C12.683 8.36939 15.0768 8.71522 14.6902 10.2666H14.6901Z" fill="white"/>
</svg>
