<svg width="15" height="12" viewBox="0 0 15 12" fill="none" xmlns="http://www.w3.org/2000/svg"><path d="m7.644 3.078.03.5-.506-.06a8.227 8.227 0 0 1-4.817-2.37L1.684.484l-.172.49A2.947 2.947 0 0 0 2.139 4c.4.43.314.49-.384.235a1.193 1.193 0 0 0-.475-.112c.031.474.155.938.364 1.365.32.565.803 1.022 1.385 1.312l.5.235-.587.01c-.566 0-.587.01-.526.225a3.058 3.058 0 0 0 1.888 1.67l.627.214-.546.327a5.7 5.7 0 0 1-2.711.756 2.996 2.996 0 0 0-.83.081 7.67 7.67 0 0 0 1.952.9 8.547 8.547 0 0 0 6.636-.756A8.881 8.881 0 0 0 12.8 6.5c.38-.981.613-2.014.688-3.064 0-.47.03-.53.6-1.093.256-.243.493-.506.708-.786.1-.194.09-.194-.425-.02-.86.306-.981.266-.556-.194.305-.31.539-.684.684-1.094 0-.03-.152.02-.324.112-.287.14-.584.257-.89.347l-.542.174-.5-.337a4.116 4.116 0 0 0-.86-.445 3.456 3.456 0 0 0-1.77.036 2.924 2.924 0 0 0-1.97 2.942Z" fill="#687CA3"/></svg>