<svg width="64" height="64" viewBox="0 0 64 64" fill="none" xmlns="http://www.w3.org/2000/svg">
<path d="M45.333 58.6663H18.6663C10.6663 58.6663 5.33301 53.9605 5.33301 42.9801V21.0193C5.33301 10.0389 10.6663 5.33301 18.6663 5.33301H45.333C53.333 5.33301 58.6663 10.0389 58.6663 21.0193V42.9801C58.6663 53.9605 53.333 58.6663 45.333 58.6663Z" fill="#388CFF" stroke="#388CFF" stroke-width="1.5" stroke-miterlimit="10" stroke-linecap="round" stroke-linejoin="round"/>
<path d="M25.333 21.0156H37.8253C40.5946 21.0156 42.8407 23.5079 42.8407 26.031C42.8407 28.8003 40.5946 31.0464 37.8253 31.0464H25.333V21.0156Z" stroke="white" stroke-width="1.5" stroke-miterlimit="10" stroke-linecap="round" stroke-linejoin="round"/>
<path d="M25.333 31.0156H39.61C42.7792 31.0156 45.333 33.2618 45.333 36.031C45.333 38.8003 42.7792 41.0464 39.61 41.0464H25.333V31.0156Z" stroke="white" stroke-width="1.5" stroke-miterlimit="10" stroke-linecap="round" stroke-linejoin="round"/>
<path d="M34.0713 41.0156V46.031" stroke="white" stroke-width="1.5" stroke-miterlimit="10" stroke-linecap="round" stroke-linejoin="round"/>
<path d="M27.8252 41.0156V46.031" stroke="white" stroke-width="1.5" stroke-miterlimit="10" stroke-linecap="round" stroke-linejoin="round"/>
<path d="M34.0713 16V21.0154" stroke="white" stroke-width="1.5" stroke-miterlimit="10" stroke-linecap="round" stroke-linejoin="round"/>
<path d="M27.8252 16V21.0154" stroke="white" stroke-width="1.5" stroke-miterlimit="10" stroke-linecap="round" stroke-linejoin="round"/>
<path d="M30.0715 21.0156H21.333" stroke="white" stroke-width="1.5" stroke-miterlimit="10" stroke-linecap="round" stroke-linejoin="round"/>
<path d="M30.0715 41.0156H21.333" stroke="white" stroke-width="1.5" stroke-miterlimit="10" stroke-linecap="round" stroke-linejoin="round"/>
</svg>
