<svg width="64" height="64" viewBox="0 0 64 64" fill="none" xmlns="http://www.w3.org/2000/svg">
<path d="M40 58.6667C38.9067 58.6667 38 57.76 38 56.6667V7.33337C38 6.24004 38.9067 5.33337 40 5.33337C41.0933 5.33337 42 6.24004 42 7.33337V56.6667C42 57.76 41.0933 58.6667 40 58.6667Z" fill="#006CFF"/>
<path opacity="0.4" d="M17.3333 53.3333H33.3333V10.6666H17.3333C11.44 10.6666 6.66663 15.44 6.66663 21.3333V42.6666C6.66663 48.56 11.44 53.3333 17.3333 53.3333Z" fill="#006CFF"/>
<path opacity="0.4" d="M48 53.3333H40V10.6666H48C53.8933 10.6666 58.6667 15.44 58.6667 21.3333V42.6666C58.6667 48.56 53.8933 53.3333 48 53.3333Z" fill="#006CFF"/>
<path d="M14.7943 30.9696L14.8954 30.9359L14.9908 30.8883C15.0111 30.8781 15.0256 30.8726 15.0343 30.8696C15.0387 30.8682 15.0418 30.8673 15.0438 30.8668L15.0459 30.8663L15.0466 30.8662L15.0746 30.8615L15.1024 30.8558C15.499 30.7742 15.8889 30.8997 16.1518 31.1534C16.3768 31.3986 16.5 31.7215 16.5 31.9999C16.5 32.1191 16.4714 32.2698 16.402 32.4364C16.3451 32.5729 16.2675 32.7034 16.1633 32.8299C16.0368 32.9342 15.9062 33.0118 15.7697 33.0687C15.6031 33.1381 15.4524 33.1666 15.3333 33.1666C15.2142 33.1666 15.0634 33.1381 14.8969 33.0687C14.7603 33.0117 14.6297 32.9341 14.5031 32.8298C14.4042 32.7101 14.3131 32.5703 14.2233 32.398C14.1903 32.3033 14.1666 32.1729 14.1666 31.9999C14.1666 31.7392 14.2746 31.4395 14.4731 31.201L14.577 31.1179L14.714 31.0083C14.7544 30.9846 14.7811 30.974 14.7943 30.9696Z" fill="#006CFF" stroke="#006CFF" stroke-width="3"/>
<path d="M24.6667 34.6667C24.32 34.6667 23.9733 34.5867 23.6533 34.4534C23.3333 34.32 23.04 34.1334 22.7733 33.8934C22.2667 33.3867 22 32.72 22 32C22 31.6534 22.08 31.3067 22.2133 30.9867C22.3467 30.64 22.5333 30.3734 22.7733 30.1067C23.76 29.12 25.5467 29.12 26.56 30.1067C27.04 30.6134 27.3333 31.3067 27.3333 32C27.3333 32.3467 27.2533 32.6934 27.12 33.0134C26.9867 33.3334 26.8 33.6267 26.56 33.8934C26.2933 34.1334 26 34.32 25.68 34.4534C25.36 34.5867 25.0133 34.6667 24.6667 34.6667Z" fill="#006CFF"/>
</svg>
