<svg width="64" height="64" viewBox="0 0 64 64" fill="none" xmlns="http://www.w3.org/2000/svg">
<path d="M39.9997 5.33301H23.9997C10.6663 5.33301 5.33301 10.6663 5.33301 23.9997V39.9997C5.33301 50.0797 8.37301 55.5997 15.6263 57.653C16.213 50.7197 23.333 45.2529 31.9997 45.2529C40.6663 45.2529 47.7863 50.7197 48.373 57.653C55.6263 55.5997 58.6663 50.0797 58.6663 39.9997V23.9997C58.6663 10.6663 53.333 5.33301 39.9997 5.33301ZM31.9997 37.7863C26.7197 37.7863 22.453 33.4931 22.453 28.2131C22.453 22.9331 26.7197 18.6663 31.9997 18.6663C37.2797 18.6663 41.5463 22.9331 41.5463 28.2131C41.5463 33.4931 37.2797 37.7863 31.9997 37.7863Z" fill="#388CFF" stroke="#388CFF" stroke-width="1.5" stroke-linecap="round" stroke-linejoin="round"/>
<path d="M48.3736 57.653C46.0269 58.3463 43.2536 58.6663 40.0003 58.6663H24.0003C20.747 58.6663 17.9736 58.3463 15.627 57.653C16.2136 50.7197 23.3336 45.2529 32.0003 45.2529C40.667 45.2529 47.7869 50.7197 48.3736 57.653Z" fill="white" stroke="#388CFF" stroke-width="1.5" stroke-linecap="round" stroke-linejoin="round"/>
<path d="M41.5465 28.2137C41.5465 33.4937 37.2798 37.7869 31.9998 37.7869C26.7198 37.7869 22.4531 33.4937 22.4531 28.2137C22.4531 22.9337 26.7198 18.667 31.9998 18.667C37.2798 18.667 41.5465 22.9337 41.5465 28.2137Z" fill="white" stroke="#388CFF" stroke-width="1.5" stroke-linecap="round" stroke-linejoin="round"/>
<path d="M50.6137 14.5605H42.667" stroke="white" stroke-width="1.5" stroke-miterlimit="10" stroke-linecap="round" stroke-linejoin="round"/>
<path d="M46.6406 10.667V18.6403" stroke="white" stroke-width="1.5" stroke-miterlimit="10" stroke-linecap="round" stroke-linejoin="round"/>
</svg>
